<svg width="44" height="45" viewBox="0 0 44 45" fill="none" xmlns="http://www.w3.org/2000/svg">
<path d="M42 42V40.9914V22C42 10.9543 33.0256 2 21.9799 2C10.9564 2 2 10.9363 2 21.9599C2 32.9834 10.9363 41.9197 21.9599 41.9197H25.5H35.5484L42 42Z" fill="#1E53FF"/>
<path d="M42 42V40.9914M42 42L35.5484 41.9197H25.5H21.9599C10.9363 41.9197 2 32.9834 2 21.9599V21.9599C2 10.9363 10.9564 2 21.9799 2V2C33.0256 2 42 10.9543 42 22V42Z" stroke="#1E53FF" stroke-width="4"/>
<circle cx="22" cy="22" r="17" fill="white"/>
</svg>
