<svg width="20" height="20" viewBox="0 0 20 20" fill="none" xmlns="http://www.w3.org/2000/svg">
<g clip-path="url(#clip0)">
<path d="M18.9564 1.29671C18.6832 1.03328 18.3101 0.887887 17.906 0.887887C17.4521 0.887887 16.9948 1.07222 16.6442 1.39504L15.1393 2.57199L15.0808 2.62325C14.748 2.94336 14.6171 3.39309 14.6976 3.84603L11.1895 7.12823L10.6008 6.63734C11.0228 5.04713 10.9709 2.92882 9.54763 1.55744C8.50545 0.553235 7.17197 0 5.79323 0C5.24516 0 4.70348 0.0882219 4.18303 0.261955C3.94468 0.341552 3.76207 0.528838 3.69481 0.763193C3.62755 0.997548 3.68407 1.24841 3.8457 1.43496L5.73645 3.61242L5.64336 5.01288L4.07204 5.18562L1.82886 3.37732C1.63526 3.22108 1.37465 3.16662 1.13144 3.23193C0.888218 3.29699 0.693849 3.47294 0.611242 3.70261C-0.00153288 5.40766 0.538353 7.24405 2.09254 8.74062C2.92986 9.54792 4.13546 9.9745 5.5784 9.9745C5.68402 9.9745 5.79042 9.96932 5.89681 9.96439C5.84336 10.0092 5.78965 10.0536 5.73901 10.1024L1.42887 14.2552C0.232222 15.4083 0.232222 17.2841 1.42887 18.4371L2.15187 19.1338C2.7314 19.6925 3.50223 20 4.32191 20C5.14158 20 5.91241 19.6925 6.49194 19.1338L10.8018 14.9807C11.0407 14.7508 11.2287 14.4923 11.3703 14.216L15.1987 18.4783C15.2109 18.4918 15.2237 18.5047 15.2365 18.5175C15.6657 18.9307 16.3096 19.1584 17.0508 19.1584C17.9513 19.1584 18.8653 18.8171 19.4359 18.2676C20.439 17.3011 20.7551 15.2446 19.6947 14.2222C19.6812 14.2096 19.6681 14.1973 19.6541 14.1862L14.08 9.53905L17.2958 6.34803C17.3843 6.36257 17.4728 6.36972 17.562 6.36972C17.9472 6.36972 18.3027 6.23098 18.5635 5.97987L19.8382 4.47344C20.13 4.1797 20.3126 3.80931 20.3551 3.42587C20.4044 2.97687 20.2533 2.54661 19.9405 2.24547L18.9564 1.29671ZM9.71693 13.9354L5.40705 18.0884C5.11728 18.3676 4.73187 18.5214 4.32191 18.5214C3.91194 18.5214 3.52678 18.3676 3.23676 18.0884L2.51376 17.3918C1.91556 16.8151 1.91556 15.8772 2.51376 15.3011L6.8239 11.1477C7.11366 10.8685 7.49908 10.7148 7.90879 10.7148C8.02924 10.7148 8.14714 10.73 8.26146 10.7554L10.1637 12.8735C10.1683 13.2572 10.0203 13.6431 9.71693 13.9354ZM18.3505 17.2222C18.0664 17.496 17.5439 17.6799 17.0503 17.6799C16.7406 17.6799 16.4759 17.6077 16.336 17.4854L8.20111 8.42864C7.99727 8.20168 7.67094 8.11592 7.37632 8.21178C6.80344 8.39759 6.18171 8.49567 5.57814 8.49567C4.56589 8.49567 3.71322 8.21129 3.17743 7.69477C2.69253 7.22754 2.01147 6.40102 1.90968 5.37045L3.33932 6.523C3.50044 6.65311 3.70939 6.71349 3.91884 6.69057L6.4546 6.41161C6.82364 6.37095 7.10957 6.08164 7.1331 5.72432L7.2868 3.41182C7.29934 3.22232 7.23591 3.03577 7.10957 2.89038L5.88479 1.47981C6.8216 1.50445 7.7336 1.90096 8.46197 2.60279C9.464 3.56855 9.44226 5.37735 8.99777 6.64942C8.89828 6.9338 8.98728 7.24799 9.22283 7.4444L18.6234 15.2828C18.9643 15.6424 18.8837 16.7082 18.3505 17.2222ZM18.7226 3.45864L17.5188 4.88104C17.5063 4.87635 17.4922 4.86995 17.4769 4.86108L16.9559 4.5629L12.9184 8.56985L12.354 8.09941L16.5508 4.17255L16.2416 3.67107C16.2327 3.65579 16.2255 3.64223 16.2211 3.6304L17.6382 2.52172L17.6971 2.47046C17.7735 2.39727 17.85 2.37189 17.8976 2.3677L18.83 3.26618C18.827 3.30315 18.8022 3.38176 18.7226 3.45864Z" fill="#1F2D3C"/>
</g>
<defs>
<clipPath id="clip0">
<rect width="20" height="20" fill="white"/>
</clipPath>
</defs>
</svg>
