<svg width="25" height="18" viewBox="0 0 25 18" fill="none" xmlns="http://www.w3.org/2000/svg">
<path d="M1.00005 10.2686V11.1078H1.77184V10.2686H1.00005Z" fill="#1F2D3C"/>
<path d="M17.028 9.3962C16.8148 9.3962 16.642 9.21885 16.642 9.00015V10.6809C16.6467 10.4663 16.8177 10.2938 17.0279 10.2938C17.241 10.2938 17.4138 10.4711 17.4138 10.6898V9.0091C17.4091 9.22372 17.2382 9.3962 17.028 9.3962Z" fill="#1F2D3C"/>
<path fill-rule="evenodd" clip-rule="evenodd" d="M22.2747 7.78293L21.6364 4.38458C21.8109 4.34654 21.6364 4.38458 21.9419 4.35321C21.9419 3.43601 21.2147 2.68984 20.3211 2.68984H17.4139V1.81849C17.4139 1.36716 17.0562 1 16.6164 1H1.79755C1.35776 1 1 1.36716 1 1.81849V9.00005L1.00005 9.00638C1.00334 9.22216 1.17485 10.2686 1.38594 10.2686C1.5991 10.2686 1.77184 9.2188 1.77184 9.00005V1.81849C1.77184 1.80392 1.78335 1.79211 1.79755 1.79211H16.6163C16.6305 1.79211 16.642 1.80392 16.642 1.81849V9.00015C16.642 9.21885 16.8148 9.3962 17.028 9.3962C17.2382 9.3962 17.4091 9.22372 17.4138 9.0091L17.4139 9.00015V8.55118H21.9662L21.9683 8.55123C22.5285 8.55158 23.0041 8.92896 23.1675 9.44892L23.2282 10.2409V11.1386L23.2282 11.9308V13.6733H22.2191C21.8876 12.6911 20.9778 11.9835 19.9093 11.9835C18.8409 11.9835 17.931 12.6911 17.5996 13.6733H17.4138V10.6898H16.6419V13.6733H8.63528C8.3038 12.691 7.39395 11.9835 6.32553 11.9835C5.25711 11.9835 4.34721 12.691 4.01578 13.6733H1.79755C1.78335 13.6733 1.77184 13.6615 1.77184 13.6469V12.7756V11.1078H1.00005V13.6469C1.00005 14.0982 1.35781 14.4654 1.7976 14.4654H3.88215L3.88182 14.4773C3.88165 14.4821 3.88148 14.4869 3.88148 14.4918C3.88148 15.8748 4.97792 17 6.32553 17C7.67315 17 8.76959 15.8748 8.76959 14.4918C8.76959 14.4869 8.76941 14.4821 8.76924 14.4773L8.76891 14.4654H17.466C17.4659 14.4742 17.4653 14.4829 17.4653 14.4918C17.4653 15.8748 18.5617 17 19.9093 17C21.257 17 22.3534 15.8748 22.3534 14.4918C22.3534 14.4869 22.3532 14.4821 22.3531 14.4773L22.3527 14.4654H23.6141C23.8272 14.4654 24 14.2881 24 14.0693V9.84487C24 8.80195 23.2502 7.93534 22.2747 7.78293ZM21 3.5H19L17.4139 3.4819V7.75912H21.4733L21 3.5ZM21.1701 4.35321C21.1701 3.87277 20.7892 3.4819 20.3211 3.4819H17.4139H21L21.1701 4.35321ZM4.65327 14.4918C4.65327 15.4382 5.40345 16.208 6.32553 16.208C7.24761 16.208 7.99779 15.4382 7.99779 14.4918C7.99779 13.5455 7.24761 12.7756 6.32553 12.7756C5.40345 12.7756 4.65327 13.5455 4.65327 14.4918ZM18.2372 14.4918C18.2372 15.4382 18.9874 16.208 19.9094 16.208C20.8315 16.208 21.5817 15.4382 21.5817 14.4918C21.5817 13.5455 20.8315 12.7756 19.9094 12.7756C18.9874 12.7756 18.2372 13.5455 18.2372 14.4918Z" fill="#1F2D3C"/>
<path d="M1.77184 9.00005C1.77184 9.2188 1.5991 10.2686 1.38594 10.2686C1.17485 10.2686 1.00334 9.22216 1.00005 9.00638M1.77184 9.00005V1.81849C1.77184 1.80392 1.78335 1.79211 1.79755 1.79211H16.6163C16.6305 1.79211 16.642 1.80392 16.642 1.81849V9.00015M1.77184 9.00005V10.2686M16.642 9.00015C16.642 9.21885 16.8148 9.3962 17.028 9.3962C17.2382 9.3962 17.4092 9.22372 17.4138 9.0091M16.642 9.00015V10.6809M17.4139 9.00015V8.55118H21.9662L21.9683 8.55123C22.5285 8.55158 23.0041 8.92896 23.1675 9.44892L23.2282 10.2409V11.1386L23.2282 11.9308V13.6733H22.2191C21.8876 12.6911 20.9778 11.9835 19.9093 11.9835C18.8409 11.9835 17.931 12.6911 17.5996 13.6733H17.4138V10.6898M17.4139 9.00015C17.4139 9.00314 17.4139 9.00613 17.4138 9.0091M17.4139 9.00015L17.4138 9.0091M17.4138 10.6898C17.4138 10.4711 17.241 10.2938 17.0279 10.2938C16.8177 10.2938 16.6467 10.4663 16.642 10.6809M17.4138 10.6898V9.0091M17.4138 10.6898H16.6419M16.6419 10.6898V13.6733H8.63528C8.3038 12.691 7.39395 11.9835 6.32553 11.9835C5.25711 11.9835 4.34721 12.691 4.01578 13.6733H1.79755C1.78335 13.6733 1.77184 13.6615 1.77184 13.6469V12.7756V11.1078M16.6419 10.6898C16.6419 10.6869 16.642 10.6839 16.642 10.6809M3.88215 14.4654H1.7976C1.35781 14.4654 1.00005 14.0982 1.00005 13.6469V11.1078M3.88215 14.4654C3.88211 14.4694 3.88197 14.4734 3.88182 14.4773M3.88215 14.4654L3.88182 14.4773M8.76891 14.4654H17.466C17.4659 14.4742 17.4653 14.4829 17.4653 14.4918C17.4653 15.8748 18.5617 17 19.9093 17C21.257 17 22.3534 15.8748 22.3534 14.4918C22.3534 14.4869 22.3532 14.4821 22.3531 14.4773M8.76891 14.4654C8.76896 14.4694 8.7691 14.4733 8.76924 14.4773M8.76891 14.4654L8.76924 14.4773M22.3527 14.4654H23.6141C23.8272 14.4654 24 14.2881 24 14.0693V9.84487C24 8.80195 23.2502 7.93534 22.2747 7.78293L21.6364 4.38458C21.8109 4.34654 21.6364 4.38458 21.9419 4.35321C21.9419 3.43601 21.2147 2.68984 20.3211 2.68984H17.4139V1.81849C17.4139 1.36716 17.0562 1 16.6164 1H1.79755C1.35776 1 1 1.36716 1 1.81849V9.00005L1.00005 9.00638M22.3527 14.4654C22.3528 14.4694 22.3529 14.4733 22.3531 14.4773M22.3527 14.4654L22.3531 14.4773M17.4139 3.4819V7.75912H21.4733L21 3.5H19L17.4139 3.4819ZM17.4139 3.4819H21L21.1701 4.35321C21.1701 3.87277 20.7892 3.4819 20.3211 3.4819H17.4139ZM1.00005 9.00638V10.2686M1.00005 10.2686V11.1078M1.00005 10.2686H1.77184M1.00005 11.1078H1.77184M1.77184 11.1078V10.2686M8.76924 14.4773C8.76941 14.4821 8.76959 14.4869 8.76959 14.4918C8.76959 15.8748 7.67315 17 6.32553 17C4.97792 17 3.88148 15.8748 3.88148 14.4918C3.88148 14.4869 3.88165 14.4821 3.88182 14.4773M6.32553 16.208C5.40345 16.208 4.65327 15.4382 4.65327 14.4918C4.65327 13.5455 5.40345 12.7756 6.32553 12.7756C7.24761 12.7756 7.99779 13.5455 7.99779 14.4918C7.99779 15.4382 7.24761 16.208 6.32553 16.208ZM19.9094 16.208C18.9874 16.208 18.2372 15.4382 18.2372 14.4918C18.2372 13.5455 18.9874 12.7756 19.9094 12.7756C20.8315 12.7756 21.5817 13.5455 21.5817 14.4918C21.5817 15.4382 20.8315 16.208 19.9094 16.208Z" stroke="#1F2D3C" stroke-width="0.5"/>
</svg>
