<svg width="20" height="20" viewBox="0 0 20 20" fill="none" xmlns="http://www.w3.org/2000/svg">
<path d="M7.65625 16.4844H6.48438C6.16078 16.4844 5.89844 16.7467 5.89844 17.0703C5.89844 17.3939 6.16078 17.6562 6.48438 17.6562H7.65625C7.97984 17.6562 8.24219 17.3939 8.24219 17.0703C8.24219 16.7467 7.97984 16.4844 7.65625 16.4844Z" fill="#1F2D3C"/>
<path d="M11.1914 8.24219H12.3633C12.6869 8.24219 12.9492 7.97984 12.9492 7.65625C12.9492 7.33266 12.6869 7.07031 12.3633 7.07031H11.1914C10.8678 7.07031 10.6055 7.33266 10.6055 7.65625C10.6055 7.97984 10.8678 8.24219 11.1914 8.24219Z" fill="#1F2D3C"/>
<path d="M19.4141 9.41406H15.293V0.585938C15.293 0.262344 15.0306 0 14.707 0H5.29297C4.96938 0 4.70703 0.262344 4.70703 0.585938V9.41406H0.585938C0.262344 9.41406 0 9.67641 0 10V19.4141C0 19.7377 0.262344 20 0.585938 20H19.4141C19.7377 20 20 19.7377 20 19.4141V10C20 9.67641 19.7377 9.41406 19.4141 9.41406ZM14.0234 10.5859H15.3906V12.9297H14.0234V10.5859ZM9.31641 1.17188H10.6836V3.51562H9.31641V1.17188ZM5.87891 1.17188H8.14453V4.10156C8.14453 4.42516 8.40687 4.6875 8.73047 4.6875H11.2695C11.5931 4.6875 11.8555 4.42516 11.8555 4.10156V1.17188H14.1211V9.41406H5.87891V1.17188ZM4.60938 10.5859H5.97656V12.9297H4.60938V10.5859ZM1.17188 10.5859H3.4375V13.5156C3.4375 13.8392 3.69984 14.1016 4.02344 14.1016H6.5625C6.88609 14.1016 7.14844 13.8392 7.14844 13.5156V10.5859H9.41406V18.8281H1.17188V10.5859ZM18.8281 18.8281H10.5859V10.5859H12.8516V13.5156C12.8516 13.8392 13.1139 14.1016 13.4375 14.1016H15.9766C16.3002 14.1016 16.5625 13.8392 16.5625 13.5156V10.5859H18.8281V18.8281Z" fill="#1F2D3C"/>
<path d="M15.8984 16.4844C15.5748 16.4844 15.3125 16.7467 15.3125 17.0703C15.3125 17.3939 15.5748 17.6562 15.8984 17.6562H17.0703C17.3939 17.6562 17.6562 17.3939 17.6562 17.0703C17.6562 16.7467 17.3939 16.4844 17.0703 16.4844H15.8984Z" fill="#1F2D3C"/>
</svg>
