<svg xmlns="http://www.w3.org/2000/svg" width="512" height="512">
	<path fill="#007cff" d="M506.125 302.427c-.8-4.832-3.452-9.066-7.468-11.925l-38.358-27.303L303.271 152.65l-42.551-.625-82.06 40.981c-33.715 16.84-74.932 3.24-91.877-30.312a67.877 67.877 0 0 1-7.13-35.349c.364-5.158 3.39-9.759 7.915-12.261l25.181-13.927-22.615-14.479c-8.535-5.464-19.896-2.818-25.139 5.855L4.902 191.947c-5.061 8.373-2.517 19.256 5.733 24.516 9.301-9.526 21.873-15.142 35.67-15.588a51.26 51.26 0 0 1 26.753 6.548c9.43 5.312 16.69 13.075 21.254 22.272 7.377-5.406 16.123-8.792 25.544-9.742 11.288-1.139 22.731 1.482 32.382 7.447 11.008 6.804 18.475 16.893 22.132 28.094a52.501 52.501 0 0 1 10.032-2.459c15.199-2.178 30.329 2.333 41.983 12.661a51.546 51.546 0 0 1 15.909 26.494c3.489 14.556.732 29.386-7.493 41.486 8.95 2.032 17.335 6.436 24.347 13.069 7.462 7.06 12.653 16.268 14.865 26.3 3.319 15.055-.011 30.334-9.139 42.515l-1.374 1.834 55.345 39.395c8.333 5.932 19.958 4.026 25.915-4.248 5.675-7.883 4.149-18.757-3.446-24.845l-29.05-20.653c-6.947-4.939-8.575-14.574-3.636-21.521 4.94-6.947 14.574-8.575 21.522-3.636l49.237 35.004c8.316 5.735 19.779 3.802 25.681-4.397 5.844-8.118 3.989-19.517-4.134-25.417l-54.327-38.623c-6.774-4.816-8.902-14.165-4.41-21.158 4.795-7.465 14.79-9.335 21.939-4.254l54.796 38.956.001.001.154.11 5.475 3.893c8.329 5.877 19.908 3.963 25.848-4.291 5.841-8.113 3.988-19.508-4.127-25.411l-70.841-50.363c-6.947-4.939-8.575-14.575-3.636-21.522 4.94-6.947 14.575-8.576 21.522-3.636l70.956 50.445.005.003.365.26 12.516 8.898c8.323 5.802 19.841 3.876 25.76-4.347 2.857-3.968 3.991-8.802 3.195-13.61z"/>
	<path fill="#007cff" d="M509.399 186.071L438.382 68.584c-4.682-7.746-14.383-10.817-22.67-7.177l-42.064 18.479a15.432 15.432 0 0 1-10.591.668L265.84 51.76l-155.083 85.77a37.104 37.104 0 0 0 3.579 11.246c9.307 18.428 31.975 25.879 50.534 16.613l85.423-42.661a15.43 15.43 0 0 1 6.895-1.626l.227.002 51.073.751a15.436 15.436 0 0 1 8.657 2.812L469.67 232.049l33.927-21.418c8.3-5.24 10.88-16.16 5.802-24.56zM244.178 381.39a20.984 20.984 0 0 0-8.241-13.907c-3.693-2.768-8.088-4.223-12.622-4.223-1.008 0-2.024.072-3.04.218a20.984 20.984 0 0 0-13.907 8.241l-26.63 35.535a20.989 20.989 0 0 0-4.006 15.661 20.982 20.982 0 0 0 8.241 13.907h.001c9.319 6.983 22.584 5.084 29.569-4.236l26.629-35.535a20.989 20.989 0 0 0 4.006-15.661zM212.682 301.505a20.984 20.984 0 0 0-8.241-13.907c-3.694-2.768-8.088-4.223-12.622-4.223-1.008 0-2.024.072-3.04.218a20.984 20.984 0 0 0-13.907 8.241l-8.265 11.029-.003.004-45.371 60.544a20.985 20.985 0 0 0-4.006 15.661 20.984 20.984 0 0 0 8.241 13.907 20.984 20.984 0 0 0 15.662 4.006 20.984 20.984 0 0 0 13.907-8.241l53.639-71.578a20.985 20.985 0 0 0 4.006-15.661zM137.667 254.789c-3.694-2.768-8.088-4.224-12.622-4.224a21.36 21.36 0 0 0-3.039.218 20.983 20.983 0 0 0-13.907 8.242l-45.371 60.544a20.985 20.985 0 0 0-4.006 15.661 20.984 20.984 0 0 0 8.241 13.907 20.986 20.986 0 0 0 15.662 4.005 20.984 20.984 0 0 0 13.907-8.241l45.371-60.544c6.984-9.32 5.084-22.584-4.236-29.568zM68.663 249.862a20.982 20.982 0 0 0-8.241-13.907c-3.693-2.768-8.088-4.223-12.622-4.223-1.008 0-2.024.072-3.04.218a20.984 20.984 0 0 0-13.907 8.241l-26.63 35.535a20.989 20.989 0 0 0-4.006 15.661 20.984 20.984 0 0 0 8.241 13.907 20.986 20.986 0 0 0 15.662 4.005 20.984 20.984 0 0 0 13.907-8.241l26.63-35.535a20.989 20.989 0 0 0 4.006-15.661z"/>
</svg>