<svg width="43" height="47" viewBox="0 0 43 47" fill="none" xmlns="http://www.w3.org/2000/svg">
<ellipse cx="21" cy="25.5" rx="21" ry="21.5" fill="#F2F7FA"/>
<path d="M38.5002 9.99983L30 10C30.5 6.5 25 3 25 3C25 3 19 6.5 20 9.99989L12 9.9998C9.79089 9.99978 8 11.7906 8 13.9998V31.4999C8 33.7091 9.79086 35.4999 12 35.4999H38.5002C40.7094 35.4999 42.5002 33.7091 42.5002 31.4999V13.9998C42.5002 11.7907 40.7093 9.99979 38.5002 9.99983Z" fill="white" stroke="#007CFF"/>
<path d="M38 26.5V31.0989H32.0001H25.5H19H13V26.5H19H25.5H32.0001H38Z" fill="white" stroke="#007CFF"/>
<path d="M24.7094 15.9069L25 16.1145L25.2906 15.9069L28.6602 13.5H38.5V31.5H12.5V13.5H17.4H21.3398L24.7094 15.9069Z" stroke="#007CFF"/>
<mask id="path-5-inside-1" fill="white">
<path fill-rule="evenodd" clip-rule="evenodd" d="M35 10.0001C35 15.523 24.9999 24.0002 24.9999 24.0002C24.9999 24.0002 14.9999 15.523 14.9999 10.0001C14.9999 4.47718 19.4771 0 24.9999 0C30.5228 0 35 4.47718 35 10.0001ZM25 14C27.2091 14 29 12.2091 29 10C29 7.79086 27.2091 6 25 6C22.7909 6 21 7.79086 21 10C21 12.2091 22.7909 14 25 14Z"/>
</mask>
<path fill-rule="evenodd" clip-rule="evenodd" d="M35 10.0001C35 15.523 24.9999 24.0002 24.9999 24.0002C24.9999 24.0002 14.9999 15.523 14.9999 10.0001C14.9999 4.47718 19.4771 0 24.9999 0C30.5228 0 35 4.47718 35 10.0001ZM25 14C27.2091 14 29 12.2091 29 10C29 7.79086 27.2091 6 25 6C22.7909 6 21 7.79086 21 10C21 12.2091 22.7909 14 25 14Z" fill="#91C6FC"/>
<path d="M24.9999 24.0002L24.3533 24.763L24.9999 25.3111L25.6466 24.763L24.9999 24.0002ZM24.9999 24.0002C25.6466 24.763 25.6467 24.7628 25.6469 24.7627C25.6471 24.7626 25.6473 24.7624 25.6475 24.7622C25.648 24.7618 25.6486 24.7613 25.6494 24.7606C25.6509 24.7593 25.653 24.7575 25.6558 24.7551C25.6612 24.7505 25.6691 24.7438 25.6792 24.7351C25.6995 24.7178 25.7289 24.6924 25.7669 24.6595C25.843 24.5936 25.9534 24.4972 26.0933 24.3732C26.3729 24.1251 26.7707 23.7659 27.2473 23.318C28.1992 22.4234 29.4716 21.1694 30.7471 19.7359C32.0191 18.3063 33.314 16.6763 34.2963 15.0299C35.2648 13.4066 36 11.652 36 10.0001H34C34 11.1096 33.4853 12.4857 32.5787 14.0052C31.686 15.5016 30.4809 17.0264 29.2529 18.4065C28.0284 19.7827 26.8007 20.9931 25.8776 21.8606C25.4167 22.2938 25.0332 22.64 24.766 22.8771C24.6324 22.9956 24.528 23.0867 24.4576 23.1477C24.4223 23.1782 24.3956 23.2012 24.3781 23.2162C24.3693 23.2238 24.3628 23.2293 24.3586 23.2328C24.3565 23.2346 24.3551 23.2359 24.3542 23.2366C24.3537 23.237 24.3534 23.2373 24.3533 23.2374C24.3532 23.2374 24.3532 23.2374 24.3532 23.2375C24.3532 23.2374 24.3533 23.2374 24.9999 24.0002ZM13.9999 10.0001C13.9999 11.652 14.7351 13.4066 15.7036 15.0299C16.6859 16.6763 17.9808 18.3063 19.2528 19.7359C20.5283 21.1694 21.8007 22.4234 22.7526 23.318C23.2292 23.7659 23.627 24.1251 23.9066 24.3732C24.0465 24.4972 24.1569 24.5936 24.2329 24.6595C24.271 24.6924 24.3004 24.7178 24.3207 24.7351C24.3308 24.7438 24.3387 24.7505 24.3441 24.7551C24.3469 24.7575 24.349 24.7593 24.3505 24.7606C24.3513 24.7613 24.3519 24.7618 24.3524 24.7622C24.3526 24.7624 24.3528 24.7626 24.353 24.7627C24.3532 24.7628 24.3533 24.763 24.9999 24.0002C25.6466 23.2374 25.6467 23.2374 25.6467 23.2375C25.6467 23.2374 25.6467 23.2374 25.6466 23.2374C25.6465 23.2373 25.6462 23.237 25.6457 23.2366C25.6448 23.2359 25.6433 23.2346 25.6413 23.2328C25.6371 23.2293 25.6306 23.2238 25.6218 23.2162C25.6042 23.2012 25.5775 23.1782 25.5423 23.1477C25.4719 23.0867 25.3675 22.9956 25.2339 22.8771C24.9667 22.64 24.5832 22.2938 24.1223 21.8606C23.1992 20.9931 21.9715 19.7827 20.747 18.4065C19.519 17.0264 18.3139 15.5016 17.4212 14.0052C16.5146 12.4857 15.9999 11.1096 15.9999 10.0001H13.9999ZM24.9999 -1C18.9248 -1 13.9999 3.9249 13.9999 10.0001H15.9999C15.9999 5.02947 20.0293 1 24.9999 1V-1ZM36 10.0001C36 3.9249 31.0751 -1 24.9999 -1V1C29.9705 1 34 5.02947 34 10.0001H36ZM28 10C28 11.6569 26.6569 13 25 13V15C27.7614 15 30 12.7614 30 10H28ZM25 7C26.6569 7 28 8.34315 28 10H30C30 7.23858 27.7614 5 25 5V7ZM22 10C22 8.34315 23.3431 7 25 7V5C22.2386 5 20 7.23858 20 10H22ZM25 13C23.3431 13 22 11.6569 22 10H20C20 12.7614 22.2386 15 25 15V13Z" fill="#007CFF" mask="url(#path-5-inside-1)"/>
</svg>
