<svg width="18" height="16" viewBox="0 0 18 16" fill="none" xmlns="http://www.w3.org/2000/svg">
<path d="M6.24326 3.19149H2.92969C1.82512 3.19149 0.929688 4.08692 0.929688 5.19149V13.0726C0.929688 14.1772 1.82512 15.0726 2.92969 15.0726H14.9303C16.0349 15.0726 16.9303 14.1772 16.9303 13.0726V5.19149C16.9303 4.08692 16.0349 3.19149 14.9303 3.19149H11.5868M6.24326 3.19149V2.50488C6.24326 1.40031 7.13869 0.504883 8.24326 0.504883H9.56278C10.6414 0.504883 11.5257 1.36022 11.5617 2.43825L11.5868 3.19149M6.24326 3.19149H11.5868" stroke="#90C5CD"/>
<path d="M0.929688 12.8221V5.46313C0.929688 4.35857 1.82512 3.46313 2.92969 3.46313H14.9303C16.0349 3.46313 16.9303 4.35857 16.9303 5.46313V12.8221C16.9303 13.9267 16.0349 14.8221 14.9303 14.8221H2.92969C1.82512 14.8221 0.929688 13.9267 0.929688 12.8221Z" fill="#90C5CD"/>
</svg>
