<svg width="12" height="12" viewBox="0 0 12 12" fill="none" xmlns="http://www.w3.org/2000/svg">
<path d="M11.4645 10.1353L8.82743 7.39259C9.50548 6.58656 9.87698 5.5724 9.87698 4.51662C9.87698 2.04989 7.87007 0.0429688 5.40334 0.0429688C2.93661 0.0429688 0.929688 2.04989 0.929688 4.51662C0.929688 6.98335 2.93661 8.99027 5.40334 8.99027C6.32938 8.99027 7.21186 8.71096 7.96635 8.18073L10.6235 10.9443C10.7346 11.0596 10.8839 11.1232 11.044 11.1232C11.1955 11.1232 11.3393 11.0655 11.4484 10.9604C11.6803 10.7373 11.6876 10.3674 11.4645 10.1353ZM5.40334 1.21001C7.22664 1.21001 8.70995 2.69331 8.70995 4.51662C8.70995 6.33992 7.22664 7.82323 5.40334 7.82323C3.58003 7.82323 2.09673 6.33992 2.09673 4.51662C2.09673 2.69331 3.58003 1.21001 5.40334 1.21001Z" fill="#90C5CD"/>
</svg>
