<svg xmlns="http://www.w3.org/2000/svg" width="512" height="512">
  <path fill="#007cff" d="M473.275 377.783l-63.633-63.647c-16.978-16.978-46.641-17.007-63.647 0l-10.613 10.613 127.28 127.28 10.613-10.613c17.618-17.618 17.56-46.102 0-63.633zM197.503 102.012L133.87 38.365c-16.978-16.992-46.641-16.992-63.647 0L59.61 48.978l127.28 127.28 10.613-10.613c17.619-17.618 17.56-46.102 0-63.633zM313.583 345.372c-13.391 10.38-32.492 9.943-44.727-2.305L168.572 242.784c-12.261-12.261-12.675-31.37-2.307-44.729L39.276 71.066c-54.63 63.68-52.493 159.631 7.802 219.926l173.569 173.569c57.849 57.848 152.629 65.537 219.926 7.802l-126.99-126.991zM467 0H287c-24.814 0-45 20.186-45 45v120c0 24.814 20.186 45 45 45h15v45c0 13.376 16.225 19.986 25.605 10.605L383.211 210H467c24.814 0 45-20.186 45-45V45c0-24.814-20.186-45-45-45zm-90 150h-60c-19.774 0-19.854-30 0-30h60c19.774 0 19.854 30 0 30zm60-60H317c-19.774 0-19.854-30 0-30h120c19.774 0 19.854 30 0 30z"/>
</svg>
