<svg width="120" height="179" viewBox="0 0 120 179" fill="none" xmlns="http://www.w3.org/2000/svg">
<path d="M44.4648 111.096L59.5755 119.716V91.9417L44.4648 83.3223V111.096Z" fill="#6B534C"/>
<path d="M75.005 37.6713C76.9204 45.5459 74.2601 65.3387 63.7252 77.1506C58.511 80.1302 48.9338 87.7919 43.7195 90.8779C30.4179 88.5368 30.0986 64.2746 30.0986 64.2746L50.9556 41.3958C50.9556 41.3958 70.6421 35.7559 75.005 37.6713Z" fill="#563929"/>
<path d="M75.0051 21.4961C75.0051 21.4961 70.5357 6.17262 52.2326 16.7075C31.3757 28.7322 30.3115 46.8225 30.3115 46.8225C30.3115 46.8225 31.4821 82.7901 43.0811 90.4519C43.0811 90.4519 42.7619 90.239 43.0811 90.4519L54.4673 97.0495L51.807 87.6851C52.1262 87.4723 52.5519 87.3659 52.8711 87.1531C80.0065 71.4039 75.0051 21.4961 75.0051 21.4961Z" fill="#AF877B"/>
<path d="M75.1118 38.416C74.4733 50.3343 71.813 65.977 63.6191 77.2568C63.6191 77.2568 63.7256 77.2568 63.7256 77.1504C73.9412 65.7642 76.708 46.8227 75.1118 38.416Z" fill="#563929"/>
<path d="M111.718 86.5149L96.9264 78.1083C91.7122 74.8095 63.6191 85.77 63.6191 85.77V88.3239C63.4063 88.2175 63.087 88.1111 62.7678 88.2175C62.2357 88.4304 61.7037 88.3239 61.3844 88.9624L52.7649 92.8997L65.2153 96.6242L61.1716 101.626L47.9764 95.1344L43.1878 97.3691L41.9108 98.3268C41.9108 98.3268 7.75216 124.398 7.75216 131.528C-0.335242 150.576 0.941717 169.836 0.941717 169.836L16.0524 178.456L104.588 110.032C104.588 110.032 105.227 98.8588 102.354 88.9624L111.718 86.5149Z" fill="url(#paint0_linear)"/>
<path d="M73.9409 47.142C77.1333 46.0779 80.4321 41.3957 81.177 36.7135C81.9219 32.0313 79.9001 29.1582 76.7077 30.3287C73.4089 31.3929 70.6421 48.2062 73.9409 47.142Z" fill="#ECB5A2"/>
<path d="M56.1702 106.201L41.0596 97.5819C41.0596 97.4755 41.0596 97.2627 41.166 97.0498L43.4007 91.942C43.6135 91.5163 43.9327 91.3035 44.1456 91.4099L59.2562 100.029L56.1702 106.201Z" fill="#4FAA00"/>
<path d="M42.5497 68.3187L27.4391 59.8057C25.4172 62.5724 24.3531 66.2969 24.8852 69.2764C25.2044 70.7662 25.8429 71.8304 26.8006 72.3624L42.1241 81.0883C43.5075 79.9178 40.7407 72.3624 42.5497 68.3187Z" fill="#AF877B"/>
<path d="M91.9246 15.3246C91.9246 15.3246 86.6039 12.345 82.3474 9.8975H82.4538L67.9816 1.49086C65.6405 0.00107068 62.2353 0.213897 54.68 4.57684C15.8392 27.03 27.4382 59.6989 27.4382 59.6989L42.5489 68.3183C44.7836 67.8927 39.5693 45.3331 48.508 38.5226C56.1698 33.202 59.6814 24.4761 61.4904 24.2633C63.4059 24.7953 63.2995 28.0942 61.384 31.4994C71.3869 25.221 72.451 20.9645 72.5574 19.4747L73.4087 36.9264C73.4087 36.9264 75.7498 30.7545 77.9845 30.0096C77.9845 30.116 95.3298 21.2837 91.9246 15.3246Z" fill="url(#paint1_linear)"/>
<path d="M52.7652 69.5959C51.5947 74.8101 43.4009 74.8101 41.8047 79.3859C41.9111 78.9602 42.2303 76.1935 42.2303 76.1935C43.0816 73.8524 45.5291 71.1921 48.1895 69.5959L52.6588 66.9355V69.5959H52.7652Z" fill="#563929"/>
<path d="M52.7656 69.5955C53.9362 73.5328 62.13 64.0621 63.7262 66.7224C63.6198 66.2967 63.3005 64.0621 63.3005 64.0621C62.4492 62.6787 60.0017 62.7851 57.3414 64.3813L52.872 67.0416V69.5955H52.7656Z" fill="#563929"/>
<path d="M76.9205 91.1975H75.7499L75.4307 88.75L77.1333 89.7077L76.9205 91.1975Z" fill="#83662E"/>
<path d="M59.5752 119.716L76.2821 110.033V82.2588L59.5752 91.9424V119.716Z" fill="#AD8579"/>
<path d="M22.7567 140.04C22.7567 132.91 56.9153 106.839 56.9153 106.839V109.074C57.0217 108.967 57.1281 108.861 57.2346 108.755L57.9794 108.223C58.5115 107.797 59.0436 107.052 59.4692 107.371L66.4925 113.33C67.131 113.756 68.1951 113.118 68.8336 111.947L76.1761 97.794C76.4953 97.1556 77.0274 97.1556 77.5595 97.0492C77.8787 96.9427 78.198 96.9427 78.4108 97.1556V94.4952C78.4108 94.4952 112.569 81.0872 112.569 88.2169C120.657 98.0069 119.38 118.651 119.38 118.651L15.7334 178.455C15.9462 178.349 14.7757 159.194 22.7567 140.04Z" fill="url(#paint2_linear)"/>
<path d="M64.1514 133.23L71.8131 128.761V103.222L64.1514 107.691V133.23Z" fill="#1EA554"/>
<path d="M89.0523 55.7612C92.2447 54.697 95.5435 50.0148 96.2884 45.3327C97.0333 40.6505 95.0114 37.7773 91.819 38.9479C88.5202 40.012 85.7535 56.8253 89.0523 55.7612Z" fill="#F7C2B0"/>
<path d="M47.2315 79.8102C43.9327 82.4705 40.7403 81.5128 39.9954 77.7884C39.2505 74.0639 41.2723 68.8497 44.4647 66.1893C47.7635 63.529 50.5303 77.1499 47.2315 79.8102Z" fill="#F8C3B0"/>
<path d="M67.9821 95.6658C41.0596 111.202 45.4225 55.4416 45.4225 55.4416C45.4225 55.4416 46.4867 37.3513 67.4501 25.2202C85.6467 14.6853 90.2225 30.0088 90.2225 30.0088C90.2225 30.0088 95.0111 80.023 67.9821 95.6658Z" fill="url(#paint3_linear)"/>
<path d="M91.0736 37.3517C88.8389 38.0966 88.5197 45.5455 88.5197 45.5455L85.6465 26.2847L76.3886 40.1184C77.7719 36.7132 76.8142 33.9465 75.0052 34.0529C73.3026 34.3721 63.619 47.2481 63.619 47.2481C63.5126 44.2686 60.6394 44.5878 57.8727 45.7583C57.1278 48.9507 52.8713 53.4201 52.8713 53.4201C53.7226 47.993 49.7853 50.3341 48.5083 50.1213C47.4442 50.7598 46.8057 48.8443 46.8057 48.8443C46.8057 48.8443 46.8057 71.5103 46.9121 70.659C44.7838 67.1474 41.485 67.8923 41.485 67.8923C41.485 67.8923 28.9283 34.2657 67.7691 11.9189C80.9643 4.25719 81.4964 9.36503 85.6465 13.8344C98.2033 10.0035 91.0736 36.7132 91.0736 37.3517Z" fill="url(#paint4_linear)"/>
<path d="M92.9889 38.7355C90.7542 39.4803 88.4131 45.6523 88.4131 45.6523L87.5618 27.6685C87.5618 27.6685 88.7324 32.4571 76.3884 40.2252C78.3039 36.7136 78.4103 33.5212 76.4948 32.9891C74.6858 33.202 71.1742 41.9279 63.5124 47.2485C63.406 44.2689 61.4906 42.6727 58.6174 43.7369C57.7661 47.0357 57.4469 48.8447 52.6583 53.4205C53.7224 46.9293 50.8493 48.5255 50.3172 48.9511C49.2531 49.5896 48.5082 50.1217 48.5082 50.1217C48.5082 50.1217 46.5927 71.4043 46.6991 70.6594C45.5286 66.0836 42.3362 68.5312 42.3362 68.5312C42.3362 68.5312 30.95 35.6495 69.6844 13.1963C82.8796 5.53454 83.4117 10.6424 87.5618 15.1117C100.119 11.3873 92.9889 38.097 92.9889 38.7355Z" fill="url(#paint5_linear)"/>
<path opacity="0.5" d="M67.3433 106.627L60.2136 118.652C59.8944 119.078 59.5751 119.078 59.4687 118.758L56.1699 106.202L58.7238 102.158C58.9367 101.732 59.2559 101.519 59.4687 101.626L67.4497 105.669C67.5561 105.882 67.5561 106.308 67.3433 106.627Z" fill="black"/>
<path d="M67.3433 106.307L60.1072 116.949C59.788 117.374 59.4687 117.374 59.3623 117.055L56.1699 106.201C56.1699 106.095 56.1699 105.882 56.2763 105.669L58.511 100.455C58.7238 100.029 59.0431 99.8162 59.2559 99.9226L67.4497 105.35C67.5561 105.563 67.5561 105.988 67.3433 106.307Z" fill="url(#paint6_linear)"/>
<path opacity="0.5" d="M68.3012 106.095L75.4309 109.926C75.7501 110.032 76.0694 109.607 76.1758 109.181C76.1758 109.181 79.581 92.8998 79.581 92.7934L77.0271 91.7292C76.8143 91.5164 76.495 91.7292 76.2822 92.0485L68.3012 105.35C68.0884 105.669 68.0884 105.989 68.3012 106.095Z" fill="black"/>
<path d="M68.3013 105.67L75.5374 107.904C75.7502 108.011 76.1759 107.585 76.2823 107.16L79.4747 92.6873C79.4747 92.4745 79.4747 92.3681 79.3683 92.2617L77.1336 89.7077C76.9208 89.4949 76.6015 89.7077 76.3887 90.027L68.1949 104.818C68.0885 105.244 68.0885 105.67 68.3013 105.67Z" fill="url(#paint7_linear)"/>
<path d="M66.4922 114.82C66.4922 115.246 66.5986 115.459 66.8114 115.671C67.0243 115.884 67.8756 116.204 67.8756 116.204C68.6205 115.778 69.5782 113.756 69.5782 112.905C69.5782 112.905 69.0461 112.585 68.8333 112.479C68.6205 112.373 68.3012 112.373 67.8756 112.585C67.1307 113.011 66.4922 113.969 66.4922 114.82Z" fill="#52663D"/>
<path d="M67.2373 115.247C67.2373 116.098 67.8758 116.417 68.6207 115.991C69.3656 115.566 70.004 114.502 70.004 113.65C70.004 112.799 69.3656 112.48 68.6207 112.905C67.8758 113.438 67.2373 114.395 67.2373 115.247Z" fill="#EFFFD9"/>
<path d="M66.4922 126.952C66.4922 127.378 66.5986 127.59 66.8114 127.803C67.0243 128.016 67.8756 128.335 67.8756 128.335C68.6205 127.91 69.5782 125.888 69.5782 125.037C69.5782 125.037 69.0461 124.717 68.8333 124.611C68.6205 124.504 68.3012 124.505 67.8756 124.717C67.1307 125.143 66.4922 126.101 66.4922 126.952Z" fill="#52663D"/>
<path d="M67.2373 127.377C67.2373 128.229 67.8758 128.548 68.6207 128.122C69.3656 127.697 70.004 126.633 70.004 125.781C70.004 124.93 69.3656 124.611 68.6207 125.036C67.8758 125.568 67.2373 126.526 67.2373 127.377Z" fill="#EFFFD9"/>
<defs>
<linearGradient id="paint0_linear" x1="0.835304" y1="127.914" x2="111.665" y2="127.914" gradientUnits="userSpaceOnUse">
<stop stop-color="#21FF00"/>
<stop offset="1" stop-color="#00AA31"/>
</linearGradient>
<linearGradient id="paint1_linear" x1="59.092" y1="0.657227" x2="59.092" y2="68.3183" gradientUnits="userSpaceOnUse">
<stop stop-color="#3A281E"/>
<stop offset="1" stop-color="#6E3500"/>
</linearGradient>
<linearGradient id="paint2_linear" x1="67.7741" y1="178.401" x2="67.7741" y2="86.0282" gradientUnits="userSpaceOnUse">
<stop stop-color="#39AB4A"/>
<stop offset="1" stop-color="#00FF17"/>
</linearGradient>
<linearGradient id="paint3_linear" x1="67.8557" y1="21.5225" x2="67.8557" y2="98.3992" gradientUnits="userSpaceOnUse">
<stop stop-color="#ECB5A2"/>
<stop offset="1" stop-color="#FFE0D6"/>
</linearGradient>
<linearGradient id="paint4_linear" x1="82.2741" y1="15.0226" x2="50.8822" y2="69.2933" gradientUnits="userSpaceOnUse">
<stop stop-color="#3D2A1E"/>
<stop offset="0.237569" stop-color="#482B15"/>
<stop offset="0.502762" stop-color="#532E10"/>
<stop offset="0.767956" stop-color="#5E3108"/>
<stop offset="1" stop-color="#683303"/>
</linearGradient>
<linearGradient id="paint5_linear" x1="67.8901" y1="9.25684" x2="67.8901" y2="70.6785" gradientUnits="userSpaceOnUse">
<stop stop-color="#563929"/>
<stop offset="1" stop-color="#8C483E"/>
</linearGradient>
<linearGradient id="paint6_linear" x1="56.1076" y1="108.642" x2="67.5194" y2="108.642" gradientUnits="userSpaceOnUse">
<stop stop-color="#00B932"/>
<stop offset="1" stop-color="#00F700"/>
</linearGradient>
<linearGradient id="paint7_linear" x1="75.3564" y1="89.9788" x2="72.414" y2="107.285" gradientUnits="userSpaceOnUse">
<stop stop-color="#009A32"/>
<stop offset="1" stop-color="#00F700"/>
</linearGradient>
</defs>
</svg>
