<svg width="121" height="181" viewBox="0 0 121 181" fill="none" xmlns="http://www.w3.org/2000/svg">
<path d="M44.9512 112.181L60.2377 120.901V92.8037L44.9512 84.084V112.181Z" fill="#6B534C"/>
<path d="M75.8468 37.9015C77.7845 45.8677 75.0933 65.8908 64.4358 77.8401C59.1609 80.8544 49.4722 88.6053 44.1973 91.7271C30.7409 89.3588 30.418 64.8143 30.418 64.8143L51.5176 41.6693C51.5176 41.6693 71.4331 35.9638 75.8468 37.9015Z" fill="#563929"/>
<path d="M75.8473 21.5392C75.8473 21.5392 71.326 6.03741 52.8099 16.6949C31.7103 28.8595 30.6338 47.1602 30.6338 47.1602C30.6338 47.1602 31.818 83.5463 43.5519 91.2972C43.5519 91.2972 43.229 91.0819 43.5519 91.2972L55.0706 97.9716L52.3793 88.4983C52.7023 88.283 53.1329 88.1753 53.4559 87.96C80.9069 72.0276 75.8473 21.5392 75.8473 21.5392Z" fill="#AF877B"/>
<path d="M75.9554 38.6553C75.3095 50.7122 72.6182 66.5369 64.3291 77.948C64.3291 77.948 64.4368 77.948 64.4368 77.8403C74.7713 66.3216 77.5702 47.1597 75.9554 38.6553Z" fill="#563929"/>
<path d="M112.987 87.3133L98.0235 78.8088C92.7486 75.4716 64.3287 86.5597 64.3287 86.5597V89.1434C64.1134 89.0357 63.7904 88.9281 63.4675 89.0357C62.9292 89.251 62.3909 89.1434 62.068 89.7893L53.3482 93.7724L65.9434 97.5402L61.8527 102.6L48.5039 96.033L43.6596 98.2937L42.3678 99.2626C42.3678 99.2626 7.81175 125.637 7.81175 132.85C-0.36975 152.119 0.922065 171.604 0.922065 171.604L16.2085 180.324L105.774 111.104C105.774 111.104 106.42 99.8008 103.514 89.7893L112.987 87.3133Z" fill="url(#paint0_linear)"/>
<path d="M87.0433 92.3737L97.9161 88.3907L82.7373 79.6709L71.7568 83.654L87.0433 92.3737Z" fill="#0038B5"/>
<path d="M49.6879 113.904L38.7074 122.516L23.8516 114.119L34.509 105.292L49.6879 113.904Z" fill="#0038B5"/>
<path d="M74.7707 47.4823C78.0003 46.4058 81.3374 41.6691 82.091 36.9325C82.8446 32.1958 80.7992 29.2892 77.5697 30.4734C74.2325 31.5499 71.4335 48.5588 74.7707 47.4823Z" fill="#ECB5A2"/>
<path d="M56.7933 107.228L41.5068 98.5085C41.5068 98.4009 41.5068 98.1856 41.6145 97.9703L43.8752 92.803C44.0905 92.3724 44.4134 92.1571 44.6287 92.2647L59.9152 100.984L56.7933 107.228Z" fill="#4FAA00"/>
<path d="M43.0137 68.9051L27.7272 60.293C25.6818 63.0919 24.6053 66.8597 25.1436 69.8739C25.4665 71.381 26.1124 72.4576 27.0813 72.9958L42.5831 81.8232C43.9825 80.6391 41.1836 72.9958 43.0137 68.9051Z" fill="#AF877B"/>
<path d="M92.9643 15.295C92.9643 15.295 87.5817 12.2808 83.2756 9.80481H83.3833L68.7427 1.30036C66.3744 -0.206759 62.9296 0.00854349 55.2863 4.42225C15.9936 27.1367 27.7276 60.1856 27.7276 60.1856L43.0141 68.9054C45.2747 68.4748 39.9998 45.6527 49.0425 38.763C56.7934 33.3804 60.3459 24.553 62.176 24.3377C64.1137 24.876 64.0061 28.2132 62.0683 31.658C72.1876 25.3066 73.2641 21.0005 73.3717 19.4934L74.2329 37.1482C74.2329 37.1482 76.6013 30.9045 78.8619 30.1509C78.8619 30.2585 96.4091 21.3235 92.9643 15.295Z" fill="url(#paint1_linear)"/>
<path d="M53.3488 70.1971C52.1647 75.4721 43.8755 75.472 42.2607 80.1011C42.3684 79.6704 42.6913 76.8715 42.6913 76.8715C43.5526 74.5032 46.0285 71.8119 48.7198 70.1971L53.2412 67.5059V70.1971H53.3488Z" fill="#563929"/>
<path d="M53.3486 70.1965C54.5328 74.1796 62.8219 64.5987 64.4367 67.2899C64.3291 66.8593 64.0061 64.5987 64.0061 64.5987C63.1449 63.1992 60.6689 63.3068 57.9776 64.9216L53.4563 67.6129V70.1965H53.3486Z" fill="#563929"/>
<path d="M77.7854 92.0512H76.6013L76.2783 89.5752L78.0007 90.5441L77.7854 92.0512Z" fill="#83662E"/>
<path d="M60.2383 120.9L77.1395 111.104V83.0068L60.2383 92.8031V120.9Z" fill="#AD8579"/>
<path d="M22.9907 141.462C22.9907 134.25 57.5468 107.875 57.5468 107.875V110.136C57.6544 110.028 57.7621 109.92 57.8697 109.813L58.6233 109.275C59.1616 108.844 59.6998 108.09 60.1304 108.413L67.2354 114.442C67.8813 114.872 68.9578 114.226 69.6037 113.042L77.0317 98.7247C77.3546 98.0788 77.8929 98.0788 78.4311 97.9711C78.7541 97.8635 79.077 97.8635 79.2923 98.0788V95.3875C79.2923 95.3875 113.848 81.8234 113.848 89.0361C122.03 98.94 120.738 119.824 120.738 119.824L15.8857 180.324C16.101 180.217 14.9169 160.839 22.9907 141.462Z" fill="url(#paint2_linear)"/>
<path d="M87.043 131.021L97.9157 124.669V88.3906L87.043 92.3737V131.021Z" fill="#006BFF"/>
<path d="M49.6875 152.551L38.707 158.903V122.516L49.6875 113.904V152.551Z" fill="#006BFF"/>
<path d="M31.1719 171.606L105.774 128.545V119.61L31.1719 162.671V171.606Z" fill="#0013FF"/>
<path d="M37.0929 143.617L55.7166 132.851L53.2406 131.56L34.7246 142.217L37.0929 143.617Z" fill="#0055D1"/>
<path d="M35.3691 164.716L37.7375 166.116V147.169L35.3691 145.77V164.716Z" fill="#A5A5A5"/>
<path d="M37.092 147.492L34.7236 146.092V142.217L37.092 143.616V147.492Z" fill="#000C7C"/>
<path d="M41.9355 135.649L44.3039 137.049V139.417L41.9355 138.125V135.649Z" fill="#7B7775"/>
<path d="M44.3039 137.049L41.9355 135.65L46.0263 133.281L48.3946 134.681L44.3039 137.049Z" fill="#A7A29F"/>
<path d="M37.0928 147.491L55.7164 136.726V132.851L37.0928 143.616V147.491Z" fill="#0018A5"/>
<path d="M37.7383 166.114L55.0701 156.102V137.048L37.7383 147.167V166.114Z" fill="white"/>
<path d="M48.8262 148.783L53.1322 146.307V140.278L48.8262 142.862V148.783Z" fill="#58D324"/>
<path d="M39.5684 158.257L53.1324 150.506V148.138L39.5684 155.996V158.257Z" fill="#587787"/>
<path d="M39.5684 162.238L53.1324 154.38V152.119L39.5684 159.87V162.238Z" fill="#587787"/>
<path d="M44.3047 137.049L48.3954 134.681V137.049L44.3047 139.417V137.049Z" fill="#BFBAB7"/>
<path d="M64.8672 134.573L72.6181 130.051V104.215L64.8672 108.736V134.573Z" fill="#1EA554"/>
<path d="M90.0569 56.202C93.2864 55.1255 96.6236 50.3888 97.3771 45.6522C98.1307 40.9155 96.0853 38.0089 92.8558 39.1931C89.5186 40.2696 86.7197 57.2785 90.0569 56.202Z" fill="#F7C2B0"/>
<path d="M47.7501 80.5313C44.4129 83.2225 41.1833 82.2537 40.4298 78.4859C39.6762 74.7181 41.7216 69.4432 44.9511 66.7519C48.2883 64.0606 51.0873 77.84 47.7501 80.5313Z" fill="#F8C3B0"/>
<path d="M68.7428 96.5714C41.507 112.288 45.9207 55.8792 45.9207 55.8792C45.9207 55.8792 46.9972 37.5785 68.2045 25.3062C86.6129 14.6487 91.2419 30.1505 91.2419 30.1505C91.2419 30.1505 96.0862 80.7466 68.7428 96.5714Z" fill="url(#paint3_linear)"/>
<path d="M92.1027 37.5792C89.8421 38.3327 89.5191 45.8683 89.5191 45.8683L86.6125 26.3834L77.2469 40.3781C78.6463 36.9333 77.6775 34.1343 75.8474 34.242C74.125 34.5649 64.3287 47.5907 64.3287 47.5907C64.2211 44.5765 61.3145 44.8995 58.5155 46.0836C57.762 49.3132 53.4559 53.8345 53.4559 53.8345C54.3172 48.3443 50.3341 50.7126 49.0422 50.4973C47.9657 51.1432 47.3198 49.2055 47.3198 49.2055C47.3198 49.2055 47.3198 72.1352 47.4275 71.274C45.2744 67.7215 41.9373 68.4751 41.9373 68.4751C41.9373 68.4751 29.2344 34.4573 68.5271 11.8505C81.8759 4.09963 82.4141 9.26689 86.6125 13.7882C99.3154 9.9128 92.1027 36.9333 92.1027 37.5792Z" fill="url(#paint4_linear)"/>
<path d="M94.0407 38.9788C91.78 39.7324 89.4117 45.9762 89.4117 45.9762L88.5505 27.7831C88.5505 27.7831 89.7347 32.6274 77.2471 40.4859C79.1848 36.9334 79.2925 33.7039 77.3548 33.1656C75.5247 33.381 71.9722 42.2084 64.2213 47.5909C64.1137 44.5767 62.1759 42.9619 59.2693 44.0384C58.4081 47.3756 58.0852 49.2057 53.2409 53.8347C54.3174 47.268 51.4108 48.8827 50.8725 49.3133C49.796 49.9592 49.0425 50.4975 49.0425 50.4975C49.0425 50.4975 47.1048 72.0278 47.2124 71.2742C46.0282 66.6452 42.7987 69.1212 42.7987 69.1212C42.7987 69.1212 31.28 35.8569 70.4651 13.1425C83.8138 5.39162 84.3521 10.5589 88.5505 15.0802C101.253 11.3124 94.0407 38.3329 94.0407 38.9788Z" fill="url(#paint5_linear)"/>
<path opacity="0.5" d="M68.0973 107.659L60.8847 119.824C60.5617 120.255 60.2388 120.255 60.1311 119.932L56.7939 107.229L59.3776 103.138C59.5929 102.707 59.9158 102.492 60.1311 102.6L68.205 106.69C68.3126 106.906 68.3126 107.336 68.0973 107.659Z" fill="black"/>
<path d="M68.0973 107.336L60.777 118.101C60.4541 118.532 60.1311 118.532 60.0235 118.209L56.7939 107.228C56.7939 107.121 56.7939 106.906 56.9016 106.69L59.1623 101.415C59.3776 100.985 59.7005 100.769 59.9158 100.877L68.205 106.367C68.3126 106.583 68.3126 107.013 68.0973 107.336Z" fill="url(#paint6_linear)"/>
<path opacity="0.5" d="M69.0648 107.121L76.2774 110.996C76.6004 111.104 76.9233 110.673 77.031 110.242C77.031 110.242 80.4758 93.7718 80.4758 93.6642L77.8922 92.5876C77.6769 92.3723 77.3539 92.5876 77.1386 92.9106L69.0648 106.367C68.8495 106.69 68.8495 107.013 69.0648 107.121Z" fill="black"/>
<path d="M69.0651 106.691L76.3854 108.952C76.6007 109.06 77.0313 108.629 77.1389 108.199L80.3685 93.5579C80.3685 93.3426 80.3685 93.235 80.2608 93.1273L78.0001 90.5437C77.7848 90.3284 77.4619 90.5437 77.2466 90.8666L68.9574 105.83C68.8498 106.261 68.8498 106.691 69.0651 106.691Z" fill="url(#paint7_linear)"/>
<path d="M67.2354 115.949C67.2354 116.379 67.343 116.595 67.5583 116.81C67.7736 117.025 68.6348 117.348 68.6348 117.348C69.3884 116.918 70.3572 114.872 70.3572 114.011C70.3572 114.011 69.819 113.688 69.6037 113.58C69.3884 113.473 69.0654 113.473 68.6348 113.688C67.8813 114.119 67.2354 115.088 67.2354 115.949Z" fill="#52663D"/>
<path d="M67.9893 116.38C67.9893 117.241 68.6352 117.564 69.3887 117.133C70.1423 116.702 70.7882 115.626 70.7882 114.765C70.7882 113.904 70.1423 113.581 69.3887 114.011C68.6352 114.549 67.9893 115.518 67.9893 116.38Z" fill="#EFFFD9"/>
<path d="M67.2354 128.221C67.2354 128.652 67.343 128.867 67.5583 129.082C67.7736 129.298 68.6348 129.621 68.6348 129.621C69.3884 129.19 70.3572 127.145 70.3572 126.284C70.3572 126.284 69.819 125.961 69.6037 125.853C69.3884 125.745 69.0654 125.745 68.6348 125.961C67.8813 126.391 67.2354 127.36 67.2354 128.221Z" fill="#52663D"/>
<path d="M67.9893 128.651C67.9893 129.512 68.6352 129.835 69.3887 129.405C70.1423 128.974 70.7882 127.897 70.7882 127.036C70.7882 126.175 70.1423 125.852 69.3887 126.283C68.6352 126.821 67.9893 127.79 67.9893 128.651Z" fill="#EFFFD9"/>
<defs>
<linearGradient id="paint0_linear" x1="0.814414" y1="129.194" x2="112.934" y2="129.194" gradientUnits="userSpaceOnUse">
<stop stop-color="#21FF00"/>
<stop offset="1" stop-color="#00AA31"/>
</linearGradient>
<linearGradient id="paint1_linear" x1="59.7496" y1="0.457031" x2="59.7496" y2="68.9054" gradientUnits="userSpaceOnUse">
<stop stop-color="#3A281E"/>
<stop offset="1" stop-color="#6E3500"/>
</linearGradient>
<linearGradient id="paint2_linear" x1="68.532" y1="180.27" x2="68.532" y2="86.8219" gradientUnits="userSpaceOnUse">
<stop stop-color="#39AB4A"/>
<stop offset="1" stop-color="#00FF17"/>
</linearGradient>
<linearGradient id="paint3_linear" x1="68.6149" y1="21.5654" x2="68.6149" y2="99.3366" gradientUnits="userSpaceOnUse">
<stop stop-color="#ECB5A2"/>
<stop offset="1" stop-color="#FFE0D6"/>
</linearGradient>
<linearGradient id="paint4_linear" x1="83.2009" y1="14.9903" x2="51.4438" y2="69.8924" gradientUnits="userSpaceOnUse">
<stop stop-color="#3D2A1E"/>
<stop offset="0.237569" stop-color="#482B15"/>
<stop offset="0.502762" stop-color="#532E10"/>
<stop offset="0.767956" stop-color="#5E3108"/>
<stop offset="1" stop-color="#683303"/>
</linearGradient>
<linearGradient id="paint5_linear" x1="68.6499" y1="9.15723" x2="68.6499" y2="71.2935" gradientUnits="userSpaceOnUse">
<stop stop-color="#563929"/>
<stop offset="1" stop-color="#8C483E"/>
</linearGradient>
<linearGradient id="paint6_linear" x1="56.7309" y1="109.698" x2="68.2755" y2="109.698" gradientUnits="userSpaceOnUse">
<stop stop-color="#00B932"/>
<stop offset="1" stop-color="#00F700"/>
</linearGradient>
<linearGradient id="paint7_linear" x1="76.2023" y1="90.8179" x2="73.2256" y2="108.325" gradientUnits="userSpaceOnUse">
<stop stop-color="#009A32"/>
<stop offset="1" stop-color="#00F700"/>
</linearGradient>
</defs>
</svg>
