<svg width="260" height="219" viewBox="0 0 260 219" fill="none" xmlns="http://www.w3.org/2000/svg">
<path d="M238.602 98.6124L225.05 120.988C225.05 120.988 220.953 118.467 219.062 117.522C217.486 116.576 216.226 114.37 216.226 111.534C216.226 105.546 220.323 98.2973 225.365 95.4608C228.202 93.8851 230.723 93.8851 232.299 95.1457L238.602 98.6124Z" fill="#2B2B2B"/>
<path d="M237.341 106.493C237.341 109.96 234.819 114.372 231.668 115.948C228.516 117.839 225.995 116.263 225.995 112.796C225.995 109.33 228.516 104.917 231.668 103.342C234.819 101.766 237.341 103.026 237.341 106.493Z" fill="#404041"/>
<path d="M235.765 105.546C235.765 109.012 233.243 113.425 230.092 115C226.94 116.891 224.419 115.316 224.419 111.849C224.419 108.382 226.94 103.97 230.092 102.394C233.243 100.503 235.765 101.764 235.765 105.546Z" fill="#727272"/>
<path d="M231.67 98.9307C226.627 101.767 222.53 109.016 222.53 115.004C222.53 120.992 226.627 123.198 231.67 120.361C236.712 117.525 240.809 110.276 240.809 104.288C241.124 98.6155 236.712 96.0943 231.67 98.9307ZM231.67 116.264C228.518 118.155 225.997 116.579 225.997 113.113C225.997 109.646 228.518 105.234 231.67 103.658C234.821 101.767 237.343 103.343 237.343 106.81C237.343 110.276 234.821 114.373 231.67 116.264Z" fill="black"/>
<path d="M231.984 107.442C231.984 108.703 231.039 109.964 230.093 110.594C229.148 111.224 228.202 110.594 228.202 109.648C228.202 108.388 229.148 107.127 230.093 106.497C231.354 105.867 231.984 106.497 231.984 107.442Z" fill="#231F20"/>
<path d="M215.277 112.167L201.726 134.543C201.726 134.543 197.629 132.022 195.738 131.076C194.162 130.131 192.901 127.925 192.901 125.088C192.901 119.101 196.998 111.852 202.041 109.016C204.877 107.44 207.399 107.44 208.974 108.7L215.277 112.167Z" fill="#2B2B2B"/>
<path d="M214.019 120.047C214.019 123.514 211.498 127.926 208.347 129.502C205.195 131.393 202.674 129.817 202.674 126.351C202.674 122.884 205.195 118.472 208.347 116.896C211.498 115.005 214.019 116.581 214.019 120.047Z" fill="#404041"/>
<path d="M212.758 118.783C212.758 122.249 210.236 126.662 207.085 128.237C203.933 130.128 201.412 128.553 201.412 125.086C201.412 121.619 203.933 117.207 207.085 115.631C210.236 113.74 212.758 115.316 212.758 118.783Z" fill="#727272"/>
<path d="M208.659 112.485C203.617 115.321 199.52 122.57 199.52 128.558C199.52 134.546 203.617 136.752 208.659 133.916C213.702 131.079 217.799 123.831 217.799 117.843C217.799 111.855 213.702 109.649 208.659 112.485ZM208.659 129.503C205.508 131.394 202.986 129.819 202.986 126.352C202.986 122.885 205.508 118.473 208.659 116.897C211.811 115.006 214.332 116.582 214.332 120.049C214.332 123.516 211.495 127.928 208.659 129.503Z" fill="black"/>
<path d="M208.977 120.989C208.977 122.25 208.032 123.51 207.086 124.141C206.141 124.771 205.195 124.141 205.195 123.195C205.195 121.935 206.141 120.674 207.086 120.044C208.032 119.413 208.977 119.729 208.977 120.989Z" fill="#231F20"/>
<path d="M192.273 125.4L178.721 147.777C178.721 147.777 174.624 145.255 172.733 144.31C171.157 143.364 169.896 141.158 169.896 138.322C169.896 132.334 173.994 125.085 179.036 122.249C181.872 120.673 184.394 120.673 185.969 121.934L192.273 125.4Z" fill="#2B2B2B"/>
<path d="M190.697 133.277C190.697 136.744 188.176 141.156 185.024 142.732C181.873 144.623 179.352 143.047 179.352 139.58C179.352 136.113 181.873 131.701 185.024 130.125C188.491 128.234 190.697 129.81 190.697 133.277Z" fill="#404041"/>
<path d="M189.435 132.02C189.435 135.486 186.914 139.898 183.763 141.474C180.611 143.365 178.09 141.789 178.09 138.323C178.09 134.856 180.611 130.444 183.763 128.868C186.914 127.292 189.435 128.553 189.435 132.02Z" fill="#727272"/>
<path d="M185.341 125.711C180.298 128.547 176.201 135.796 176.201 141.784C176.201 147.772 180.298 149.978 185.341 147.141C190.383 144.305 194.48 137.056 194.48 131.068C194.48 125.08 190.383 122.874 185.341 125.711ZM185.341 142.729C182.189 144.62 179.668 143.044 179.668 139.577C179.668 136.111 182.189 131.699 185.341 130.123C188.492 128.232 191.014 129.808 191.014 133.274C191.014 136.741 188.492 141.153 185.341 142.729Z" fill="black"/>
<path d="M185.655 134.224C185.655 135.484 184.709 136.745 183.764 137.375C182.819 138.005 181.873 137.375 181.873 136.43C181.873 135.169 182.819 133.908 183.764 133.278C185.025 132.648 185.655 132.963 185.655 134.224Z" fill="#231F20"/>
<path d="M239.861 91.6777L177.145 127.921C176.515 128.866 172.418 133.909 171.157 142.103L172.418 141.788C173.678 134.224 177.145 129.812 177.775 129.181L239.546 93.5687C240.176 93.5687 243.958 93.8838 244.904 100.187L246.164 99.2415C244.904 91.9929 240.807 91.6777 239.861 91.6777Z" fill="#4C4C4C"/>
<path d="M239.859 91.6759L177.143 127.919C176.513 128.864 172.416 133.907 171.155 142.101L161.07 136.113L239.859 90.7305L242.696 92.9366C241.435 91.9911 240.49 91.6759 239.859 91.6759Z" fill="#303030"/>
<path d="M236.709 94.8277L239.545 93.252C240.176 93.252 243.958 93.5671 244.903 99.8702L236.709 94.8277Z" fill="#303030"/>
<path d="M251.835 83.4795L249.313 85.0553C252.78 84.7401 256.562 86.0007 258.138 93.5645L259.714 92.3039C257.823 83.7947 252.78 83.4795 251.835 83.4795Z" fill="#4C4C4C"/>
<path d="M249.314 85.057C252.781 84.7419 256.563 86.0025 258.138 93.5663L246.478 86.948L249.314 85.057Z" fill="#303030"/>
<path d="M165.484 143.046L123.884 166.998C123.568 164.161 121.993 161.64 119.156 161.64V157.858L170.527 128.233L165.484 143.046Z" fill="url(#paint0_linear)"/>
<path d="M123.885 166.997C123.569 164.161 121.994 161.639 119.157 161.639V157.857L113.484 161.009L123.885 166.997Z" fill="#303030"/>
<path d="M161.386 137.685V131.697L158.864 132.958V139.261L142.161 148.716V142.728L139.009 144.619V150.607L133.021 154.073V166.364L135.228 167.625L168.949 148.085V135.794L166.743 134.534L161.386 137.685ZM158.864 142.413V149.346L141.846 159.116V152.182L158.864 142.413ZM135.543 155.649L139.009 153.758V160.692L135.543 162.583V155.649ZM165.167 145.564L161.386 147.77V140.522L165.167 138.316V145.564Z" fill="#606060"/>
<path d="M162.958 139.261V133.273L161.067 134.534V140.522L143.104 150.922V144.934L141.213 145.88V151.868L135.225 155.334V167.625L168.946 148.086V135.795L162.958 139.261ZM161.067 142.728V150.607L143.104 161.007V153.128L161.067 142.728ZM137.746 155.965L141.213 154.074V161.953L137.746 163.844V155.965ZM167.686 146.825L163.274 149.346V141.468L167.686 138.946V146.825Z" fill="#B3B3B3"/>
<path d="M120.415 166.681L106.863 189.057C106.863 189.057 102.766 186.536 100.875 185.59C99.2997 184.645 98.0391 182.439 98.0391 179.602C98.0391 173.614 102.136 166.366 107.179 163.529C110.015 161.953 112.536 161.953 114.112 163.214L120.415 166.681Z" fill="#2B2B2B"/>
<path d="M119.153 174.56C119.153 178.026 116.632 182.439 113.48 184.014C110.329 185.905 107.808 184.329 107.808 180.863C107.808 177.396 110.329 172.984 113.48 171.408C116.632 169.832 119.153 171.093 119.153 174.56Z" fill="#404041"/>
<path d="M117.578 173.615C117.578 177.082 115.057 181.494 111.905 183.069C108.754 184.96 106.232 183.385 106.232 179.918C106.232 176.451 108.754 172.039 111.905 170.463C115.057 168.572 117.578 170.148 117.578 173.615Z" fill="#727272"/>
<path d="M113.483 167.311C108.441 170.147 104.344 177.396 104.344 183.384C104.344 189.372 108.441 191.578 113.483 188.742C118.526 185.905 122.623 178.657 122.623 172.669C122.623 166.681 118.526 164.159 113.483 167.311ZM113.483 184.329C110.332 186.22 107.81 184.645 107.81 181.178C107.81 177.711 110.332 173.299 113.483 171.723C116.635 169.832 119.156 171.408 119.156 174.875C119.156 178.341 116.635 182.439 113.483 184.329Z" fill="black"/>
<path d="M113.797 175.821C113.797 177.082 112.851 178.342 111.906 178.973C110.96 179.603 110.015 178.973 110.015 178.027C110.015 176.767 110.96 175.506 111.906 174.876C113.166 174.245 113.797 174.561 113.797 175.821Z" fill="#231F20"/>
<path d="M71.5654 190.949C71.5654 190.949 75.6625 192.525 75.6625 202.925C75.6625 202.925 98.3537 189.689 99.6143 189.058C100.56 188.428 101.82 187.168 101.82 185.277C101.82 183.386 101.82 176.452 101.82 176.452C101.82 176.452 101.82 174.246 99.9295 175.192C98.0385 176.137 74.717 190.004 74.717 190.004C74.717 190.004 72.5109 188.743 71.5654 190.949Z" fill="url(#paint1_linear)"/>
<path d="M71.565 190.947L66.5225 188.111L71.2498 185.274V174.244L82.9106 181.177L97.0926 172.983C97.0926 172.983 101.505 175.505 100.874 175.189C100.559 174.874 100.244 174.874 99.6139 175.505C97.7229 176.45 74.4014 190.317 74.4014 190.317C74.4014 190.317 72.5104 188.741 71.565 190.947Z" fill="url(#paint2_linear)"/>
<path d="M71.5664 190.946C71.5664 190.946 75.6634 192.522 75.6634 202.922L58.0146 192.837L66.5239 187.795L71.5664 190.946Z" fill="#545454"/>
<path d="M69.9887 195.672L56.7521 218.048C56.7521 218.048 52.6551 215.527 50.7641 214.581C49.1884 213.636 47.9277 211.43 47.9277 208.593C47.9277 202.605 52.0248 195.357 57.0673 192.52C59.9037 190.945 62.4249 190.945 64.0007 192.205L69.9887 195.672Z" fill="#2B2B2B"/>
<path d="M66.9837 208.864C69.1594 205.096 69.2125 201.054 67.1022 199.835C64.992 198.617 61.5175 200.684 59.3418 204.452C57.1661 208.221 57.113 212.263 59.2233 213.481C61.3336 214.7 64.808 212.633 66.9837 208.864Z" fill="#404041"/>
<path d="M67.4667 202.606C67.4667 206.073 64.9455 210.485 61.7939 212.061C58.6423 213.952 56.1211 212.376 56.1211 208.909C56.1211 205.442 58.6423 201.03 61.7939 199.454C64.9455 197.564 67.4667 199.139 67.4667 202.606Z" fill="#727272"/>
<path d="M63.371 196.302C58.3285 199.139 54.2314 206.387 54.2314 212.375C54.2314 218.363 58.3285 220.569 63.371 217.733C68.4135 214.896 72.5105 207.648 72.5105 201.66C72.5105 195.672 68.4135 193.151 63.371 196.302ZM63.371 213.321C60.2194 215.212 57.6982 213.636 57.6982 210.169C57.6982 206.702 60.2194 202.29 63.371 200.714C66.5225 198.823 69.0438 200.399 69.0438 203.866C68.7286 207.333 66.2074 211.43 63.371 213.321Z" fill="black"/>
<path d="M63.6862 204.812C63.6862 206.073 62.7407 207.334 61.7952 207.964C60.8498 208.594 59.9043 207.964 59.9043 207.018C59.9043 206.073 60.8498 204.497 61.7952 203.867C62.7407 203.237 63.6862 203.552 63.6862 204.812Z" fill="#231F20"/>
<path d="M42.2559 158.171L83.2262 181.808V126.025L42.2559 102.389V158.171Z" fill="url(#paint3_linear)"/>
<path d="M218.743 0.594727L259.714 24.2314L83.2262 126.027L42.2559 102.39L218.743 0.594727Z" fill="url(#paint4_linear)"/>
<path d="M259.715 79.0657L83.2275 180.861V126.024L259.715 24.2285V79.0657Z" fill="url(#paint5_linear)"/>
<path d="M46.0396 148.402C40.9971 151.554 36.585 179.603 36.585 187.797C36.585 193.785 36.585 218.367 36.585 218.367L46.3548 212.694C46.3548 212.694 48.5609 211.749 48.876 209.228C49.1912 207.022 50.767 197.252 57.3853 193.47C61.7975 190.949 71.2521 185.276 71.2521 185.276V133.905C71.2521 133.905 48.2457 147.142 46.0396 148.402Z" fill="url(#paint6_linear)"/>
<path d="M46.0388 148.403C48.2449 147.142 71.2513 133.906 71.2513 133.906L36.5842 114.051C36.5842 114.051 13.5778 127.287 11.3717 128.548C6.32918 131.384 1.91699 159.748 1.91699 167.942C1.91699 173.93 1.91699 198.513 1.91699 198.513L11.0565 203.87L12.002 201.979L26.8143 210.489L27.4446 212.695L36.5842 218.052C36.5842 218.052 36.5842 193.47 36.5842 187.482C36.8993 179.603 40.9964 151.554 46.0388 148.403Z" fill="#E8E7E7"/>
<path d="M66.5254 123.504L41.3129 109.007L35.0098 112.789L60.2223 126.971L66.5254 123.504Z" fill="white"/>
<path d="M60.2234 126.973L35.0109 112.476C31.8594 114.682 23.9805 126.658 23.9805 126.658L49.193 141.155C49.193 141.155 57.0719 129.179 60.2234 126.973Z" fill="url(#paint7_linear)"/>
<path d="M33.1191 124.765C31.5433 126.971 29.6523 129.807 29.6523 129.807L43.5192 137.686C43.5192 137.686 45.4102 134.85 46.9859 132.644L33.1191 124.765Z" fill="white"/>
<path d="M33.1191 124.765C31.5433 126.971 29.6523 129.807 29.6523 129.807H41.6283L33.1191 124.765Z" fill="#808184"/>
<path d="M68.1027 127.921C68.1027 125.085 66.5269 123.509 66.5269 123.509C66.5269 123.509 63.6905 125.085 60.2238 127.291C56.7571 129.182 49.1934 141.158 49.1934 141.158L66.5269 131.073V128.866L68.1027 127.921Z" fill="#A0A0A0"/>
<path d="M36.2706 126.656L29.6523 129.807C31.2281 127.601 33.1191 124.765 33.1191 124.765L36.2706 126.656Z" fill="#ADADAD"/>
<path d="M46.0381 148.399L11.371 128.229C10.7407 128.545 10.1103 129.49 9.48004 130.436C5.38301 137.999 2.23145 160.691 2.23145 167.624C2.23145 173.612 2.23145 198.194 2.23145 198.194L11.371 203.552L12.0013 201.976L26.8136 210.485L27.4439 212.691L36.5835 218.049C36.5835 218.049 36.5835 193.467 36.5835 187.479C36.8986 179.6 40.9957 151.551 46.0381 148.399Z" fill="url(#paint8_linear)"/>
<path d="M39.7344 159.117C39.7344 158.802 40.0496 158.487 40.0496 158.171L7.90367 139.577C7.90367 139.577 3.80664 155.335 3.80664 163.214L4.43695 163.844C5.06727 155.65 8.84914 141.153 8.84914 141.153L39.7344 159.117Z" fill="#706964"/>
<path d="M39.7344 159.117C39.7344 158.802 40.0496 158.487 40.0496 158.171L7.90367 139.577C7.90367 139.577 3.80664 155.335 3.80664 163.214L4.43695 163.844C5.06727 155.65 8.84914 141.153 8.84914 141.153L39.7344 159.117Z" fill="#075BB0"/>
<path d="M17.6704 172.664C27.4403 178.337 35.004 181.173 35.004 181.173L35.9495 181.488C35.9495 181.488 37.2101 169.197 39.7314 159.112L8.84605 141.148C8.84605 141.148 5.06418 155.646 4.74902 163.84C4.74902 163.525 7.90059 166.991 17.6704 172.664Z" fill="url(#paint9_linear)"/>
<path d="M36.8986 203.24L2.23145 183.07V185.907L9.79519 190.319V197.567L28.3894 208.283L29.0197 201.665L36.8986 206.077V203.24Z" fill="url(#paint10_linear)"/>
<path d="M71.2543 133.906L66.5269 131.069L49.1934 141.154H58.648L71.2543 133.906Z" fill="#808184"/>
<path d="M63.8739 146.739V184.58L63.7346 184.669C63.6066 184.751 63.4196 184.871 63.1834 185.021C62.7108 185.321 62.0414 185.744 61.2538 186.237C59.6785 187.221 57.6312 188.481 55.7419 189.583L55.7415 189.583C53.0269 191.18 51.2802 194.127 50.1735 196.893C49.0656 199.663 48.5911 202.274 48.4329 203.222C48.2816 204.13 47.7509 204.816 47.2502 205.278C47.0005 205.509 46.7601 205.682 46.5825 205.797C46.4938 205.855 46.4209 205.898 46.3706 205.926C46.3454 205.94 46.3259 205.951 46.3129 205.958L46.2984 205.965L46.295 205.967L46.2943 205.967L46.2942 205.967L46.2886 205.97L39.2266 209.962V209.961V209.949V209.937V209.924V209.911V209.898V209.885V209.871V209.857V209.843V209.828V209.813V209.798V209.783V209.767V209.751V209.734V209.718V209.701V209.684V209.666V209.649V209.63V209.612V209.594V209.575V209.555V209.536V209.516V209.496V209.476V209.456V209.435V209.414V209.392V209.371V209.349V209.327V209.304V209.282V209.259V209.236V209.212V209.188V209.164V209.14V209.116V209.091V209.066V209.041V209.015V208.99V208.964V208.937V208.911V208.884V208.857V208.83V208.803V208.775V208.747V208.719V208.69V208.662V208.633V208.604V208.574V208.545V208.515V208.485V208.455V208.424V208.394V208.363V208.331V208.3V208.268V208.237V208.205V208.172V208.14V208.107V208.074V208.041V208.008V207.974V207.941V207.907V207.872V207.838V207.804V207.769V207.734V207.699V207.663V207.628V207.592V207.556V207.52V207.483V207.447V207.41V207.373V207.336V207.298V207.261V207.223V207.185V207.147V207.109V207.071V207.032V206.993V206.954V206.915V206.876V206.836V206.796V206.757V206.717V206.676V206.636V206.595V206.555V206.514V206.473V206.431V206.39V206.349V206.307V206.265V206.223V206.181V206.138V206.096V206.053V206.01V205.967V205.924V205.881V205.838V205.794V205.75V205.707V205.663V205.618V205.574V205.53V205.485V205.441V205.396V205.351V205.306V205.26V205.215V205.169V205.124V205.078V205.032V204.986V204.94V204.894V204.847V204.801V204.754V204.707V204.661V204.614V204.566V204.519V204.472V204.424V204.377V204.329V204.281V204.233V204.185V204.137V204.089V204.041V203.992V203.944V203.895V203.846V203.797V203.748V203.699V203.65V203.601V203.552V203.502V203.453V203.403V203.353V203.304V203.254V203.204V203.154V203.104V203.053V203.003V202.953V202.902V202.852V202.801V202.751V202.7V202.649V202.598V202.547V202.496V202.445V202.394V202.343V202.291V202.24V202.188V202.137V202.085V202.034V201.982V201.93V201.879V201.827V201.775V201.723V201.671V201.619V201.567V201.515V201.462V201.41V201.358V201.306V201.253V201.201V201.148V201.096V201.043V200.991V200.938V200.885V200.833V200.78V200.727V200.674V200.622V200.569V200.516V200.463V200.41V200.357V200.304V200.251V200.198V200.145V200.092V200.039V199.986V199.933V199.88V199.827V199.774V199.72V199.667V199.614V199.561V199.508V199.455V199.401V199.348V199.295V199.242V199.189V199.135V199.082V199.029V198.976V198.923V198.87V198.817V198.763V198.71V198.657V198.604V198.551V198.498V198.445V198.392V198.339V198.286V198.233V198.18V198.127V198.074V198.021V197.968V197.916V197.863V197.81V197.757V197.705V197.652V197.599V197.547V197.494V197.442V197.389V197.337V197.284V197.232V197.18V197.127V197.075V197.023V196.971V196.919V196.867V196.815V196.763V196.711V196.659V196.607V196.556V196.504V196.452V196.401V196.349V196.298V196.247V196.195V196.144V196.093V196.042V195.991V195.94V195.889V195.839V195.788V195.737V195.687V195.636V195.586V195.535V195.485V195.435V195.385V195.335V195.285V195.235V195.186V195.136V195.086V195.037V194.988V194.938V194.889V194.84V194.791V194.742V194.693V194.645V194.596V194.548V194.499V194.451V194.403V194.355V194.307V194.259V194.211V194.164V194.116V194.069V194.021V193.974V193.927V193.88V193.833V193.787V193.74V193.694V193.647V193.601V193.555V193.509V193.463V193.418V193.372V193.327V193.281V193.236V193.191V193.146V193.101V193.057V193.012V192.968V192.924V192.88V192.836V192.792V192.748V192.705V192.662V192.619V192.576V192.533V192.49V192.447V192.405V192.363V192.321V192.279V192.237V192.195V192.154V192.113V192.071V192.031V191.99V191.949V191.909V191.868V191.828V191.788V191.749V191.709V191.67V191.63V191.591V191.552V191.514V191.475V191.437V191.399V191.361V191.323V191.285V191.248V191.211V191.174V191.137V191.1V191.064V191.027V190.991V190.956V190.92V190.884V190.849V190.814V190.779V190.745V190.71V190.676V190.642V190.608V190.574V190.541V190.508V190.475V190.442V190.409V190.377V190.345V190.313V190.281V190.25V190.219V190.188V190.157V190.126V190.096V190.066V190.036V190.006C39.2266 186.71 40.1701 178.998 41.6664 171.792C42.4144 168.19 43.2994 164.72 44.2716 161.994C44.7578 160.632 45.2646 159.459 45.7852 158.55C46.3069 157.639 46.8339 157.009 47.3548 156.71C48.3126 156.23 52.4901 153.707 56.4215 151.309C58.3913 150.108 60.3021 148.936 61.7204 148.064C62.4295 147.628 63.0155 147.267 63.4243 147.016L63.8739 146.739Z" fill="url(#paint11_linear)" stroke="#ABABAB" stroke-width="0.25"/>
<path d="M42.8848 175.821L44.4605 163.845C44.4605 162.9 45.0909 161.639 46.0363 161.324L59.9032 153.445C60.8487 153.13 61.479 153.445 61.479 154.391V155.021C61.479 155.021 61.1638 155.021 61.1638 155.336L47.297 163.215C46.3515 163.53 45.7212 164.791 45.7212 165.736L44.1454 177.082C44.1454 177.082 44.1454 177.082 43.8302 177.082C43.5151 177.082 42.8848 176.767 42.8848 175.821Z" fill="#5E5151"/>
<path d="M42.8848 175.821L44.4605 163.845C44.4605 162.9 45.0909 161.639 46.0363 161.324L59.9032 153.445C60.8487 153.13 61.479 153.445 61.479 154.391V155.021C61.479 155.021 61.1638 155.021 61.1638 155.336L47.297 163.215C46.3515 163.53 45.7212 164.791 45.7212 165.736L44.1454 177.082C44.1454 177.082 44.1454 177.082 43.8302 177.082C43.5151 177.082 42.8848 176.767 42.8848 175.821Z" fill="#075BB0"/>
<path d="M47.0395 163.373L60.9064 155.494C61.2216 155.494 61.2216 155.494 61.2216 155.179V162.112C61.2216 163.058 60.5912 164.003 59.9609 164.318L59.6458 164.633L52.082 169.046C51.7669 169.361 51.1366 169.676 51.1366 170.306L49.5608 173.458C49.2456 174.088 48.9305 174.403 48.6153 174.718L44.5183 176.924H44.2031L45.7789 165.579C45.4637 164.949 46.0941 163.688 47.0395 163.373Z" fill="url(#paint12_linear)"/>
<path d="M59.5881 172.357L58.6426 173.302V176.454L60.5335 175.508V171.727L59.5881 172.357Z" fill="#0C3D6E"/>
<path d="M37.215 211.437L28.3906 206.395V201.982L37.215 207.025V211.437Z" fill="white"/>
<path d="M37.2129 211.435L39.419 210.174V205.762L37.2129 207.022V211.435Z" fill="#DDD5CE"/>
<path d="M36.2705 206.393L38.4766 205.133L39.4221 205.763L37.216 207.024L36.2705 206.393Z" fill="#A4A6A9"/>
<path d="M37.215 211.432L28.3906 206.39V208.911L37.215 213.953V211.432Z" fill="url(#paint13_linear)"/>
<path d="M37.2129 215.21L39.4154 214.267V212.693L37.2129 213.952V215.21Z" fill="#909295"/>
<path d="M37.2129 211.436L39.419 210.176V212.697L37.2129 213.958V211.436Z" fill="#B38354"/>
<path d="M37.215 215.214L28.3906 210.172V208.911L37.215 213.954V215.214Z" fill="#909295"/>
<path d="M37.8453 206.704L29.0209 201.661L28.3906 201.976L37.215 207.019L37.8453 206.704Z" fill="#A4A6A9"/>
<path d="M0.657227 185.594L2.2344 184.963V185.909L1.60353 186.225L0.657227 185.594Z" fill="#A4A6A9"/>
<path d="M9.79519 199.46L2.23145 195.047V193.472L9.48004 197.884L9.79519 197.569V199.46Z" fill="#909295"/>
<path d="M9.48062 195.379L0.65625 190.337V185.609L9.48062 190.652V195.379Z" fill="white"/>
<path d="M9.48062 195.365L0.65625 190.322V192.844L9.48062 197.886V195.365Z" fill="url(#paint14_linear)"/>
<path d="M9.79578 190.321L1.28656 185.278L0.65625 185.593L9.48062 190.636L9.79578 190.321Z" fill="#A4A6A9"/>
<path d="M9.79367 190.322V197.571L9.47852 197.886V190.637L9.79367 190.322Z" fill="#A4A6A9"/>
<defs>
<linearGradient id="paint0_linear" x1="133.454" y1="142.358" x2="145.348" y2="162.486" gradientUnits="userSpaceOnUse">
<stop stop-color="#404041"/>
<stop offset="1" stop-color="#8D8D93"/>
</linearGradient>
<linearGradient id="paint1_linear" x1="95.9396" y1="183.53" x2="73.981" y2="197.255" gradientUnits="userSpaceOnUse">
<stop stop-color="#C1C1C1"/>
<stop offset="1" stop-color="#DFDFDF"/>
</linearGradient>
<linearGradient id="paint2_linear" x1="74.8954" y1="178.954" x2="83.7293" y2="190.947" gradientUnits="userSpaceOnUse">
<stop stop-color="#747474"/>
<stop offset="1" stop-color="#B7B7B7"/>
</linearGradient>
<linearGradient id="paint3_linear" x1="62.087" y1="109.419" x2="62.741" y2="181.808" gradientUnits="userSpaceOnUse">
<stop stop-color="#00B707"/>
<stop offset="1" stop-color="#005C04"/>
</linearGradient>
<linearGradient id="paint4_linear" x1="52.0227" y1="114.91" x2="241.415" y2="18.8408" gradientUnits="userSpaceOnUse">
<stop stop-color="#269200"/>
<stop offset="1" stop-color="#05FF00"/>
</linearGradient>
<linearGradient id="paint5_linear" x1="189.265" y1="125.886" x2="167.306" y2="81.9693" gradientUnits="userSpaceOnUse">
<stop stop-color="#20E500"/>
<stop offset="1" stop-color="#06C503"/>
</linearGradient>
<linearGradient id="paint6_linear" x1="53.9185" y1="133.905" x2="53.9185" y2="218.367" gradientUnits="userSpaceOnUse">
<stop stop-color="#E0E0E0"/>
<stop offset="1" stop-color="#C3C3C3"/>
</linearGradient>
<linearGradient id="paint7_linear" x1="46.5361" y1="116.74" x2="33.7269" y2="135.954" gradientUnits="userSpaceOnUse">
<stop stop-color="white"/>
<stop offset="1" stop-color="#E8E7E7"/>
</linearGradient>
<linearGradient id="paint8_linear" x1="-9.73807" y1="147.363" x2="37.3836" y2="185.357" gradientUnits="userSpaceOnUse">
<stop stop-color="#C2C2C2" stop-opacity="0.2"/>
<stop offset="1" stop-color="#E8E7E7" stop-opacity="0.2"/>
</linearGradient>
<linearGradient id="paint9_linear" x1="22.2402" y1="141.148" x2="22.2402" y2="181.488" gradientUnits="userSpaceOnUse">
<stop stop-color="#005490"/>
<stop offset="1" stop-color="#00A2FF"/>
</linearGradient>
<linearGradient id="paint10_linear" x1="25.4894" y1="193.594" x2="19.0848" y2="207.318" gradientUnits="userSpaceOnUse">
<stop stop-color="#747474"/>
<stop offset="1" stop-color="#CECECE" stop-opacity="0.7"/>
</linearGradient>
<linearGradient id="paint11_linear" x1="51.5502" y1="146.515" x2="51.5502" y2="210.176" gradientUnits="userSpaceOnUse">
<stop stop-color="white"/>
<stop offset="1" stop-color="#B9B7B7"/>
</linearGradient>
<linearGradient id="paint12_linear" x1="52.7123" y1="155.179" x2="52.7123" y2="176.924" gradientUnits="userSpaceOnUse">
<stop stop-color="#075BB0"/>
<stop offset="1" stop-color="#0096EE"/>
</linearGradient>
<linearGradient id="paint13_linear" x1="36.4698" y1="211.891" x2="30.0653" y2="209.147" gradientUnits="userSpaceOnUse">
<stop stop-color="#FFC990"/>
<stop offset="0.922652" stop-color="#FFFB90" stop-opacity="0.59"/>
</linearGradient>
<linearGradient id="paint14_linear" x1="-0.12824" y1="191.768" x2="8.10622" y2="197.258" gradientUnits="userSpaceOnUse">
<stop stop-color="#FFC990"/>
<stop offset="1" stop-color="#FFEF9E"/>
</linearGradient>
</defs>
</svg>
