<svg width="123" height="186" viewBox="0 0 123 186" fill="none" xmlns="http://www.w3.org/2000/svg">
<path d="M44.9531 115.477L60.6308 124.42V95.604L44.9531 86.6611V115.477Z" fill="#6B534C"/>
<path d="M76.6403 39.2965C78.6276 47.4666 75.8674 68.0022 64.9372 80.2573C59.5273 83.3486 49.5907 91.2979 44.1808 94.4997C30.38 92.0707 30.0488 66.8981 30.0488 66.8981L51.6885 43.1608C51.6885 43.1608 72.1136 37.3092 76.6403 39.2965Z" fill="#563929"/>
<path d="M76.6402 22.5148C76.6402 22.5148 72.0031 6.61625 53.0132 17.5465C31.3736 30.0224 30.2695 48.7914 30.2695 48.7914C30.2695 48.7914 31.484 86.1088 43.5183 94.058C43.5183 94.058 43.1871 93.8372 43.5183 94.058L55.3318 100.903L52.5716 91.1875C52.9028 90.9666 53.3444 90.8562 53.6757 90.6354C81.8293 74.2953 76.6402 22.5148 76.6402 22.5148Z" fill="#AF877B"/>
<path d="M76.7501 40.0703C76.0876 52.4358 73.3275 68.6655 64.8262 80.3686C64.8262 80.3686 64.9366 80.3686 64.9366 80.2582C75.5356 68.4447 78.4061 48.7924 76.7501 40.0703Z" fill="#563929"/>
<path d="M114.186 90.5179C114.186 90.5179 105.945 82.9575 98.8395 81.7958C91.7345 80.6341 64.8265 89.2009 64.8265 89.2009V91.8507C64.6057 91.7403 64.2745 91.6299 63.9433 91.7403C63.3912 91.9611 62.8392 91.8507 62.508 92.5131L53.5651 96.5981L66.4826 100.462L62.2872 105.651L48.5968 98.9167L43.6285 101.235L42.3036 102.229C42.3036 102.229 10.2431 128.715 6.86322 136.676C-1.52766 156.438 0.740133 175.3 0.740133 175.3L15.2511 185.194L107.333 114.374C107.333 114.374 107.995 102.781 105.014 92.5131L114.186 90.5179Z" fill="url(#paint0_linear)"/>
<path d="M75.5357 49.1226C78.8479 48.0185 82.2705 43.1606 83.0434 38.3028C83.8162 33.4449 81.7185 30.4639 78.4063 31.6784C74.9837 32.7824 72.1131 50.2266 75.5357 49.1226Z" fill="#ECB5A2"/>
<path d="M57.0986 110.398L41.4209 101.455C41.4209 101.345 41.4209 101.124 41.5313 100.903L43.8498 95.6036C44.0706 95.162 44.4019 94.9412 44.6227 95.0516L60.3004 103.994L57.0986 110.398Z" fill="#4FAA00"/>
<path d="M42.9657 71.0942L27.2881 62.2617C25.1903 65.1323 24.0863 68.9965 24.6383 72.0879C24.9695 73.6336 25.632 74.7376 26.6256 75.2897L42.5241 84.343C43.9594 83.1285 41.0888 75.2897 42.9657 71.0942Z" fill="#AF877B"/>
<path d="M94.1943 16.1113C94.1943 16.1113 88.674 13.0199 84.2578 10.4806H84.3682L69.3529 1.75846C66.924 0.212777 63.391 0.433589 55.5521 4.96025C15.2538 28.256 27.2881 62.1507 27.2881 62.1507L42.9658 71.0936C45.2843 70.652 39.8744 47.2458 49.1486 40.1798C57.0978 34.6595 60.7412 25.6062 62.6181 25.3854C64.6054 25.9374 64.495 29.36 62.5077 32.893C72.8859 26.3791 73.99 21.9628 74.1004 20.4171L74.9836 38.5237C74.9836 38.5237 77.4126 32.1202 79.7311 31.3473C79.7311 31.4577 97.7273 22.294 94.1943 16.1113Z" fill="url(#paint1_linear)"/>
<path d="M53.5652 72.4193C52.3507 77.8292 43.8495 77.8292 42.1934 82.5767C42.3038 82.1351 42.635 79.2645 42.635 79.2645C43.5182 76.8356 46.0576 74.0754 48.8177 72.4193L53.4548 69.6592V72.4193H53.5652Z" fill="#563929"/>
<path d="M53.5654 72.4194C54.7799 76.5044 63.2812 66.6783 64.9373 69.4384C64.8269 68.9968 64.4957 66.6783 64.4957 66.6783C63.6124 65.243 61.0731 65.3534 58.3129 67.0095L53.6758 69.7697V72.4194H53.5654Z" fill="#563929"/>
<path d="M78.6267 94.8313H77.4123L77.0811 92.292L78.8476 93.2857L78.6267 94.8313Z" fill="#83662E"/>
<path d="M60.6309 124.42L77.9646 114.373V85.5566L60.6309 95.6036V124.42Z" fill="#AD8579"/>
<path d="M22.4304 145.508C25.63 136.605 57.8708 111.061 57.8708 111.061V113.379C57.9812 113.269 58.0916 113.159 58.202 113.048L58.9749 112.496C59.5269 112.055 60.0789 111.282 60.5205 111.613L67.8074 117.796C68.4698 118.237 69.5739 117.575 70.2363 116.36L77.8543 101.676C78.1856 101.014 78.7376 101.014 79.2896 100.904C79.6208 100.793 79.952 100.793 80.1729 101.014V98.2538C80.1729 98.2538 110.513 84.641 115.613 91.7399C123.3 102.438 122.756 123.001 122.756 123.001L15.251 185.194C15.4718 185.083 14.1499 165.381 22.4304 145.508Z" fill="url(#paint2_linear)"/>
<path d="M47.8242 83.0178C44.4016 85.7779 41.0894 84.7843 40.3166 80.9201C39.5438 77.0558 41.6415 71.6459 44.9537 68.8858C48.3763 66.1256 51.2468 80.2576 47.8242 83.0178Z" fill="#F7CFC0"/>
<path opacity="0.5" d="M68.6903 110.84L61.2931 123.316C60.9619 123.758 60.6307 123.758 60.5202 123.427L57.0977 110.399L59.7474 106.203C59.9682 105.762 60.2994 105.541 60.5202 105.651L68.8007 109.847C68.9111 110.067 68.9111 110.509 68.6903 110.84Z" fill="black"/>
<path d="M68.6903 110.508L61.1827 121.549C60.8515 121.99 60.5202 121.99 60.4098 121.659L57.0977 110.398C57.0977 110.287 57.0977 110.066 57.2081 109.846L59.5266 104.436C59.7474 103.994 60.0786 103.773 60.2994 103.884L68.8007 109.514C68.9111 109.735 68.9111 110.177 68.6903 110.508Z" fill="url(#paint3_linear)"/>
<path opacity="0.5" d="M69.6842 110.288L77.0814 114.262C77.4126 114.373 77.7438 113.931 77.8542 113.489C77.8542 113.489 81.3872 96.5973 81.3872 96.4869L78.7375 95.3828C78.5167 95.162 78.1854 95.3828 77.9646 95.714L69.6842 109.515C69.4634 109.846 69.4634 110.177 69.6842 110.288Z" fill="black"/>
<path d="M69.6839 109.846L77.1915 112.165C77.4123 112.275 77.854 111.833 77.9644 111.392L81.2766 96.3765C81.2766 96.1557 81.2766 96.0453 81.1662 95.9349L78.8476 93.2852C78.6268 93.0644 78.2956 93.2852 78.0748 93.6164L69.5735 108.963C69.4631 109.404 69.4631 109.846 69.6839 109.846Z" fill="url(#paint4_linear)"/>
<path d="M67.8076 119.341C67.8076 119.783 67.918 120.004 68.1388 120.225C68.3596 120.445 69.2429 120.777 69.2429 120.777C70.0157 120.335 71.0094 118.237 71.0094 117.354C71.0094 117.354 70.4574 117.023 70.2366 116.912C70.0157 116.802 69.6845 116.802 69.2429 117.023C68.4701 117.464 67.8076 118.458 67.8076 119.341Z" fill="#52663D"/>
<path d="M68.5801 119.783C68.5801 120.666 69.2425 120.997 70.0154 120.556C70.7882 120.114 71.4506 119.01 71.4506 118.127C71.4506 117.244 70.7882 116.912 70.0154 117.354C69.2425 117.906 68.5801 118.9 68.5801 119.783Z" fill="#EFFFD9"/>
<path d="M67.8076 131.927C67.8076 132.369 67.918 132.59 68.1388 132.81C68.3596 133.031 69.2429 133.363 69.2429 133.363C70.0157 132.921 71.0094 130.823 71.0094 129.94C71.0094 129.94 70.4574 129.609 70.2366 129.498C70.0157 129.388 69.6845 129.388 69.2429 129.609C68.4701 130.05 67.8076 131.044 67.8076 131.927Z" fill="#52663D"/>
<path d="M68.5801 132.369C68.5801 133.252 69.2425 133.583 70.0154 133.142C70.7882 132.7 71.4506 131.596 71.4506 130.713C71.4506 129.829 70.7882 129.498 70.0154 129.94C69.2425 130.492 68.5801 131.486 68.5801 132.369Z" fill="#EFFFD9"/>
<path d="M69.3531 99.4675C41.4203 115.587 45.947 57.7339 45.947 57.7339C45.947 57.7339 47.0511 38.9648 68.8011 26.3785C87.6806 15.4483 92.428 31.3468 92.428 31.3468C92.428 31.3468 97.3963 83.2377 69.3531 99.4675Z" fill="url(#paint5_linear)"/>
<path d="M93.3117 38.9656C90.9932 39.7384 90.662 47.4669 90.662 47.4669L87.681 27.4833L78.0756 41.8362C79.5109 38.3031 78.5173 35.4326 76.6404 35.543C74.8739 35.8742 64.8269 49.2334 64.8269 49.2334C64.7165 46.142 61.7355 46.4732 58.8649 47.6877C58.0921 50.9999 53.6759 55.6369 53.6759 55.6369C54.5591 50.0062 50.4741 52.4352 49.1492 52.2143C48.0451 52.8768 47.3827 50.8895 47.3827 50.8895C47.3827 50.8895 47.3827 74.406 47.4931 73.5228C45.285 69.8793 41.8624 70.6522 41.8624 70.6522C41.8624 70.6522 28.8344 35.7638 69.1327 12.5785C82.8231 4.62924 83.3751 9.92874 87.681 14.5658C100.709 10.5912 93.3117 38.3032 93.3117 38.9656Z" fill="url(#paint6_linear)"/>
<path d="M95.2987 40.4012C92.9802 41.174 90.5513 47.5776 90.5513 47.5776L89.668 28.9189C89.668 28.9189 90.8825 33.8872 78.0754 41.9469C80.0627 38.3035 80.1731 34.9913 78.1858 34.4392C76.3089 34.6601 72.6655 43.7134 64.7162 49.2337C64.6058 46.1423 62.6185 44.4862 59.6375 45.5903C58.7543 49.0129 58.4231 50.8898 53.4548 55.6373C54.5588 48.9025 51.5779 50.5586 51.0258 51.0002C49.9218 51.6626 49.1489 52.2147 49.1489 52.2147C49.1489 52.2147 47.1616 74.2959 47.272 73.5231C46.0575 68.7756 42.7454 71.3149 42.7454 71.3149C42.7454 71.3149 30.9319 37.1994 71.1198 13.9037C84.8101 5.95443 85.3622 11.2539 89.668 15.891C102.696 12.0268 95.2987 39.7387 95.2987 40.4012Z" fill="url(#paint7_linear)"/>
<path d="M72.9181 125.492L68.2459 127.439L65.131 156.251L80.7051 147.685L72.9181 125.492Z" fill="url(#paint8_linear)"/>
<path d="M68.2462 127.439L63.9633 118.484L69.0249 109.919L76.0332 113.423L72.9184 125.493L68.2462 127.439Z" fill="url(#paint9_linear)"/>
<defs>
<linearGradient id="paint0_linear" x1="-0.313236" y1="132.926" x2="114.676" y2="132.926" gradientUnits="userSpaceOnUse">
<stop stop-color="#21FF00"/>
<stop offset="1" stop-color="#00AA31"/>
</linearGradient>
<linearGradient id="paint1_linear" x1="60.1297" y1="0.893555" x2="60.1297" y2="71.0936" gradientUnits="userSpaceOnUse">
<stop stop-color="#3A281E"/>
<stop offset="1" stop-color="#6E3500"/>
</linearGradient>
<linearGradient id="paint2_linear" x1="86.974" y1="152.803" x2="73.146" y2="101.558" gradientUnits="userSpaceOnUse">
<stop stop-color="#00FF17"/>
<stop offset="1" stop-color="#39AB4A"/>
</linearGradient>
<linearGradient id="paint3_linear" x1="57.033" y1="112.93" x2="68.873" y2="112.93" gradientUnits="userSpaceOnUse">
<stop stop-color="#00B932"/>
<stop offset="1" stop-color="#00F700"/>
</linearGradient>
<linearGradient id="paint4_linear" x1="77.0037" y1="93.5664" x2="73.9509" y2="111.522" gradientUnits="userSpaceOnUse">
<stop stop-color="#009A32"/>
<stop offset="1" stop-color="#00F700"/>
</linearGradient>
<linearGradient id="paint5_linear" x1="69.2219" y1="22.542" x2="69.2219" y2="102.304" gradientUnits="userSpaceOnUse">
<stop stop-color="#ECB5A2"/>
<stop offset="1" stop-color="#FFE0D6"/>
</linearGradient>
<linearGradient id="paint6_linear" x1="84.1821" y1="15.7986" x2="51.6122" y2="72.1058" gradientUnits="userSpaceOnUse">
<stop stop-color="#3D2A1E"/>
<stop offset="0.237569" stop-color="#482B15"/>
<stop offset="0.502762" stop-color="#532E10"/>
<stop offset="0.767956" stop-color="#5E3108"/>
<stop offset="1" stop-color="#683303"/>
</linearGradient>
<linearGradient id="paint7_linear" x1="69.2582" y1="9.81641" x2="69.2582" y2="73.5429" gradientUnits="userSpaceOnUse">
<stop stop-color="#563929"/>
<stop offset="1" stop-color="#8C483E"/>
</linearGradient>
<linearGradient id="paint8_linear" x1="71.75" y1="125.492" x2="70.9713" y2="158.587" gradientUnits="userSpaceOnUse">
<stop stop-color="#001BA8"/>
<stop offset="1" stop-color="#0029FF"/>
</linearGradient>
<linearGradient id="paint9_linear" x1="63.574" y1="119.263" x2="75.6439" y2="118.484" gradientUnits="userSpaceOnUse">
<stop stop-color="#0020C7"/>
<stop offset="0.541436" stop-color="#0038FF"/>
<stop offset="1" stop-color="#0020C4"/>
</linearGradient>
</defs>
</svg>
