<svg width="519" height="166" viewBox="0 0 519 166" fill="none" xmlns="http://www.w3.org/2000/svg">
<path d="M401.346 61.0046L384.697 35.1778L378.982 43.861C323.817 15.3625 260.948 0 196.589 0C140.182 0 85.0167 11.8002 35.3184 33.6193C37.5549 35.8457 39.2943 38.5175 40.5367 41.4119C88.744 20.4833 142.17 9.12842 196.589 9.12842C259.209 9.12842 320.338 24.0456 374.012 51.6535L368.048 61.0046H401.346Z" fill="#00CF3E"/>
<path d="M38.5292 74.9179H50.7846V83.2659C54.2247 78.1287 59.1698 73.8477 67.5551 73.8477C79.5955 73.8477 86.6907 81.9816 86.6907 94.3966V128.217H74.4353V98.0354C74.4353 89.6874 70.3502 84.9783 63.04 84.9783C55.9447 84.9783 50.9996 89.9015 50.9996 98.2495V128.431H38.7442V74.9179H38.5292Z" fill="#00CF3E"/>
<path d="M102.745 74.9179H115.817V83.2659C119.486 78.1287 124.761 73.8477 133.705 73.8477C146.549 73.8477 154.117 81.9816 154.117 94.3966V128.217H141.044V98.0354C141.044 89.6874 136.687 84.9783 128.889 84.9783C121.321 84.9783 116.046 89.9015 116.046 98.2495V128.431H102.974V74.9179H102.745Z" fill="#00CF3E"/>
<path d="M166.96 118.798H176.592V128.431H166.96V118.798Z" fill="#00CF3E"/>
<path d="M192.646 51.3723H205.489V128.431H192.646V51.3723Z" fill="#007CFF"/>
<path d="M221.543 101.139C221.543 86.2338 235.355 73.8477 253.772 73.8477C272.188 73.8477 285.758 86.0239 285.758 101.139C285.758 116.045 271.946 128.431 253.529 128.431C235.113 128.431 221.543 116.254 221.543 101.139ZM271.946 101.139C271.946 91.902 264.192 84.3444 253.529 84.3444C242.383 84.3444 235.355 91.902 235.355 101.139C235.355 110.166 243.11 117.934 253.772 117.934C264.919 117.934 271.946 110.376 271.946 101.139Z" fill="#007CFF"/>
<path d="M301.15 144.114L305.61 134.042C311.132 137.79 317.291 140.132 324.512 140.132C335.344 140.132 341.291 134.042 341.291 122.331V117.881C336.831 124.205 331.309 128.655 322.601 128.655C310.282 128.655 298.601 118.584 298.601 101.251C298.601 83.9191 310.282 73.8477 322.601 73.8477C331.521 73.8477 337.043 78.2978 341.078 83.6849V75.0188H353.184V121.16C353.184 130.997 350.848 138.258 346.388 143.177C341.503 148.564 334.07 150.906 324.725 150.906C316.017 150.906 307.946 148.564 301.15 144.114ZM341.291 101.017C341.291 91.4142 334.282 84.856 325.787 84.856C317.291 84.856 310.707 91.1799 310.707 101.017C310.707 110.62 317.504 117.178 325.787 117.178C334.282 117.178 341.291 110.62 341.291 101.017Z" fill="#007CFF"/>
<path d="M401.346 120.572L407.427 112.289C413.994 116.537 421.048 118.873 427.372 118.873C433.453 118.873 436.859 116.749 436.859 112.927C436.859 109.104 431.021 107.617 424.454 105.918C424.21 105.918 423.724 105.705 423.481 105.705C414.481 103.369 404.508 100.183 404.508 89.9889C404.508 80.0068 413.994 73.8477 426.156 73.8477C433.697 73.8477 441.967 76.1839 448.291 79.7944L442.697 88.5022C436.859 85.3165 430.535 83.405 425.67 83.405C420.319 83.405 417.156 85.5288 417.156 88.927C417.156 92.5376 422.994 94.2366 429.562 95.9357C429.805 95.9357 430.291 96.1481 430.778 96.1481C439.535 98.4844 449.507 102.095 449.507 111.865C449.507 122.909 439.535 128.431 427.129 128.431C418.373 128.431 408.886 125.67 401.346 120.572Z" fill="#007CFF"/>
<path d="M456.6 136.434L484.712 125.834L482.274 119.369L492.789 115.404L495.227 121.869L509.819 116.367L513.906 127.205L499.313 132.707L504.117 145.447L493.602 149.412L488.798 136.672L462.618 146.544C457.897 148.324 456.755 151.144 458.189 154.947C459.121 157.419 460.553 159.268 462.415 160.955L452.329 164.758C449.609 162.743 447.389 160.106 445.883 156.113C443.086 148.046 444.798 140.885 456.6 136.434Z" fill="#007CFF"/>
<path d="M9.63229 73.8477H22.4754V128.431H9.63229V73.8477Z" fill="#00CF3E"/>
<path d="M375.66 73.8477H388.503V128.431H375.66V73.8477Z" fill="#007CFF"/>
<path d="M14.4484 61.0046C22.4281 61.0046 28.8969 54.5358 28.8969 46.5561C28.8969 38.5765 22.4281 32.1077 14.4484 32.1077C6.46879 32.1077 0 38.5765 0 46.5561C0 54.5358 6.46879 61.0046 14.4484 61.0046Z" fill="#00CF3E"/>
</svg>
