<svg width="15" height="14" viewBox="0 0 15 14" fill="none" xmlns="http://www.w3.org/2000/svg">
<path d="M12.0054 2H9.45417C9.38039 2 9.31228 2.04596 9.2839 2.11491C9.25552 2.18386 9.26971 2.26429 9.32363 2.31887L10.2828 3.28986L3.62235 10.0695L2.66315 9.09854C2.60923 9.04395 2.53261 9.02959 2.46166 9.05832C2.39355 9.08704 2.34814 9.15599 2.34814 9.23068V11.8133C2.34814 11.9167 2.43044 12 2.53261 12H5.08385C5.15764 12 5.22575 11.954 5.25412 11.8851C5.2825 11.8161 5.26831 11.7357 5.21439 11.6811L4.25519 10.7101L9.32931 5.53634L10.9157 3.93048L11.8749 4.90147C11.9288 4.95605 12.0054 4.97041 12.0764 4.94168C12.1445 4.91296 12.1899 4.84401 12.1899 4.76932V2.18673C12.1899 2.08331 12.1076 2 12.0054 2Z" fill="#627D8B"/>
<path d="M13.0788 0H1.45906C0.863918 0 0.379639 0.49206 0.379639 1.09676V12.9032C0.379639 13.5079 0.863918 14 1.45906 14H13.0788C13.674 14 14.1583 13.5079 14.1583 12.9032V1.09676C14.1583 0.49206 13.674 0 13.0788 0ZM13.2393 12.9032C13.2393 12.9951 13.1664 13.0663 13.0788 13.0663H1.45906C1.36862 13.0663 1.2986 12.9922 1.2986 12.9032V1.09676C1.2986 1.00487 1.37154 0.933729 1.45906 0.933729H13.0788C13.1693 0.933729 13.2393 1.00783 13.2393 1.09676V12.9032Z" fill="#627D8B"/>
</svg>
