<svg width="23" height="24" viewBox="0 0 23 24" fill="none" xmlns="http://www.w3.org/2000/svg">
<path d="M22.0853 5.65808C22.0853 5.56691 22.065 5.47573 22.0245 5.38962C21.9434 5.21739 21.7864 5.10089 21.6142 5.06543L11.2959 0.0607851C11.1287 -0.0202617 10.9312 -0.0202617 10.764 0.0607851L0.344449 5.11102C0.141832 5.20726 0.0101309 5.40988 0 5.63782V5.64289C0 5.64795 0 5.65302 0 5.66315V18.3369C0 18.5699 0.131701 18.7826 0.344449 18.8839L10.764 23.9341C10.7691 23.9341 10.7691 23.9341 10.7742 23.9392C10.7894 23.9443 10.8046 23.9493 10.8198 23.9595C10.8248 23.9595 10.8299 23.9645 10.84 23.9645C10.8552 23.9696 10.8704 23.9747 10.8856 23.9797C10.8907 23.9797 10.8957 23.9848 10.9008 23.9848C10.916 23.9899 10.9363 23.9899 10.9515 23.9949C10.9565 23.9949 10.9616 23.9949 10.9667 23.9949C10.9869 23.9949 11.0122 24 11.0325 24C11.0528 24 11.0781 24 11.0984 23.9949C11.1034 23.9949 11.1085 23.9949 11.1136 23.9949C11.1287 23.9949 11.149 23.9899 11.1642 23.9848C11.1693 23.9848 11.1743 23.9797 11.1794 23.9797C11.1946 23.9747 11.2098 23.9696 11.225 23.9645C11.2301 23.9645 11.2351 23.9595 11.2453 23.9595C11.2604 23.9544 11.2756 23.9493 11.2908 23.9392C11.2959 23.9392 11.2959 23.9392 11.301 23.9341L21.751 18.8687C21.9586 18.7674 22.0954 18.5547 22.0954 18.3217V5.67328C22.0853 5.66821 22.0853 5.66315 22.0853 5.65808ZM11.0274 1.28155L20.0642 5.66315L16.7362 7.27902L7.69945 2.89743L11.0274 1.28155ZM11.0274 10.0447L1.99071 5.66315L6.30646 3.57113L15.3432 7.95272L11.0274 10.0447ZM1.2157 6.64078L10.4196 11.1034V22.4145L1.2157 17.9519V6.64078ZM11.6353 22.4145V11.1034L15.9561 9.00633V11.9645C15.9561 12.2989 16.2296 12.5724 16.564 12.5724C16.8983 12.5724 17.1718 12.2989 17.1718 11.9645V8.41368L20.8696 6.62051V17.9316L11.6353 22.4145Z" fill="#2E384D"/>
</svg>
