<svg width="24" height="22" viewBox="0 0 24 22" fill="none" xmlns="http://www.w3.org/2000/svg">
<path d="M22.8905 21.0768C22.8889 21.0771 22.8864 21.0768 22.8843 21.0768H1.10987C0.71348 21.0768 0.346845 20.8653 0.148648 20.5218C-0.0495492 20.1784 -0.0495492 19.7553 0.148648 19.4119L11.0359 0.554931C11.2341 0.211505 11.6007 0 11.9971 0C12.3935 0 12.7599 0.211505 12.958 0.554931L23.7913 19.3184C23.9226 19.5008 24 19.7244 24 19.9668C24.0003 20.5797 23.5033 21.0768 22.8905 21.0768ZM3.03233 18.857H20.9618L11.9971 3.32996L3.03233 18.857ZM15.8386 17.1064C15.7451 17.3065 15.5698 17.4316 15.3716 17.478C15.4639 17.6595 15.4859 17.8744 15.3951 18.0741C15.2381 18.4204 14.8291 18.5724 14.485 18.4151C14.1369 18.2572 13.9846 17.849 14.1437 17.5035C14.1487 17.488 14.1629 17.4809 14.1701 17.4663L11.9135 16.4522L9.6281 17.4029C9.63554 17.4174 9.64822 17.4249 9.6532 17.4397C9.80183 17.7897 9.63926 18.1944 9.28687 18.343C8.93695 18.4889 8.53375 18.3254 8.38637 17.9749C8.30092 17.7711 8.32968 17.558 8.42692 17.3796C8.23087 17.3277 8.05746 17.1957 7.97106 16.9944C7.8252 16.6439 7.9872 16.2391 8.33895 16.0933C8.68888 15.9453 9.09208 16.1084 9.24009 16.4587C9.24538 16.4742 9.24381 16.4887 9.24905 16.503L10.6918 15.9032L9.26639 15.2628C9.26021 15.2767 9.26267 15.2925 9.25523 15.3067C9.09821 15.6523 8.68914 15.805 8.34356 15.648C7.99888 15.4901 7.84747 15.0819 8.00449 14.7357C8.09586 14.536 8.27299 14.4118 8.47056 14.3629C8.37704 14.1827 8.35478 13.9671 8.4461 13.7677C8.60374 13.4215 9.01219 13.2701 9.35839 13.4264C9.70459 13.5844 9.85668 13.9925 9.69715 14.3387C9.69223 14.3532 9.67798 14.3617 9.673 14.374L11.9293 15.3903L14.2131 14.4403C14.206 14.4248 14.1933 14.4173 14.1865 14.4019C14.0394 14.0494 14.2026 13.6469 14.5544 13.4995C14.9027 13.3515 15.306 13.5144 15.454 13.8668C15.5398 14.0687 15.5106 14.2836 15.4119 14.462C15.6094 14.5146 15.7832 14.6434 15.8695 14.8484C16.0154 15.1977 15.8532 15.5997 15.5017 15.7477C15.1514 15.896 14.7485 15.7322 14.6005 15.3832C14.5937 15.3687 14.5968 15.3523 14.5915 15.3384L13.1494 15.9373L14.5739 16.5783C14.5797 16.5646 14.5782 16.5492 14.5847 16.5343C14.7439 16.1887 15.1508 16.0357 15.4958 16.1937C15.8441 16.352 15.9965 16.759 15.8386 17.1064ZM14.2357 11.1477C14.4141 11.3108 14.5268 11.5373 14.5268 11.7884C14.5268 12.2042 14.2187 12.5393 13.809 12.6422V12.9543C13.809 13.4928 13.368 13.9347 12.8286 13.9347H11.0114C10.4719 13.9347 10.0313 13.4928 10.0313 12.9543V12.6434C9.6194 12.5406 9.30972 12.2055 9.30972 11.7881C9.30972 11.5354 9.42304 11.309 9.60358 11.1464C9.32271 10.7411 9.15642 10.2603 9.15642 9.74174C9.15642 8.31585 10.3935 7.158 11.9196 7.158C13.4451 7.158 14.6838 8.31585 14.6838 9.74174C14.6847 10.2609 14.5172 10.7416 14.2357 11.1477ZM11.465 9.92956C11.465 9.52138 11.1223 9.191 10.7008 9.191C10.2808 9.191 9.93616 9.52143 9.93616 9.92956C9.93616 10.338 10.2808 10.6683 10.7008 10.6683C11.1223 10.6677 11.465 10.338 11.465 9.92956ZM12.7186 12.1033L11.9773 10.8489L11.2081 12.1275L11.9699 11.7577L12.7186 12.1033ZM13.9034 9.92956C13.9034 9.52138 13.56 9.191 13.1401 9.191C12.7183 9.191 12.3765 9.52143 12.3765 9.92956C12.3765 10.338 12.7183 10.6683 13.1401 10.6683C13.5609 10.6677 13.9034 10.338 13.9034 9.92956Z" fill="#2E384D"/>
</svg>
