<svg width="24" height="24" viewBox="0 0 24 24" fill="none" xmlns="http://www.w3.org/2000/svg">
<path d="M2.69654 8.04465C3.08131 8.04465 3.39308 7.73279 3.39308 7.34812V4.37826L7.87925 8.86351C8.01531 8.99947 8.19353 9.06745 8.37175 9.06745C8.55006 9.06745 8.72838 8.99947 8.86434 8.86341C9.13636 8.59139 9.13636 8.15034 8.86425 7.87841L4.37789 3.39308H7.34839C7.73307 3.39308 8.04493 3.08121 8.04493 2.69654C8.04493 2.31186 7.73316 2 7.34839 2H2.69654C2.31177 2 2 2.31186 2 2.69654V7.34821C2 7.73279 2.31177 8.04465 2.69654 8.04465Z" fill="#2E384D"/>
<path d="M21.3034 15.9547C20.9186 15.9547 20.6068 16.2666 20.6068 16.6512V19.6212L15.9826 14.9969C15.7104 14.7249 15.2695 14.7249 14.9975 14.9969C14.7255 15.2689 14.7255 15.71 14.9975 15.9819L19.6217 20.6061H16.6519C16.2671 20.6061 15.9554 20.918 15.9554 21.3026C15.9554 21.6873 16.2671 21.9992 16.6519 21.9992H21.3035C21.6882 21.9992 22 21.6873 22 21.3026V16.6512C21.9999 16.2666 21.6881 15.9547 21.3034 15.9547Z" fill="#2E384D"/>
<path d="M8.01786 14.9972L3.39405 19.6214V16.6516C3.39405 16.2669 3.08228 15.955 2.69752 15.955C2.31275 15.955 2.00098 16.2669 2.00098 16.6516V21.3031C2.00098 21.6878 2.31275 21.9997 2.69752 21.9997H7.34891C7.73358 21.9997 8.04545 21.6878 8.04545 21.3031C8.04545 20.9185 7.73367 20.6066 7.34891 20.6066H4.37905L9.00295 15.9822C9.27498 15.7102 9.27498 15.2692 9.00286 14.9971C8.73103 14.7252 8.28998 14.7252 8.01786 14.9972Z" fill="#2E384D"/>
<path d="M21.3033 2H16.6517C16.2669 2 15.9552 2.31186 15.9552 2.69654C15.9552 3.08121 16.2669 3.39308 16.6517 3.39308H19.6217L15.1361 7.87888C14.8641 8.1509 14.8641 8.59195 15.1362 8.86397C15.2722 8.99993 15.4505 9.06792 15.6287 9.06792C15.8069 9.06792 15.9853 8.99984 16.1213 8.86388L20.6068 4.37808V7.34812C20.6068 7.73279 20.9186 8.04465 21.3034 8.04465C21.6881 8.04465 21.9999 7.73279 21.9999 7.34812V2.69654C21.9998 2.31177 21.688 2 21.3033 2Z" fill="#2E384D"/>
</svg>
