<?xml version="1.0" encoding="utf-8"?>
<!-- Generator: Adobe Illustrator 19.0.0, SVG Export Plug-In . SVG Version: 6.00 Build 0)  -->
<svg version="1.1" id="Layer_1" xmlns="http://www.w3.org/2000/svg" xmlns:xlink="http://www.w3.org/1999/xlink" x="0px" y="0px"
	 viewBox="-343 145 512 512" style="enable-background:new -343 145 512 512;" xml:space="preserve" fill="#007cff">
<g>
	<path d="M150.8,264.4h-441.2c-9.1,0-16.6,7.4-16.6,16.6v145.4c0,4.3,3.6,8,8,8c4.4,0,8-3.6,8-8V280.9c0-0.3,0.2-0.5,0.5-0.5h441.3
		c0.3,0,0.5,0.2,0.5,0.5v145.5c0,4.4,3.6,8,8,8c6.1,0,7.3-4.8,7.5-7.2l0.6-137V281C167.4,271.9,160,264.4,150.8,264.4z"/>
	<path d="M-196.4,521c-9.1,0-16.6,7.4-16.6,16.6s7.4,16.6,16.6,16.6c9.1,0,16.6-7.4,16.6-16.6C-179.8,528.4-187.2,521-196.4,521z"/>
	<path d="M158.6,453.6H19.9c-0.1,0-0.3,0-0.4,0c-0.1,0-0.2,0-0.3,0c-4.4,0-8,3.6-8,8V521h-49.4c-6.9-19.9-25.8-34.2-48-34.2
		c-22.2,0-41,14.3-48,34.1h-14.3c-6.9-19.9-25.8-34.2-48-34.2s-41.1,14.3-48,34.2h-46.1c-0.3,0-0.5-0.2-0.5-0.5v-17.6h34.7
		c4.4,0,8-3.6,8-8c0-4.4-3.6-8-8-8h-77c-4.4,0-8,3.6-8,8c0,4.4,3.6,8,8,8h26.2v17.5c0,9.1,7.4,16.6,16.6,16.6h43.3v0.5
		c0,28,22.8,50.8,50.8,50.8s50.8-22.8,50.8-50.8v-0.5h8.4c0,0,0,0.1,0,0.1h0.2v0.5c0,28,22.8,50.8,50.8,50.8s50.8-22.8,50.8-50.8
		V537h3.5v0h58.7c0.1,0,0.1,0,0.1-0.1v-67.3h131.8c4.4,0,8-3.6,8-8C166.6,457.2,163,453.6,158.6,453.6z M-196.4,572.3
		c-19.2,0-34.7-15.6-34.7-34.7s15.6-34.7,34.7-34.7c19.1,0,34.7,15.6,34.7,34.7S-177.2,572.3-196.4,572.3z M-86.1,572.3
		c-19.2,0-34.7-15.6-34.7-34.7s15.6-34.7,34.7-34.7c19.1,0,34.7,15.6,34.7,34.7S-66.9,572.3-86.1,572.3z"/>
	<path d="M-316.1,468.6h102.6c4.4,0,8-3.6,8-8c0-4.4-3.5-8-8-8h-102.6c-4.4,0-8,3.6-8,8C-324.1,465-320.5,468.6-316.1,468.6z"/>
	<path d="M-86.6,521c-9.1,0-16.6,7.4-16.6,16.6s7.4,16.6,16.6,16.6c9.1,0,16.6-7.4,16.6-16.6C-70,528.4-77.4,521-86.6,521z"/>
</g>
</svg>
