<?xml version="1.0" encoding="utf-8"?>
<!-- Generator: Adobe Illustrator 19.0.0, SVG Export Plug-In . SVG Version: 6.00 Build 0)  -->
<svg version="1.1" id="Layer_1" xmlns="http://www.w3.org/2000/svg" xmlns:xlink="http://www.w3.org/1999/xlink" x="0px" y="0px"
	 viewBox="-343 145 512 512" style="enable-background:new -343 145 512 512;" xml:space="preserve" fill="#007cff">
<g>
	<path d="M128.1,402.7l-13.3-53c3.6-0.8,6.3-4,6.3-7.8v-8.5c0-18.6-15.1-33.7-33.7-33.7H27.1l-16.1,0v127.4c0,4,2.8,7.5,6.7,8.1
		c5,0.8,9.3-3.1,9.3-7.9v-9.1h94.6c11.6,0,21.5,7.6,24.9,18.2h-24.9c-4.4,0-8,3.6-8,8v17.1c0,13.9,11.3,25.1,25.1,25.1h9.1V522h-21
		c-6.9-19.9-25.8-34.2-48-34.2s-41.1,14.3-48,34.2h-3.9v-60.2c0-4-2.8-7.5-6.7-8.1c-5-0.8-9.3,3.1-9.3,7.9V522h-166.3
		c-6.9-19.9-25.8-34.2-48-34.2s-41.1,14.3-48,34.2h-46.1c-0.3,0-0.5-0.2-0.5-0.5v-17.6h34.5c4,0,7.5-2.8,8.1-6.7
		c0.8-5-3.1-9.3-7.9-9.3h-39.5c-6.2,0-11.2,5-11.2,11.2v24.2c0,0.1,0,0.1,0,0.2c1,8.1,8,14.6,16.5,14.6h43.3v0.5
		c0,28,22.8,50.8,50.8,50.8s50.8-22.8,50.8-50.8V538H28.2v0.5c0,28,22.8,50.8,50.8,50.8s50.8-22.8,50.8-50.8V538h26.1
		c4.4,0,8-3.6,8-8v-85.5C163.9,423.4,148.3,405.7,128.1,402.7z M27.1,315.7h60.4c9.7,0,17.6,7.9,17.6,17.6v0.5h-78V315.7z
		 M27.1,402.2v-52.4h71.2l13.1,52.4H27.1z M-203.3,573.3c-19.2,0-34.7-15.6-34.7-34.7s15.6-34.7,34.7-34.7
		c19.1,0,34.7,15.6,34.7,34.7S-184.1,573.3-203.3,573.3z M78.9,573.3c-19.2,0-34.7-15.6-34.7-34.7s15.6-34.7,34.7-34.7
		c19.2,0,34.7,15.6,34.7,34.7S98.1,573.3,78.9,573.3z M147.9,470.7h-9.1c-5,0-9.1-4.1-9.1-9.1v-9.2h18.2V470.7z"/>
	<path d="M-203.3,521.9c-9.1,0-16.6,7.4-16.6,16.6c0,9.2,7.4,16.6,16.6,16.6c9.1,0,16.6-7.4,16.6-16.6
		C-186.7,529.4-194.1,521.9-203.3,521.9z"/>
	<path d="M78.9,521.9c-9.1,0-16.6,7.4-16.6,16.6c0,9.2,7.4,16.6,16.6,16.6c9.2,0,16.6-7.4,16.6-16.6S88.1,521.9,78.9,521.9z"/>
	<path d="M-134.8,487.7c-4.4,0-8,3.6-8,8c0,4.4,3.6,8,8,8h119.7c4.4,0,8-3.6,8-8c0-4.4-3.6-8-8-8H-134.8z"/>
	<path d="M-219.9,452.5h102.6c4.4,0,8-3.6,8-8c0-4.4-3.5-8-8-8h-102.6c-4.4,0-8,3.6-8,8C-227.9,448.8-224.3,452.5-219.9,452.5z"/>
	<path d="M-242.6,477.5h147.9c52.6,0,95.3-42.8,95.3-95.3v-8.5c0-52.6-42.8-95.3-95.3-95.3h-30.6c0.4-1.5,0.6-3,0.6-4.6v-3
		c0-9.9-8.1-18-18-18h-52c-9.9,0-18,8.1-18,18v3c0,1.6,0.2,3.2,0.6,4.6h-30.6c-52.5,0-95.3,42.8-95.3,95.3v8.5
		C-337.9,434.7-295.1,477.5-242.6,477.5z M-200.6,273.7v-3c0-3.3,2.7-6,6-6h52c3.3,0,6,2.7,6,6v3c0,1.9-0.9,3.5-2.2,4.6h-59.6
		C-199.8,277.2-200.6,275.5-200.6,273.7z M-324.5,373.6c0-45.2,36.7-81.9,81.9-81.9h147.9c45.2,0,81.9,36.7,81.9,81.9v8.5
		c0,45.2-36.7,81.9-81.9,81.9h-147.9c-45.2,0-81.9-36.7-81.9-81.9V373.6z"/>
</g>
</svg>
