<?xml version="1.0" encoding="utf-8"?>
<!-- Generator: Adobe Illustrator 19.0.0, SVG Export Plug-In . SVG Version: 6.00 Build 0)  -->
<svg version="1.1" id="Layer_1" xmlns="http://www.w3.org/2000/svg" xmlns:xlink="http://www.w3.org/1999/xlink" x="0px" y="0px"
	 viewBox="-343 145 512 512" style="enable-background:new -343 145 512 512;" xml:space="preserve" fill="#007cff">
<g>
	<path d="M133.3,359.3l-13.3-53c3.6-0.8,6.3-4,6.3-7.8v-8.6c0-18.3-14.7-33.2-32.9-33.7c-0.4-0.1-0.9-0.1-1.3-0.1H-27.6
		c-4.4,0-8,3.6-8,8c0,0.5,0.1,0.9,0.1,1.4c0,0.3,0,0.5,0,0.8v143.8h-179.7h-33.2h-69.4c-4.4,0-8,3.6-8,8c0,4.4,3.6,8,8,8h69.4h33.2
		h186.6c0.3,0.1,0.7,0.1,1.1,0.1c0.4,0,0.7,0,1.1-0.1h40.9c0.6,0,1.1,0,1.6,0v52.4h-166.3c-6.9-19.9-25.8-34.2-48-34.2
		s-41.1,14.3-48,34.2h-46.1c-0.3,0-0.5-0.2-0.5-0.5v-17.6h34.7c4.4,0,8-3.6,8-8c0-4.4-3.6-8-8-8h-77c-4.4,0-8,3.6-8,8
		c0,4.4,3.6,8,8,8h26.2V478c0,9.1,7.4,16.6,16.6,16.6h43.3v0.5c0,28,22.8,50.8,50.8,50.8s50.8-22.8,50.8-50.8v-0.5H33.4v0.5
		c0,28,22.8,50.8,50.8,50.8s50.8-22.8,50.8-50.8v-0.5h26.1c4.4,0,8-3.6,8-8v-85.5C169.1,379.9,153.5,362.3,133.3,359.3z
		 M-198.1,529.8c-19.2,0-34.7-15.6-34.7-34.7s15.6-34.7,34.7-34.7c19.1,0,34.7,15.6,34.7,34.7C-163.4,514.2-178.9,529.8-198.1,529.8
		z M32.3,272.1h59.8h0.6c9.7,0,17.6,7.9,17.6,17.6v0.5h-78C32.3,290.3,32.3,272.1,32.3,272.1z M32.3,306.4h71.2l13.1,52.4H32.3
		V306.4z M84.1,529.8c-19.2,0-34.7-15.6-34.7-34.7s15.6-34.7,34.7-34.7c19.2,0,34.7,15.6,34.7,34.7
		C118.8,514.2,103.3,529.8,84.1,529.8z M153,478.5h-21c-6.9-19.9-25.8-34.2-48-34.2s-41.1,14.3-48,34.2h-3.9v-60.4c0-4.4-3.6-8-8-8
		h-43.6v-138h35.8l-0.1,111.8c0,4.4,3.6,8,8,8c4.4,0,8-3.6,8-8v-9.1h94.6c11.6,0,21.5,7.6,24.9,18.2h-24.9c-4.4,0-8,3.6-8,8v17.1
		c0,13.9,11.3,25.1,25.1,25.1h9.1V478.5z M144,427.1c-5,0-9.1-4.1-9.1-9.1v-9.1h18.2l0,18.2H144z"/>
	<path d="M-198.1,478.5c-9.1,0-16.6,7.4-16.6,16.6s7.4,16.6,16.6,16.6c9.1,0,16.6-7.4,16.6-16.6S-188.9,478.5-198.1,478.5z"/>
	<path d="M84.1,478.5c-9.1,0-16.6,7.4-16.6,16.6s7.4,16.6,16.6,16.6c9.2,0,16.6-7.4,16.6-16.6S93.3,478.5,84.1,478.5z"/>
	<path d="M-9.9,460.3c4.4,0,8-3.6,8-8c0-4.4-3.6-8-8-8h-119.7c-4.4,0-8,3.6-8,8c0,4.4,3.6,8,8,8H-9.9z"/>
</g>
</svg>
