<?xml version="1.0" encoding="utf-8"?>
<!-- Generator: Adobe Illustrator 19.0.0, SVG Export Plug-In . SVG Version: 6.00 Build 0)  -->
<svg version="1.1" id="Layer_1" xmlns="http://www.w3.org/2000/svg" xmlns:xlink="http://www.w3.org/1999/xlink" x="0px" y="0px"
	 viewBox="-343 145 512 512" style="enable-background:new -343 145 512 512;" xml:space="preserve" fill="#007cff">
<g>
	<path d="M-299.5,409c4.4,0,8-3.6,8-8V255.5c0-0.3,0.2-0.5,0.5-0.5H84.6c0.3,0,0.5,0.2,0.5,0.5V401c0,4.4,3.6,8,8,8c4.4,0,8-3.6,8-8
		l0.1-145.3c0-9.1-7.4-16.6-16.6-16.6h-375.5c-9.1,0-16.6,7.4-16.6,16.6V401C-307.5,405.3-303.9,409-299.5,409z"/>
	<path d="M-196.9,495.6c-9.1,0-16.6,7.4-16.6,16.6s7.4,16.6,16.6,16.6c9.1,0,16.6-7.4,16.6-16.6C-180.3,503-187.7,495.6-196.9,495.6
		z"/>
	<path d="M-128.4,461.4c-4.4,0-8,3.6-8,8c0,4.4,3.6,8,8,8H-8.7c4.4,0,8-3.6,8-8c0-4.4-3.6-8-8-8H-128.4z"/>
	<path d="M-316.6,443.2H-214c4.4,0,8-3.6,8-8c0-4.4-3.5-8-8-8h-102.6c-4.4,0-8,3.6-8,8C-324.6,439.6-321,443.2-316.6,443.2z"/>
	<path d="M161,495.6h-60v-60.4c0-4.4-3.6-8-8-8s-8,3.6-8,8v60.4h-234c-6.9-19.9-25.8-34.2-48-34.2s-41.1,14.3-48,34.2h-46.1
		c-0.3,0-0.5-0.2-0.5-0.5v-17.6h34.7c4.4,0,8-3.6,8-8c0-4.4-3.6-8-8-8h-77c-4.4,0-8,3.6-8,8c0,4.4,3.6,8,8,8h26.2V495
		c0,9.1,7.4,16.6,16.6,16.6h43.3v0.5c0,28,22.8,50.8,50.8,50.8s50.8-22.8,50.8-50.8v-0.5c0,0,119.8,0,119.8,0H161c4.4,0,8-3.6,8-8
		C169,499.2,165.4,495.6,161,495.6z M-196.9,546.9c-19.2,0-34.7-15.6-34.7-34.7s15.6-34.7,34.7-34.7c19.1,0,34.7,15.6,34.7,34.7
		C-162.2,531.3-177.7,546.9-196.9,546.9z"/>
</g>
</svg>
