<svg width="85" height="60" viewBox="0 0 85 60" fill="none" xmlns="http://www.w3.org/2000/svg">
<path d="M5.138 54.039C5.08831 54.0383 5.03863 54.0367 4.989 54.034L4.13 54.036C3.03498 54.035 1.98511 53.5995 1.21082 52.8252C0.436523 52.0509 0.00105901 51.001 0 49.906L0 5.19501C0.000529046 4.09955 0.435727 3.04907 1.21005 2.27418C1.98438 1.4993 3.03454 1.06334 4.13 1.06201H51.103C53.375 1.06201 55.226 3.01201 55.226 5.29101V49.903C55.2255 50.9978 54.7906 52.0476 54.0169 52.8221C53.2432 53.5966 52.1938 54.0324 51.099 54.034H29.962C28.871 54.015 26.723 53.343 26.235 50.906C25.168 46.949 21.48 44.117 17.288 44.117C12.997 44.117 9.19 47.158 8.237 51.346C8.012 53.163 6.514 54.039 5.138 54.039ZM4.127 4.20801C3.531 4.20801 3.044 4.59701 3.044 5.19501V49.904C3.044 50.501 3.532 50.99 4.13 50.99H5.134C5.139 50.943 5.257 50.719 5.267 50.673C6.534 45.111 11.59 41.076 17.289 41.076C20.0023 41.0798 22.6389 41.9766 24.7918 43.628C26.9447 45.2793 28.4941 47.5934 29.201 50.213C29.352 50.947 29.882 50.99 29.986 50.99H51.097C51.693 50.99 52.18 50.503 52.18 49.906V5.29301C52.18 4.69501 51.695 4.20801 51.097 4.20801H4.127ZM84.929 35.828C84.929 35.828 84.836 33.735 84.641 32.71C84.477 31.837 83.554 30.066 83.554 30.066L76.255 16.476C75.304 14.956 73.14 13.769 71.697 13.769H60.785C60.0935 13.7695 59.4305 14.0447 58.9418 14.5339C58.4531 15.0232 58.1787 15.6865 58.179 16.378V49.904C58.179 50.5954 58.4535 51.2586 58.9421 51.7478C59.4307 52.237 60.0936 52.5122 60.785 52.513H61.428C61.428 52.513 62.377 52.39 62.732 51.201C63.718 47.268 67.246 44.339 71.481 44.339C75.626 44.339 79.093 47.147 80.163 50.952C80.605 52.564 82.394 52.513 82.394 52.513C83.0855 52.5125 83.7485 52.2373 84.2372 51.7481C84.7259 51.2588 85.0003 50.5955 85 49.904L84.929 35.828ZM78.326 32.317H65.312C64.7849 32.3152 64.2799 32.1049 63.9072 31.7321C63.5346 31.3592 63.3246 30.8541 63.323 30.327V20.143C63.323 19.045 64.217 18.153 65.312 18.153H69.677C72.16 18.153 73.794 20.162 74.307 21.131L79.372 30.565C79.893 31.527 79.425 32.317 78.326 32.317V32.317Z" fill="white"/>
<path d="M4.12701 4.20801C3.53101 4.20801 3.04401 4.59701 3.04401 5.19501V49.904C3.04401 50.501 3.53201 50.99 4.13001 50.99H5.13401C5.13901 50.943 5.25701 50.719 5.26701 50.673C6.53401 45.111 11.59 41.076 17.289 41.076C20.0023 41.0798 22.6389 41.9766 24.7918 43.628C26.9447 45.2793 28.4941 47.5934 29.201 50.213C29.352 50.947 29.882 50.99 29.986 50.99H51.097C51.693 50.99 52.18 50.503 52.18 49.906V5.29301C52.18 4.69501 51.695 4.20801 51.097 4.20801H4.12701Z" fill="#00CF3E"/>
</svg>
