<svg width="158" height="105" viewBox="0 0 158 105" fill="none" xmlns="http://www.w3.org/2000/svg">
<path d="M63.138 93.039C63.0883 93.0383 63.0386 93.0367 62.989 93.034L62.13 93.036C61.035 93.035 59.9851 92.5995 59.2108 91.8252C58.4365 91.0509 58.0011 90.001 58 88.906V44.195C58.0005 43.0996 58.4357 42.0491 59.2101 41.2742C59.9844 40.4993 61.0345 40.0633 62.13 40.062H109.103C111.375 40.062 113.226 42.012 113.226 44.291V88.903C113.225 89.9978 112.791 91.0476 112.017 91.8221C111.243 92.5966 110.194 93.0324 109.099 93.034H87.962C86.871 93.015 84.723 92.343 84.235 89.906C83.168 85.949 79.48 83.117 75.288 83.117C70.997 83.117 67.19 86.158 66.237 90.346C66.012 92.163 64.514 93.039 63.138 93.039ZM62.127 43.208C61.531 43.208 61.044 43.597 61.044 44.195V88.904C61.044 89.501 61.532 89.99 62.13 89.99H63.134C63.139 89.943 63.257 89.719 63.267 89.673C64.534 84.111 69.59 80.076 75.289 80.076C78.0023 80.0798 80.6389 80.9766 82.7918 82.628C84.9447 84.2793 86.4941 86.5934 87.201 89.213C87.352 89.947 87.882 89.99 87.986 89.99H109.097C109.693 89.99 110.18 89.503 110.18 88.906V44.293C110.18 43.695 109.695 43.208 109.097 43.208H62.127ZM142.929 74.828C142.929 74.828 142.836 72.735 142.641 71.71C142.477 70.837 141.554 69.066 141.554 69.066L134.255 55.476C133.304 53.956 131.14 52.769 129.697 52.769H118.785C118.093 52.7695 117.43 53.0447 116.942 53.5339C116.453 54.0232 116.179 54.6865 116.179 55.378V88.904C116.179 89.5954 116.453 90.2586 116.942 90.7478C117.431 91.237 118.094 91.5122 118.785 91.513H119.428C119.428 91.513 120.377 91.39 120.732 90.201C121.718 86.268 125.246 83.339 129.481 83.339C133.626 83.339 137.093 86.147 138.163 89.952C138.605 91.564 140.394 91.513 140.394 91.513C141.086 91.5125 141.749 91.2373 142.237 90.7481C142.726 90.2588 143 89.5955 143 88.904L142.929 74.828ZM136.326 71.317H123.312C122.785 71.3152 122.28 71.1049 121.907 70.7321C121.535 70.3592 121.325 69.8541 121.323 69.327V59.143C121.323 58.045 122.217 57.153 123.312 57.153H127.677C130.16 57.153 131.794 59.162 132.307 60.131L137.372 69.565C137.893 70.527 137.425 71.317 136.326 71.317Z" fill="black"/>
<path d="M81.174 92.587C81.174 95.6726 78.6726 98.174 75.587 98.174C72.5014 98.174 70 95.6726 70 92.587C70 89.5014 72.5014 87 75.587 87C78.6726 87 81.174 89.5014 81.174 92.587Z" fill="black" stroke="black" stroke-width="2"/>
<path d="M135.172 92.586C135.172 95.6711 132.671 98.172 129.586 98.172C126.501 98.172 124 95.6711 124 92.586C124 89.5009 126.501 87 129.586 87C132.671 87 135.172 89.5009 135.172 92.586Z" fill="black" stroke="black" stroke-width="2"/>
<circle opacity="0.4" r="10.5" transform="matrix(-1 0 0 1 47.5 88.5)" fill="#DADADA"/>
<circle opacity="0.4" r="8.5" transform="matrix(-1 0 0 1 33.5 94.5)" fill="#DADADA"/>
<circle opacity="0.4" r="9.5" transform="matrix(-1 0 0 1 10.5 80.5)" fill="#DADADA"/>
<g clip-path="url(#clip0)">
<path d="M152.552 16.906L149.095 13.4496C147.163 11.5174 144.031 11.5174 142.098 13.4496L129.638 25.9102C127.896 27.6487 127.701 30.4043 129.18 32.371L118.906 42.6448C117.686 43.8833 117.702 45.876 118.94 47.0956C120.165 48.3019 122.131 48.3021 123.356 47.0959L133.63 36.8215C135.597 38.3004 138.353 38.105 140.091 36.3635L152.552 23.9028C154.484 21.9707 154.484 18.8382 152.552 16.906ZM121.131 46.8168C120.056 46.8171 119.185 45.9461 119.184 44.8713C119.184 44.3548 119.389 43.8594 119.755 43.4942L129.99 33.2588L131.242 34.511L121.586 44.1671C121.117 44.6359 121.117 45.3959 121.586 45.8647L122.211 46.4902C121.892 46.704 121.516 46.8177 121.131 46.8168ZM123.086 45.6678L122.434 45.0159L132.091 35.3598L132.742 36.0117L123.086 45.6678ZM151.703 23.054L139.242 35.5147C137.779 36.9778 135.406 36.9778 133.943 35.5147L130.487 32.0583C129.023 30.5948 129.023 28.2225 130.487 26.759L142.947 14.2983C144.411 12.8352 146.783 12.8352 148.246 14.2983L151.703 17.7547C153.166 19.2182 153.166 21.5906 151.703 23.054Z" fill="black" stroke="black" stroke-width="0.3"/>
<path d="M150.853 18.6034C150.853 18.6033 150.853 18.6031 150.853 18.6029L147.397 15.1465C146.402 14.1523 144.79 14.1523 143.795 15.1465L131.335 27.6071C130.34 28.6013 130.34 30.2136 131.335 31.2082C131.335 31.2084 131.335 31.2086 131.335 31.2087L134.791 34.6652C135.786 35.6593 137.398 35.6593 138.393 34.6652L150.853 22.2045C151.847 21.2103 151.847 19.598 150.853 18.6034ZM150.004 21.3557L137.543 33.8164C137.01 34.3233 136.173 34.3233 135.64 33.8164L132.184 30.3599C131.658 29.8342 131.658 28.9817 132.184 28.4559L144.645 15.9952C145.17 15.4703 146.022 15.4703 146.547 15.9952L150.004 19.4516C150.53 19.9775 150.53 20.8299 150.004 21.3557Z" fill="black" stroke="black" stroke-width="0.3"/>
<path d="M141.818 19.9812L140.969 20.8301L145.171 25.0318L146.02 24.1829L141.818 19.9812Z" fill="black" stroke="black" stroke-width="0.3"/>
<path d="M137.016 24.7815L136.167 25.6304L140.369 29.8321L141.218 28.9832L137.016 24.7815Z" fill="black" stroke="black" stroke-width="0.3"/>
<path d="M147.521 18.4789C146.789 17.7473 145.603 17.7473 144.871 18.4789L143.971 19.3793C143.737 19.6138 143.737 19.9937 143.971 20.2281L145.772 22.029C146.006 22.2633 146.386 22.2633 146.621 22.029L147.521 21.1286C148.253 20.3969 148.253 19.2107 147.521 18.4789ZM146.673 20.2786C146.673 20.279 146.673 20.2794 146.672 20.2798L146.196 20.7559L145.244 19.8037L145.72 19.3277C145.984 19.066 146.409 19.066 146.672 19.3277C146.935 19.59 146.936 20.0156 146.673 20.2786Z" fill="black" stroke="black" stroke-width="0.3"/>
<path d="M142.647 23.357C142.322 23.0313 141.887 22.8369 141.428 22.811V22.8086L141.36 24.0092C141.731 24.0305 142.015 24.3486 141.993 24.7197C141.984 24.8845 141.914 25.0401 141.797 25.1569L141.321 25.6329L140.369 24.6808L140.845 24.2048L139.997 23.356L139.096 24.2564C138.862 24.4908 138.862 24.8708 139.096 25.1052L140.897 26.906C141.131 27.1404 141.511 27.1404 141.746 26.906L142.646 26.0056C143.378 25.2745 143.378 24.0887 142.647 23.357Z" fill="black" stroke="black" stroke-width="0.3"/>
<path d="M137.616 29.5838L136.416 28.3833C136.303 28.2707 136.151 28.2074 135.991 28.2074V27.0068H134.791V28.2074H134.191C134.031 28.2074 133.879 28.2707 133.766 28.3833L133.166 28.9836C132.932 29.218 132.932 29.598 133.166 29.8324L136.167 32.8338C136.402 33.0681 136.782 33.0681 137.016 32.8338L137.616 32.2335C137.729 32.1209 137.792 31.9683 137.792 31.8091V30.0082C137.792 29.8491 137.729 29.6964 137.616 29.5838ZM136.592 31.5606L134.439 29.408H135.743L136.592 30.2568V31.5606V31.5606Z" fill="black" stroke="black" stroke-width="0.3"/>
</g>
<defs>
<clipPath id="clip0">
<rect width="36" height="36" fill="white" transform="translate(118 12)"/>
</clipPath>
</defs>
</svg>
