<svg width="26" height="20" viewBox="0 0 28 20" fill="none" xmlns="http://www.w3.org/2000/svg">
<path d="M26.9999 11.4272V12.3713H26.1275V11.4272H26.9999Z" fill="#2E5BFF"/>
<path d="M8.88143 10.4457C9.12239 10.4457 9.31769 10.2462 9.31769 10.0002V11.891C9.31245 11.6496 9.11915 11.4555 8.88154 11.4555C8.64058 11.4555 8.44528 11.655 8.44528 11.9011V10.0102C8.45053 10.2517 8.64382 10.4457 8.88143 10.4457Z" fill="#2E5BFF"/>
<path fill-rule="evenodd" clip-rule="evenodd" d="M2.95035 8.6308L3.67186 4.80765C3.4746 4.76486 3.67186 4.80765 3.32658 4.77236C3.32658 3.74051 4.14855 2.90107 5.15879 2.90107H8.44512V1.9208C8.44512 1.41305 8.84954 1 9.34669 1H26.0984C26.5956 1 27 1.41305 27 1.9208V10.0001L26.9999 10.0072C26.9962 10.2499 26.8024 10.4456 26.5637 10.4456C26.3228 10.4456 26.1275 10.2462 26.1275 10.0001V1.9208C26.1275 1.90441 26.1145 1.89112 26.0984 1.89112H9.34675C9.3307 1.89112 9.31769 1.90441 9.31769 1.9208V10.0002C9.31769 10.2462 9.12239 10.4457 8.88143 10.4457C8.64382 10.4457 8.45053 10.2517 8.44528 10.0102L8.44518 10.0002V9.49508H3.29905L3.2979 9.49519L3.29671 9.49514C2.66346 9.49553 2.12577 9.92008 1.94108 10.505L1.87246 11.396V12.4059L1.87251 13.2971V15.2575H3.0132C3.38791 14.1525 4.41644 13.3565 5.62422 13.3565C6.83199 13.3565 7.86058 14.1524 8.23524 15.2575H8.44528V11.9011H9.3178V15.2574H18.3688C18.7435 14.1524 19.7721 13.3564 20.9798 13.3564C22.1876 13.3564 23.2162 14.1524 23.5909 15.2574H26.0984C26.1145 15.2574 26.1275 15.2441 26.1275 15.2278V14.2475V12.3713H26.9999V15.2278C26.9999 15.7355 26.5955 16.1486 26.0984 16.1486H23.7419L23.7423 16.162C23.7425 16.1674 23.7427 16.1728 23.7427 16.1782C23.7427 17.7342 22.5032 19 20.9798 19C19.4564 19 18.217 17.7342 18.217 16.1782C18.217 16.1728 18.2172 16.1674 18.2174 16.162L18.2178 16.1486H8.3863C8.38641 16.1584 8.38706 16.1683 8.38706 16.1782C8.38706 17.7342 7.14761 19 5.62422 19C4.10082 19 2.86137 17.7342 2.86137 16.1782C2.86137 16.1728 2.86157 16.1674 2.86176 16.162L2.86214 16.1486H1.43626C1.19535 16.1486 1 15.9491 1 15.703V10.9505C0.999945 9.77719 1.84759 8.80226 2.95035 8.6308ZM4.56875 4.81749H8.44512V8.60401H3.85622L4.56875 4.81749ZM4.19904 4.77236C4.19904 4.23187 4.62959 3.79214 5.15879 3.79214H8.44512V4.80203H4.19904V4.77236ZM22.8702 16.1783C22.8702 17.2429 22.0222 18.109 20.9798 18.109C19.9375 18.109 19.0895 17.2429 19.0895 16.1783C19.0895 15.1137 19.9375 14.2476 20.9798 14.2476C22.0222 14.2476 22.8702 15.1137 22.8702 16.1783ZM7.51449 16.1783C7.51449 17.2429 6.66646 18.109 5.62411 18.109C4.58176 18.109 3.73373 17.2429 3.73373 16.1783C3.73373 15.1137 4.58176 14.2476 5.62411 14.2476C6.66646 14.2476 7.51449 15.1137 7.51449 16.1783Z" fill="#2E5BFF"/>
<path d="M27 10.0001V1.9208C27 1.41305 26.5956 1 26.0984 1H9.34669C8.84954 1 8.44512 1.41305 8.44512 1.9208V2.90107H5.15879C4.14855 2.90107 3.32658 3.74051 3.32658 4.77236C3.67186 4.80765 3.4746 4.76486 3.67186 4.80765L2.95035 8.6308C1.84759 8.80226 0.999946 9.77719 1 10.9505V15.703C1 15.9491 1.19535 16.1486 1.43626 16.1486H2.86214M27 10.0001C27 10.0024 27 10.0048 26.9999 10.0072M27 10.0001L26.9999 10.0072M26.1275 10.0001C26.1275 10.2462 26.3228 10.4456 26.5637 10.4456C26.8024 10.4456 26.9962 10.2499 26.9999 10.0072M26.1275 10.0001V1.9208C26.1275 1.90441 26.1145 1.89112 26.0984 1.89112H9.34675C9.3307 1.89112 9.31769 1.90441 9.31769 1.9208V10.0002M26.1275 10.0001V11.4272M9.31769 10.0002C9.31769 10.2462 9.12239 10.4457 8.88143 10.4457C8.64382 10.4457 8.45053 10.2517 8.44528 10.0102M9.31769 10.0002V11.891M8.44518 10.0002V9.49508H3.29905L3.2979 9.49519L3.29671 9.49514C2.66346 9.49552 2.12577 9.92008 1.94108 10.505L1.87246 11.396V12.4059L1.87251 13.2971V15.2575H3.0132C3.38791 14.1525 4.41644 13.3565 5.62422 13.3565C6.83199 13.3565 7.86058 14.1524 8.23524 15.2575H8.44528V11.9011M8.44518 10.0002C8.44518 10.0035 8.44521 10.0069 8.44528 10.0102M8.44518 10.0002L8.44528 10.0102M8.44528 11.9011C8.44528 11.655 8.64059 11.4555 8.88154 11.4555C9.11915 11.4555 9.31245 11.6496 9.31769 11.891M8.44528 11.9011V10.0102M8.44528 11.9011H9.3178M9.3178 11.9011V15.2574H18.3688C18.7435 14.1524 19.7721 13.3564 20.9798 13.3564C22.1876 13.3564 23.2162 14.1524 23.5909 15.2574H26.0984C26.1145 15.2574 26.1275 15.2441 26.1275 15.2278V14.2475V12.3713M9.3178 11.9011C9.3178 11.8977 9.31776 11.8943 9.31769 11.891M23.7419 16.1486H26.0984C26.5955 16.1486 26.9999 15.7355 26.9999 15.2278V12.3713M23.7419 16.1486C23.742 16.153 23.7421 16.1575 23.7423 16.162M23.7419 16.1486L23.7423 16.162M18.2178 16.1486H8.3863C8.38641 16.1584 8.38706 16.1683 8.38706 16.1782C8.38706 17.7342 7.14761 19 5.62422 19C4.10082 19 2.86137 17.7342 2.86137 16.1782C2.86137 16.1728 2.86157 16.1674 2.86176 16.162M18.2178 16.1486C18.2177 16.153 18.2175 16.1575 18.2174 16.162M18.2178 16.1486L18.2174 16.162M2.86214 16.1486C2.86209 16.153 2.86193 16.1575 2.86176 16.162M2.86214 16.1486L2.86176 16.162M26.9999 10.0072V11.4272M26.9999 11.4272V12.3713M26.9999 11.4272H26.1275M26.9999 12.3713H26.1275M26.1275 12.3713V11.4272M18.2174 16.162C18.2172 16.1674 18.217 16.1728 18.217 16.1782C18.217 17.7342 19.4564 19 20.9798 19C22.5032 19 23.7427 17.7342 23.7427 16.1782C23.7427 16.1728 23.7425 16.1674 23.7423 16.162M8.44512 4.81749H4.56875L3.85622 8.60401H8.44512V4.81749ZM5.15879 3.79214C4.62959 3.79214 4.19904 4.23187 4.19904 4.77236V4.80203H8.44512V3.79214H5.15879ZM20.9798 18.109C22.0222 18.109 22.8702 17.2429 22.8702 16.1783C22.8702 15.1137 22.0222 14.2476 20.9798 14.2476C19.9375 14.2476 19.0895 15.1137 19.0895 16.1783C19.0895 17.2429 19.9375 18.109 20.9798 18.109ZM5.62411 18.109C6.66646 18.109 7.51449 17.2429 7.51449 16.1783C7.51449 15.1137 6.66646 14.2476 5.62411 14.2476C4.58176 14.2476 3.73373 15.1137 3.73373 16.1783C3.73373 17.2429 4.58176 18.109 5.62411 18.109Z" stroke="#5C5C5C"/>
</svg>
