<svg xmlns="http://www.w3.org/2000/svg" viewBox="0 0 50 50" fill="#b4c9ce">
	<path d="M44.8.7c-.1-.5-.5-.7-1-.7H5.9c-.5 0-.8.4-.9.7L1.3 13.4v35.4c0 .6.5 1.1 1.1 1.1h45.2c.6 0 1.1-.5 1.1-1.1V13.5L44.8.7zM22.6 4.3c0-.6.5-1.1 1.1-1.1h2.4c.6 0 1.1.5 1.1 1.1v15.3c0 .6-.5 1.1-1.1 1.1h-2.4c-.6 0-1.1-.5-1.1-1.1V4.3zM8.7 3.8H18c.6 0 1.1.5 1.1 1.1v7.6c0 .6-.5 1.1-1.1 1.1H7c-.6 0-1.2-.6-1-1.2l1.6-7.6c.3-.6.7-1 1.1-1zm35 40.2c0 .6-.5 1.1-1.1 1.1H6.9c-.6 0-1.1-.5-1.1-1.1V18.3c0-.6.5-1.1 1.1-1.1l11.1-.1c.6 0 1.1.5 1.1 1.1v4.5c0 .6.5 1.1 1.1 1.1h9.2c.6 0 1.1-.5 1.1-1.1v-4.5c0-.6.5-1.1 1.1-1.1l11.1.1c.6 0 1.1.5 1.1 1.1V44h-.1zM30.5 12.3V4.9c0-.6.5-1.1 1.1-1.1h9.3c.5 0 1 .4 1 .9l1.6 7.6c.1.6-.4 1.2-1 1.2h-11c-.6-.1-1-.5-1-1.2z"/>
</svg>
