<svg xmlns="http://www.w3.org/2000/svg" fill="#b4c9ce" viewBox="-343 145 512 512">
	<path d="M148.5 413.4l-7.6-30.4c2.1-.5 3.6-2.3 3.6-4.5v-4.9c0-10.5-8.4-19-18.9-19.3-.2-.1-.5-.1-.7-.1H56.2c-2.5 0-4.6 2.1-4.6 4.6 0 .3.1.5.1.8v83h-187.8c-2.5 0-4.6 2.1-4.6 4.6v34.1H-169c-4-11.4-14.8-19.6-27.5-19.6s-23.5 8.2-27.5 19.6h-8.2c-4-11.4-14.8-19.6-27.5-19.6s-23.6 8.2-27.5 19.6h-26.4c-.2 0-.3-.1-.3-.3v-10.1h19.9c2.5 0 4.6-2.1 4.6-4.6s-2.1-4.6-4.6-4.6h-44.2c-2.5 0-4.6 2.1-4.6 4.6s2.1 4.6 4.6 4.6h15v10c0 5.2 4.2 9.5 9.5 9.5h24.8v.3c0 16.1 13.1 29.1 29.1 29.1 16.1 0 29.1-13.1 29.1-29.1v-.3h4.8v.1h.1v.3c0 16.1 13.1 29.1 29.1 29.1 16.1 0 29.1-13.1 29.1-29.1v-.3h35.7c.1 0 .1 0 .1-.1v-38.6H81.3v30.1h-95.4c-4-11.4-14.8-19.6-27.5-19.6s-23.6 8.2-27.5 19.6h-26.4c-.2 0-.3-.1-.3-.3v-10.1H-76c2.5 0 4.6-2.1 4.6-4.6 0-2.5-2.1-4.6-4.6-4.6h-44.2c-2.5 0-4.6 2.1-4.6 4.6 0 2.5 2.1 4.6 4.6 4.6h15v10.1c0 5.2 4.2 9.5 9.5 9.5h24.8v.3c0 16.1 13.1 29.1 29.1 29.1 16.1 0 29.1-13.1 29.1-29.1v-.4H91.2v.3c0 16.1 13.1 29.1 29.1 29.1 16.1 0 29.1-13.1 29.1-29.1v-.3h15c2.5 0 4.6-2.1 4.6-4.6v-49.1c0-12.1-8.9-22.2-20.5-23.9zm-408.4 97.2c-11 0-19.9-8.9-19.9-19.9 0-11 8.9-19.9 19.9-19.9 11 0 19.9 8.9 19.9 19.9 0 11-8.8 19.9-19.9 19.9zm63.3 0c-11 0-19.9-8.9-19.9-19.9 0-11 8.9-19.9 19.9-19.9 11 0 19.9 8.9 19.9 19.9 0 11-8.9 19.9-19.9 19.9zm155 .6c-11 0-19.9-8.9-19.9-19.9s8.9-19.9 19.9-19.9 19.9 8.9 19.9 19.9-8.9 19.9-19.9 19.9zM90.6 363.4h34.6c5.6 0 10.1 4.5 10.1 10.1v.3H90.6v-10.4zm0 19.6h40.8l7.5 30.1H90.6V383zm29.7 128.2c-11 0-19.9-8.9-19.9-19.9s8.9-19.9 19.9-19.9c11 0 19.9 8.9 19.9 19.9s-8.9 19.9-19.9 19.9zm39.5-29.4h-12c-4-11.4-14.8-19.6-27.5-19.6s-23.6 8.2-27.5 19.6h-2.2v-34.7c0-2.5-2.1-4.6-4.6-4.6H61v-79.2h20.5l-.1 64.1c0 2.5 2.1 4.6 4.6 4.6 2.5 0 4.6-2.1 4.6-4.6v-5.2h54.3c6.7 0 12.3 4.4 14.3 10.4h-14.3c-2.5 0-4.6 2.1-4.6 4.6v9.8c0 8 6.5 14.4 14.4 14.4h5.2v20.4zm.1-29.5h-5.2c-2.9 0-5.2-2.4-5.2-5.2v-5.2h10.4v10.4z"/>
	<path d="M-41.6 481.8c-5.2 0-9.5 4.2-9.5 9.5s4.2 9.5 9.5 9.5c5.2 0 9.5-4.2 9.5-9.5s-4.2-9.5-9.5-9.5zm161.9 0c-5.2 0-9.5 4.2-9.5 9.5s4.2 9.5 9.5 9.5 9.5-4.2 9.5-9.5-4.2-9.5-9.5-9.5zm-53.9-10.5c2.5 0 4.6-2.1 4.6-4.6 0-2.5-2.1-4.6-4.6-4.6H-2.3c-2.5 0-4.6 2.1-4.6 4.6 0 2.5 2.1 4.6 4.6 4.6h68.7zm-385.1-39.8c2.5 0 4.6-2.1 4.6-4.6v-83.5c0-.2.1-.3.3-.3H34c.2 0 .3.1.3.3v83.5c0 2.5 2.1 4.6 4.6 4.6 3.5 0 4.2-2.8 4.3-4.1l.3-78.6v-5.3c0-5.2-4.2-9.5-9.5-9.5h-347.8c-5.2 0-9.5 4.2-9.5 9.5v83.4c0 2.5 2.1 4.6 4.6 4.6zm58.8 49.7c-5.2 0-9.5 4.2-9.5 9.5s4.2 9.5 9.5 9.5c5.2 0 9.5-4.2 9.5-9.5.1-5.3-4.2-9.5-9.5-9.5zm-68.6-30.1h58.9c2.5 0 4.6-2.1 4.6-4.6s-2-4.6-4.6-4.6h-58.9c-2.5 0-4.6 2.1-4.6 4.6s2 4.6 4.6 4.6zm131.6 30.1c-5.2 0-9.5 4.2-9.5 9.5s4.2 9.5 9.5 9.5c5.2 0 9.5-4.2 9.5-9.5.1-5.3-4.2-9.5-9.5-9.5z"/>
</svg>
