<?xml version="1.0" encoding="utf-8"?>
<!-- Generator: Adobe Illustrator 19.0.0, SVG Export Plug-In . SVG Version: 6.00 Build 0)  -->
<svg version="1.1" id="Layer_1" xmlns="http://www.w3.org/2000/svg" xmlns:xlink="http://www.w3.org/1999/xlink" x="0px" y="0px"
	 viewBox="-343 145 512 512" style="enable-background:new -343 145 512 512;" xml:space="preserve" fill="#b4c9ce">
<g>
	<path d="M133.3,376.3l-13.3-53c3.6-0.8,6.3-4,6.3-7.8V307c0-18.6-15.1-33.7-33.7-33.7H32.3v-17.6c0-9.1-7.4-16.6-16.6-16.6h-307.8
		c-9.1,0-16.6,7.4-16.6,16.6V401c0,4.4,3.6,8,8,8c4.4,0,8-3.6,8-8V255.5c0-0.3,0.2-0.5,0.5-0.5H15.7c0.3,0,0.5,0.2,0.5,0.5V401
		c0,4.4,3.6,8,8,8s8-3.6,8-8v-9.1h94.6c11.6,0,21.5,7.6,24.9,18.2h-24.9c-4.4,0-8,3.6-8,8v17.1c0,13.9,11.3,25.1,25.1,25.1h9.1v35.3
		h-21c-6.9-19.9-25.8-34.2-48-34.2s-41.1,14.3-48,34.2h-3.9v-60.4c0-4.4-3.6-8-8-8c-4.4,0-8,3.6-8,8v60.4h-166.3
		c-6.9-19.9-25.8-34.2-48-34.2c-22.2,0-41.1,14.3-48,34.2h-46.1c-0.3,0-0.5-0.2-0.5-0.5v-17.6h34.7c4.4,0,8-3.6,8-8c0-4.4-3.6-8-8-8
		h-77c-4.4,0-8,3.6-8,8c0,4.4,3.6,8,8,8h26.2V495c0,9.1,7.4,16.6,16.6,16.6h43.3c0,0.2,0,0.4,0,0.5c0,28,22.8,50.8,50.8,50.8
		s50.8-22.8,50.8-50.8c0-0.2,0-0.4,0-0.5H33.4c0,0.2,0,0.4,0,0.5c0,28,22.8,50.8,50.8,50.8s50.8-22.8,50.8-50.8c0-0.2,0-0.4,0-0.5
		h26.1c4.4,0,8-3.6,8-8v-85.5C169.1,397,153.5,379.3,133.3,376.3z M32.3,289.3h60.4c9.7,0,17.6,7.9,17.6,17.6v0.5h-78V289.3z
		 M32.3,375.8v-52.4h71.2l13.1,52.4H32.3z M-198.1,546.9c-19.2,0-34.7-15.6-34.7-34.7s15.6-34.7,34.7-34.7s34.7,15.6,34.7,34.7
		S-178.9,546.9-198.1,546.9z M84.1,546.9c-19.2,0-34.7-15.6-34.7-34.7s15.6-34.7,34.7-34.7c19.2,0,34.7,15.6,34.7,34.7
		S103.3,546.9,84.1,546.9z M153.1,444.3H144c-5,0-9.1-4.1-9.1-9.1V426h18.2V444.3z"/>
	<path d="M-198.1,495.5c-9.1,0-16.6,7.4-16.6,16.6s7.4,16.6,16.6,16.6c9.1,0,16.6-7.4,16.6-16.6C-181.5,503-188.9,495.5-198.1,495.5
		z"/>
	<path d="M84.1,495.5c-9.1,0-16.6,7.4-16.6,16.6s7.4,16.6,16.6,16.6c9.2,0,16.6-7.4,16.6-16.6S93.3,495.5,84.1,495.5z"/>
	<path d="M-9.9,477.3c4.4,0,8-3.6,8-8c0-4.4-3.6-8-8-8h-119.7c-4.4,0-8,3.6-8,8c0,4.4,3.6,8,8,8H-9.9z"/>
	<path d="M-317.8,443.2h102.6c4.4,0,8-3.6,8-8c0-4.4-3.5-8-8-8h-102.6c-4.4,0-8,3.6-8,8C-325.8,439.5-322.2,443.2-317.8,443.2z"/>
</g>
</svg>
