<svg width="512" height="512" viewBox="0 0 512 512" fill="none" xmlns="http://www.w3.org/2000/svg">
<path d="M358.614 102.079H50.7719C46.0499 102.079 42.2209 105.908 42.2209 110.63V290.204H67.8739C77.3189 290.204 84.9759 297.86 84.9759 307.306C84.9759 316.751 77.3179 324.408 67.8739 324.408H42.2209V350.061C42.2209 354.783 46.0499 358.612 50.7719 358.612H367.165V110.63C367.165 105.908 363.336 102.079 358.614 102.079Z" fill="#FBFDFA"/>
<path d="M469.779 238.898H367.165V358.614H503.983V273.102C503.983 254.212 488.669 238.898 469.779 238.898Z" fill="white"/>
<path d="M367.165 264.551H459.803C469.249 264.551 476.905 272.207 476.905 281.653V358.613H367.165V264.551V264.551Z" fill="#FFFEFC"/>
<path d="M435.574 136.284H367.165V170.489H461.228V161.938C461.228 147.769 449.742 136.284 435.574 136.284Z" fill="white"/>
<path d="M469.779 238.898L452.676 170.489H367.165V238.898H469.779Z" fill="white"/>
<path d="M469.779 273.102H503.984V307.307H486.882C477.436 307.307 469.78 299.651 469.78 290.205V273.102H469.779Z" fill="#F1F4FB"/>
<path d="M427.023 298.756C401.251 298.756 378.829 313.021 367.165 334.073V358.614H494.841C490.624 324.877 461.902 298.756 427.023 298.756Z" fill="white"/>
<path d="M476.904 320.412V358.614H494.841C493.005 343.925 486.518 330.686 476.904 320.412Z" fill="#FFFEFC"/>
<path d="M427.023 409.921C450.637 409.921 469.779 390.779 469.779 367.165C469.779 343.552 450.637 324.409 427.023 324.409C403.41 324.409 384.267 343.552 384.267 367.165C384.267 390.779 403.41 409.921 427.023 409.921Z" fill="white"/>
<path d="M401.37 196.142H459.09L452.677 170.489H367.166V238.898H392.819V204.693C392.818 199.971 396.647 196.142 401.37 196.142Z" fill="white"/>
<path d="M144.835 298.756C123.242 298.756 104.016 308.784 91.4799 324.409H67.8749H42.2209V350.062C42.2209 354.784 46.0499 358.613 50.7719 358.613H367.165V324.408H198.19C185.654 308.784 166.428 298.756 144.835 298.756Z" fill="#FBFCFB"/>
<path d="M144.835 409.921C168.449 409.921 187.591 390.779 187.591 367.165C187.591 343.552 168.449 324.409 144.835 324.409C121.222 324.409 102.079 343.552 102.079 367.165C102.079 390.779 121.222 409.921 144.835 409.921Z" fill="white"/>
<path d="M476.158 231.363L462.899 178.328C466.524 177.558 469.244 174.342 469.244 170.489V161.938C469.244 143.372 454.139 128.268 435.574 128.268H375.182V110.63C375.182 101.494 367.75 94.062 358.614 94.062H50.772C41.636 94.062 34.204 101.494 34.204 110.63V256C34.204 260.427 37.793 264.017 42.221 264.017C46.649 264.017 50.238 260.428 50.238 256V110.63C50.238 110.335 50.477 110.096 50.772 110.096H358.613C358.908 110.096 359.147 110.335 359.147 110.63V256.002C359.147 260.429 362.736 264.019 367.164 264.019C371.591 264.019 375.181 260.43 375.181 256.002V246.914H469.75C469.757 246.914 469.764 246.916 469.771 246.916C469.778 246.916 469.786 246.915 469.793 246.915C481.43 246.922 491.311 254.561 494.705 265.086H469.777C465.35 265.086 461.76 268.675 461.76 273.103V290.205C461.76 304.056 473.028 315.324 486.879 315.324H495.965V350.597H475.003C468.117 330.715 449.216 316.392 427.021 316.392C404.826 316.392 385.924 330.714 379.039 350.597H375.179V290.205C375.179 285.778 371.59 282.188 367.162 282.188C362.735 282.188 359.145 285.777 359.145 290.205V350.596H192.817C185.931 330.713 167.03 316.391 144.835 316.391C122.64 316.391 103.738 330.713 96.853 350.596H50.772C50.477 350.596 50.238 350.357 50.238 350.062V332.425H84.977C89.404 332.425 92.994 328.836 92.994 324.408C92.994 319.981 89.405 316.391 84.977 316.391H8.017C3.59 316.391 0 319.98 0 324.408C0 328.835 3.589 332.425 8.017 332.425H34.205V350.062C34.205 359.198 41.637 366.63 50.773 366.63H94.077C94.075 366.808 94.063 366.985 94.063 367.164C94.063 395.16 116.84 417.936 144.835 417.936C172.83 417.936 195.607 395.16 195.607 367.164C195.607 366.984 195.595 366.808 195.593 366.63H376.263C376.261 366.808 376.249 366.985 376.249 367.164C376.249 395.16 399.026 417.936 427.021 417.936C455.016 417.936 477.793 395.16 477.793 367.164C477.793 366.984 477.781 366.808 477.779 366.63H503.982C508.409 366.63 511.999 363.041 511.999 358.613V273.101C512 251.99 496.423 234.448 476.158 231.363ZM375.182 178.505H446.417L459.511 230.881H375.182V178.505ZM435.574 144.301C445.299 144.301 453.211 152.213 453.211 161.938V162.472H375.182V144.301H435.574ZM144.835 401.904C125.68 401.904 110.096 386.321 110.096 367.165C110.096 348.009 125.68 332.426 144.835 332.426C163.99 332.426 179.574 348.009 179.574 367.165C179.574 386.321 163.99 401.904 144.835 401.904ZM427.023 401.904C407.868 401.904 392.284 386.321 392.284 367.165C392.284 348.009 407.868 332.426 427.023 332.426C446.178 332.426 461.762 348.009 461.762 367.165C461.762 386.321 446.178 401.904 427.023 401.904ZM486.881 299.29C481.871 299.29 477.795 295.214 477.795 290.204V281.118H495.966V299.289H486.881V299.29Z" fill="#007CFF"/>
<path d="M144.835 350.597C135.699 350.597 128.267 358.029 128.267 367.165C128.267 376.301 135.699 383.733 144.835 383.733C153.971 383.733 161.403 376.301 161.403 367.165C161.403 358.029 153.971 350.597 144.835 350.597Z" fill="#007CFF"/>
<path d="M427.023 350.597C417.887 350.597 410.455 358.029 410.455 367.165C410.455 376.301 417.887 383.733 427.023 383.733C436.159 383.733 443.591 376.301 443.591 367.165C443.591 358.029 436.159 350.597 427.023 350.597Z" fill="#007CFF"/>
<path d="M205.228 324.409C205.228 328.836 208.817 332.426 213.245 332.426H332.96C337.387 332.426 340.977 328.837 340.977 324.409C340.977 319.982 337.388 316.392 332.96 316.392H213.244C208.817 316.392 205.228 319.982 205.228 324.409Z" fill="#007CFF"/>
<path d="M25.1191 298.221H127.733C132.16 298.221 135.75 294.632 135.75 290.204C135.75 285.777 132.161 282.187 127.733 282.187H25.1191C20.6921 282.187 17.1021 285.776 17.1021 290.204C17.1021 294.632 20.6921 298.221 25.1191 298.221Z" fill="#007CFF"/>
<path d="M285.958 213.931L256.69 226.433C250.729 228.979 244.107 227.49 239.785 222.865L164.007 280.623C162.27 281.948 160.061 282.344 158.045 281.693L143.823 277.093C142.433 276.643 141.229 275.724 140.392 274.474L129.215 257.788C127.083 254.604 127.83 250.135 130.885 247.806L149.326 233.75C151.541 232.061 154.466 231.913 156.759 233.373L162.693 237.152L170.139 231.475L168.71 224.261C168.159 221.475 169.239 218.572 171.456 216.883L214.034 184.426C211.334 178.564 212.159 171.398 216.349 166.208L236.921 140.717C241.045 135.611 247.001 132.801 253.267 133.011C259.538 133.22 265.193 136.416 268.784 141.779L295.341 181.431C298.938 186.794 299.94 193.537 298.094 199.929C296.746 204.596 294.025 208.575 290.373 211.358C289.025 212.388 287.545 213.255 285.958 213.931ZM221.593 196.085L203.151 210.141L205.317 213.373C207.449 216.558 206.701 221.028 203.644 223.357C200.592 225.685 196.387 224.992 194.251 221.807L192.089 218.575L182.833 225.63L184.262 232.844C184.812 235.632 183.733 238.535 181.516 240.224L166.765 251.468C164.549 253.157 161.625 253.306 159.332 251.845L153.397 248.065L144.142 255.12L150.166 264.114L159.046 266.987L231.891 211.461L221.593 196.085ZM284.281 189.865L274.861 175.805L269.329 180.022C266.272 182.35 262.065 181.657 259.935 178.473C257.803 175.288 258.551 170.818 261.603 168.49L267.137 164.272L257.722 150.212C256.521 148.425 254.635 147.361 252.55 147.29C251.024 147.24 249.555 147.724 248.339 148.652C247.887 148.996 247.469 149.4 247.098 149.859L226.525 175.35C225.849 176.191 225.789 177.396 226.378 178.279L228.793 181.886L246.818 208.794L249.233 212.401C249.824 213.285 250.912 213.613 251.879 213.201L281.152 200.698C283.105 199.864 284.58 198.163 285.195 196.032C285.812 193.901 285.476 191.652 284.281 189.865Z" fill="#007CFF"/>
</svg>
