<svg width="20" height="19" viewBox="0 0 20 19" fill="none" xmlns="http://www.w3.org/2000/svg">
<path d="M14.7189 11.8011C15.0356 11.9929 15.2838 12.2515 15.4 12.6V18H1C1 16.65 1 13.68 1 12.6C1.9 11.25 3.55 11.4 4.6 11.25C6.4 11.25 11.08 11.25 11.8 11.25C12.3341 11.25 13.8091 11.25 14.7189 11.8011ZM14.7189 11.8011L19 11.7V7.65005C18.4 7.20005 16.84 6.30005 15.4 6.30005H12.25" stroke="#127CFC" stroke-width="2"/>
<path fill-rule="evenodd" clip-rule="evenodd" d="M10.6998 5.85C10.6998 8.30251 9.07889 9.7 7.7498 9.7C6.42072 9.7 4.7998 8.30251 4.7998 5.85C4.7998 3.39749 6.42072 2 7.7498 2C9.07889 2 10.6998 3.39749 10.6998 5.85ZM12.6326 6.81599C12.243 9.58719 10.2052 11.7 7.7498 11.7C5.016 11.7 2.7998 9.08087 2.7998 5.85C2.7998 2.61913 5.016 0 7.7498 0C9.15341 0 10.4206 0.690416 11.3214 1.79956C11.8661 0.723762 12.884 0 14.0498 0C15.7895 0 17.1998 1.61177 17.1998 3.6C17.1998 5.58822 15.7895 7.2 14.0498 7.2C13.54 7.2 13.0586 7.06164 12.6326 6.81599ZM15.1998 3.6C15.1998 4.74287 14.4424 5.2 14.0498 5.2C13.6571 5.2 12.8998 4.74287 12.8998 3.6C12.8998 2.45713 13.6571 2 14.0498 2C14.4424 2 15.1998 2.45713 15.1998 3.6Z" fill="#127CFD"/>
</svg>
