<svg width="20" height="10" viewBox="0 0 20 10" fill="none" xmlns="http://www.w3.org/2000/svg">
<path fill-rule="evenodd" clip-rule="evenodd" d="M14.8481 1.67816L16.2601 3.1582C16.5621 3.47765 16.3361 3.99136 15.8971 3.99136L1.00001 3.99136C0.448002 3.99136 -2.42686e-07 4.44799 -2.18524e-07 5.00075L-2.18874e-07 4.99274C-1.94712e-07 5.54551 0.448002 5.99413 1.00001 5.99413L15.8821 5.99413C16.3231 5.99413 16.5481 6.53688 16.2421 6.85432L14.8381 8.31634C14.4581 8.71489 14.4751 9.35177 14.8781 9.72829L14.8801 9.7323C15.2781 10.1048 15.9021 10.0868 16.2771 9.68924L19.4541 6.34661C20.1851 5.57254 20.1811 4.36087 19.4471 3.5898L16.2981 0.307258C15.9241 -0.0852849 15.3051 -0.104312 14.9081 0.2652L14.8971 0.275214C14.4961 0.648731 14.4741 1.2776 14.8481 1.67816Z" fill="white"/>
</svg>
