<svg width="35" height="35" viewBox="0 0 35 35" fill="none" xmlns="http://www.w3.org/2000/svg">
<rect opacity="0.1" width="35" height="35" rx="4" fill="#007CFF"/>
<path fill-rule="evenodd" clip-rule="evenodd" d="M11.586 17L13 15.797V18.203L11.586 17ZM23 15.797L24.415 17L23 18.203V15.797ZM16.797 22H19.203L18 23.414L16.797 22ZM18 10.586L19.203 12H16.797L18 10.586ZM26 19C26 19.552 25.553 20 25 20H23C21.896 20 21 20.895 21 22V24C21 24.552 20.553 25 20 25H16C15.448 25 15 24.552 15 24V22C15 20.895 14.105 20 13 20H11C10.448 20 10 19.552 10 19V15C10 14.448 10.448 14 11 14H13C14.105 14 15 13.105 15 12V10C15 9.448 15.448 9 16 9H20C20.553 9 21 9.448 21 10V12C21 13.105 21.896 14 23 14H25C25.553 14 26 14.448 26 15V19ZM26 12H24C23.448 12 23 11.552 23 11V9C23 7.895 22.105 7 21 7H15C13.896 7 13 7.895 13 9V11C13 11.552 12.553 12 12 12H10C8.896 12 8 12.895 8 14V20.001C8 21.105 8.895 22 9.999 22H12.001C12.553 22 13 22.45 13 23.002V25C13 26.105 13.896 27 15 27H21C22.105 27 23 26.105 23 25V23C23 22.448 23.448 22 24 22H26C27.105 22 28 21.105 28 20V14C28 12.895 27.105 12 26 12Z" fill="#007CFF"/>
</svg>
