<svg width="35" height="35" viewBox="0 0 35 35" fill="none" xmlns="http://www.w3.org/2000/svg">
<rect opacity="0.1" width="35" height="35" rx="4" fill="#007CFF"/>
<path fill-rule="evenodd" clip-rule="evenodd" d="M19.2312 21C18.4692 21 16.3352 20.944 14.5493 20.865L18.1213 17.294L21.0212 18.526C21.3692 18.673 21.7722 18.595 22.0392 18.328C22.5042 17.863 22.3513 17.076 21.7463 16.819L19.5352 15.879L22.3162 13.098C22.7072 12.707 22.7072 12.074 22.3162 11.684C21.9262 11.293 21.2933 11.293 20.9023 11.684L19.5782 13.008L18.8063 11.686C18.4873 11.139 17.7362 11.042 17.2873 11.49C16.9773 11.801 16.9143 12.282 17.1363 12.662L18.1643 14.422L13.1372 19.449C13.0563 17.658 13.0002 15.53 13.0002 14.769C13.0002 11.208 14.3003 9 20.7692 9C21.6172 9 23.5362 9.079 24.8463 9.18C24.9342 10.193 25.0002 11.513 25.0002 12.231C25.0002 21 20.8092 21 19.2312 21ZM26.6092 7.391C25.7032 7.143 21.7542 7 20.7692 7C14.8222 7 11.0002 8.822 11.0002 14.769C11.0002 15.533 11.0873 19.278 11.2413 21.345L7.29325 25.293C6.90225 25.683 6.90225 26.317 7.29325 26.707C7.68425 27.098 8.31725 27.098 8.70725 26.707L12.6553 22.759C14.7222 22.913 18.4672 23 19.2312 23C25.1793 23 27.0002 18.178 27.0002 12.231C27.0002 11.246 26.8562 8.297 26.6092 7.391Z" fill="#007CFF"/>
</svg>
