<svg width="52" height="52" viewBox="0 0 52 52" fill="none" xmlns="http://www.w3.org/2000/svg">
<rect opacity="0.1" width="52" height="52" rx="7" fill="#007CFF"/>
<path fill-rule="evenodd" clip-rule="evenodd" d="M33 26V23L34 26H33ZM33 34H19C18.448 34 18 33.552 18 33V28H21C21.552 28 22 28.448 22 29V30C22 31.105 22.895 32 24 32H28C29.105 32 30 31.105 30 30V29C30 28.448 30.448 28 31 28H34V33C34 33.552 33.552 34 33 34ZM19 23V26H18L19 23ZM22 18H30C30.552 18 31 18.448 31 19V26H30C28.895 26 28 26.895 28 28V29C28 29.552 27.552 30 27 30H25C24.448 30 24 29.552 24 29V28C24 26.895 23.105 26 22 26H21V19C21 18.448 21.448 18 22 18ZM34 20H33V18C33 16.895 32.105 16 31 16H21C19.895 16 19 16.895 19 18V20H18L16 26V34C16 35.105 16.895 36 18 36H34C35.105 36 36 35.105 36 34V26L34 20Z" fill="#007CFF"/>
</svg>
