<svg width="52" height="52" viewBox="0 0 52 52" fill="none" xmlns="http://www.w3.org/2000/svg">
<rect opacity="0.1" width="52" height="52" rx="7" fill="#007CFF"/>
<path fill-rule="evenodd" clip-rule="evenodd" d="M34 26C34 21.589 30.411 18 26 18C21.589 18 18 21.589 18 26C18 30.411 21.589 34 26 34C30.411 34 34 30.411 34 26ZM36 26C36 31.523 31.523 36 26 36C20.477 36 16 31.523 16 26C16 20.477 20.477 16 26 16C31.523 16 36 20.477 36 26ZM32 27C32 27.552 31.552 28 31 28H27C25.895 28 25 27.105 25 26V21C25 20.448 25.448 20 26 20C26.552 20 27 20.448 27 21V25C27 25.55 27.45 26 28 26H31C31.552 26 32 26.448 32 27Z" fill="#007CFF"/>
</svg>
