<svg width="52" height="52" viewBox="0 0 52 52" fill="none" xmlns="http://www.w3.org/2000/svg">
<rect opacity="0.1" width="52" height="52" rx="7" fill="#007CFF"/>
<path fill-rule="evenodd" clip-rule="evenodd" d="M36 18V23C36 23.552 35.552 24 35 24C34.448 24 34 23.552 34 23V19C34 18.448 33.552 18 33 18H29C28.448 18 28 17.552 28 17C28 16.448 28.448 16 29 16H34C35.105 16 36 16.895 36 18ZM34 36H29C28.448 36 28 35.552 28 35C28 34.448 28.448 34 29 34H33C33.552 34 34 33.552 34 33V29C34 28.448 34.448 28 35 28C35.552 28 36 28.448 36 29V34C36 35.105 35.105 36 34 36ZM16 34V29C16 28.448 16.448 28 17 28C17.552 28 18 28.448 18 29V33C18 33.552 18.448 34 19 34H23C23.552 34 24 34.448 24 35C24 35.552 23.552 36 23 36H18C16.895 36 16 35.105 16 34ZM16 23V18C16 16.895 16.895 16 18 16H23C23.552 16 24 16.448 24 17C24 17.552 23.552 18 23 18H19C18.448 18 18 18.448 18 19V23C18 23.552 17.552 24 17 24C16.448 24 16 23.552 16 23ZM16.01 26L16 26.01V25.99L16.01 26ZM26 28C24.897 28 24 27.103 24 26C24 24.897 24.897 24 26 24C27.103 24 28 24.897 28 26C28 27.103 27.103 28 26 28ZM29.859 27H31C31.552 27 32 26.552 32 26C32 25.448 31.552 25 31 25H29.859C29.496 23.599 28.401 22.504 27 22.141V21C27 20.448 26.552 20 26 20C25.448 20 25 20.448 25 21V22.141C23.599 22.504 22.504 23.599 22.141 25H21C20.448 25 20 25.448 20 26C20 26.552 20.448 27 21 27H22.141C22.504 28.401 23.599 29.496 25 29.859V31C25 31.552 25.448 32 26 32C26.552 32 27 31.552 27 31V29.859C28.401 29.496 29.496 28.401 29.859 27Z" fill="#007CFF"/>
</svg>
