<svg width="52" height="52" viewBox="0 0 52 52" fill="none" xmlns="http://www.w3.org/2000/svg">
<rect opacity="0.1" width="52" height="52" rx="7" fill="#007CFF"/>
<path fill-rule="evenodd" clip-rule="evenodd" d="M20 28V19C20 18.448 20.448 18 21 18H31C31.552 18 32 18.448 32 19V28H20ZM30 31C30 30.448 30.448 30 31 30C31.552 30 32 30.448 32 31C32 31.552 31.552 32 31 32C30.448 32 30 31.552 30 31ZM20 31C20 30.448 20.448 30 21 30C21.552 30 22 30.448 22 31C22 31.552 21.552 32 21 32C20.448 32 20 31.552 20 31ZM36 25C36 24.448 35.552 24 35 24H34V18C34 16.895 33.105 16 32 16H20C18.895 16 18 16.895 18 18V24H17C16.448 24 16 24.448 16 25C16 25.552 16.448 26 17 26H18V28C16.895 28 16 28.895 16 30V32C16 33.105 16.895 34 18 34V35C18 35.552 18.448 36 19 36H21C21.552 36 22 35.552 22 35V34H30V35C30 35.552 30.448 36 31 36H33C33.552 36 34 35.552 34 35V34C35.105 34 36 33.105 36 32V30C36 28.895 35.105 28 34 28V26H35C35.552 26 36 25.552 36 25Z" fill="#007CFF"/>
</svg>
