<svg width="35" height="35" viewBox="0 0 35 35" fill="none" xmlns="http://www.w3.org/2000/svg">
<rect opacity="0.1" width="35" height="35" rx="4" fill="#007CFF"/>
<path fill-rule="evenodd" clip-rule="evenodd" d="M10 17H20V11H10V17ZM12 15H18V13H12V15ZM28 7H22V19H10V21V21.184C8.837 21.597 8 22.696 8 24C8 25.657 9.343 27 11 27C12.657 27 14 25.657 14 24C14 22.696 13.163 21.597 12 21.184V21H22V21.184C20.837 21.597 20 22.696 20 24C20 25.657 21.343 27 23 27C24.657 27 26 25.657 26 24C26 22.696 25.163 21.597 24 21.184V9H28V7ZM11 22.951C11.547 23.145 12 23.339 12 24C12 24.551 11.551 25 11 25C10.449 25 10 24.551 10 24C10 23.339 10.453 23.145 11 22.951ZM23 22.951C23.547 23.145 24 23.339 24 24C24 24.551 23.551 25 23 25C22.449 25 22 24.551 22 24C22 23.339 22.453 23.145 23 22.951Z" fill="#007CFF"/>
</svg>
