<svg width="35" height="35" viewBox="0 0 35 35" fill="none" xmlns="http://www.w3.org/2000/svg">
<rect opacity="0.1" width="35" height="35" rx="4" fill="#007CFF"/>
<path fill-rule="evenodd" clip-rule="evenodd" d="M28 13.9648L26.6167 15.3792L25.2334 13.9588L15.5484 23.8697L14.1651 25.2741L12.8973 23.9508L9.87048 27H8V25.6818L11.2694 22.5835L10.1297 21.1661L11.513 19.7497L14.1651 22.4653L16.9317 19.6315L15.6639 18.3333L17.0472 16.9169L18.316 18.2151L23.8491 12.5484L22.5813 11.2502L17.0472 16.9169L12.8973 21.1661L11.513 19.7497L21.198 9.83382L19.8147 8.41741L21.198 7C23.8306 9.69658 22.2545 8.08184 23.9646 9.83382L25.3479 8.41741L26.7321 9.83382L25.3479 11.2502C26.9415 12.882 26.3242 12.2489 28 13.9648Z" fill="#007CFF"/>
</svg>
