<svg width="40" height="40" viewBox="0 0 40 40" fill="none" xmlns="http://www.w3.org/2000/svg">
<rect width="40" height="40" rx="7" fill="#EFEDFF"/>
<path fill-rule="evenodd" clip-rule="evenodd" d="M28 18H12V13C12 12.448 12.337 12 12.889 12H16.244C16.626 12 16.974 12.217 17.142 12.56L18.278 14.879C18.614 15.565 19.31 16 20.074 16H26.889C27.441 16 28 16.448 28 17V18ZM28 27C28 27.552 27.441 28 26.889 28H12.889C12.337 28 12 27.552 12 27V20H28V27ZM27.889 14H21.125C20.367 14 19.675 13.572 19.336 12.894L18.442 11.106C18.103 10.428 17.41 10 16.653 10H11.889C10.784 10 10 10.895 10 12V28C10 29.105 10.784 30 11.889 30H27.889C28.993 30 30 29.105 30 28V16C30 14.895 28.993 14 27.889 14Z" fill="#6E59FF"/>
</svg>
