<svg width="30" height="30" viewBox="0 0 30 30" fill="none" xmlns="http://www.w3.org/2000/svg">
<path fill-rule="evenodd" clip-rule="evenodd" d="M17.9995 15.0007C17.9995 16.5302 16.8062 17.7691 15.3328 17.7691C13.8595 17.7691 12.6662 16.5302 12.6662 15.0007C12.6662 13.4712 13.8595 12.2323 15.3328 12.2323C16.8062 12.2323 17.9995 13.4712 17.9995 15.0007ZM15.3328 20.2316C11.3475 20.2316 7.59285 18.2632 5.19818 15.0007C7.59285 11.7381 11.3475 9.76839 15.3328 9.76839C19.3182 9.76839 23.0728 11.7381 25.4675 15.0007C23.0728 18.2632 19.3182 20.2316 15.3328 20.2316ZM15.3328 7C9.63151 7 4.66484 10.2224 1.99951 15.0007C4.66484 19.779 9.63151 23 15.3328 23C21.0342 23 26.0008 19.779 28.6662 15.0007C26.0008 10.2224 21.0342 7 15.3328 7Z" fill="#007CFF"/>
</svg>
