<svg width="1041" height="688" viewBox="0 0 1041 688" fill="none" xmlns="http://www.w3.org/2000/svg">
<g opacity="0.4">
<path opacity="0.4" d="M951.546 91.344L950.689 90.773L862.133 39.672L951.546 -12L1040.96 39.672L951.546 91.344ZM868.417 39.672L951.546 87.6327L1034.67 39.672L951.546 -8.28877L868.417 39.672Z" fill="#F2F1F6"/>
<path opacity="0.4" d="M779.009 91.344L689.596 39.672L779.009 -12L868.422 39.672L779.009 91.344ZM695.881 39.672L779.009 87.6327L862.138 39.672L779.009 -8.28877L695.881 39.672Z" fill="#F2F1F6"/>
<path opacity="0.4" d="M865.277 141.02L864.42 140.449L775.864 89.3475L865.277 37.6755L866.134 38.2465L954.69 89.3475L865.277 141.02ZM782.149 89.3475L865.277 137.308L948.405 89.3475L865.277 41.3868L782.149 89.3475Z" fill="#F2F1F6"/>
<path opacity="0.4" d="M951.546 190.694L950.689 190.123L862.133 139.022L951.546 87.35L952.403 87.9209L1040.96 139.022L951.546 190.694ZM868.417 139.022L951.546 186.983L1034.67 139.022L951.546 91.3467L868.417 139.022Z" fill="#F2F1F6"/>
<path opacity="0.4" d="M606.465 91.344L605.608 90.773L517.052 39.672L606.465 -12L695.878 39.672L606.465 91.344ZM523.623 39.672L606.751 87.6327L689.879 39.672L606.751 -8.28877L523.623 39.672Z" fill="#F2F1F6"/>
<path opacity="0.4" d="M692.737 141.02L603.324 89.3475L692.737 37.6755L782.15 89.3475L692.737 141.02ZM609.894 89.3475L693.023 137.308L776.151 89.3475L693.023 41.3868L609.894 89.3475Z" fill="#F2F1F6"/>
<path opacity="0.4" d="M779.009 190.694L689.596 139.022L779.009 87.35L779.866 87.9209L868.422 139.022L779.009 190.694ZM695.881 139.022L779.009 186.983L862.138 139.022L779.009 91.3467L695.881 139.022Z" fill="#F2F1F6"/>
<path opacity="0.4" d="M865.277 240.364L864.42 239.793L775.864 188.692L865.277 137.02L866.134 137.591L954.69 188.692L865.277 240.364ZM782.149 188.978L865.277 236.938L948.405 188.978L865.277 141.017L782.149 188.978Z" fill="#F2F1F6"/>
<path opacity="0.4" d="M951.546 290.324L950.689 289.753L862.133 238.652L951.546 186.98L952.403 187.551L1040.96 238.652L951.546 290.324ZM868.417 238.652L951.546 286.613L1034.67 238.652L951.546 190.691L868.417 238.652Z" fill="#F2F1F6"/>
<path opacity="0.4" d="M434.208 91.344L433.351 90.773L344.795 39.672L434.208 -12L435.065 -11.429L523.621 39.672L434.208 91.344ZM351.08 39.672L434.208 87.6327L517.336 39.672L434.208 -8.28877L351.08 39.672Z" fill="#F2F1F6"/>
<path opacity="0.4" d="M520.482 141.02L519.625 140.449L431.069 89.3475L520.482 37.6755L521.339 38.2465L609.895 89.3475L520.482 141.02ZM437.354 89.3475L520.482 137.308L603.611 89.3475L520.482 41.3868L437.354 89.3475Z" fill="#F2F1F6"/>
<path opacity="0.4" d="M606.465 190.694L605.608 190.123L517.052 139.022L606.465 87.35L695.878 139.022L606.465 190.694ZM523.623 139.022L606.751 186.983L689.879 139.022L606.465 91.3467L523.623 139.022Z" fill="#F2F1F6"/>
<path opacity="0.4" d="M692.737 240.364L603.324 188.692L692.737 137.02L782.15 188.692L692.737 240.364ZM609.894 188.978L693.023 236.938L776.151 188.978L693.023 141.017L609.894 188.978Z" fill="#F2F1F6"/>
<path opacity="0.4" d="M779.009 290.324L689.596 238.652L779.009 186.98L779.866 187.551L868.422 238.652L779.009 290.324ZM695.881 238.652L779.009 286.613L862.138 238.652L779.009 190.691L695.881 238.652Z" fill="#F2F1F6"/>
<path opacity="0.4" d="M865.277 339.998L864.42 339.427L775.864 288.326L865.277 236.654L866.134 237.225L954.69 288.326L865.277 339.998ZM782.149 288.326L865.277 336.287L948.405 288.326L865.277 240.365L782.149 288.326Z" fill="#F2F1F6"/>
<path opacity="0.4" d="M951.546 389.673L950.689 389.102L862.133 338.001L951.546 286.329L952.403 286.9L1040.96 338.001L951.546 389.673ZM868.417 338.001L951.546 385.962L1034.67 338.001L951.546 290.04L868.417 338.001Z" fill="#F2F1F6"/>
<path opacity="0.4" d="M261.671 91.344L260.814 90.773L172.258 39.672L261.671 -12L351.084 39.672L261.671 91.344ZM178.828 39.672L261.957 87.6327L345.085 39.672L261.957 -8.28877L178.828 39.672Z" fill="#F2F1F6"/>
<path opacity="0.4" d="M347.939 141.02L347.082 140.449L258.526 89.3475L347.939 37.6755L348.796 38.2465L437.352 89.3475L347.939 141.02ZM264.81 89.3475L347.939 137.308L431.067 89.3475L347.939 41.3868L264.81 89.3475Z" fill="#F2F1F6"/>
<path opacity="0.4" d="M434.208 190.694L344.795 139.022L434.208 87.35L435.065 87.9209L523.621 139.022L434.208 190.694ZM351.08 139.022L434.208 186.983L517.336 139.022L434.208 91.3467L351.08 139.022Z" fill="#F2F1F6"/>
<path opacity="0.4" d="M520.482 240.364L519.625 239.793L431.069 188.692L520.482 137.02L521.339 137.591L609.895 188.692L520.482 240.364ZM437.354 188.978L520.482 236.938L603.611 188.978L520.482 141.017L437.354 188.978Z" fill="#F2F1F6"/>
<path opacity="0.4" d="M606.465 290.324L517.052 238.652L606.465 186.98L695.878 238.652L606.465 290.324ZM523.623 238.652L606.751 286.613L689.879 238.652L606.751 190.691L523.623 238.652Z" fill="#F2F1F6"/>
<path opacity="0.4" d="M692.737 339.998L691.88 339.427L603.324 288.326L692.737 236.654L782.15 288.326L692.737 339.998ZM609.894 288.326L693.023 336.287L776.151 288.326L693.023 240.365L609.894 288.326Z" fill="#F2F1F6"/>
<path opacity="0.4" d="M779.009 389.673L778.152 389.102L689.596 338.001L779.009 286.329L779.866 286.9L868.422 338.001L779.009 389.673ZM695.881 338.001L779.009 385.962L862.138 338.001L779.009 290.04L695.881 338.001Z" fill="#F2F1F6"/>
<path opacity="0.4" d="M865.277 439.347L775.864 387.675L865.277 336.003L866.134 336.574L954.69 387.675L865.277 439.347ZM782.149 387.96L865.277 435.921L948.405 387.96L865.277 339.999L782.149 387.96Z" fill="#F2F1F6"/>
<path opacity="0.4" d="M951.546 489.024L950.689 488.454L862.133 437.352L951.546 385.681L952.403 386.251L1040.96 437.352L951.546 489.024ZM868.417 437.638L951.546 485.599L1034.67 437.638L951.546 389.677L868.417 437.638Z" fill="#F2F1F6"/>
<path opacity="0.4" d="M89.4154 91.3452L0.00244141 39.6732L89.4154 -11.9988L90.2724 -11.4278L178.828 39.6732L89.4154 91.3452ZM6.28705 39.6732L89.4154 87.6339L172.544 39.6732L89.4154 -8.28754L6.28705 39.6732Z" fill="#F2F1F6"/>
<path opacity="0.4" d="M175.682 141.02L174.825 140.449L86.2688 89.3475L175.682 37.6755L176.539 38.2465L265.095 89.3475L175.682 141.02ZM92.5535 89.3475L175.682 137.308L258.81 89.3475L175.682 41.3868L92.5535 89.3475Z" fill="#F2F1F6"/>
<path opacity="0.4" d="M261.671 190.694L260.814 190.123L172.258 139.022L261.671 87.35L262.528 87.9209L351.084 139.022L261.671 190.694ZM178.828 139.022L261.957 186.983L345.085 139.022L261.671 91.3467L178.828 139.022Z" fill="#F2F1F6"/>
<path opacity="0.4" d="M347.939 240.364L347.082 239.793L258.526 188.692L347.939 137.02L437.352 188.692L347.939 240.364ZM264.81 188.978L347.939 236.938L431.067 188.978L347.939 141.017L264.81 188.978Z" fill="#F2F1F6"/>
<path opacity="0.4" d="M434.208 290.324L433.351 289.753L344.795 238.652L434.208 186.98L435.065 187.551L523.621 238.652L434.208 290.324ZM351.08 238.652L434.208 286.613L517.336 238.652L434.208 190.691L351.08 238.652Z" fill="#F2F1F6"/>
<path opacity="0.4" d="M520.482 339.998L431.069 288.326L520.482 236.654L609.895 288.326L520.482 339.998ZM437.354 288.326L520.482 336.287L603.611 288.326L520.482 240.365L437.354 288.326Z" fill="#F2F1F6"/>
<path opacity="0.4" d="M606.751 389.673L605.894 389.102L517.338 338.001L606.751 286.329L607.608 286.9L696.164 338.001L606.751 389.673ZM523.623 338.001L606.751 385.962L689.88 338.001L606.751 290.04L523.623 338.001Z" fill="#F2F1F6"/>
<path opacity="0.4" d="M692.737 439.347L691.88 438.776L603.324 387.675L692.737 336.003L693.594 336.574L782.15 387.675L692.737 439.347ZM609.894 387.96L693.023 435.921L776.151 387.96L693.023 339.999L609.894 387.96Z" fill="#F2F1F6"/>
<path opacity="0.4" d="M779.009 489.024L778.152 488.454L689.596 437.352L779.009 385.681L868.422 437.352L779.009 489.024ZM695.881 437.638L779.009 485.599L862.138 437.638L779.009 389.677L695.881 437.638Z" fill="#F2F1F6"/>
<path opacity="0.4" d="M865.277 538.98L864.42 538.409L775.864 487.308L865.277 435.636L866.134 436.207L954.69 487.308L865.277 538.98ZM782.149 487.308L865.277 535.268L948.405 487.308L865.277 439.347L782.149 487.308Z" fill="#F2F1F6"/>
<path opacity="0.4" d="M951.546 588.649L862.133 536.977L951.546 485.305L952.403 485.876L1040.96 536.977L951.546 588.649ZM868.417 536.977L951.546 584.938L1034.67 536.977L951.546 489.016L868.417 536.977Z" fill="#F2F1F6"/>
<path opacity="0.4" d="M89.413 190.694L0 139.022L89.413 87.35L90.27 87.9209L178.826 139.022L89.413 190.694ZM6.28461 139.022L89.413 186.983L172.541 139.022L89.413 91.3467L6.28461 139.022Z" fill="#F2F1F6"/>
<path opacity="0.4" d="M175.682 240.364L174.825 239.793L86.2688 188.692L175.682 137.02L176.539 137.591L265.095 188.692L175.682 240.364ZM92.5535 188.978L175.682 236.938L258.81 188.978L175.682 141.017L92.5535 188.978Z" fill="#F2F1F6"/>
<path opacity="0.4" d="M261.671 290.324L260.814 289.753L172.258 238.652L261.671 186.98L262.528 187.551L351.084 238.652L261.671 290.324ZM178.828 238.652L261.957 286.613L345.085 238.652L261.957 190.691L178.828 238.652Z" fill="#F2F1F6"/>
<path opacity="0.4" d="M347.939 340L347.082 339.429L258.526 288.328L347.939 236.941L348.796 237.512L437.352 288.613L347.939 340ZM264.81 288.328L347.939 336.288L431.067 288.328L347.939 240.367L264.81 288.328Z" fill="#F2F1F6"/>
<path opacity="0.4" d="M434.208 389.673L344.795 338.001L434.208 286.329L523.621 338.001L434.208 389.673ZM351.08 338.001L434.208 385.962L517.336 338.001L434.208 290.04L351.08 338.001Z" fill="#F2F1F6"/>
<path opacity="0.4" d="M520.482 439.347L431.069 387.675L520.482 336.003L521.339 336.574L609.895 387.675L520.482 439.347ZM437.354 387.96L520.482 435.921L603.611 387.96L520.482 339.999L437.354 387.96Z" fill="#F2F1F6"/>
<path opacity="0.4" d="M606.751 489.024L605.894 488.454L517.338 437.352L606.751 385.681L607.608 386.251L696.164 437.352L606.751 489.024ZM523.623 437.638L606.751 485.599L689.88 437.638L606.751 389.677L523.623 437.638Z" fill="#F2F1F6"/>
<path opacity="0.4" d="M692.737 538.98L691.88 538.409L603.324 487.308L692.737 435.636L693.594 436.207L782.15 487.308L692.737 538.98ZM609.894 487.308L693.023 535.268L776.151 487.308L693.023 439.347L609.894 487.308Z" fill="#F2F1F6"/>
<path opacity="0.4" d="M779.009 588.649L778.152 588.078L689.596 536.977L779.009 485.305L779.866 485.876L868.422 536.977L779.009 588.649ZM695.881 536.977L779.009 584.938L862.138 536.977L779.009 489.016L695.881 536.977Z" fill="#F2F1F6"/>
<path opacity="0.4" d="M865.277 638.324L864.42 637.753L775.864 586.652L865.277 534.98L954.69 586.652L865.277 638.324ZM782.149 586.937L865.277 634.898L948.405 586.937L865.277 538.976L782.149 586.937Z" fill="#F2F1F6"/>
<path opacity="0.4" d="M951.546 688L862.133 636.613L951.546 584.941L952.403 585.512L1040.96 636.613L951.546 688ZM868.417 636.613L951.546 684.574L1034.67 636.613L951.546 588.652L868.417 636.613Z" fill="#F2F1F6"/>
<path opacity="0.4" d="M89.413 290.324L88.556 289.753L0 238.652L89.413 186.98L90.27 187.551L178.826 238.652L89.413 290.324ZM6.28461 238.652L89.413 286.613L172.541 238.652L89.413 190.691L6.28461 238.652Z" fill="#F2F1F6"/>
<path opacity="0.4" d="M175.682 339.998L86.2688 288.326L175.682 236.654L176.539 237.225L265.095 288.326L175.682 339.998ZM92.5535 288.326L175.682 336.287L258.81 288.326L175.682 240.365L92.5535 288.326Z" fill="#F2F1F6"/>
<path opacity="0.4" d="M261.671 389.673L260.814 389.102L172.258 338.001L261.671 286.329L262.528 286.9L351.084 338.001L261.671 389.673ZM178.828 338.001L261.957 385.962L345.085 338.001L261.957 290.04L178.828 338.001Z" fill="#F2F1F6"/>
<path opacity="0.4" d="M347.939 439.347L347.082 438.776L258.526 387.675L347.939 336.003L437.352 387.675L347.939 439.347ZM265.096 387.96L348.224 435.921L431.353 387.96L347.939 339.999L265.096 387.96Z" fill="#F2F1F6"/>
<path opacity="0.4" d="M434.208 489.024L344.795 437.352L434.208 385.681L523.621 437.352L434.208 489.024ZM351.08 437.638L434.208 485.599L517.336 437.638L434.208 389.677L351.08 437.638Z" fill="#F2F1F6"/>
<path opacity="0.4" d="M520.482 538.98L519.625 538.409L431.069 487.308L520.482 435.636L521.339 436.207L609.895 487.308L520.482 538.98ZM437.354 487.308L520.482 535.268L603.611 487.308L520.482 439.347L437.354 487.308Z" fill="#F2F1F6"/>
<path opacity="0.4" d="M606.751 588.649L517.338 536.977L606.751 485.305L607.608 485.876L696.164 536.977L606.751 588.649ZM523.623 536.977L606.751 584.938L689.88 536.977L606.751 489.016L523.623 536.977Z" fill="#F2F1F6"/>
<path opacity="0.4" d="M692.737 638.324L691.88 637.753L603.324 586.652L692.737 534.98L693.594 535.551L782.15 586.652L692.737 638.324ZM609.894 586.937L693.023 634.898L776.151 586.937L693.023 538.976L609.894 586.937Z" fill="#F2F1F6"/>
<path opacity="0.4" d="M779.009 688L778.152 687.429L689.596 636.328L779.009 584.656L779.866 585.227L868.422 636.328L779.009 688ZM695.881 636.613L779.009 684.574L862.138 636.613L779.009 588.653L695.881 636.613Z" fill="#F2F1F6"/>
<path opacity="0.4" d="M89.413 389.673L88.556 389.102L0 338.001L89.413 286.329L178.826 338.001L89.413 389.673ZM6.28461 338.001L89.413 385.962L172.541 338.001L89.413 290.04L6.28461 338.001Z" fill="#F2F1F6"/>
<path opacity="0.4" d="M175.682 439.347L174.825 438.776L86.2688 387.675L175.682 336.003L176.539 336.574L265.095 387.675L175.682 439.347ZM92.5535 387.96L175.682 435.921L258.81 387.96L175.682 339.999L92.5535 387.96Z" fill="#F2F1F6"/>
<path opacity="0.4" d="M261.671 489.024L172.258 437.352L261.671 385.681L262.528 386.251L351.084 437.352L261.671 489.024ZM178.828 437.638L261.957 485.599L345.085 437.638L261.957 389.677L178.828 437.638Z" fill="#F2F1F6"/>
<path opacity="0.4" d="M347.939 538.98L258.526 487.308L347.939 435.636L437.352 487.308L347.939 538.98ZM265.096 487.308L348.224 535.268L431.353 487.308L347.939 439.347L265.096 487.308Z" fill="#F2F1F6"/>
<path opacity="0.4" d="M434.208 588.649L433.351 588.078L344.795 536.977L434.208 485.305L435.065 485.876L523.621 536.977L434.208 588.649ZM351.08 536.977L434.208 584.938L517.336 536.977L434.208 489.016L351.08 536.977Z" fill="#F2F1F6"/>
<path opacity="0.4" d="M520.482 638.324L519.625 637.753L431.069 586.652L520.482 534.98L609.895 586.652L520.482 638.324ZM437.354 586.937L520.482 634.898L603.611 586.937L520.482 538.976L437.354 586.937Z" fill="#F2F1F6"/>
<path opacity="0.4" d="M606.751 688L605.894 687.429L517.338 636.328L606.751 584.656L607.608 585.227L696.164 636.328L606.751 688ZM523.623 636.613L606.751 684.574L689.88 636.613L606.751 588.653L523.623 636.613Z" fill="#F2F1F6"/>
<path opacity="0.4" d="M89.413 489.024L88.556 488.454L0 437.352L89.413 385.681L90.27 386.251L178.826 437.352L89.413 489.024ZM6.28461 437.638L89.413 485.599L172.541 437.638L89.413 389.677L6.28461 437.638Z" fill="#F2F1F6"/>
<path opacity="0.4" d="M175.682 538.98L174.825 538.409L86.2688 487.308L175.682 435.636L265.095 487.308L175.682 538.98ZM92.5535 487.308L175.682 535.268L258.81 487.308L175.682 439.347L92.5535 487.308Z" fill="#F2F1F6"/>
<path opacity="0.4" d="M261.671 588.649L172.258 536.977L261.671 485.305L351.084 536.977L261.671 588.649ZM178.828 536.977L261.957 584.938L345.085 536.977L261.957 489.016L178.828 536.977Z" fill="#F2F1F6"/>
<path opacity="0.4" d="M347.939 638.324L347.082 637.753L258.526 586.652L347.939 534.98L348.796 535.551L437.352 586.652L347.939 638.324ZM265.096 586.937L348.224 634.898L431.353 586.937L347.939 538.976L265.096 586.937Z" fill="#F2F1F6"/>
<path opacity="0.4" d="M434.208 688L433.351 687.429L344.795 636.328L434.208 584.656L435.065 585.227L523.621 636.328L434.208 688ZM351.08 636.613L434.208 684.574L517.336 636.613L434.208 588.653L351.08 636.613Z" fill="#F2F1F6"/>
<path opacity="0.4" d="M89.413 588.649L88.556 588.078L0 536.977L89.413 485.305L90.27 485.876L178.826 536.977L89.413 588.649ZM6.28461 536.977L89.413 584.938L172.541 536.977L89.413 489.016L6.28461 536.977Z" fill="#F2F1F6"/>
<path opacity="0.4" d="M175.682 638.324L174.825 637.753L86.2688 586.652L175.682 534.98L265.095 586.652L175.682 638.324ZM92.5535 586.652L175.682 634.612L258.81 586.652L175.682 538.691L92.5535 586.652Z" fill="#F2F1F6"/>
<path opacity="0.4" d="M261.671 688L172.543 636.613L261.956 584.941L262.813 585.512L351.369 636.613L261.671 688ZM178.828 636.613L261.956 684.574L345.085 636.613L261.956 588.652L178.828 636.613Z" fill="#F2F1F6"/>
<path opacity="0.4" d="M89.413 688L88.556 687.429L0 636.328L89.413 584.656L90.27 585.227L178.826 636.328L89.413 688ZM6.28461 636.613L89.413 684.574L172.541 636.613L89.413 588.653L6.28461 636.613Z" fill="#F2F1F6"/>
</g>
</svg>
