<svg width="869" height="505" viewBox="0 0 869 505" fill="none" xmlns="http://www.w3.org/2000/svg">
<path d="M820.929 364.298V368.432H831.252L832.937 363.677C832.432 363.677 830.058 366.158 828.935 367.398L829.145 364.504L826.407 366.778C826.617 365.4 827.039 362.603 827.039 362.437C827.039 362.272 824.23 365.676 822.825 367.398L820.929 364.298Z" fill="#F2F1F6" stroke="#F2F1F6"/>
<path d="M831.937 354.676V357.432H825.055L823.931 354.262C824.268 354.262 825.851 355.916 826.6 356.743L826.459 354.813L828.285 356.329C828.145 355.411 827.864 353.546 827.864 353.436C827.864 353.325 829.736 355.594 830.673 356.743L831.937 354.676Z" fill="#F2F1F6" stroke="#F2F1F6"/>
<path d="M847.948 354.676V357.432H841.066L839.942 354.262C840.279 354.262 841.861 355.916 842.611 356.743L842.47 354.813L844.296 356.329C844.155 355.411 843.875 353.546 843.875 353.436C843.875 353.325 845.747 355.594 846.683 356.743L847.948 354.676Z" fill="#F2F1F6" stroke="#F2F1F6"/>
<path d="M833.938 365.098L834.383 368.432H838.385C838.385 367.717 839.942 364.146 839.942 363.432L837.051 366.289L836.829 364.384C836.651 364.574 835.865 366.051 835.495 366.765L833.938 365.098Z" fill="#F2F1F6" stroke="#F2F1F6"/>
<path d="M845.176 357.65L845.424 338.24M845.671 318.83L845.536 329.417M845.424 338.24L848.785 332.406M845.424 338.24L845.536 329.417M845.536 329.417L839.232 324.981M827.345 355.104L827.936 343.572M828.194 338.558L827.936 343.572M827.936 343.572L830.175 342.376M835.103 354.765C834.961 352.22 835.034 348.457 835.34 345.134" stroke="#8F929D"/>
<rect x="222.151" y="430" width="233.158" height="5" fill="#F2F1F6"/>
<rect opacity="0.2" x="433.294" y="388" width="33.0224" height="5" fill="#00CF3E"/>
<rect opacity="0.2" x="161.109" y="379" width="122.083" height="4" fill="#00CF3E"/>
<rect x="131.089" y="329" width="113.077" height="6" fill="#F2F1F6"/>
<rect x="455.308" y="478" width="110.075" height="5" fill="#F2F1F6"/>
<rect x="553.375" y="421" width="233.158" height="5" fill="#F2F1F6"/>
<rect x="786.533" y="393" width="34.023" height="5" fill="#F2F1F6"/>
<ellipse cx="675.958" cy="456.5" rx="8.50574" ry="8.5" fill="#2C3345"/>
<path d="M565.383 106.068C565.383 106.068 570.199 100.295 575.89 101.072C581.894 101.073 587.109 109.068 592.401 109.068C603.409 109.068 599.906 101.068 610.163 101.068C620.42 101.068 618.919 109.068 627.925 109.068C632.605 109.068 637.943 101.85 643.436 101.072C648.515 100.352 653.943 106.068 653.943 106.068" stroke="#2C3345" stroke-width="3" stroke-linecap="round" stroke-linejoin="round"/>
<ellipse cx="734.498" cy="153" rx="17.0115" ry="17" fill="#F2F1F6"/>
<path d="M772.023 107C772.023 109.485 770.007 111.5 767.52 111.5C765.033 111.5 763.017 109.485 763.017 107C763.017 104.515 765.033 102.5 767.52 102.5C770.007 102.5 772.023 104.515 772.023 107Z" fill="#00CF3E" stroke="#00CF3E"/>
<path d="M282.692 500C282.692 502.485 280.676 504.5 278.188 504.5C275.701 504.5 273.685 502.485 273.685 500C273.685 497.515 275.701 495.5 278.188 495.5C280.676 495.5 282.692 497.515 282.692 500Z" fill="#00CF3E" stroke="#00CF3E"/>
<path d="M249.669 104C249.669 106.485 247.654 108.5 245.166 108.5C242.679 108.5 240.663 106.485 240.663 104C240.663 101.515 242.679 99.5 245.166 99.5C247.654 99.5 249.669 101.515 249.669 104Z" fill="#00CF3E" stroke="#00CF3E"/>
<ellipse cx="573.889" cy="6.5" rx="6.50439" ry="6.5" fill="#00CF3E"/>
<ellipse cx="297.702" cy="77.5" rx="8.50577" ry="8.5" fill="#00CF3E"/>
<ellipse cx="307.708" cy="477.5" rx="14.5098" ry="14.5" fill="#00CF3E"/>
<path d="M298.202 331.5V200.5L289.696 188.5H209.642V185L356.742 112L461.313 109.5L470.319 126L642.936 201.5V331.5H298.202Z" fill="#F9FAFE"/>
<path d="M298.202 200.5V331.5H642.936V201.5L470.319 126M298.202 200.5L470.319 126M298.202 200.5L289.696 188.5H209.642V185L356.742 112L461.313 109.5L470.319 126" stroke="#F9FAFE"/>
<path fill-rule="evenodd" clip-rule="evenodd" d="M646.938 186.5V332V334H202.137V331L642.936 332V200.5L470.319 125.5L297.702 200.5H203.638V331H202.137V200.5V186.5L355.241 110.5L470.319 107L646.938 186.5ZM289.696 186.5H209.142L357.742 112.5L461.813 110.744L289.696 186.5Z" fill="#2C3345"/>
<path d="M646.938 332V186.5L470.319 107M646.938 332H642.936M646.938 332V334H202.137V331M470.319 107L461.813 110.744M470.319 107L355.241 110.5M202.137 186.5V200.5M202.137 186.5L355.241 110.5M202.137 186.5H209.142M202.137 200.5H203.638M202.137 200.5V331M642.936 332V200.5L470.319 125.5L297.702 200.5H203.638M642.936 332L202.137 331M355.241 110.5L357.742 112.5M209.142 186.5H289.696L461.813 110.744M209.142 186.5L357.742 112.5M357.742 112.5L461.813 110.744M203.638 200.5V331H202.137" stroke="#2C3345"/>
<rect x="203.638" y="201" width="94.0637" height="130" fill="#E8EBF5"/>
<rect x="203.638" y="270" width="94.0637" height="7" fill="white"/>
<path d="M424.088 216.337L467.118 216.338L510.147 216.338L510.148 331.339L467.119 331.338L424.09 331.337L424.088 216.337Z" stroke="#2C3345" stroke-width="5"/>
<path d="M468.119 197.837C473.922 197.837 478.626 193.137 478.626 187.338C478.626 181.539 473.922 176.838 468.119 176.838C462.316 176.838 457.612 181.539 457.612 187.338C457.613 193.136 462.317 197.837 468.119 197.837Z" stroke="#2C3345" stroke-width="2"/>
<g clip-path="url(#clip0)">
<path d="M472.954 184.083C471.774 184.083 470.595 184.81 469.821 185.411C469.748 185.342 469.672 185.279 469.591 185.221L471.528 181.942C471.528 181.942 471.236 181.358 470.329 180.758C469.529 180.229 468.731 180 468.018 180C466.523 180 465.399 181.006 465.399 182.367C465.399 183.546 466.126 184.724 466.727 185.498C466.659 185.57 466.595 185.647 466.537 185.728L463.256 183.792C463.256 183.792 462.672 184.083 462.072 184.99C460.433 187.464 461.669 189.917 463.681 189.917C464.861 189.917 466.04 189.19 466.814 188.589C466.887 188.658 466.964 188.721 467.045 188.779L465.107 192.058C465.107 192.058 465.399 192.642 466.306 193.242C467.106 193.771 467.904 194 468.617 194C470.112 194 471.236 192.994 471.236 191.633C471.236 190.454 470.509 189.276 469.908 188.502C469.976 188.43 470.04 188.353 470.098 188.272L473.379 190.208C473.379 190.208 473.963 189.917 474.563 189.01C476.202 186.536 474.966 184.083 472.954 184.083ZM469.937 192.718C469.607 193.016 469.138 193.18 468.617 193.18C468.017 193.18 467.374 192.965 466.759 192.558C466.454 192.356 466.238 192.16 466.092 192.005L467.794 189.124C467.962 189.165 468.137 189.188 468.318 189.188C468.648 189.188 468.961 189.114 469.242 188.983C469.334 189.1 469.429 189.228 469.524 189.364C470.107 190.203 470.415 190.987 470.415 191.633C470.415 192.061 470.25 192.436 469.937 192.718ZM468.318 188.367C467.563 188.367 466.949 187.754 466.949 187C466.949 186.246 467.563 185.633 468.318 185.633C469.072 185.633 469.686 186.246 469.686 187C469.686 187.754 469.072 188.367 468.318 188.367ZM462.369 188.295C462.182 187.946 462.104 187.523 462.144 187.071C462.191 186.54 462.402 185.976 462.756 185.442C462.958 185.138 463.154 184.922 463.309 184.776L466.192 186.477C466.151 186.644 466.129 186.82 466.129 187C466.129 187.33 466.202 187.643 466.333 187.924C466.223 188.01 466.103 188.1 465.976 188.189C465.128 188.782 464.334 189.096 463.681 189.096C463.121 189.096 462.643 188.804 462.369 188.295ZM466.698 181.282C467.028 180.984 467.497 180.82 468.018 180.82C468.618 180.82 469.261 181.035 469.876 181.442C470.181 181.644 470.397 181.84 470.543 181.995L468.841 184.876C468.673 184.835 468.498 184.812 468.318 184.812C467.987 184.812 467.674 184.886 467.393 185.017C467.301 184.9 467.206 184.772 467.111 184.636C466.528 183.797 466.22 183.013 466.22 182.367C466.22 181.939 466.385 181.564 466.698 181.282ZM470.302 186.076C470.419 185.984 470.547 185.889 470.684 185.794C471.522 185.212 472.308 184.904 472.954 184.904C473.514 184.904 473.992 185.196 474.266 185.705C474.453 186.054 474.531 186.477 474.491 186.929C474.444 187.46 474.233 188.024 473.879 188.558C473.677 188.862 473.482 189.078 473.326 189.224L470.443 187.523C470.484 187.356 470.507 187.18 470.507 187C470.507 186.67 470.433 186.357 470.302 186.076Z" fill="#00CF3E"/>
</g>
<rect x="503.841" y="343.5" width="192.13" height="22" fill="#404759"/>
<path d="M484.328 231H482.328V233V346.5V348.5H484.328H719.988H721.988V346.5V233V231H719.988H484.328Z" fill="#F2F1F6" stroke="#FAFBFD" stroke-width="4"/>
<path d="M495.836 237.5H500.839V342.5H495.836V237.5Z" fill="white"/>
<path d="M510.846 237.5H515.849V342.5H510.846V237.5Z" fill="white"/>
<path d="M525.856 237.5H530.86V342.5H525.856V237.5Z" fill="white"/>
<path d="M540.866 237.5H545.87V342.5H540.866V237.5Z" fill="white"/>
<path d="M555.877 237.5H560.88V342.5H555.877V237.5Z" fill="white"/>
<path d="M570.887 237.5H575.89V342.5H570.887V237.5Z" fill="white"/>
<path d="M585.897 237.5H590.9V342.5H585.897V237.5Z" fill="white"/>
<path d="M600.907 237.5H605.911V342.5H600.907V237.5Z" fill="white"/>
<path d="M615.917 237.5H620.921V342.5H615.917V237.5Z" fill="white"/>
<path d="M630.927 237.5H635.931V342.5H630.927V237.5Z" fill="white"/>
<path d="M645.938 237.5H650.941V342.5H645.938V237.5Z" fill="white"/>
<path d="M660.948 237.5H665.951V342.5H660.948V237.5Z" fill="white"/>
<path d="M675.958 237.5H680.961V342.5H675.958V237.5Z" fill="white"/>
<path d="M690.968 237.5H695.972V342.5H690.968V237.5Z" fill="white"/>
<path d="M705.978 237.5H710.982V342.5H705.978V237.5Z" fill="white"/>
<rect x="690.968" y="340.5" width="103.07" height="33" fill="#2C3345"/>
<path d="M727.993 340.999C745.338 338.499 780.429 339.799 782.03 364.999H792.037H810.049V331.5C806.88 319 798.541 291.2 790.536 280C789.535 278.833 785.932 276.5 779.528 276.5H727.993V339.5V340.999Z" fill="#363D4F"/>
<path d="M779.528 276.5C785.932 276.5 789.535 278.833 790.536 280C798.541 291.2 806.88 319 810.049 331.5V364.999H792.037M779.528 276.5C773.124 276.5 742.503 276.5 727.993 276.5M779.528 276.5H727.993M727.993 276.5V339.5M727.993 339.5V340.999C745.338 338.499 780.429 339.799 782.03 364.999H792.037M727.993 339.5H792.037V364.999" stroke="#363D4F"/>
<rect x="804.045" y="352.5" width="16.0109" height="15" rx="1" fill="#00CF3E"/>
<path d="M529.859 395.5C541.463 395.5 550.872 386.099 550.872 374.5C550.872 362.901 541.463 353.5 529.859 353.5C518.255 353.5 508.846 362.901 508.846 374.5C508.846 386.099 518.255 395.5 529.859 395.5Z" fill="white" stroke="#2C3345" stroke-width="4"/>
<ellipse cx="529.859" cy="374.5" rx="6.00406" ry="6" fill="#C4C4C4"/>
<path d="M579.893 395.5C591.497 395.5 600.906 386.099 600.906 374.5C600.906 362.901 591.497 353.5 579.893 353.5C568.289 353.5 558.88 362.901 558.88 374.5C558.88 386.099 568.289 395.5 579.893 395.5Z" fill="white" stroke="#2C3345" stroke-width="4"/>
<ellipse cx="579.893" cy="374.5" rx="6.00409" ry="6" fill="#C4C4C4"/>
<path d="M750.008 393.5C761.612 393.5 771.021 384.099 771.021 372.5C771.021 360.901 761.612 351.5 750.008 351.5C738.404 351.5 728.995 360.901 728.995 372.5C728.995 384.099 738.404 393.5 750.008 393.5Z" fill="white" stroke="#2C3345" stroke-width="4"/>
<ellipse cx="750.008" cy="372.5" rx="6.00406" ry="6" fill="#C4C4C4"/>
<path d="M740.55 309.482C738.878 309.479 737.5 308.133 737.5 306.46V290.5C737.5 288.291 739.29 286.5 741.5 286.5H769.579C770.193 286.5 770.792 286.684 771.285 287.049C778.009 292.034 789.571 304.332 790.936 319.962C791.123 322.105 788.893 323.437 787.061 322.31C778.111 316.804 771.401 309.529 740.55 309.482Z" fill="#0E1527" stroke="#0E1527"/>
<rect x="735.999" y="315.5" width="12.0082" height="5" rx="1" fill="#00CF3E"/>
<path d="M357.742 336V293L347.736 297V336H357.742Z" fill="#F2F1F6" stroke="#F2F1F6"/>
<path d="M400.772 293H357.742V339H400.772V293Z" fill="#F2F1F6" stroke="#F2F1F6"/>
<rect x="378.256" y="293" width="6.00409" height="46" fill="#00CF3E"/>
<path d="M351.238 295H353.239V337L351.238 336.26V295Z" fill="#00CF3E"/>
<path d="M368.249 338L357.742 338.5V379L368.249 381.5V338Z" fill="#DEDDE2" stroke="#DEDDE2"/>
<path d="M410.778 338H368.249V381.5H410.778V338Z" fill="#E8E7EC" stroke="#E8E7EC"/>
<rect x="388.263" y="338" width="6.00406" height="44" fill="#2C3345"/>
<path d="M360.244 338H363.246V379.825L360.244 379.088V338Z" fill="#2C3345"/>
<path d="M315.714 381.5V336H335.727H357.742V339V381.5H315.714Z" fill="#E8E7EC" stroke="#E8E7EC"/>
<path d="M304.206 378.999L315.214 381.499V336.055L304.206 340.999V378.999Z" fill="#F2F1F6" stroke="#F2F1F6"/>
<rect x="335.227" y="336" width="6.00409" height="46" fill="#2C3345"/>
<path d="M54.0366 352.043V362.043H78.5532L82.5559 350.543C81.3551 350.543 75.718 356.543 73.0495 359.543L73.5498 352.543L67.0454 358.043C67.5458 354.71 68.5465 347.943 68.5465 347.543C68.5465 347.143 61.8753 355.377 58.5397 359.543L54.0366 352.043Z" fill="#F2F1F6" stroke="#F2F1F6"/>
<path d="M81.5553 355.543L82.5559 362.543H91.562C91.562 361.043 95.0644 353.543 95.0644 352.043L88.56 358.043L88.0597 354.043C87.6594 354.443 85.8915 357.543 85.0576 359.043L81.5553 355.543Z" fill="#F2F1F6" stroke="#F2F1F6"/>
<path d="M50.6623 271.421C51.2038 276.608 56.5609 278.645 59.1717 279.016C74.1247 273.564 77.3631 259.814 77.1444 252.78C77.1251 252.161 76.983 251.561 76.7957 250.971C76.0764 248.704 75.0553 244.582 75.1145 241.033C75.176 237.347 75.4817 228.635 75.6692 223.592C75.7056 222.614 75.6048 221.628 75.2185 220.728C73.2149 216.063 67.3288 209.136 55.8 210.506C43.0561 212.019 36.2109 223.909 34.3814 229.665C26.2001 249.457 41.8264 265.749 50.6623 271.421Z" fill="#F2F1F6" stroke="#F2F1F6"/>
<path d="M60.6492 331.606L60.2696 291.014M60.1557 278.836L60.2696 291.014M60.2696 291.014L67.4061 279.545" stroke="#8F929D"/>
<path opacity="0.5" d="M60.1557 278.836L59.4988 256.083M58.7252 229.286L59.1631 244.454M66.2977 240.102L59.8615 249.409L59.3284 250.18M59.1631 244.454L52.8604 239.76M59.1631 244.454L59.3284 250.18M46.5578 235.065L52.8604 239.76M52.8604 239.76L54.7877 230.005M59.4988 256.083L41.8554 239.946M59.4988 256.083L59.3284 250.18" stroke="#2C3345"/>
<path d="M68.0462 298.542C66.0448 301.342 66.8784 307.042 67.5454 309.542C65.5759 317.808 68.9362 318.037 70.951 317.089C77.2776 316.726 79.3223 305.573 79.5539 300.042C75.5512 293.242 70.2143 296.209 68.0462 298.542Z" fill="#F2F1F6"/>
<path d="M71.0477 317.042C71.0159 317.058 70.9836 317.074 70.951 317.089M70.951 317.089C68.9362 318.037 65.5759 317.808 67.5454 309.542C66.8784 307.042 66.0448 301.342 68.0462 298.542C70.2143 296.209 75.5512 293.242 79.5539 300.042C79.3223 305.573 77.2776 316.726 70.951 317.089Z" stroke="#F2F1F6"/>
<path opacity="0.1" d="M95.0649 288.543C107.073 302.943 92.3964 312.209 83.5571 315.043C79.5544 312.543 73.2501 304.843 80.0547 294.043C81.5559 291.376 86.6596 286.543 95.0649 288.543Z" fill="#00CF3E" stroke="#00CF3E"/>
<path opacity="0.1" d="M102.814 298.861C107.248 307.449 102.688 314.658 98.698 318.244C97.851 319.006 96.5471 318.733 95.9993 317.734C89.6256 306.119 95.6634 300.103 100.646 298.038C101.471 297.696 102.405 298.067 102.814 298.861Z" fill="#00CF3E" stroke="#00CF3E"/>
<path opacity="0.7" d="M70.0475 331.543L70.7721 321.043M71.0481 317.543L70.7721 321.043M70.7721 321.043L73.5498 319.543" stroke="#8F929D"/>
<path opacity="0.1" d="M83.5566 315.543L82.5559 323.543M81.0549 335.543L82.5559 323.543M82.5559 323.543L79.5539 319.043M97.0658 319.043L96.5654 335.543" stroke="#00CF3E"/>
<path d="M34.6288 332.6C20.7605 325.953 9.85193 330.88 3.78017 336.313C1.98202 337.922 3.2769 340.543 5.68982 340.543L103.829 340.543C106.502 340.543 107.486 337.708 105.208 336.31C104.106 335.635 103.014 335.015 102.069 334.543C99.8133 333.416 89.4351 335.435 83.6223 336.79C82.9325 336.95 82.2103 336.868 81.5718 336.561C76.4995 334.124 66.6558 330.043 61.0414 330.043C55.3425 330.043 42.8822 331.845 36.4959 332.883C35.8616 332.986 35.2084 332.878 34.6288 332.6Z" fill="#F2F1F6" stroke="#F2F1F6"/>
<path d="M831.1 262.565C819.248 307.728 835.34 320.112 844.867 320.659C860.793 318.939 866.117 289.397 864.498 286.634C862.878 283.872 861.363 270.008 860.589 268.379C859.97 267.076 855.628 263.109 853.534 261.288C840.538 253.33 833.163 258.823 831.1 262.565Z" fill="#F2F1F6" stroke="#F2F1F6"/>
<path d="M836.564 334.411C841.558 341.107 838.379 344.753 836.313 346.001C835.575 346.447 834.72 346.142 834.241 345.425C833.378 344.133 832.775 342.616 832.352 340.87C832.347 340.851 832.343 340.832 832.338 340.813C832.257 340.819 832.173 340.825 832.086 340.831C828.404 341.103 825.464 338.855 824.454 337.697C818.74 331.811 819.132 318.732 824.867 317.547C829.455 316.599 832.569 321.364 833.552 323.866C837.504 327.272 837.206 332.315 836.564 334.411Z" fill="#F2F1F6"/>
<path d="M836.564 334.411C841.558 341.107 838.379 344.753 836.313 346.001C835.575 346.447 834.72 346.142 834.241 345.425C833.378 344.133 832.775 342.616 832.352 340.87M836.564 334.411C837.206 332.315 837.504 327.272 833.552 323.866C832.569 321.364 829.455 316.599 824.867 317.547C819.132 318.732 818.74 331.811 824.454 337.697C825.464 338.855 828.404 341.103 832.086 340.831C835.767 340.559 833.797 340.744 832.352 340.87M836.564 334.411C832.44 335.566 831.702 338.189 832.352 340.87" stroke="#F2F1F6"/>
<path d="M844.939 285.964L845.15 296.096M845.234 300.148L851.727 290.469M845.234 300.148L845.35 305.721M845.234 300.148L845.15 296.096M855.128 285.398L851.727 290.469M851.727 290.469L852.576 284.529M845.509 313.32L845.717 320.813L845.717 322.946M845.509 313.32L854.049 303.547M845.509 313.32L845.35 305.721M857.675 299.399L854.049 303.547M854.049 303.547L853.429 297.278M845.35 305.721L834.237 300.719M845.15 296.096L840.814 290.067M837.863 285.964L840.814 290.067M840.814 290.067L841.825 282.994" stroke="#8F929D"/>
<defs>
<clipPath id="clip0">
<rect x="461.313" y="180" width="14.0095" height="14" fill="white"/>
</clipPath>
</defs>
</svg>
