<svg width="40" height="40" viewBox="0 0 40 40" fill="none" xmlns="http://www.w3.org/2000/svg">
<path fill-rule="evenodd" clip-rule="evenodd" d="M29.3331 20V16L30.6664 20H29.3331ZM29.3331 30.6667H10.6664C9.93042 30.6667 9.33309 30.0693 9.33309 29.3333V22.6667H13.3331C14.0691 22.6667 14.6664 23.264 14.6664 24V25.3333C14.6664 26.8067 15.8598 28 17.3331 28H22.6664C24.1398 28 25.3331 26.8067 25.3331 25.3333V24C25.3331 23.264 25.9304 22.6667 26.6664 22.6667H30.6664V29.3333C30.6664 30.0693 30.0691 30.6667 29.3331 30.6667ZM10.6664 16V20H9.33309L10.6664 16ZM14.6664 9.33333H25.3331C26.0691 9.33333 26.6664 9.93067 26.6664 10.6667V20H25.3331C23.8598 20 22.6664 21.1933 22.6664 22.6667V24C22.6664 24.736 22.0691 25.3333 21.3331 25.3333H18.6664C17.9304 25.3333 17.3331 24.736 17.3331 24V22.6667C17.3331 21.1933 16.1398 20 14.6664 20H13.3331V10.6667C13.3331 9.93067 13.9304 9.33333 14.6664 9.33333ZM30.6665 12H29.3332V9.33335C29.3332 7.86002 28.1398 6.66669 26.6665 6.66669H13.3332C11.8598 6.66669 10.6665 7.86002 10.6665 9.33335V12H9.33317L6.6665 20V30.6667C6.6665 32.14 7.85984 33.3334 9.33317 33.3334H30.6665C32.1398 33.3334 33.3332 32.14 33.3332 30.6667V20L30.6665 12Z" fill="#007CFF"/>
</svg>
