<svg width="40" height="40" viewBox="0 0 40 40" fill="none" xmlns="http://www.w3.org/2000/svg">
<path fill-rule="evenodd" clip-rule="evenodd" d="M32.9482 31.062C33.4695 31.5834 33.4695 32.4274 32.9482 32.9474C32.4268 33.4687 31.5828 33.4687 31.0628 32.9474L27.2495 29.134C28.1002 28.7594 28.9215 28.3194 29.7055 27.8194L32.9482 31.062ZM10.2988 27.8154C11.0828 28.3154 11.9028 28.7554 12.7548 29.1314L8.94284 32.942C8.42284 33.4634 7.5775 33.4634 7.0575 32.942C6.53617 32.422 6.53617 31.578 7.0575 31.0567L10.2988 27.8154ZM7.06271 8.94733C6.54138 8.42733 6.54138 7.58333 7.06271 7.062C7.58271 6.54067 8.42671 6.54067 8.94805 7.062L13.1694 11.2833C12.3027 11.6407 11.468 12.0673 10.668 12.5527L7.06271 8.94733ZM29.3362 12.5487C28.5348 12.0647 27.7002 11.6367 26.8335 11.2807L31.0575 7.05669C31.5775 6.53669 32.4228 6.53669 32.9428 7.05669C33.4642 7.57802 33.4642 8.42202 32.9428 8.94202L29.3362 12.5487ZM22.6722 20.2993C22.6722 21.7713 21.4775 22.966 20.0055 22.966C18.5322 22.966 17.3389 21.7713 17.3389 20.2993C17.3389 18.826 18.5322 17.6327 20.0055 17.6327C21.4775 17.6327 22.6722 18.826 22.6722 20.2993ZM20.0056 25.338C16.0203 25.338 12.2656 23.4407 9.87093 20.2994C12.2656 17.1567 16.0203 15.2594 20.0056 15.2594C23.9909 15.2594 27.7456 17.1567 30.1403 20.2994C27.7456 23.4407 23.9909 25.338 20.0056 25.338ZM33.3387 20.2994C30.672 15.6967 25.7067 12.5927 20.0054 12.5927C14.304 12.5927 9.33737 15.6967 6.67204 20.2994C9.33737 24.9007 14.304 28.0047 20.0054 28.0047C25.7067 28.0047 30.672 24.9007 33.3387 20.2994Z" fill="#007CFF"/>
</svg>
