<svg width="86" height="28" viewBox="0 0 86 28" fill="none" xmlns="http://www.w3.org/2000/svg">
<path d="M34.3594 9.38208H36.9295V23.1058H34.3594V9.38208Z" fill="#2A92FF"/>
<path d="M39.2653 18.1369C39.2653 15.4231 41.3761 13.168 44.1904 13.168C47.0047 13.168 49.0785 15.3849 49.0785 18.1369C49.0785 20.8507 46.9677 23.1058 44.1534 23.1058C41.339 23.1058 39.2653 20.8889 39.2653 18.1369ZM46.9677 18.1369C46.9677 16.4551 45.7827 15.0791 44.1534 15.0791C42.45 15.0791 41.3761 16.4551 41.3761 18.1369C41.3761 19.7805 42.561 21.1947 44.1904 21.1947C45.8938 21.1947 46.9677 19.8187 46.9677 18.1369Z" fill="#2A92FF"/>
<path d="M51.3943 25.6821L52.1771 23.8884C53.1462 24.5558 54.2272 24.9729 55.4945 24.9729C57.3955 24.9729 58.4392 23.8884 58.4392 21.8027V21.0102C57.6564 22.1364 56.6873 22.929 55.1591 22.929C52.9971 22.929 50.9471 21.1353 50.9471 18.0485C50.9471 14.9617 52.9971 13.1681 55.1591 13.1681C56.7246 13.1681 57.6937 13.9606 58.4019 14.92V13.3766H60.5266V21.5942C60.5266 23.3461 60.1166 24.6392 59.3338 25.5152C58.4765 26.4746 57.1719 26.8918 55.5318 26.8918C54.0035 26.8918 52.5871 26.4746 51.3943 25.6821ZM58.4392 18.0068C58.4392 16.2966 57.2091 15.1286 55.7182 15.1286C54.2272 15.1286 53.0717 16.2548 53.0717 18.0068C53.0717 19.7171 54.2645 20.885 55.7182 20.885C57.2091 20.885 58.4392 19.7171 58.4392 18.0068Z" fill="#2A92FF"/>
<path d="M67.7702 21.6751L68.7437 20.167C69.7951 20.9404 70.9244 21.3657 71.9369 21.3657C72.9104 21.3657 73.4556 20.979 73.4556 20.283C73.4556 19.587 72.521 19.3163 71.4696 19.0069C71.4306 19.0069 71.3528 18.9683 71.3138 18.9683C69.873 18.5429 68.2764 17.9629 68.2764 16.1068C68.2764 14.2894 69.7951 13.168 71.7422 13.168C72.9493 13.168 74.2733 13.5933 75.2858 14.2507L74.3902 15.8361C73.4556 15.2561 72.4431 14.9081 71.6643 14.9081C70.8076 14.9081 70.3013 15.2947 70.3013 15.9134C70.3013 16.5708 71.2359 16.8802 72.2873 17.1895C72.3263 17.1895 72.4042 17.2282 72.4821 17.2282C73.8839 17.6535 75.4805 18.3109 75.4805 20.0897C75.4805 22.1004 73.8839 23.1058 71.8979 23.1058C70.4961 23.1058 68.9773 22.6031 67.7702 21.6751Z" fill="#2A92FF"/>
<path d="M77.9743 20.1152V14.8208H76.4157V12.8404H77.9743V10.0921H80.5873V12.8404H83.6587V14.8208H80.5873V19.7515C80.5873 20.6406 81.0916 21.0044 82.0084 21.0044C82.6044 21.0044 83.1086 20.8831 83.6129 20.681V22.5806C82.9711 22.9039 82.2376 23.106 81.275 23.106C79.3496 23.0656 77.9743 22.3381 77.9743 20.1152Z" fill="#2A92FF"/>
<path d="M63.3309 13.168H65.901V23.1058H63.3309V13.168Z" fill="#2A92FF"/>
<path d="M67.7683 10.8019L65.0689 6.39434L64.1422 7.87621C55.198 3.01264 45.0048 0.390869 34.5698 0.390869C25.4241 0.390869 16.4799 2.40469 8.42202 6.12836C8.78462 6.50833 9.06665 6.96429 9.26809 7.45824C17.0842 3.88656 25.7465 1.94873 34.5698 1.94873C44.7228 1.94873 54.634 4.49451 63.3365 9.20609L62.3695 10.8019H67.7683Z" fill="#00CF3E"/>
<path d="M8.65565 13.363H10.7366V14.8829C11.3207 13.9476 12.1603 13.1681 13.5841 13.1681C15.6285 13.1681 16.8333 14.6491 16.8333 16.9094V23.067H14.7524V17.572C14.7524 16.0521 14.0587 15.1947 12.8175 15.1947C11.6127 15.1947 10.7731 16.091 10.7731 17.6109V23.106H8.69215V13.363H8.65565Z" fill="#00CF3E"/>
<path d="M18.9365 13.363H21.0769V14.8829C21.6777 13.9476 22.5414 13.1681 24.0058 13.1681C26.1086 13.1681 27.3478 14.6491 27.3478 16.9094V23.067H25.2074V17.572C25.2074 16.0521 24.494 15.1947 23.2173 15.1947C21.9781 15.1947 21.1144 16.091 21.1144 17.6109V23.106H18.9741V13.363H18.9365Z" fill="#00CF3E"/>
<path d="M29.9174 20.7399H32.2539V23.1061H29.9174V20.7399Z" fill="#00CF3E"/>
<path d="M3.9832 13.1681H6.55332V23.106H3.9832V13.1681Z" fill="#00CF3E"/>
<path d="M4.91777 10.8019C6.33721 10.8019 7.48789 9.63657 7.48789 8.1991C7.48789 6.76163 6.33721 5.59633 4.91777 5.59633C3.49834 5.59633 2.34766 6.76163 2.34766 8.1991C2.34766 9.63657 3.49834 10.8019 4.91777 10.8019Z" fill="#00CF3E"/>
</svg>
