<svg width="54" height="52" viewBox="0 0 54 52" fill="none" xmlns="http://www.w3.org/2000/svg">
<rect width="54" height="52" rx="7" fill="#E5F2FF"/>
<path fill-rule="evenodd" clip-rule="evenodd" d="M21 29V20C21 19.448 21.448 19 22 19H32C32.552 19 33 19.448 33 20V29H21ZM31 32C31 31.448 31.448 31 32 31C32.552 31 33 31.448 33 32C33 32.552 32.552 33 32 33C31.448 33 31 32.552 31 32ZM21 32C21 31.448 21.448 31 22 31C22.552 31 23 31.448 23 32C23 32.552 22.552 33 22 33C21.448 33 21 32.552 21 32ZM37 26C37 25.448 36.552 25 36 25H35V19C35 17.895 34.105 17 33 17H21C19.895 17 19 17.895 19 19V25H18C17.448 25 17 25.448 17 26C17 26.552 17.448 27 18 27H19V29C17.895 29 17 29.895 17 31V33C17 34.105 17.895 35 19 35V36C19 36.552 19.448 37 20 37H22C22.552 37 23 36.552 23 36V35H31V36C31 36.552 31.448 37 32 37H34C34.552 37 35 36.552 35 36V35C36.105 35 37 34.105 37 33V31C37 29.895 36.105 29 35 29V27H36C36.552 27 37 26.552 37 26Z" fill="#007CFF"/>
</svg>
