<svg width="54" height="52" viewBox="0 0 54 52" fill="none" xmlns="http://www.w3.org/2000/svg">
<rect width="54" height="52" rx="7" fill="#E5F2FF"/>
<path fill-rule="evenodd" clip-rule="evenodd" d="M36.0063 26.0031C35.4578 26.0031 35.0126 26.451 35.0126 27.0028C35.0126 27.5547 35.4578 28.0025 36.0063 28.0025C36.5548 28.0025 37 27.5547 37 27.0028C37 26.451 36.5548 26.0031 36.0063 26.0031ZM28.0568 34.0006C27.5083 34.0006 27.0631 34.4485 27.0631 35.0003C27.0631 35.5521 27.5083 36 28.0568 36C28.6053 36 29.0505 35.5521 29.0505 35.0003C29.0505 34.4485 28.6053 34.0006 28.0568 34.0006ZM32.0316 34.0006C31.483 34.0006 31.0379 34.4485 31.0379 35.0003C31.0379 35.5521 31.483 36 32.0316 36C32.5801 36 33.0252 35.5521 33.0252 35.0003C33.0252 34.4485 32.5801 34.0006 32.0316 34.0006ZM36.0063 34.0006C35.4578 34.0006 35.0126 34.4485 35.0126 35.0003C35.0126 35.5521 35.4578 36 36.0063 36C36.5548 36 37 35.5521 37 35.0003C37 34.4485 36.5548 34.0006 36.0063 34.0006ZM20.1073 34.0006C19.5588 34.0006 19.1136 33.5528 19.1136 33.0009C19.1136 32.4491 18.6684 32.0013 18.1199 32.0013H18.0563C17.5078 32.0013 17 32.4491 17 33.0009V34.0006H17.0626C17.0626 35.0003 17.9847 36 19.0818 36H19.1136H20.1073C20.6558 36 21.101 35.5521 21.101 35.0003C21.101 34.4485 20.6558 34.0006 20.1073 34.0006ZM18.1199 18.0057C18.6684 18.0057 19.1136 17.5578 19.1136 17.006C19.1136 16.4541 18.6684 16.0063 18.1199 16.0063C17.5714 16.0063 17.1262 16.4541 17.1262 17.006C17.1262 17.5578 17.5714 18.0057 18.1199 18.0057ZM36.0063 30.0019C35.4578 30.0019 35.0126 30.4497 35.0126 31.0016C35.0126 31.5534 35.4578 32.0013 36.0063 32.0013C36.5548 32.0013 37 31.5534 37 31.0016C37 30.4497 36.5548 30.0019 36.0063 30.0019ZM22.0946 16.0063C21.5461 16.0063 21.101 16.4541 21.101 17.006C21.101 17.5578 21.5461 18.0057 22.0946 18.0057C22.6432 18.0057 23.0883 17.5578 23.0883 17.006C23.0883 16.4541 22.6432 16.0063 22.0946 16.0063ZM26.0694 16.0063C25.5209 16.0063 25.0757 16.4541 25.0757 17.006C25.0757 17.5578 25.5209 18.0057 26.0694 18.0057C26.6179 18.0057 27.0631 17.5578 27.0631 17.006C27.0631 16.4541 26.6179 16.0063 26.0694 16.0063ZM18.1199 22.0044C18.6684 22.0044 19.1136 21.5565 19.1136 21.0047C19.1136 20.4529 18.6684 20.005 18.1199 20.005C17.5714 20.005 17.1262 20.4529 17.1262 21.0047C17.1262 21.5565 17.5714 22.0044 18.1199 22.0044ZM18.1199 30.0019C18.6684 30.0019 19.1136 29.554 19.1136 29.0022C19.1136 28.4504 18.6684 28.0025 18.1199 28.0025C17.5714 28.0025 17.1262 28.4504 17.1262 29.0022C17.1262 29.554 17.5714 30.0019 18.1199 30.0019ZM24.082 34.0006C23.5335 34.0006 23.0883 34.4485 23.0883 35.0003C23.0883 35.5521 23.5335 36 24.082 36C24.6305 36 25.0757 35.5521 25.0757 35.0003C25.0757 34.4485 24.6305 34.0006 24.082 34.0006ZM36.0063 24.0038C36.5548 24.0038 36.8738 23.5559 36.8738 23.0041C36.8738 22.5612 36.9414 22.0094 36.6453 21.7115L31.2972 16.2992C30.9315 15.9313 30.5788 16.0063 30.0442 16.0063C29.4957 16.0063 28.9243 16.4541 28.9243 17.006V22.0044C28.9243 23.1081 29.9398 24.0038 31.0379 24.0038H36.0063ZM17.1262 25.0035C17.1262 24.4516 17.5714 24.0038 18.1199 24.0038C18.6684 24.0038 19.1136 24.4516 19.1136 25.0035C19.1136 25.5553 18.6684 26.0031 18.1199 26.0031C17.5714 26.0031 17.1262 25.5553 17.1262 25.0035Z" fill="#007CFF"/>
</svg>
