<svg width="54" height="52" viewBox="0 0 54 52" fill="none" xmlns="http://www.w3.org/2000/svg">
<rect width="54" height="52" rx="7" fill="#E5F2FF"/>
<path fill-rule="evenodd" clip-rule="evenodd" d="M27 34C22.927 34 19.556 31 19.063 27H23.126C23.57 29 25.136 30 27 30C28.864 30 30.43 29 30.874 27H34.937C34.444 31 31.073 34 27 34ZM27 18C31.073 18 34.444 21 34.937 25H30.874C30.43 23 28.864 22 27 22C25.136 22 23.57 23 23.126 25H19.063C19.556 21 22.927 18 27 18ZM27 16C21.477 16 17 20.477 17 26C17 31.523 21.477 36 27 36C32.523 36 37 31.523 37 26C37 20.477 32.523 16 27 16Z" fill="#007CFF"/>
</svg>
