<svg width="54" height="52" viewBox="0 0 54 52" fill="none" xmlns="http://www.w3.org/2000/svg">
<rect width="54" height="52" rx="7" fill="#E5F2FF"/>
<path fill-rule="evenodd" clip-rule="evenodd" d="M35 33C35 33.5523 34.5523 34 34 34H20C19.4477 34 19 33.5523 19 33V19C19 18.4477 19.4477 18 20 18H26C26.5523 18 27 18.4477 27 19V25C27 25.5523 27.4477 26 28 26H34C34.5523 26 35 26.4477 35 27V33ZM27 16H18C17.4477 16 17 16.4477 17 17V35C17 35.5523 17.4477 36 18 36H36C36.5523 36 37 35.5523 37 35V26V17C37 16.4477 36.5523 16 36 16H27Z" fill="#007CFF"/>
</svg>
