<svg width="54" height="52" viewBox="0 0 54 52" fill="none" xmlns="http://www.w3.org/2000/svg">
<rect width="54" height="52" rx="7" fill="#E5F2FF"/>
<path fill-rule="evenodd" clip-rule="evenodd" d="M27 26C24.3528 26 22.2 23.8472 22.2 21.2C22.2 18.5528 24.3528 16.4 27 16.4C29.6472 16.4 31.8 18.5528 31.8 21.2C31.8 23.8472 29.6472 26 27 26ZM31.5096 26.8076C33.1488 25.4888 34.2 23.468 34.2 21.2C34.2 17.2232 30.9768 14 27 14C23.0232 14 19.8 17.2232 19.8 21.2C19.8 23.468 20.8512 25.4888 22.4904 26.8076C18.0996 28.4576 15 32.534 15 38H17.4C17.4 32 21.7068 28.4 27 28.4C32.2932 28.4 36.6 32 36.6 38H39C39 32.534 35.9004 28.4576 31.5096 26.8076Z" fill="#007CFF"/>
<path d="M31.5096 26.8076L31.3529 26.6128L31.0115 26.8875L31.4217 27.0416L31.5096 26.8076ZM22.4904 26.8076L22.5783 27.0416L22.9885 26.8875L22.6471 26.6128L22.4904 26.8076ZM15 38H14.75V38.25H15V38ZM17.4 38V38.25H17.65V38H17.4ZM36.6 38H36.35V38.25H36.6V38ZM39 38V38.25H39.25V38H39ZM27 25.75C24.4909 25.75 22.45 23.7091 22.45 21.2H21.95C21.95 23.9853 24.2147 26.25 27 26.25V25.75ZM22.45 21.2C22.45 18.6909 24.4909 16.65 27 16.65V16.15C24.2147 16.15 21.95 18.4147 21.95 21.2H22.45ZM27 16.65C29.5091 16.65 31.55 18.6909 31.55 21.2H32.05C32.05 18.4147 29.7853 16.15 27 16.15V16.65ZM31.55 21.2C31.55 23.7091 29.5091 25.75 27 25.75V26.25C29.7853 26.25 32.05 23.9853 32.05 21.2H31.55ZM31.6663 27.0024C33.3618 25.6383 34.45 23.5471 34.45 21.2H33.95C33.95 23.3889 32.9358 25.3393 31.3529 26.6128L31.6663 27.0024ZM34.45 21.2C34.45 17.0851 31.1149 13.75 27 13.75V14.25C30.8387 14.25 33.95 17.3613 33.95 21.2H34.45ZM27 13.75C22.8851 13.75 19.55 17.0851 19.55 21.2H20.05C20.05 17.3613 23.1613 14.25 27 14.25V13.75ZM19.55 21.2C19.55 23.5471 20.6382 25.6383 22.3337 27.0024L22.6471 26.6128C21.0642 25.3393 20.05 23.3889 20.05 21.2H19.55ZM22.4025 26.5736C17.9144 28.2601 14.75 32.4296 14.75 38H15.25C15.25 32.6384 18.2848 28.6551 22.5783 27.0416L22.4025 26.5736ZM15 38.25H17.4V37.75H15V38.25ZM17.65 38C17.65 35.063 18.7024 32.7304 20.3872 31.1313C22.0739 29.5303 24.41 28.65 27 28.65V28.15C24.2968 28.15 21.8329 29.0697 20.0429 30.7687C18.251 32.4696 17.15 34.937 17.15 38H17.65ZM27 28.65C29.59 28.65 31.9261 29.5303 33.6128 31.1313C35.2976 32.7304 36.35 35.063 36.35 38H36.85C36.85 34.937 35.749 32.4696 33.9571 30.7687C32.1671 29.0697 29.7032 28.15 27 28.15V28.65ZM36.6 38.25H39V37.75H36.6V38.25ZM39.25 38C39.25 32.4296 36.0856 28.2601 31.5975 26.5736L31.4217 27.0416C35.7152 28.6551 38.75 32.6384 38.75 38H39.25Z" fill="#E5F2FF"/>
</svg>
