<svg width="676" height="518" viewBox="0 0 676 518" fill="none" xmlns="http://www.w3.org/2000/svg">
<rect x="172" y="81" width="303" height="364" fill="#FAFBFD"/>
<g filter="url(#filter0_d)">
<rect x="20" y="10" width="293" height="368" rx="10" fill="white"/>
</g>
<circle cx="61" cy="51" r="16" fill="#F2F1F6"/>
<rect x="103" y="43" width="108" height="5" rx="2.5" fill="#00CF3E"/>
<rect x="103" y="54" width="32" height="5" rx="2.5" fill="#F2F1F6"/>
<circle cx="61" cy="108" r="16" fill="#F2F1F6"/>
<rect x="103" y="100" width="158" height="5" rx="2.5" fill="#00CF3E"/>
<rect x="103" y="111" width="82" height="5" rx="2.5" fill="#F2F1F6"/>
<circle cx="61" cy="165" r="16" fill="#F2F1F6"/>
<rect x="103" y="157" width="57" height="5" rx="2.5" fill="#00CF3E"/>
<rect x="103" y="168" width="32" height="5" rx="2.5" fill="#F2F1F6"/>
<circle cx="61" cy="222" r="16" fill="#F2F1F6"/>
<rect x="103" y="214" width="69" height="5" rx="2.5" fill="#00CF3E"/>
<rect x="103" y="225" width="119" height="5" rx="2.5" fill="#F2F1F6"/>
<circle cx="61" cy="279" r="16" fill="#F2F1F6"/>
<rect x="103" y="271" width="95" height="5" rx="2.5" fill="#00CF3E"/>
<rect x="103" y="282" width="82" height="5" rx="2.5" fill="#F2F1F6"/>
<circle cx="61" cy="336" r="16" fill="#F2F1F6"/>
<rect x="103" y="328" width="170" height="5" rx="2.5" fill="#00CF3E"/>
<rect x="103" y="339" width="145" height="5" rx="2.5" fill="#F2F1F6"/>
<g filter="url(#filter1_d)">
<rect x="363" y="120" width="293" height="368" rx="10" fill="white"/>
</g>
<path d="M436 166.5C436 179.479 425.479 190 412.5 190C399.521 190 389 179.479 389 166.5C389 153.521 399.521 143 412.5 143C425.479 143 436 153.521 436 166.5ZM392.525 166.5C392.525 177.532 401.468 186.475 412.5 186.475C423.532 186.475 432.475 177.532 432.475 166.5C432.475 155.468 423.532 146.525 412.5 146.525C401.468 146.525 392.525 155.468 392.525 166.5Z" fill="#E5F2FF"/>
<mask id="path-24-inside-1" fill="white">
<path d="M395.493 180.038C394.731 180.644 394.601 181.758 395.262 182.472C397.59 184.984 400.444 186.963 403.629 188.261C407.358 189.782 411.416 190.318 415.413 189.819C419.41 189.319 423.211 187.801 426.452 185.41C429.693 183.019 432.265 179.834 433.922 176.163C435.578 172.491 436.262 168.455 435.91 164.443C435.557 160.431 434.179 156.576 431.908 153.25C429.637 149.923 426.549 147.236 422.941 145.447C419.86 143.919 416.488 143.089 413.064 143.007C412.091 142.983 411.342 143.819 411.392 144.791C411.441 145.763 412.271 146.503 413.244 146.539C416.063 146.644 418.835 147.345 421.375 148.605C424.442 150.126 427.067 152.41 428.997 155.237C430.927 158.065 432.099 161.341 432.398 164.752C432.698 168.162 432.116 171.592 430.708 174.713C429.301 177.834 427.114 180.541 424.359 182.573C421.605 184.606 418.373 185.897 414.976 186.321C411.579 186.745 408.13 186.289 404.959 184.997C402.334 183.927 399.974 182.313 398.029 180.269C397.358 179.564 396.254 179.432 395.493 180.038Z"/>
</mask>
<path d="M395.493 180.038C394.731 180.644 394.601 181.758 395.262 182.472C397.59 184.984 400.444 186.963 403.629 188.261C407.358 189.782 411.416 190.318 415.413 189.819C419.41 189.319 423.211 187.801 426.452 185.41C429.693 183.019 432.265 179.834 433.922 176.163C435.578 172.491 436.262 168.455 435.91 164.443C435.557 160.431 434.179 156.576 431.908 153.25C429.637 149.923 426.549 147.236 422.941 145.447C419.86 143.919 416.488 143.089 413.064 143.007C412.091 142.983 411.342 143.819 411.392 144.791C411.441 145.763 412.271 146.503 413.244 146.539C416.063 146.644 418.835 147.345 421.375 148.605C424.442 150.126 427.067 152.41 428.997 155.237C430.927 158.065 432.099 161.341 432.398 164.752C432.698 168.162 432.116 171.592 430.708 174.713C429.301 177.834 427.114 180.541 424.359 182.573C421.605 184.606 418.373 185.897 414.976 186.321C411.579 186.745 408.13 186.289 404.959 184.997C402.334 183.927 399.974 182.313 398.029 180.269C397.358 179.564 396.254 179.432 395.493 180.038Z" fill="#C4C4C4" stroke="#00CF3E" stroke-width="4" mask="url(#path-24-inside-1)"/>
<circle cx="412" cy="166" r="4" fill="#E5F2FF"/>
<rect x="396" y="201" width="32" height="6" rx="3" fill="#E5F2FF"/>
<path d="M630 166.5C630 179.479 619.479 190 606.5 190C593.521 190 583 179.479 583 166.5C583 153.521 593.521 143 606.5 143C619.479 143 630 153.521 630 166.5ZM586.525 166.5C586.525 177.532 595.468 186.475 606.5 186.475C617.532 186.475 626.475 177.532 626.475 166.5C626.475 155.468 617.532 146.525 606.5 146.525C595.468 146.525 586.525 155.468 586.525 166.5Z" fill="#E5F2FF"/>
<mask id="path-28-inside-2" fill="white">
<path d="M618.366 184.713C618.897 185.529 619.994 185.764 620.767 185.173C624.538 182.293 627.359 178.328 628.84 173.792C630.504 168.695 630.374 163.182 628.474 158.169C626.573 153.156 623.015 148.943 618.391 146.23C614.274 143.816 609.533 142.718 604.801 143.061C603.83 143.132 603.165 144.035 603.308 144.998C603.451 145.961 604.348 146.617 605.32 146.56C609.254 146.327 613.185 147.263 616.607 149.271C620.538 151.577 623.562 155.157 625.178 159.419C626.793 163.68 626.903 168.366 625.489 172.698C624.258 176.47 621.936 179.776 618.836 182.21C618.071 182.812 617.834 183.898 618.366 184.713Z"/>
</mask>
<path d="M618.366 184.713C618.897 185.529 619.994 185.764 620.767 185.173C624.538 182.293 627.359 178.328 628.84 173.792C630.504 168.695 630.374 163.182 628.474 158.169C626.573 153.156 623.015 148.943 618.391 146.23C614.274 143.816 609.533 142.718 604.801 143.061C603.83 143.132 603.165 144.035 603.308 144.998C603.451 145.961 604.348 146.617 605.32 146.56C609.254 146.327 613.185 147.263 616.607 149.271C620.538 151.577 623.562 155.157 625.178 159.419C626.793 163.68 626.903 168.366 625.489 172.698C624.258 176.47 621.936 179.776 618.836 182.21C618.071 182.812 617.834 183.898 618.366 184.713Z" fill="#C4C4C4" stroke="#007CFF" stroke-width="4" mask="url(#path-28-inside-2)"/>
<circle cx="606" cy="166" r="4" fill="#E5F2FF"/>
<rect x="590" y="201" width="32" height="6" rx="3" fill="#E5F2FF"/>
<path d="M533 166.5C533 179.479 522.479 190 509.5 190C496.521 190 486 179.479 486 166.5C486 153.521 496.521 143 509.5 143C522.479 143 533 153.521 533 166.5ZM489.525 166.5C489.525 177.532 498.468 186.475 509.5 186.475C520.532 186.475 529.475 177.532 529.475 166.5C529.475 155.468 520.532 146.525 509.5 146.525C498.468 146.525 489.525 155.468 489.525 166.5Z" fill="#E5F2FF"/>
<mask id="path-32-inside-3" fill="white">
<path d="M523.826 150.151C524.467 149.419 524.397 148.299 523.619 147.714C521.449 146.084 519.01 144.838 516.407 144.038C513.804 143.238 511.086 142.897 508.375 143.027C507.402 143.074 506.716 143.96 506.835 144.926C506.954 145.893 507.835 146.571 508.808 146.537C511.024 146.46 513.243 146.753 515.371 147.407C517.499 148.062 519.498 149.066 521.289 150.375C522.075 150.949 523.184 150.883 523.826 150.151Z"/>
</mask>
<path d="M523.826 150.151C524.467 149.419 524.397 148.299 523.619 147.714C521.449 146.084 519.01 144.838 516.407 144.038C513.804 143.238 511.086 142.897 508.375 143.027C507.402 143.074 506.716 143.96 506.835 144.926C506.954 145.893 507.835 146.571 508.808 146.537C511.024 146.46 513.243 146.753 515.371 147.407C517.499 148.062 519.498 149.066 521.289 150.375C522.075 150.949 523.184 150.883 523.826 150.151Z" fill="#C4C4C4" stroke="#2C3345" stroke-width="4" mask="url(#path-32-inside-3)"/>
<circle cx="509" cy="166" r="4" fill="#E5F2FF"/>
<rect x="493" y="201" width="32" height="6" rx="3" fill="#E5F2FF"/>
<rect opacity="0.5" x="393" y="277" width="6" height="187" rx="3" fill="#F2F1F6"/>
<rect x="393" y="277" width="6" height="33" rx="3" fill="#00CF3E"/>
<rect opacity="0.5" x="431" y="385" width="6" height="79" rx="3" fill="#F2F1F6"/>
<rect x="431" y="385" width="6" height="33" rx="3" fill="#00CF3E"/>
<rect opacity="0.5" x="469" y="352" width="6" height="112" rx="3" fill="#F2F1F6"/>
<rect x="469" y="352" width="6" height="33" rx="3" fill="#00CF3E"/>
<rect opacity="0.5" x="507" y="277" width="6" height="187" rx="3" fill="#F2F1F6"/>
<rect x="507" y="277" width="6" height="33" rx="3" fill="#00CF3E"/>
<rect opacity="0.5" x="545" y="277" width="6" height="187" rx="3" fill="#F2F1F6"/>
<rect x="545" y="277" width="6" height="33" rx="3" fill="#00CF3E"/>
<rect opacity="0.5" x="583" y="322" width="6" height="142" rx="3" fill="#F2F1F6"/>
<rect x="583" y="322" width="6" height="33" rx="3" fill="#00CF3E"/>
<rect opacity="0.5" x="621" y="297" width="6" height="167" rx="3" fill="#F2F1F6"/>
<rect x="621" y="297" width="6" height="33" rx="3" fill="#00CF3E"/>
<defs>
<filter id="filter0_d" x="0" y="0" width="333" height="408" filterUnits="userSpaceOnUse" color-interpolation-filters="sRGB">
<feFlood flood-opacity="0" result="BackgroundImageFix"/>
<feColorMatrix in="SourceAlpha" type="matrix" values="0 0 0 0 0 0 0 0 0 0 0 0 0 0 0 0 0 0 127 0"/>
<feOffset dy="10"/>
<feGaussianBlur stdDeviation="10"/>
<feColorMatrix type="matrix" values="0 0 0 0 0 0 0 0 0 0 0 0 0 0 0 0 0 0 0.08 0"/>
<feBlend mode="normal" in2="BackgroundImageFix" result="effect1_dropShadow"/>
<feBlend mode="normal" in="SourceGraphic" in2="effect1_dropShadow" result="shape"/>
</filter>
<filter id="filter1_d" x="343" y="110" width="333" height="408" filterUnits="userSpaceOnUse" color-interpolation-filters="sRGB">
<feFlood flood-opacity="0" result="BackgroundImageFix"/>
<feColorMatrix in="SourceAlpha" type="matrix" values="0 0 0 0 0 0 0 0 0 0 0 0 0 0 0 0 0 0 127 0"/>
<feOffset dy="10"/>
<feGaussianBlur stdDeviation="10"/>
<feColorMatrix type="matrix" values="0 0 0 0 0 0 0 0 0 0 0 0 0 0 0 0 0 0 0.08 0"/>
<feBlend mode="normal" in2="BackgroundImageFix" result="effect1_dropShadow"/>
<feBlend mode="normal" in="SourceGraphic" in2="effect1_dropShadow" result="shape"/>
</filter>
</defs>
</svg>
