<svg width="30" height="30" viewBox="0 0 30 30" fill="none" xmlns="http://www.w3.org/2000/svg">
<path fill-rule="evenodd" clip-rule="evenodd" d="M17.311 22.6648C18.577 20.6121 19.313 18.3292 19.507 16.0032H22.93C22.533 19.1679 20.289 21.763 17.311 22.6648ZM15.005 22.5056C13.565 20.557 12.719 18.3082 12.495 16.0032H17.506C17.285 18.3071 16.442 20.556 15.005 22.5056ZM7.069 16.0032H10.493C10.689 18.3302 11.429 20.6151 12.699 22.6678C9.716 21.769 7.467 19.1719 7.069 16.0032ZM12.288 7.47915C11.176 9.51284 10.574 11.7457 10.467 14.0016H7.069C7.448 10.9811 9.512 8.48499 12.288 7.47915ZM14.967 6.99675C14.976 6.98474 14.985 6.97273 14.994 6.96072C15.003 6.97273 15.011 6.98474 15.02 6.99675C16.555 9.08749 17.393 11.5255 17.532 14.0016H12.467C12.603 11.5265 13.437 9.08949 14.967 6.99675ZM22.93 14.0016H19.532C19.422 11.7437 18.816 9.50984 17.699 7.47415C20.482 8.47798 22.551 10.9761 22.93 14.0016ZM15.855 5.03712C9.942 4.5347 5 9.19858 5 15.0024C5 20.4389 9.335 24.8426 14.71 24.9957C20.387 25.1598 25 20.5951 25 15.0024C25 9.84011 21.068 5.48249 15.855 5.03712Z" fill="#007CFF"/>
</svg>
