<svg width="122" height="92" viewBox="0 0 122 92" fill="none" xmlns="http://www.w3.org/2000/svg">
<path d="M117.534 45.0604L83.4025 25.3086C81.5356 24.2541 78.2889 24.3758 76.1785 25.5925L4.58781 66.7996C2.43685 68.0163 2.19333 69.882 4.06021 70.9771L38.1916 90.7289C40.0585 91.7834 43.3052 91.6618 45.4156 90.445L117.047 49.2785C119.157 48.0212 119.401 46.1555 117.534 45.0604Z" fill="#F2F1F6"/>
<path d="M41.3579 87.2411C40.0592 87.2411 38.8417 86.9572 37.9082 86.4299L3.77683 66.6781C2.76222 66.1103 2.23462 65.2585 2.23462 64.3257C2.23462 63.2712 3.00572 62.2167 4.30442 61.4461L75.9357 20.2795C78.2896 18.9411 81.7393 18.8194 83.7685 19.9956L117.9 39.7475C118.915 40.3153 119.442 41.167 119.442 42.0998C119.442 43.1543 118.671 44.2088 117.372 44.9795L45.7004 86.1054C44.4423 86.8355 42.8595 87.2411 41.3579 87.2411ZM80.2783 20.3606C78.939 20.3606 77.5591 20.6851 76.5039 21.2935L4.8726 62.5006C3.93916 63.0278 3.41156 63.7173 3.41156 64.3257C3.41156 64.9341 3.93917 65.3802 4.34501 65.6236L38.4764 85.3754C40.1404 86.3488 43.1842 86.1866 45.1322 85.0915L116.723 43.8844C117.656 43.3571 118.184 42.6676 118.184 42.0593C118.184 41.4509 117.656 41.0048 117.251 40.7614L83.1192 21.0096C82.3886 20.5634 81.374 20.3606 80.2783 20.3606Z" fill="white"/>
<path d="M37.1774 78.5609L1.66613 58.0385C0.489185 57.349 -0.0384138 56.4567 0.00217047 55.5239V50.373L1.9908 52.6848C2.11255 52.6037 2.2343 52.5226 2.39664 52.4415L75.0425 10.6666C77.924 9.00371 82.2665 8.84148 84.7828 10.261L119.807 30.5401C120.497 29.7695 121.999 28.1472 121.999 28.1472V33.1764C122.039 34.312 121.227 35.5287 119.604 36.4616L46.9582 78.2365C44.0361 79.8588 39.6936 80.021 37.1774 78.5609Z" fill="#E8E7EC"/>
<path d="M17.9811 65.9887L20.0104 67.1649C20.2945 67.3271 20.4974 67.1649 20.4974 66.7998C20.4974 66.4348 20.2945 66.0292 20.0104 65.867L17.9811 64.6908C17.697 64.5286 17.494 64.6908 17.494 65.0558C17.494 65.3803 17.697 65.8264 17.9811 65.9887Z" fill="#00CF3E"/>
<path d="M75.0426 10.6263C77.9241 8.96342 82.2666 8.80119 84.7828 10.2207L119.807 30.4998C120.497 29.7292 121.999 28.1069 121.999 28.1069V33.1361C122.039 34.2717 121.228 35.4885 119.604 36.4213L46.9583 78.1962C45.4567 79.048 43.5492 79.5347 41.7229 79.5752L41.8041 29.8103L75.0426 10.6263Z" fill="#E8E7EC"/>
<path d="M120.294 25.633L84.7831 5.06999C82.3074 3.6099 77.9243 3.81269 75.0429 5.47557L2.39696 47.2505C-0.484521 48.9134 -0.809188 51.428 1.70704 52.8475L37.2183 73.4105C39.6939 74.8706 44.077 74.6678 46.9585 73.0049L119.604 31.23C122.486 29.5671 122.77 27.0525 120.294 25.633Z" fill="#F2F1F6"/>
<path d="M37.1778 73.9383L1.66652 53.4158C0.367818 52.6858 -0.159778 51.6313 0.0431438 50.5768C0.124312 51.4285 0.651911 52.2397 1.7071 52.848L37.2184 73.411C39.694 74.8711 44.0771 74.6683 46.9586 73.0054L119.604 31.2305C120.984 30.4194 121.796 29.4054 121.958 28.432C122.04 29.5676 121.228 30.8249 119.564 31.7578L46.918 73.5327C44.0365 75.2361 39.6534 75.3984 37.1778 73.9383Z" fill="white"/>
<path d="M117.534 26.4446L83.4025 6.69275C81.5356 5.63824 78.2889 5.75991 76.1785 6.97665L4.58781 48.1432C2.43685 49.3599 2.19333 51.2256 4.06021 52.3207L38.1916 72.0725C40.0585 73.127 43.3052 73.0053 45.4156 71.7886L117.047 30.6221C119.157 29.3648 119.401 27.4991 117.534 26.4446Z" fill="white"/>
<path d="M81.6982 50.9004L19.1984 39.7469L29.7503 33.6632L91.4384 45.4251L81.6982 50.9004Z" fill="#F5F5F5"/>
<path d="M100.772 39.9497L42.7368 29.6073L47.6069 27.7822L104.831 37.719L100.772 39.9497Z" fill="#F5F5F5"/>
<path d="M107.672 36.0968L49.6366 25.7544L54.5067 23.9293L111.731 33.8661L107.672 36.0968Z" fill="#F5F5F5"/>
<ellipse opacity="0.2" rx="30.6469" ry="15.7535" transform="matrix(0.916675 -0.399633 0.400065 0.916487 56.5857 39.9071)" fill="#DEDDE2"/>
<path d="M50.8536 61.0052L53.9289 62.542L59.0545 54.5513L56.4917 52.9121C53.7669 51.4285 50.8472 57.1055 50.8536 61.0052Z" fill="black" stroke="black" stroke-width="0.828542"/>
<ellipse cx="56.3157" cy="58.4314" rx="3.02155" ry="4.86547" transform="rotate(30 56.3157 58.4314)" fill="#2C3345"/>
<ellipse rx="2.02191" ry="3.42841" transform="matrix(0.866174 0.499742 -0.500258 0.865876 56.339 58.4413)" fill="white"/>
<ellipse rx="0.512506" ry="0.717193" transform="matrix(0.910442 0.413636 -0.414094 0.910234 56.5373 58.4529)" fill="#2C3345"/>
<path d="M85.2322 37.7145C83.0673 37.2175 80.3005 39.3577 79.5481 42.4063C79.024 44.53 80.7127 46.3665 82.6694 47.3443L87.3455 39.095L85.2322 37.7145Z" fill="black" stroke="black" stroke-width="0.828542"/>
<ellipse cx="85.0575" cy="43.2332" rx="3.02154" ry="4.86546" transform="rotate(30 85.0575 43.2332)" fill="#2C3345"/>
<ellipse rx="2.02191" ry="3.42841" transform="matrix(0.866174 0.499743 -0.500258 0.865877 85.0804 43.2422)" fill="white"/>
<ellipse rx="0.512506" ry="0.717193" transform="matrix(0.910442 0.413636 -0.414094 0.910234 85.2414 43.2918)" fill="#2C3345"/>
<path d="M62.2329 31.0548V52.5681L95.2412 32.8988V11.4878L62.2329 31.0548Z" fill="#F2F1F6"/>
<path d="M62.2327 31.055L43.6783 20.2983V41.0945L62.2327 52.5683V31.055Z" fill="#E8E7EC"/>
<path d="M95.2419 11.4882L62.2336 31.055L43.6792 20.2984L76.6875 0.833984L95.2419 11.4882Z" fill="#FCFBFF"/>
<path d="M60.0797 51.6777C52.699 53.4807 51.6055 58.9854 51.9814 61.5124C48.3729 62.7417 45.0109 62.4344 44.0883 61.9222L33.9398 55.7755C32.4636 54.9559 31.582 53.6242 31.582 52.7022V45.5311C31.6845 39.7942 34.7598 35.6964 35.4774 34.4671C36.195 33.2377 41.833 29.6522 43.0632 29.0375C44.0473 28.5458 44.84 28.696 45.1134 28.8326L58.0297 37.0282C59.7518 38.1755 60.1139 41.7406 60.0797 43.3797V51.6777Z" fill="#2C3345" stroke="#2C3345" stroke-width="0.828542"/>
<path d="M58.337 44.9637L51.0781 51.962C50.5446 52.4762 49.6674 52.0831 49.7243 51.3444C50.482 41.5009 54.8037 41.6103 58.337 40.1489V44.9637Z" fill="#22293B"/>
<path d="M44.7031 51.5198C40.3567 49.7987 34.3496 45.2707 31.8893 43.2218C31.3812 42.4455 33.5192 37.1919 35.1695 34.9478C35.5796 34.5378 36.0581 34.8896 36.2973 35.0262C39.851 37.3142 47.3069 42.0744 48.701 42.812C50.0952 43.5496 50.102 44.5538 49.9311 44.9637C49.6578 46.0222 48.9881 48.5899 48.496 50.3929C48.004 52.1959 45.7624 51.8954 44.7031 51.5198Z" fill="#22293B"/>
<path d="M51.0781 51.962L51.3656 52.2602L51.0781 51.962ZM58.337 44.9637L58.6245 45.262C58.7055 45.1839 58.7513 45.0762 58.7513 44.9637H58.337ZM58.337 40.1489H58.7513C58.7513 40.0105 58.6822 39.8813 58.5672 39.8045C58.4522 39.7276 58.3065 39.7132 58.1786 39.766L58.337 40.1489ZM49.7243 51.3444L49.3112 51.3126L49.7243 51.3444ZM31.8893 43.2218L31.5427 43.4487C31.5652 43.483 31.5927 43.5138 31.6242 43.5401L31.8893 43.2218ZM44.7031 51.5198L44.5506 51.9049C44.5553 51.9068 44.5599 51.9085 44.5647 51.9102L44.7031 51.5198ZM48.496 50.3929L48.8957 50.5019L48.496 50.3929ZM49.9311 44.9637L49.5488 44.8044C49.5412 44.8225 49.5349 44.8411 49.53 44.8601L49.9311 44.9637ZM48.701 42.812L48.8948 42.4458L48.701 42.812ZM36.2973 35.0262L36.5215 34.6779C36.5154 34.6739 36.5091 34.6701 36.5027 34.6665L36.2973 35.0262ZM35.1695 34.9478L34.8766 34.6549C34.8618 34.6697 34.8482 34.6856 34.8358 34.7024L35.1695 34.9478ZM51.3656 52.2602L58.6245 45.262L58.0495 44.6655L50.7905 51.6637L51.3656 52.2602ZM58.7513 44.9637V40.1489H57.9227V44.9637H58.7513ZM58.1786 39.766C57.7503 39.9432 57.3073 40.0977 56.8499 40.2537C56.3959 40.4085 55.9252 40.5655 55.4594 40.7435C54.5245 41.1006 53.5798 41.552 52.7202 42.2888C50.9858 43.7754 49.6943 46.3363 49.3112 51.3126L50.1373 51.3762C50.512 46.5089 51.7602 44.2028 53.2594 42.9179C54.0166 42.2689 54.8622 41.8585 55.755 41.5175C56.2031 41.3463 56.6556 41.1953 57.1172 41.0379C57.5754 40.8817 58.0404 40.7199 58.4953 40.5317L58.1786 39.766ZM31.6242 43.5401C34.0862 45.5904 40.1372 50.1574 44.5506 51.9049L44.8556 51.1346C40.5762 49.44 34.613 44.9509 32.1545 42.9034L31.6242 43.5401ZM44.5647 51.9102C45.133 52.1118 46.0276 52.2989 46.8685 52.1838C47.2932 52.1256 47.7245 51.9874 48.0916 51.7151C48.4647 51.4384 48.7491 51.0391 48.8957 50.5019L48.0963 50.2838C47.9969 50.6482 47.8166 50.8875 47.5979 51.0497C47.3732 51.2164 47.0856 51.3177 46.7561 51.3629C46.0883 51.4543 45.3325 51.3034 44.8416 51.1293L44.5647 51.9102ZM48.8957 50.5019C49.3885 48.6961 50.0588 46.1262 50.3323 45.0673L49.53 44.8601C49.2568 45.9181 48.5876 48.4836 48.0963 50.2838L48.8957 50.5019ZM50.3135 45.1231C50.5749 44.496 50.4587 43.2733 48.8948 42.4458L48.5073 43.1782C49.7316 43.8259 49.6291 44.6117 49.5488 44.8044L50.3135 45.1231ZM48.8948 42.4458C47.5211 41.719 40.0875 36.9737 36.5215 34.6779L36.073 35.3746C39.6145 37.6546 47.0927 42.4298 48.5073 43.1782L48.8948 42.4458ZM36.5027 34.6665C36.4229 34.6209 36.1732 34.4538 35.9047 34.3819C35.5949 34.2989 35.209 34.3225 34.8766 34.6549L35.4625 35.2408C35.5125 35.1907 35.5489 35.1779 35.5711 35.1731C35.5974 35.1676 35.6349 35.1674 35.6903 35.1822C35.8233 35.2178 35.9325 35.295 36.0918 35.386L36.5027 34.6665ZM34.8358 34.7024C33.9812 35.8645 33.0188 37.775 32.3354 39.4812C31.9928 40.3367 31.714 41.1563 31.5529 41.8192C31.4726 42.1495 31.4182 42.454 31.4031 42.7111C31.3895 42.9429 31.4001 43.2307 31.5427 43.4487L32.236 42.9949C32.2516 43.0188 32.2178 42.9726 32.2303 42.7597C32.2413 42.5722 32.2835 42.3214 32.358 42.0149C32.5064 41.4043 32.7699 40.6247 33.1046 39.7893C33.7757 38.1136 34.7075 36.2753 35.5033 35.1933L34.8358 34.7024ZM50.7905 51.6637C50.5146 51.9297 50.1115 51.7122 50.1373 51.3762L49.3112 51.3126C49.2234 52.4541 50.5747 53.0227 51.3656 52.2602L50.7905 51.6637Z" fill="#22293B"/>
<path d="M47.0941 56.9648C45.728 56.6465 44.6728 56.6099 43.8772 56.7213C42.3286 56.9383 42.2678 58.77 43.7267 59.3328C44.6515 59.6896 45.7438 59.8793 46.7013 59.9655C47.6615 60.0519 48.9055 59.4911 48.8703 58.5277C48.8358 57.5858 48.0121 57.1787 47.0941 56.9648Z" fill="#00CF3E" stroke="#00CF3E" stroke-width="0.828542"/>
<path d="M57.7174 48.9603L57.3181 49.1313C57.1276 49.2129 57.004 49.4002 57.004 49.6074C57.004 49.9792 57.3841 50.2299 57.7259 50.0835L58.1252 49.9125C58.3157 49.8309 58.4393 49.6436 58.4393 49.4364C58.4393 49.0646 58.0592 48.8139 57.7174 48.9603Z" fill="#00CF3E"/>
<path d="M36.2986 53.5693L40.9117 56.1304V57.6671L36.2986 54.9011V53.5693Z" fill="white"/>
<path d="M31.582 52.1347V49.0614C33.5297 50.7246 34.407 51.8238 34.6844 52.5303C35.139 53.6885 33.1978 53.2881 32.1851 52.5652L31.582 52.1347Z" fill="#00CF3E"/>
<path d="M31.582 49.0614L31.8511 48.7464C31.7281 48.6414 31.5554 48.6175 31.4086 48.6852C31.2618 48.7529 31.1678 48.8998 31.1678 49.0614H31.582ZM31.582 52.1347H31.1678V52.348L31.3413 52.4719L31.582 52.1347ZM32.1851 52.5652L32.4258 52.228H32.4258L32.1851 52.5652ZM34.6844 52.5303L35.07 52.379L35.07 52.379L34.6844 52.5303ZM31.1678 49.0614V52.1347H31.9963V49.0614H31.1678ZM31.3413 52.4719L31.9444 52.9024L32.4258 52.228L31.8227 51.7975L31.3413 52.4719ZM35.07 52.379C34.7515 51.5675 33.8 50.4107 31.8511 48.7464L31.313 49.3764C33.2594 51.0386 34.0625 52.08 34.2988 52.6817L35.07 52.379ZM31.9444 52.9024C32.5051 53.3026 33.3139 53.6136 33.951 53.666C34.251 53.6907 34.63 53.6686 34.8967 53.4414C35.045 53.3151 35.137 53.1423 35.1605 52.9423C35.1826 52.7538 35.1419 52.5622 35.07 52.379L34.2988 52.6817C34.3405 52.788 34.3386 52.8373 34.3376 52.8458C34.3373 52.8481 34.3378 52.8419 34.3433 52.8316C34.3488 52.8212 34.3554 52.8141 34.3595 52.8106C34.365 52.8059 34.3491 52.8216 34.2845 52.8337C34.2216 52.8454 34.1331 52.8497 34.019 52.8403C33.5459 52.8013 32.8778 52.5507 32.4258 52.228L31.9444 52.9024Z" fill="#00CF3E"/>
</svg>
