<svg width="106" height="108" viewBox="0 0 106 108" fill="none" xmlns="http://www.w3.org/2000/svg">
<path d="M4.37457 79.2238C3.28519 78.6188 3.27608 77.0553 4.35833 76.4373L57.9321 45.8474C58.4127 45.5729 59.001 45.5665 59.4874 45.8303L101.651 68.6991C102.749 69.2944 102.771 70.8618 101.69 71.4881L48.0423 102.585C47.5554 102.868 46.956 102.873 46.464 102.6L4.37457 79.2238Z" fill="#E8E7EC"/>
<path d="M75.6394 82.1059L75.964 27.6028L53.5644 14.6259L53.2397 68.4801L75.6394 82.1059Z" fill="#F2F1F6" stroke="white" stroke-width="0.53301"/>
<path d="M97.3897 69.4534L75.964 82.1059V27.6028L97.3897 14.6259V69.4534Z" fill="#F2F1F6" stroke="white" stroke-width="0.53301"/>
<path d="M75.9643 1L97.3901 14.6258L75.9643 27.6027L53.8893 14.6258L75.9643 1Z" fill="#F2F1F6" stroke="white" stroke-width="0.53301"/>
<mask id="mask0" mask-type="alpha" maskUnits="userSpaceOnUse" x="78" y="62" width="8" height="15">
<path d="M78.5607 66.5335L85.0312 62.9648V73.022L78.5607 76.915V66.5335Z" fill="#C4C4C4"/>
</mask>
<g mask="url(#mask0)">
<path d="M75.546 59.0717H75.3143V80.4171H75.546V59.0717Z" fill="white"/>
<path d="M75.8784 59.0726H75.6467V80.4181H75.8784V59.0726Z" fill="white"/>
<path d="M76.3397 59.0726H76.108V78.413H76.3397V59.0726Z" fill="white"/>
<path d="M76.9307 59.0726H76.5406V78.413H76.9307V59.0726Z" fill="white"/>
<path d="M77.1743 59.0726H77.0449V78.413H77.1743V59.0726Z" fill="white"/>
<path d="M77.9831 59.0726H77.5641V78.413H77.9831V59.0726Z" fill="white"/>
<path d="M78.4314 59.0726H78.1996V78.413H78.4314V59.0726Z" fill="white"/>
<path d="M79.0785 59.0726H78.7039V78.413H79.0785V59.0726Z" fill="white"/>
<path d="M79.8005 59.0726H79.2809V78.413H79.8005V59.0726Z" fill="white"/>
<path d="M80.0906 59.0726H79.9457V78.413H80.0906V59.0726Z" fill="white"/>
<path d="M80.4361 59.0726H80.2913V80.3872H80.4361V59.0726Z" fill="white"/>
<path d="M80.753 59.0726H80.6081V80.3872H80.753V59.0726Z" fill="white"/>
<path d="M81.1003 59.0726H80.9554V80.3872H81.1003V59.0726Z" fill="white"/>
<path d="M81.4595 59.1299H81.3147V78.4703H81.4595V59.1299Z" fill="white"/>
<path d="M81.8498 59.1299H81.705V78.4703H81.8498V59.1299Z" fill="white"/>
<path d="M82.8696 59.1299H82.5625V78.4703H82.8696V59.1299Z" fill="white"/>
<path d="M83.3158 59.1299H83.1092V78.4703H83.3158V59.1299Z" fill="white"/>
<path d="M83.9432 59.1299H83.7095V78.4703H83.9432V59.1299Z" fill="white"/>
<path d="M84.318 59.1299H84.1732V78.4703H84.318V59.1299Z" fill="white"/>
<path d="M84.7793 59.1299H84.6345V78.4703H84.7793V59.1299Z" fill="white"/>
<path d="M85.7025 59.1381H85.5577V80.4836H85.7025V59.1381Z" fill="white"/>
<path d="M85.3707 59.1381H85.2259V80.4836H85.3707V59.1381Z" fill="white"/>
<path d="M85.1254 59.1381H84.9806V80.4836H85.1254V59.1381Z" fill="white"/>
</g>
<path d="M8.4411 55.8276L45.7738 76.5907L70.1212 62.3161L33.7624 40.5797L8.4411 55.8276Z" fill="#F2F1F6" stroke="white" stroke-width="0.53301"/>
<path d="M45.4482 95.7317V76.5907L8.44012 55.8276V74.9686L45.4482 95.7317Z" fill="#E8E7EC" stroke="white" stroke-width="0.53301"/>
<path d="M70.4447 62.6405L45.7727 76.5907V95.7317L70.4447 81.7815V62.6405Z" fill="#FAFBFD" stroke="white" stroke-width="0.53301"/>
<path d="M18.8282 49.3391L36.0337 58.423V71.0755L18.8282 61.6672V49.3391Z" fill="#E8E7EC" stroke="white" stroke-width="0.53301"/>
<path d="M35.0607 39.9309L18.8291 49.3392L35.71 58.423L52.5909 49.0148L35.0607 39.9309Z" fill="#F2F1F6" stroke="white" stroke-width="0.53301"/>
<path d="M52.5899 61.9916L36.0336 71.0754V58.0985L52.5899 49.0146V61.9916Z" fill="#F2F1F6" stroke="white" stroke-width="0.53301"/>
<path d="M44.4737 50.9612L35.7086 55.5031V48.3658L44.4737 43.8239V50.9612Z" fill="#F2F1F6"/>
<path d="M35.7086 55.5031H35.5754V55.7222L35.7699 55.6214L35.7086 55.5031ZM44.4737 50.9612L44.535 51.0795L44.6069 51.0422V50.9612H44.4737ZM44.4737 43.8239H44.6069L44.4124 43.7055L44.4737 43.8239ZM35.7086 48.3658L35.6473 48.2475L35.5754 48.2847V48.3658H35.7086ZM35.7699 55.6214L44.535 51.0795L44.4124 50.8429L35.6473 55.3848L35.7699 55.6214ZM44.6069 50.9612V43.8239H44.3404V50.9612H44.6069ZM44.4124 43.7055L35.6473 48.2475L35.7699 48.4841L44.535 43.9422L44.4124 43.7055ZM35.5754 48.3658V55.5031H35.8419V48.3658H35.5754Z" fill="#2C3345"/>
<path d="M35.7115 38.6332L44.4766 43.824L35.7115 48.3659L27.2711 43.4995L35.7115 38.6332Z" fill="#F2F1F6"/>
<path d="M44.4766 43.824L44.5379 43.9423L44.5445 43.7093L44.4766 43.824ZM35.7115 38.6332L35.7794 38.5185L35.7124 38.4788L35.6449 38.5177L35.7115 38.6332ZM27.2711 43.4995L27.2045 43.3841V43.615L27.2711 43.4995ZM35.7115 48.3659L35.6449 48.4813L35.7081 48.5177L35.7728 48.4842L35.7115 48.3659ZM44.5445 43.7093L35.7794 38.5185L35.6436 38.7478L44.4087 43.9386L44.5445 43.7093ZM35.6449 38.5177L27.2045 43.3841L27.3376 43.615L35.778 38.7486L35.6449 38.5177ZM27.2045 43.615L35.6449 48.4813L35.778 48.2504L27.3376 43.3841L27.2045 43.615ZM35.7728 48.4842L44.5379 43.9423L44.4153 43.7056L35.6502 48.2476L35.7728 48.4842Z" fill="#2C3345"/>
<path d="M27.2682 50.9606V43.4994L35.7086 48.3657V55.5026L27.2682 50.9606Z" fill="#F2F1F6"/>
<path d="M27.2682 43.4994L27.3347 43.3839L27.1349 43.4994H27.2682ZM27.2682 50.9606H27.1349V51.0403L27.205 51.078L27.2682 50.9606ZM35.7086 55.5026L35.6455 55.6199L35.8419 55.7256V55.5026H35.7086ZM35.7086 48.3657H35.8419V48.2887L35.7752 48.2503L35.7086 48.3657ZM27.1349 43.4994V50.9606H27.4014V43.4994H27.1349ZM27.205 51.078L35.6455 55.6199L35.7718 55.3852L27.3313 50.8433L27.205 51.078ZM35.8419 55.5026V48.3657H35.5754V55.5026H35.8419ZM35.7752 48.2503L27.3347 43.3839L27.2016 43.6148L35.6421 48.4812L35.7752 48.2503Z" fill="#2C3345"/>
<path d="M32.0697 41.0185L40.1858 45.8848L40.3228 45.6562L32.2067 40.7899L32.0697 41.0185Z" fill="#00CF3E"/>
<mask id="mask1" mask-type="alpha" maskUnits="userSpaceOnUse" x="46" y="58" width="6" height="7">
<path d="M46.0975 61.6001L51.4261 58.7474V61.2198L46.0975 64.2626V61.6001Z" fill="#C4C4C4"/>
</mask>
<g mask="url(#mask1)">
<path d="M46.2248 58.7474H46.0975V64.4351H46.2248V58.7474Z" fill="#2C3345"/>
<path d="M46.4075 58.7477H46.2802V64.4354H46.4075V58.7477Z" fill="#2C3345"/>
<path d="M46.661 58.7477H46.5337V63.9011H46.661V58.7477Z" fill="#2C3345"/>
<path d="M46.9859 58.7477H46.7715V63.9011H46.9859V58.7477Z" fill="#2C3345"/>
<path d="M47.1197 58.7477H47.0486V63.9011H47.1197V58.7477Z" fill="#2C3345"/>
<path d="M47.5643 58.7477H47.3339V63.9011H47.5643V58.7477Z" fill="#2C3345"/>
<path d="M47.8106 58.7477H47.6832V63.9011H47.8106V58.7477Z" fill="#2C3345"/>
<path d="M48.1663 58.7477H47.9604V63.9011H48.1663V58.7477Z" fill="#2C3345"/>
<path d="M48.563 58.7477H48.2775V63.9011H48.563V58.7477Z" fill="#2C3345"/>
<path d="M48.7225 58.7477H48.6429V63.9011H48.7225V58.7477Z" fill="#2C3345"/>
<path d="M48.9124 58.7477H48.8328V64.4271H48.9124V58.7477Z" fill="#2C3345"/>
<path d="M49.0865 58.7477H49.0069V64.4271H49.0865V58.7477Z" fill="#2C3345"/>
<path d="M49.2774 58.7477H49.1978V64.4271H49.2774V58.7477Z" fill="#2C3345"/>
<path d="M49.4749 58.763H49.3953V63.9164H49.4749V58.763Z" fill="#2C3345"/>
<path d="M49.6894 58.763H49.6097V63.9164H49.6894V58.763Z" fill="#2C3345"/>
<path d="M50.2498 58.763H50.081V63.9164H50.2498V58.763Z" fill="#2C3345"/>
<path d="M50.495 58.763H50.3815V63.9164H50.495V58.763Z" fill="#2C3345"/>
<path d="M50.8398 58.763H50.7114V63.9164H50.8398V58.763Z" fill="#2C3345"/>
<path d="M51.0459 58.763H50.9662V63.9164H51.0459V58.763Z" fill="#2C3345"/>
<path d="M51.2994 58.763H51.2198V63.9164H51.2994V58.763Z" fill="#2C3345"/>
<path d="M51.8068 58.7651H51.7271V64.4528H51.8068V58.7651Z" fill="#2C3345"/>
<path d="M51.6244 58.7651H51.5448V64.4528H51.6244V58.7651Z" fill="#2C3345"/>
<path d="M51.4896 58.7651H51.41V64.4528H51.4896V58.7651Z" fill="#2C3345"/>
</g>
<mask id="mask2" mask-type="alpha" maskUnits="userSpaceOnUse" x="59" y="76" width="11" height="11">
<path d="M59.7323 82.117L69.4489 76.915V81.4234L59.7323 86.9722V82.117Z" fill="#C4C4C4"/>
</mask>
<g mask="url(#mask2)">
<path d="M59.9646 76.915H59.7323V87.2867H59.9646V76.915Z" fill="white"/>
<path d="M60.2977 76.9155H60.0654V87.2871H60.2977V76.9155Z" fill="white"/>
<path d="M60.76 76.9155H60.5277V86.3128H60.76V76.9155Z" fill="white"/>
<path d="M61.3522 76.9155H60.9613V86.3128H61.3522V76.9155Z" fill="white"/>
<path d="M61.5963 76.9155H61.4666V86.3128H61.5963V76.9155Z" fill="white"/>
<path d="M62.4069 76.9155H61.9869V86.3128H62.4069V76.9155Z" fill="white"/>
<path d="M62.8561 76.9155H62.6239V86.3128H62.8561V76.9155Z" fill="white"/>
<path d="M63.5047 76.9155H63.1292V86.3128H63.5047V76.9155Z" fill="white"/>
<path d="M64.2282 76.9155H63.7075V86.3128H64.2282V76.9155Z" fill="white"/>
<path d="M64.5189 76.9155H64.3737V86.3128H64.5189V76.9155Z" fill="white"/>
<path d="M64.8652 76.9155H64.72V87.2721H64.8652V76.9155Z" fill="white"/>
<path d="M65.1827 76.9155H65.0376V87.2721H65.1827V76.9155Z" fill="white"/>
<path d="M65.5308 76.9155H65.3856V87.2721H65.5308V76.9155Z" fill="white"/>
<path d="M65.8908 76.9434H65.7457V86.3407H65.8908V76.9434Z" fill="white"/>
<path d="M66.2819 76.9434H66.1368V86.3407H66.2819V76.9434Z" fill="white"/>
<path d="M67.3039 76.9434H66.9962V86.3407H67.3039V76.9434Z" fill="white"/>
<path d="M67.7511 76.9434H67.544V86.3407H67.7511V76.9434Z" fill="white"/>
<path d="M68.3798 76.9434H68.1456V86.3407H68.3798V76.9434Z" fill="white"/>
<path d="M68.7555 76.9434H68.6103V86.3407H68.7555V76.9434Z" fill="white"/>
<path d="M69.2178 76.9434H69.0726V86.3407H69.2178V76.9434Z" fill="white"/>
<path d="M70.1429 76.9473H69.9978V87.319H70.1429V76.9473Z" fill="white"/>
<path d="M69.8104 76.9473H69.6653V87.319H69.8104V76.9473Z" fill="white"/>
<path d="M69.5646 76.9473H69.4195V87.319H69.5646V76.9473Z" fill="white"/>
</g>
<mask id="mask3" mask-type="alpha" maskUnits="userSpaceOnUse" x="40" y="49" width="4" height="4">
<path d="M40.2542 50.8605L43.7021 49.0146V50.6144L40.2542 52.5833V50.8605Z" fill="#C4C4C4"/>
</mask>
<g mask="url(#mask3)">
<path d="M40.3366 49.0146H40.2542V52.6949H40.3366V49.0146Z" fill="#2C3345"/>
<path d="M40.4548 49.0148H40.3724V52.6951H40.4548V49.0148Z" fill="#2C3345"/>
<path d="M40.6188 49.0148H40.5364V52.3493H40.6188V49.0148Z" fill="#2C3345"/>
<path d="M40.829 49.0148H40.6903V52.3493H40.829V49.0148Z" fill="#2C3345"/>
<path d="M40.9156 49.0148H40.8696V52.3493H40.9156V49.0148Z" fill="#2C3345"/>
<path d="M41.2032 49.0148H41.0542V52.3493H41.2032V49.0148Z" fill="#2C3345"/>
<path d="M41.3626 49.0148H41.2802V52.3493H41.3626V49.0148Z" fill="#2C3345"/>
<path d="M41.5928 49.0148H41.4595V52.3493H41.5928V49.0148Z" fill="#2C3345"/>
<path d="M41.8495 49.0148H41.6648V52.3493H41.8495V49.0148Z" fill="#2C3345"/>
<path d="M41.9527 49.0148H41.9012V52.3493H41.9527V49.0148Z" fill="#2C3345"/>
<path d="M42.0756 49.0148H42.024V52.6897H42.0756V49.0148Z" fill="#2C3345"/>
<path d="M42.1882 49.0148H42.1367V52.6897H42.1882V49.0148Z" fill="#2C3345"/>
<path d="M42.3118 49.0148H42.2602V52.6897H42.3118V49.0148Z" fill="#2C3345"/>
<path d="M42.4395 49.0247H42.388V52.3592H42.4395V49.0247Z" fill="#2C3345"/>
<path d="M42.5783 49.0247H42.5268V52.3592H42.5783V49.0247Z" fill="#2C3345"/>
<path d="M42.941 49.0247H42.8318V52.3592H42.941V49.0247Z" fill="#2C3345"/>
<path d="M43.0996 49.0247H43.0261V52.3592H43.0996V49.0247Z" fill="#2C3345"/>
<path d="M43.3227 49.0247H43.2396V52.3592H43.3227V49.0247Z" fill="#2C3345"/>
<path d="M43.456 49.0247H43.4045V52.3592H43.456V49.0247Z" fill="#2C3345"/>
<path d="M43.6201 49.0247H43.5686V52.3592H43.6201V49.0247Z" fill="#2C3345"/>
<path d="M43.9484 49.0261H43.8969V52.7064H43.9484V49.0261Z" fill="#2C3345"/>
<path d="M43.8304 49.0261H43.7789V52.7064H43.8304V49.0261Z" fill="#2C3345"/>
<path d="M43.7432 49.0261H43.6917V52.7064H43.7432V49.0261Z" fill="#2C3345"/>
</g>
</svg>
