<svg width="40" height="40" viewBox="0 0 40 40" fill="none" xmlns="http://www.w3.org/2000/svg">
<rect width="40" height="40" rx="7" fill="#FDECEA"/>
<path fill-rule="evenodd" clip-rule="evenodd" d="M14 22V13C14 12.448 14.448 12 15 12H25C25.552 12 26 12.448 26 13V22H14ZM24 25C24 24.448 24.448 24 25 24C25.552 24 26 24.448 26 25C26 25.552 25.552 26 25 26C24.448 26 24 25.552 24 25ZM14 25C14 24.448 14.448 24 15 24C15.552 24 16 24.448 16 25C16 25.552 15.552 26 15 26C14.448 26 14 25.552 14 25ZM30 19C30 18.448 29.552 18 29 18H28V12C28 10.895 27.105 10 26 10H14C12.895 10 12 10.895 12 12V18H11C10.448 18 10 18.448 10 19C10 19.552 10.448 20 11 20H12V22C10.895 22 10 22.895 10 24V26C10 27.105 10.895 28 12 28V29C12 29.552 12.448 30 13 30H15C15.552 30 16 29.552 16 29V28H24V29C24 29.552 24.448 30 25 30H27C27.552 30 28 29.552 28 29V28C29.105 28 30 27.105 30 26V24C30 22.895 29.105 22 28 22V20H29C29.552 20 30 19.552 30 19Z" fill="#F65628"/>
</svg>
