<?xml version="1.0" standalone="no"?>
<!DOCTYPE svg PUBLIC "-//W3C//DTD SVG 20010904//EN"
 "http://www.w3.org/TR/2001/REC-SVG-20010904/DTD/svg10.dtd">
<svg version="1.0" xmlns="http://www.w3.org/2000/svg"
 width="260.000000pt" height="260.000000pt" viewBox="0 0 260.000000 260.000000"
 preserveAspectRatio="xMidYMid meet">
<metadata>
Created by potrace 1.11, written by Peter Selinger 2001-2013
</metadata>
<g transform="translate(0.000000,260.000000) scale(0.100000,-0.100000)"
fill="#000000" stroke="none">
<path d="M1217 2594 c-1 -1 -27 -5 -57 -9 -448 -55 -823 -320 -1020 -720 -81
-163 -128 -345 -134 -520 l-1 -30 214 0 c135 0 215 4 217 10 1 5 5 35 8 66 11
110 33 186 91 300 86 172 225 304 408 389 123 57 202 74 342 75 170 0 255 -16
375 -73 58 -28 155 -86 175 -105 7 -7 33 -30 58 -52 l46 -40 -106 -106 -106
-107 329 0 c181 0 336 2 344 4 14 4 16 46 16 339 0 184 -3 335 -6 335 -2 0
-41 -36 -86 -81 l-82 -81 -56 53 c-111 104 -236 186 -375 247 -81 35 -228 78
-301 87 -52 7 -85 13 -85 15 0 3 -205 7 -208 4z"/>
<path d="M1197 1785 c-153 -42 -269 -203 -262 -365 6 -108 105 -321 227 -485
18 -25 114 -141 125 -153 9 -10 25 5 76 70 198 254 303 475 291 613 -13 145
-114 273 -249 317 -48 15 -156 17 -208 3z m171 -242 c114 -84 27 -265 -109
-224 -108 32 -124 172 -26 231 37 23 99 20 135 -7z"/>
<path d="M2169 1271 c0 -3 -2 -22 -4 -41 -2 -19 -6 -54 -10 -77 -3 -24 -7 -46
-7 -50 -1 -5 -14 -44 -30 -88 -40 -111 -100 -212 -175 -294 -135 -148 -278
-228 -495 -277 -13 -3 -69 -7 -126 -9 -200 -6 -378 52 -548 181 -125 94 -124
78 -4 199 l105 105 -345 0 -345 0 0 -340 c0 -187 2 -340 5 -340 2 0 42 37 87
82 l83 82 37 -35 c79 -75 100 -92 178 -144 149 -99 328 -173 500 -206 104 -20
369 -17 474 5 235 50 436 150 609 302 255 223 420 559 436 882 l3 69 -213 0
c-118 0 -214 -3 -215 -6z"/>
</g>
</svg>
