<svg xmlns="http://www.w3.org/2000/svg" id="Слой_1" viewBox="0 0 50 50">
	<style>
		.st0{fill:#00cf3e}.st1{fill:#007cff}
	</style>
	<g id="XMLID_1_">
		<path id="XMLID_39_" d="M7.5 13.2h2.3v1.6c.6-1 1.6-1.8 3.2-1.8 2.3 0 3.6 1.5 3.6 3.9v6.4h-2.3v-5.7c0-1.6-.8-2.5-2.2-2.5-1.3 0-2.3.9-2.3 2.5v5.7H7.5V13.2z" class="st0"/>
		<path id="XMLID_37_" d="M18.6 13.2H21v1.6c.6-1 1.6-1.8 3.2-1.8 2.3 0 3.6 1.5 3.6 3.9v6.4h-2.3v-5.7c0-1.6-.8-2.5-2.2-2.5-1.3 0-2.3.9-2.3 2.5v5.7h-2.3V13.2z" class="st0"/>
		<path id="XMLID_35_" d="M30.3 20.7h2.5v2.6h-2.5v-2.6z" class="st0"/>
		<path id="XMLID_30_" d="M5.7 31.9c0-2.8 2.2-5.2 5.3-5.2 3 0 5.3 2.3 5.3 5.2 0 2.8-2.2 5.1-5.3 5.1-3.1 0-5.3-2.3-5.3-5.1zm8.3 0c0-1.7-1.3-3.2-3-3.2-1.8 0-3 1.4-3 3.2 0 1.7 1.3 3.2 3 3.2 1.8-.1 3-1.5 3-3.2z" class="st1"/>
		<path id="XMLID_27_" d="M18.1 38.6l.8-1.7c1 .7 2.2 1 3.5 1 2 0 3.1-1 3.1-3v-.8c-.8 1.1-1.9 1.8-3.5 1.8-2.3 0-4.5-1.7-4.5-4.7 0-2.9 2.2-4.6 4.5-4.6 1.7 0 2.7.8 3.5 1.7v-1.5h2.3v7.9c0 1.7-.4 2.9-1.3 3.7-.9.9-2.3 1.3-4.1 1.3-1.6.1-3.1-.3-4.3-1.1zm7.5-7.3c0-1.6-1.3-2.7-2.9-2.7-1.6 0-2.8 1.1-2.8 2.8 0 1.6 1.3 2.7 2.8 2.7 1.5 0 2.9-1.1 2.9-2.8z" class="st1"/>
		<path id="XMLID_25_" d="M34.6 35.5l1-1.5c1.1.8 2.2 1.2 3.2 1.2s1.5-.4 1.5-1.1c0-.7-1-1-2-1.3-.1 0-.1 0-.2-.1-1.5-.4-3.1-1-3.1-3 0-1.9 1.6-3 3.5-3 1.2 0 2.6.4 3.6 1.1l-.9 1.6c-1-.6-2-.9-2.8-.9-.9 0-1.4.4-1.4 1 0 .7 1 1 2 1.3.1 0 .1 0 .2.1 1.4.4 3.1 1.1 3.1 2.9 0 2.1-1.6 3.1-3.7 3.1-1.2.1-2.8-.4-4-1.4z" class="st1"/>
		<path id="XMLID_23_" d="M44.9 34v-5.2h-1.3v-1.9h1.3v-2.7h2.3v2.7h2.7v1.9h-2.7v4.8c0 .9.4 1.2 1.2 1.2.5 0 1-.1 1.4-.3v1.9c-.6.3-1.2.5-2 .5-1.7 0-2.9-.7-2.9-2.9z" class="st1"/>
		<path id="XMLID_19_" d="M30.4 26.9h2.3v9.9h-2.3v-9.9z" class="st1"/>
		<linearGradient id="XMLID_3_" x1="2.973" x2="2.973" y1="41.545" y2="13.196" gradientUnits="userSpaceOnUse">
			<stop offset="0" stop-color="#007cff"/>
			<stop offset="1" stop-color="#00cf3e"/>
		</linearGradient>
		<path id="XMLID_16_" fill="url(#XMLID_3_)" d="M4.1 36.8V13.2H1.8v23.6H.2L3 41.5l2.8-4.7z"/>
		<circle id="XMLID_17_" cx="3" cy="10" r="1.5" class="st0"/>
	</g>
</svg>
