<svg width="52" height="52" viewBox="0 0 52 52" fill="none" xmlns="http://www.w3.org/2000/svg">
<rect opacity="0.1" width="52" height="52" rx="7" fill="#007CFF"/>
<path fill-rule="evenodd" clip-rule="evenodd" d="M29 26.0007C29 27.5302 27.8067 28.7691 26.3333 28.7691C24.86 28.7691 23.6667 27.5302 23.6667 26.0007C23.6667 24.4712 24.86 23.2323 26.3333 23.2323C27.8067 23.2323 29 24.4712 29 26.0007ZM26.3333 31.2316C22.348 31.2316 18.5933 29.2632 16.1987 26.0007C18.5933 22.7381 22.348 20.7684 26.3333 20.7684C30.3187 20.7684 34.0733 22.7381 36.468 26.0007C34.0733 29.2632 30.3187 31.2316 26.3333 31.2316ZM26.3333 18C20.632 18 15.6653 21.2224 13 26.0007C15.6653 30.779 20.632 34 26.3333 34C32.0347 34 37.0013 30.779 39.6667 26.0007C37.0013 21.2224 32.0347 18 26.3333 18Z" fill="#007CFF"/>
</svg>
