<svg width="52" height="52" viewBox="0 0 52 52" fill="none" xmlns="http://www.w3.org/2000/svg">
<rect opacity="0.1" width="52" height="52" rx="7" fill="#007CFF"/>
<path fill-rule="evenodd" clip-rule="evenodd" d="M21.0047 22.945C21.4471 22.4985 21.4471 21.775 21.0047 21.3285L20.9899 21.3135C20.5475 20.8669 19.8308 20.8669 19.3884 21.3135L15.3318 25.4073C14.8894 25.8538 14.8894 26.5785 15.3318 27.025L19.3884 31.1188C19.8308 31.5654 20.5475 31.5654 20.9899 31.1188L21.0047 31.1038C21.4471 30.6573 21.4471 29.9338 21.0047 29.4873L18.5655 27.025C18.1231 26.5785 18.1231 25.8538 18.5655 25.4073L21.0047 22.945ZM36.5913 25.4073L32.5346 21.3135C32.0934 20.8669 31.3756 20.8669 30.9332 21.3135L30.9184 21.3285C30.476 21.775 30.476 22.4985 30.9184 22.945L33.3588 25.4073C33.8011 25.8538 33.8011 26.5785 33.3588 27.025L30.9184 29.4873C30.476 29.9338 30.476 30.6573 30.9184 31.1038L30.9332 31.1188C31.3756 31.5654 32.0934 31.5654 32.5346 31.1188L36.5913 27.025C37.0337 26.5785 37.0337 25.8538 36.5913 25.4073ZM29.78 20.6248L23.9388 33.1215C23.7496 33.5144 23.4176 34 22.9893 34H22.9666C22.1338 34 21.591 32.8689 21.9593 32.1063L27.7665 19.7278C27.9557 19.3361 28.6571 19.029 28.6571 19.029V19C29.7902 19 30.1472 19.8622 29.78 20.6248Z" fill="#007CFF"/>
</svg>
