<svg width="35" height="35" viewBox="0 0 35 35" fill="none" xmlns="http://www.w3.org/2000/svg">
<rect opacity="0.1" width="35" height="35" rx="4" fill="#007CFF"/>
<path fill-rule="evenodd" clip-rule="evenodd" d="M18 25C17.449 25 17 24.551 17 24C17 23.449 17.449 23 18 23C18.551 23 19 23.449 19 24C19 24.551 18.551 25 18 25ZM18 21C16.343 21 15 22.343 15 24C15 25.657 16.343 27 18 27C19.657 27 21 25.657 21 24C21 22.343 19.657 21 18 21ZM18 18C17.449 18 17 17.551 17 17C17 16.449 17.449 16 18 16C18.551 16 19 16.449 19 17C19 17.551 18.551 18 18 18ZM18 14C16.343 14 15 15.343 15 17C15 18.657 16.343 20 18 20C19.657 20 21 18.657 21 17C21 15.343 19.657 14 18 14ZM18 9C18.551 9 19 9.449 19 10C19 10.551 18.551 11 18 11C17.449 11 17 10.551 17 10C17 9.449 17.449 9 18 9ZM18 13C19.657 13 21 11.657 21 10C21 8.343 19.657 7 18 7C16.343 7 15 8.343 15 10C15 11.657 16.343 13 18 13Z" fill="#007CFF"/>
</svg>
