<svg width="30" height="30" viewBox="0 0 30 30" fill="none" xmlns="http://www.w3.org/2000/svg">
<path fill-rule="evenodd" clip-rule="evenodd" d="M23.0005 15.0002C23.0005 10.5892 19.4115 7.00021 15.0005 7.00021C10.5895 7.00021 7.00049 10.5892 7.00049 15.0002C7.00049 19.4112 10.5895 23.0002 15.0005 23.0002C19.4115 23.0002 23.0005 19.4112 23.0005 15.0002ZM25.0005 15.0002C25.0005 20.5232 20.5235 25.0002 15.0005 25.0002C9.47749 25.0002 5.00049 20.5232 5.00049 15.0002C5.00049 9.47721 9.47749 5.00021 15.0005 5.00021C20.5235 5.00021 25.0005 9.47721 25.0005 15.0002ZM21.0005 16.0002C21.0005 16.5522 20.5525 17.0002 20.0005 17.0002H16.0005C14.8955 17.0002 14.0005 16.1052 14.0005 15.0002V10.0002C14.0005 9.44821 14.4485 9.00021 15.0005 9.00021C15.5525 9.00021 16.0005 9.44821 16.0005 10.0002V14.0002C16.0005 14.5502 16.4505 15.0002 17.0005 15.0002H20.0005C20.5525 15.0002 21.0005 15.4482 21.0005 16.0002Z" fill="#007CFF"/>
</svg>
