<svg width="30" height="30" viewBox="0 0 30 30" fill="none" xmlns="http://www.w3.org/2000/svg">
<path fill-rule="evenodd" clip-rule="evenodd" d="M24.0063 15.0031C23.4578 15.0031 23.0126 15.451 23.0126 16.0028C23.0126 16.5547 23.4578 17.0025 24.0063 17.0025C24.5548 17.0025 25 16.5547 25 16.0028C25 15.451 24.5548 15.0031 24.0063 15.0031ZM16.0568 23.0006C15.5083 23.0006 15.0631 23.4485 15.0631 24.0003C15.0631 24.5521 15.5083 25 16.0568 25C16.6053 25 17.0505 24.5521 17.0505 24.0003C17.0505 23.4485 16.6053 23.0006 16.0568 23.0006ZM20.0316 23.0006C19.483 23.0006 19.0379 23.4485 19.0379 24.0003C19.0379 24.5521 19.483 25 20.0316 25C20.5801 25 21.0252 24.5521 21.0252 24.0003C21.0252 23.4485 20.5801 23.0006 20.0316 23.0006ZM24.0063 23.0006C23.4578 23.0006 23.0126 23.4485 23.0126 24.0003C23.0126 24.5521 23.4578 25 24.0063 25C24.5548 25 25 24.5521 25 24.0003C25 23.4485 24.5548 23.0006 24.0063 23.0006ZM8.10727 23.0006C7.55875 23.0006 7.11358 22.5528 7.11358 22.0009C7.11358 21.4491 6.66841 21.0013 6.11989 21.0013H6.05629C5.50778 21.0013 5 21.4491 5 22.0009V23.0006H5.0626C5.0626 24.0003 5.98475 25 7.08178 25H7.11358H8.10727C8.65579 25 9.10096 24.5521 9.10096 24.0003C9.10096 23.4485 8.65579 23.0006 8.10727 23.0006ZM6.11989 7.00566C6.66841 7.00566 7.11358 6.5578 7.11358 6.00597C7.11358 5.45415 6.66841 5.00629 6.11989 5.00629C5.57137 5.00629 5.1262 5.45415 5.1262 6.00597C5.1262 6.5578 5.57137 7.00566 6.11989 7.00566ZM24.0063 19.0019C23.4578 19.0019 23.0126 19.4497 23.0126 20.0016C23.0126 20.5534 23.4578 21.0013 24.0063 21.0013C24.5548 21.0013 25 20.5534 25 20.0016C25 19.4497 24.5548 19.0019 24.0063 19.0019ZM10.0946 5.00629C9.54613 5.00629 9.10096 5.45415 9.10096 6.00597C9.10096 6.5578 9.54613 7.00566 10.0946 7.00566C10.6432 7.00566 11.0883 6.5578 11.0883 6.00597C11.0883 5.45415 10.6432 5.00629 10.0946 5.00629ZM14.0694 5.00629C13.5209 5.00629 13.0757 5.45415 13.0757 6.00597C13.0757 6.5578 13.5209 7.00566 14.0694 7.00566C14.6179 7.00566 15.0631 6.5578 15.0631 6.00597C15.0631 5.45415 14.6179 5.00629 14.0694 5.00629ZM6.11989 11.0044C6.66841 11.0044 7.11358 10.5565 7.11358 10.0047C7.11358 9.45289 6.66841 9.00503 6.11989 9.00503C5.57137 9.00503 5.1262 9.45289 5.1262 10.0047C5.1262 10.5565 5.57137 11.0044 6.11989 11.0044ZM6.11989 19.0019C6.66841 19.0019 7.11358 18.554 7.11358 18.0022C7.11358 17.4504 6.66841 17.0025 6.11989 17.0025C5.57137 17.0025 5.1262 17.4504 5.1262 18.0022C5.1262 18.554 5.57137 19.0019 6.11989 19.0019ZM12.082 23.0006C11.5335 23.0006 11.0883 23.4485 11.0883 24.0003C11.0883 24.5521 11.5335 25 12.082 25C12.6305 25 13.0757 24.5521 13.0757 24.0003C13.0757 23.4485 12.6305 23.0006 12.082 23.0006ZM24.0063 13.0038C24.5548 13.0038 24.8738 12.5559 24.8738 12.0041C24.8738 11.5612 24.9414 11.0094 24.6453 10.7115L19.2972 5.29919C18.9315 4.93131 18.5788 5.00629 18.0442 5.00629C17.4957 5.00629 16.9243 5.45415 16.9243 6.00597V11.0044C16.9243 12.1081 17.9398 13.0038 19.0379 13.0038H24.0063ZM5.1262 14.0035C5.1262 13.4516 5.57137 13.0038 6.11989 13.0038C6.66841 13.0038 7.11358 13.4516 7.11358 14.0035C7.11358 14.5553 6.66841 15.0031 6.11989 15.0031C5.57137 15.0031 5.1262 14.5553 5.1262 14.0035Z" fill="#007CFF"/>
</svg>
