<svg width="31" height="30" viewBox="0 0 31 30" fill="none" xmlns="http://www.w3.org/2000/svg">
<path fill-rule="evenodd" clip-rule="evenodd" d="M22.4291 10.3636C22.4291 10.3636 21.7261 8.49574 19.8701 7.21895C15.5461 4.24284 9.70812 7.01848 9.04812 12.2747C9.04812 12.2747 7.61512 12.6057 6.70312 13.9422C4.87612 16.6171 6.66412 20.2223 9.98312 20.3816V18.3338C9.54112 18.3102 9.11512 18.157 8.77212 17.8949C6.66912 16.2891 9.12512 12.9727 11.2201 14.6844C9.18712 7.79772 19.5351 5.31815 20.8831 12.1863C20.9001 12.1853 20.9171 12.1832 20.9331 12.1801C20.9501 12.1781 20.9661 12.176 20.9831 12.176C24.2751 12.176 25.2021 16.9758 21.9831 18.1478V20.2357C27.2271 18.9661 27.2271 11.8615 22.4291 10.3636ZM19.0551 15.7309L20.4691 17.1845L14.8121 23L14.8111 22.999L14.8091 23L11.5121 19.6106L12.9271 18.157L14.8111 20.0938L19.0551 15.7309Z" fill="#007CFF"/>
</svg>
