<svg width="40" height="40" viewBox="0 0 40 40" fill="none" xmlns="http://www.w3.org/2000/svg">
<rect width="40" height="40" rx="7" fill="#EAF7EB"/>
<path fill-rule="evenodd" clip-rule="evenodd" d="M12 14V13C12 11.895 12.895 11 14 11H26C27.105 11 28 11.895 28 13V14C28 14.552 27.552 15 27 15C26.448 15 26 14.552 26 14C26 13.448 25.552 13 25 13H15C14.448 13 14 13.448 14 14C14 14.552 13.552 15 13 15C12.448 15 12 14.552 12 14ZM22 23C22 24.105 21.105 25 20 25C18.895 25 18 24.105 18 23C18 21.895 18.895 21 20 21C21.105 21 22 21.895 22 23ZM28 20.657L26.343 19C27.972 19 28 19.384 28 20.657ZM26.343 27L28 25.343C28 26.97 27.62 27 26.343 27ZM16.485 27L12.485 23L16.485 19H23.515L27.515 23L23.515 27H16.485ZM12 25.343L13.657 27C12.03 27 12 26.62 12 25.343ZM13.657 19L12 20.657C12 19.028 12.384 19 13.657 19ZM28 17H12C10.895 17 10 17.895 10 19V27C10 28.105 10.895 29 12 29H28C29.105 29 30 28.105 30 27V19C30 17.895 29.105 17 28 17Z" fill="#55C665"/>
</svg>
