<svg width="246" height="191" viewBox="0 0 246 191" fill="none" xmlns="http://www.w3.org/2000/svg">
<path d="M90.9616 44.1165L103.419 36.9188L115.771 44.415L103.085 51.9611L90.9616 44.1165Z" fill="#F2F1F6"/>
<path d="M86.3559 70.6477L98.8136 63.45L111.166 70.9462L98.4793 78.4923L86.3559 70.6477Z" fill="#F2F1F6"/>
<path d="M116.022 29.6995L128.48 22.5018L140.832 29.9981L128.146 37.5442L116.022 29.6995Z" fill="#F2F1F6"/>
<path d="M141.654 15.6407L154.111 8.443L166.463 15.9392L153.777 23.4853L141.654 15.6407Z" fill="#F2F1F6"/>
<path d="M137.242 41.7388L149.7 34.5411L162.052 42.0374L149.365 49.5835L137.242 41.7388Z" fill="#F2F1F6"/>
<path d="M157.891 53.42L170.349 46.2223L182.701 53.7185L170.014 61.2646L157.891 53.42Z" fill="#F2F1F6"/>
<path d="M182.593 39.571L195.05 32.3733L207.403 39.8695L194.716 47.4156L182.593 39.571Z" fill="#F2F1F6"/>
<path d="M111.581 56.0965L124.039 48.8988L136.391 56.3951L123.705 63.9411L111.581 56.0965Z" fill="#F2F1F6"/>
<path d="M107.411 82.8213L119.868 75.6237L132.22 83.1199L119.534 90.666L107.411 82.8213Z" fill="#F2F1F6"/>
<path d="M136.559 73.9197C136.63 73.8757 136.652 73.7828 136.608 73.7121C136.564 73.6415 136.471 73.6198 136.4 73.6638L136.559 73.9197ZM183.908 22.4092C183.835 22.4506 183.81 22.5427 183.851 22.6149C183.893 22.6872 183.985 22.7122 184.057 22.6708L183.908 22.4092ZM186.503 20.0765L186.423 20.2042L186.503 20.0765ZM186.481 21.1105L186.556 21.2413L186.481 21.1105ZM176.498 14.1527L176.568 14.2865L176.498 14.1527ZM177.096 14.1771L177.016 14.3048L177.096 14.1771ZM150.122 28.8612L150.046 28.9913L150.122 28.8612ZM150.15 27.8058L150.219 27.9396L150.15 27.8058ZM169.311 41.1485L169.236 41.0175L169.311 41.1485ZM169.318 40.1043L169.242 40.2344L169.318 40.1043ZM119.993 70.2153L120.076 70.0892L119.993 70.2153ZM120.026 69.1868L120.101 69.3178L120.026 69.1868ZM131.156 77.1025L131.236 77.2304L131.156 77.1025ZM130.507 77.0951L130.425 77.2213L130.507 77.0951ZM136.267 73.7466C136.196 73.7906 136.175 73.8835 136.219 73.9542C136.262 74.0248 136.355 74.0465 136.426 74.0025L136.267 73.7466ZM135.361 74.6646C135.432 74.6206 135.454 74.5277 135.41 74.457C135.366 74.3864 135.273 74.3647 135.202 74.4087L135.361 74.6646ZM134.936 74.5742C134.865 74.6182 134.844 74.7112 134.888 74.7818C134.932 74.8525 135.025 74.8742 135.095 74.8302L134.936 74.5742ZM134.031 75.4923C134.101 75.4483 134.123 75.3554 134.079 75.2847C134.035 75.214 133.942 75.1924 133.871 75.2364L134.031 75.4923ZM133.605 75.4019C133.535 75.4459 133.513 75.5388 133.557 75.6095C133.601 75.6802 133.694 75.7018 133.764 75.6578L133.605 75.4019ZM132.7 76.32C132.77 76.276 132.792 76.183 132.748 76.1124C132.704 76.0417 132.611 76.0201 132.541 76.0641L132.7 76.32ZM132.274 76.2296C132.204 76.2736 132.182 76.3665 132.226 76.4372C132.27 76.5079 132.363 76.5295 132.433 76.4855L132.274 76.2296ZM131.369 77.1476C131.439 77.1037 131.461 77.0107 131.417 76.94C131.373 76.8694 131.28 76.8477 131.21 76.8917L131.369 77.1476ZM131.031 76.9991C130.956 77.0348 130.924 77.1247 130.96 77.1999C130.995 77.2751 131.085 77.3071 131.161 77.2714L131.031 76.9991ZM130.499 77.264C130.573 77.3014 130.664 77.2714 130.701 77.197C130.739 77.1226 130.709 77.032 130.635 76.9947L130.499 77.264ZM130.459 76.883C130.389 76.8374 130.296 76.857 130.25 76.9266C130.204 76.9963 130.224 77.0897 130.293 77.1353L130.459 76.883ZM129.242 76.4473C129.312 76.4929 129.405 76.4733 129.451 76.4037C129.496 76.334 129.477 76.2406 129.407 76.195L129.242 76.4473ZM129.144 76.023C129.075 75.9775 128.981 75.997 128.936 76.0667C128.89 76.1363 128.91 76.2297 128.979 76.2753L129.144 76.023ZM127.928 75.5873C127.997 75.6329 128.091 75.6133 128.136 75.5437C128.182 75.474 128.163 75.3806 128.093 75.335L127.928 75.5873ZM127.83 75.163C127.761 75.1175 127.667 75.137 127.621 75.2067C127.576 75.2763 127.595 75.3697 127.665 75.4153L127.83 75.163ZM126.614 74.7273C126.683 74.7729 126.777 74.7534 126.822 74.6837C126.868 74.614 126.848 74.5206 126.779 74.4751L126.614 74.7273ZM126.516 74.3031C126.446 74.2575 126.353 74.277 126.307 74.3467C126.262 74.4164 126.281 74.5098 126.351 74.5553L126.516 74.3031ZM125.299 73.8673C125.369 73.9129 125.462 73.8934 125.508 73.8237C125.554 73.7541 125.534 73.6606 125.465 73.6151L125.299 73.8673ZM125.202 73.4431C125.132 73.3975 125.039 73.4171 124.993 73.4867C124.947 73.5564 124.967 73.6498 125.036 73.6953L125.202 73.4431ZM123.985 73.0074C124.055 73.0529 124.148 73.0334 124.194 72.9637C124.239 72.8941 124.22 72.8007 124.15 72.7551L123.985 73.0074ZM123.887 72.5831C123.818 72.5375 123.724 72.5571 123.679 72.6267C123.633 72.6964 123.653 72.7898 123.722 72.8354L123.887 72.5831ZM122.671 72.1474C122.74 72.1929 122.834 72.1734 122.879 72.1038C122.925 72.0341 122.906 71.9407 122.836 71.8951L122.671 72.1474ZM122.573 71.7231C122.504 71.6776 122.41 71.6971 122.364 71.7668C122.319 71.8364 122.338 71.9298 122.408 71.9754L122.573 71.7231ZM121.357 71.2874C121.426 71.333 121.52 71.3134 121.565 71.2438C121.611 71.1741 121.591 71.0807 121.522 71.0351L121.357 71.2874ZM121.259 70.8631C121.189 70.8176 121.096 70.8371 121.05 70.9068C121.005 70.9764 121.024 71.0698 121.094 71.1154L121.259 70.8631ZM120.042 70.4274C120.112 70.473 120.205 70.4535 120.251 70.3838C120.297 70.3141 120.277 70.2207 120.208 70.1752L120.042 70.4274ZM120.004 70.0308C119.944 69.9723 119.849 69.9729 119.79 70.0321C119.732 70.0913 119.732 70.1868 119.792 70.2453L120.004 70.0308ZM119.827 69.1445C119.764 69.1992 119.757 69.2944 119.812 69.3572C119.867 69.4199 119.962 69.4263 120.025 69.3716L119.827 69.1445ZM120.23 69.244C120.303 69.2029 120.328 69.1108 120.287 69.0385C120.246 68.9662 120.154 68.9409 120.081 68.9821L120.23 69.244ZM121.119 68.3918C121.047 68.433 121.021 68.525 121.062 68.5973C121.103 68.6697 121.195 68.6949 121.268 68.6538L121.119 68.3918ZM121.527 68.5062C121.6 68.465 121.625 68.373 121.584 68.3006C121.543 68.2283 121.451 68.2031 121.378 68.2442L121.527 68.5062ZM122.416 67.6539C122.344 67.6951 122.318 67.7872 122.359 67.8595C122.4 67.9318 122.492 67.9571 122.565 67.9159L122.416 67.6539ZM122.824 67.7683C122.897 67.7272 122.922 67.6351 122.881 67.5628C122.84 67.4905 122.748 67.4652 122.675 67.5064L122.824 67.7683ZM123.713 66.9161C123.64 66.9573 123.615 67.0493 123.656 67.1216C123.697 67.194 123.789 67.2192 123.862 67.1781L123.713 66.9161ZM124.121 67.0305C124.194 66.9893 124.219 66.8973 124.178 66.8249C124.137 66.7526 124.045 66.7273 123.972 66.7685L124.121 67.0305ZM125.01 66.1782C124.937 66.2194 124.912 66.3115 124.953 66.3838C124.994 66.4561 125.086 66.4814 125.159 66.4402L125.01 66.1782ZM125.418 66.2926C125.491 66.2515 125.516 66.1594 125.475 66.0871C125.434 66.0147 125.342 65.9895 125.269 66.0307L125.418 66.2926ZM126.307 65.4404C126.234 65.4816 126.209 65.5736 126.25 65.6459C126.291 65.7183 126.383 65.7435 126.456 65.7024L126.307 65.4404ZM126.715 65.5548C126.787 65.5136 126.813 65.4216 126.772 65.3492C126.731 65.2769 126.639 65.2516 126.566 65.2928L126.715 65.5548ZM127.604 64.7025C127.531 64.7437 127.506 64.8357 127.547 64.9081C127.588 64.9804 127.68 65.0057 127.753 64.9645L127.604 64.7025ZM128.012 64.8169C128.084 64.7757 128.11 64.6837 128.069 64.6114C128.028 64.539 127.936 64.5138 127.863 64.555L128.012 64.8169ZM128.901 63.9647C128.828 64.0059 128.803 64.0979 128.844 64.1702C128.885 64.2426 128.977 64.2678 129.05 64.2266L128.901 63.9647ZM129.309 64.0791C129.381 64.0379 129.407 63.9459 129.366 63.8735C129.325 63.8012 129.233 63.7759 129.16 63.8171L129.309 64.0791ZM130.198 63.2268C130.125 63.268 130.1 63.36 130.141 63.4324C130.182 63.5047 130.274 63.53 130.347 63.4888L130.198 63.2268ZM130.606 63.3412C130.678 63.3 130.704 63.208 130.663 63.1357C130.621 63.0633 130.529 63.0381 130.457 63.0793L130.606 63.3412ZM131.495 62.489C131.422 62.5302 131.397 62.6222 131.438 62.6945C131.479 62.7669 131.571 62.7921 131.644 62.7509L131.495 62.489ZM131.903 62.6034C131.975 62.5622 132.001 62.4702 131.96 62.3978C131.918 62.3255 131.826 62.3002 131.754 62.3414L131.903 62.6034ZM132.792 61.7511C132.719 61.7923 132.694 61.8843 132.735 61.9567C132.776 62.029 132.868 62.0543 132.941 62.0131L132.792 61.7511ZM133.2 61.8655C133.272 61.8243 133.298 61.7323 133.257 61.66C133.215 61.5876 133.123 61.5624 133.051 61.6036L133.2 61.8655ZM134.089 61.0133C134.016 61.0545 133.991 61.1465 134.032 61.2188C134.073 61.2912 134.165 61.3164 134.238 61.2752L134.089 61.0133ZM134.497 61.1277C134.569 61.0865 134.595 60.9945 134.554 60.9221C134.512 60.8498 134.42 60.8245 134.348 60.8657L134.497 61.1277ZM135.386 60.2754C135.313 60.3166 135.288 60.4086 135.329 60.481C135.37 60.5533 135.462 60.5786 135.534 60.5374L135.386 60.2754ZM135.794 60.3898C135.866 60.3486 135.892 60.2566 135.85 60.1843C135.809 60.1119 135.717 60.0867 135.645 60.1279L135.794 60.3898ZM136.683 59.5376C136.61 59.5788 136.585 59.6708 136.626 59.7431C136.667 59.8155 136.759 59.8407 136.831 59.7995L136.683 59.5376ZM137.091 59.652C137.163 59.6108 137.189 59.5188 137.147 59.4464C137.106 59.3741 137.014 59.3488 136.942 59.39L137.091 59.652ZM137.979 58.7997C137.907 58.8409 137.882 58.9329 137.923 59.0053C137.964 59.0776 138.056 59.1029 138.128 59.0617L137.979 58.7997ZM138.388 58.9141C138.46 58.8729 138.486 58.7809 138.444 58.7086C138.403 58.6362 138.311 58.611 138.239 58.6522L138.388 58.9141ZM139.276 58.0619C139.204 58.1031 139.179 58.1951 139.22 58.2674C139.261 58.3398 139.353 58.365 139.425 58.3238L139.276 58.0619ZM139.685 58.1763C139.757 58.1351 139.783 58.043 139.741 57.9707C139.7 57.8984 139.608 57.8731 139.536 57.9143L139.685 58.1763ZM140.573 57.324C140.501 57.3652 140.476 57.4572 140.517 57.5296C140.558 57.6019 140.65 57.6272 140.722 57.586L140.573 57.324ZM140.982 57.4384C141.054 57.3972 141.079 57.3052 141.038 57.2329C140.997 57.1605 140.905 57.1353 140.833 57.1764L140.982 57.4384ZM141.87 56.5862C141.798 56.6273 141.773 56.7194 141.814 56.7917C141.855 56.864 141.947 56.8893 142.019 56.8481L141.87 56.5862ZM142.279 56.7006C142.351 56.6594 142.376 56.5673 142.335 56.495C142.294 56.4227 142.202 56.3974 142.13 56.4386L142.279 56.7006ZM143.167 55.8483C143.095 55.8895 143.07 55.9815 143.111 56.0539C143.152 56.1262 143.244 56.1515 143.316 56.1103L143.167 55.8483ZM143.576 55.9627C143.648 55.9215 143.673 55.8295 143.632 55.7572C143.591 55.6848 143.499 55.6596 143.427 55.7007L143.576 55.9627ZM144.464 55.1105C144.392 55.1516 144.367 55.2437 144.408 55.316C144.449 55.3883 144.541 55.4136 144.613 55.3724L144.464 55.1105ZM144.873 55.2248C144.945 55.1837 144.97 55.0916 144.929 55.0193C144.888 54.947 144.796 54.9217 144.724 54.9629L144.873 55.2248ZM145.761 54.3726C145.689 54.4138 145.664 54.5058 145.705 54.5782C145.746 54.6505 145.838 54.6757 145.91 54.6346L145.761 54.3726ZM146.17 54.487C146.242 54.4458 146.267 54.3538 146.226 54.2815C146.185 54.2091 146.093 54.1839 146.021 54.225L146.17 54.487ZM147.058 53.6348C146.986 53.6759 146.961 53.768 147.002 53.8403C147.043 53.9126 147.135 53.9379 147.207 53.8967L147.058 53.6348ZM147.467 53.7491C147.539 53.708 147.564 53.6159 147.523 53.5436C147.482 53.4713 147.39 53.446 147.318 53.4872L147.467 53.7491ZM148.355 52.8969C148.283 52.9381 148.257 53.0301 148.299 53.1025C148.34 53.1748 148.432 53.2 148.504 53.1589L148.355 52.8969ZM148.764 53.0113C148.836 52.9701 148.861 52.8781 148.82 52.8057C148.779 52.7334 148.687 52.7082 148.615 52.7493L148.764 53.0113ZM149.652 52.1591C149.58 52.2002 149.554 52.2923 149.596 52.3646C149.637 52.4369 149.729 52.4622 149.801 52.421L149.652 52.1591ZM150.061 52.2734C150.133 52.2323 150.158 52.1402 150.117 52.0679C150.076 51.9956 149.984 51.9703 149.912 52.0115L150.061 52.2734ZM150.949 51.4212C150.877 51.4624 150.851 51.5544 150.893 51.6267C150.934 51.6991 151.026 51.7243 151.098 51.6832L150.949 51.4212ZM151.357 51.5356C151.43 51.4944 151.455 51.4024 151.414 51.33C151.373 51.2577 151.281 51.2324 151.209 51.2736L151.357 51.5356ZM152.246 50.6833C152.174 50.7245 152.148 50.8166 152.19 50.8889C152.231 50.9612 152.323 50.9865 152.395 50.9453L152.246 50.6833ZM152.654 50.7977C152.727 50.7566 152.752 50.6645 152.711 50.5922C152.67 50.5199 152.578 50.4946 152.506 50.5358L152.654 50.7977ZM153.543 49.9455C153.471 49.9867 153.445 50.0787 153.486 50.151C153.528 50.2234 153.62 50.2486 153.692 50.2075L153.543 49.9455ZM153.951 50.0599C154.024 50.0187 154.049 49.9267 154.008 49.8543C153.967 49.782 153.875 49.7567 153.802 49.7979L153.951 50.0599ZM154.84 49.2076C154.768 49.2488 154.742 49.3408 154.783 49.4132C154.825 49.4855 154.917 49.5108 154.989 49.4696L154.84 49.2076ZM155.248 49.322C155.321 49.2808 155.346 49.1888 155.305 49.1165C155.264 49.0441 155.172 49.0189 155.099 49.0601L155.248 49.322ZM156.137 48.4698C156.065 48.511 156.039 48.603 156.08 48.6753C156.122 48.7477 156.214 48.7729 156.286 48.7317L156.137 48.4698ZM156.545 48.5842C156.618 48.543 156.643 48.451 156.602 48.3786C156.561 48.3063 156.469 48.281 156.396 48.3222L156.545 48.5842ZM157.434 47.7319C157.362 47.7731 157.336 47.8651 157.377 47.9375C157.419 48.0098 157.511 48.0351 157.583 47.9939L157.434 47.7319ZM157.842 47.8463C157.915 47.8051 157.94 47.7131 157.899 47.6408C157.858 47.5684 157.766 47.5432 157.693 47.5844L157.842 47.8463ZM158.731 46.9941C158.659 47.0353 158.633 47.1273 158.674 47.1996C158.715 47.272 158.807 47.2972 158.88 47.256L158.731 46.9941ZM159.139 47.1085C159.212 47.0673 159.237 46.9753 159.196 46.9029C159.155 46.8306 159.063 46.8053 158.99 46.8465L159.139 47.1085ZM160.028 46.2562C159.956 46.2974 159.93 46.3894 159.971 46.4618C160.012 46.5341 160.104 46.5594 160.177 46.5182L160.028 46.2562ZM160.436 46.3706C160.509 46.3294 160.534 46.2374 160.493 46.1651C160.452 46.0927 160.36 46.0675 160.287 46.1087L160.436 46.3706ZM161.325 45.5184C161.253 45.5596 161.227 45.6516 161.268 45.7239C161.309 45.7963 161.401 45.8215 161.474 45.7803L161.325 45.5184ZM161.733 45.6328C161.806 45.5916 161.831 45.4996 161.79 45.4272C161.749 45.3549 161.657 45.3296 161.584 45.3708L161.733 45.6328ZM162.622 44.7805C162.549 44.8217 162.524 44.9137 162.565 44.9861C162.606 45.0584 162.698 45.0837 162.771 45.0425L162.622 44.7805ZM163.03 44.8949C163.103 44.8537 163.128 44.7617 163.087 44.6894C163.046 44.617 162.954 44.5918 162.881 44.633L163.03 44.8949ZM163.919 44.0427C163.846 44.0839 163.821 44.1759 163.862 44.2482C163.903 44.3206 163.995 44.3458 164.068 44.3046L163.919 44.0427ZM164.327 44.1571C164.4 44.1159 164.425 44.0239 164.384 43.9515C164.343 43.8792 164.251 43.8539 164.178 43.8951L164.327 44.1571ZM165.216 43.3048C165.143 43.346 165.118 43.438 165.159 43.5104C165.2 43.5827 165.292 43.608 165.365 43.5668L165.216 43.3048ZM165.624 43.4192C165.697 43.378 165.722 43.286 165.681 43.2137C165.64 43.1413 165.548 43.1161 165.475 43.1572L165.624 43.4192ZM166.513 42.567C166.44 42.6081 166.415 42.7002 166.456 42.7725C166.497 42.8448 166.589 42.8701 166.662 42.8289L166.513 42.567ZM166.921 42.6814C166.993 42.6402 167.019 42.5481 166.978 42.4758C166.937 42.4035 166.845 42.3782 166.772 42.4194L166.921 42.6814ZM167.81 41.8291C167.737 41.8703 167.712 41.9623 167.753 42.0347C167.794 42.107 167.886 42.1323 167.959 42.0911L167.81 41.8291ZM168.218 41.9435C168.29 41.9023 168.316 41.8103 168.275 41.738C168.234 41.6656 168.142 41.6404 168.069 41.6815L168.218 41.9435ZM169.107 41.0913C169.034 41.1324 169.009 41.2245 169.05 41.2968C169.091 41.3691 169.183 41.3944 169.256 41.3532L169.107 41.0913ZM169.513 41.1884C169.576 41.1334 169.582 41.0382 169.527 40.9757C169.472 40.9132 169.377 40.9072 169.314 40.9622L169.513 41.1884ZM169.319 40.2906C169.381 40.3463 169.476 40.3414 169.532 40.2796C169.588 40.2178 169.583 40.1225 169.521 40.0668L169.319 40.2906ZM169.266 39.8993C169.195 39.8572 169.102 39.8814 169.06 39.9532C169.018 40.025 169.042 40.1173 169.114 40.1594L169.266 39.8993ZM168.09 39.5598C168.162 39.6018 168.254 39.5777 168.296 39.5059C168.338 39.434 168.314 39.3417 168.243 39.2996L168.09 39.5598ZM167.987 39.1497C167.915 39.1077 167.823 39.1318 167.78 39.2036C167.738 39.2755 167.762 39.3678 167.834 39.4099L167.987 39.1497ZM166.81 38.8102C166.882 38.8523 166.974 38.8282 167.017 38.7563C167.059 38.6845 167.035 38.5922 166.963 38.5501L166.81 38.8102ZM166.707 38.4002C166.635 38.3581 166.543 38.3823 166.501 38.4541C166.458 38.5259 166.483 38.6183 166.554 38.6603L166.707 38.4002ZM165.531 38.0607C165.602 38.1028 165.695 38.0786 165.737 38.0068C165.779 37.935 165.755 37.8426 165.683 37.8006L165.531 38.0607ZM165.427 37.6507C165.355 37.6086 165.263 37.6327 165.221 37.7046C165.179 37.7764 165.203 37.8687 165.275 37.9108L165.427 37.6507ZM164.251 37.3112C164.323 37.3532 164.415 37.3291 164.457 37.2572C164.499 37.1854 164.475 37.0931 164.403 37.051L164.251 37.3112ZM164.147 36.9011C164.076 36.8591 163.983 36.8832 163.941 36.955C163.899 37.0269 163.923 37.1192 163.995 37.1613L164.147 36.9011ZM162.971 36.5616C163.043 36.6037 163.135 36.5795 163.177 36.5077C163.219 36.4359 163.195 36.3436 163.124 36.3015L162.971 36.5616ZM162.868 36.1516C162.796 36.1095 162.704 36.1337 162.661 36.2055C162.619 36.2773 162.643 36.3697 162.715 36.4117L162.868 36.1516ZM161.691 35.8121C161.763 35.8541 161.855 35.83 161.898 35.7582C161.94 35.6863 161.916 35.594 161.844 35.552L161.691 35.8121ZM161.588 35.4021C161.516 35.36 161.424 35.3841 161.382 35.456C161.34 35.5278 161.364 35.6201 161.435 35.6622L161.588 35.4021ZM160.412 35.0626C160.483 35.1046 160.576 35.0805 160.618 35.0086C160.66 34.9368 160.636 34.8445 160.564 34.8024L160.412 35.0626ZM160.308 34.6525C160.236 34.6105 160.144 34.6346 160.102 34.7064C160.06 34.7783 160.084 34.8706 160.156 34.9126L160.308 34.6525ZM159.132 34.313C159.204 34.3551 159.296 34.3309 159.338 34.2591C159.38 34.1873 159.356 34.0949 159.284 34.0529L159.132 34.313ZM159.028 33.903C158.957 33.8609 158.864 33.8851 158.822 33.9569C158.78 34.0287 158.804 34.1211 158.876 34.1631L159.028 33.903ZM157.852 33.5635C157.924 33.6055 158.016 33.5814 158.058 33.5096C158.101 33.4377 158.076 33.3454 158.005 33.3034L157.852 33.5635ZM157.749 33.1534C157.677 33.1114 157.585 33.1355 157.542 33.2074C157.5 33.2792 157.524 33.3715 157.596 33.4136L157.749 33.1534ZM156.572 32.8139C156.644 32.856 156.736 32.8319 156.779 32.76C156.821 32.6882 156.797 32.5959 156.725 32.5538L156.572 32.8139ZM156.469 32.4039C156.397 32.3619 156.305 32.386 156.263 32.4578C156.221 32.5297 156.245 32.622 156.316 32.664L156.469 32.4039ZM155.293 32.0644C155.364 32.1065 155.457 32.0823 155.499 32.0105C155.541 31.9387 155.517 31.8463 155.445 31.8043L155.293 32.0644ZM155.189 31.6544C155.117 31.6123 155.025 31.6365 154.983 31.7083C154.941 31.7801 154.965 31.8724 155.037 31.9145L155.189 31.6544ZM154.013 31.3149C154.085 31.3569 154.177 31.3328 154.219 31.261C154.261 31.1891 154.237 31.0968 154.165 31.0547L154.013 31.3149ZM153.909 30.9048C153.838 30.8628 153.745 30.8869 153.703 30.9587C153.661 31.0306 153.685 31.1229 153.757 31.165L153.909 30.9048ZM152.733 30.5653C152.805 30.6074 152.897 30.5833 152.939 30.5114C152.982 30.4396 152.957 30.3473 152.886 30.3052L152.733 30.5653ZM152.63 30.1553C152.558 30.1132 152.466 30.1374 152.423 30.2092C152.381 30.281 152.405 30.3734 152.477 30.4154L152.63 30.1553ZM151.453 29.8158C151.525 29.8579 151.618 29.8337 151.66 29.7619C151.702 29.6901 151.678 29.5977 151.606 29.5557L151.453 29.8158ZM151.35 29.4058C151.278 29.3637 151.186 29.3878 151.144 29.4597C151.102 29.5315 151.126 29.6238 151.197 29.6659L151.35 29.4058ZM150.174 29.0663C150.245 29.1083 150.338 29.0842 150.38 29.0123C150.422 28.9405 150.398 28.8482 150.326 28.8061L150.174 29.0663ZM150.12 28.6737C150.058 28.6178 149.963 28.6223 149.907 28.6839C149.851 28.7456 149.855 28.8409 149.917 28.8968L150.12 28.6737ZM149.947 27.7597C149.883 27.8124 149.873 27.9074 149.926 27.9718C149.978 28.0362 150.073 28.0457 150.138 27.9929L149.947 27.7597ZM150.351 27.8713C150.425 27.833 150.454 27.742 150.416 27.6681C150.377 27.5943 150.286 27.5654 150.212 27.6037L150.351 27.8713ZM151.266 27.0576C151.192 27.0959 151.163 27.1869 151.202 27.2608C151.24 27.3347 151.331 27.3635 151.405 27.3252L151.266 27.0576ZM151.668 27.1887C151.742 27.1504 151.771 27.0594 151.733 26.9855C151.695 26.9116 151.604 26.8828 151.53 26.9211L151.668 27.1887ZM152.584 26.3749C152.51 26.4133 152.481 26.5042 152.519 26.5781C152.557 26.652 152.648 26.6809 152.722 26.6425L152.584 26.3749ZM152.986 26.506C153.06 26.4677 153.089 26.3767 153.05 26.3028C153.012 26.2289 152.921 26.2001 152.847 26.2384L152.986 26.506ZM153.901 25.6923C153.827 25.7306 153.798 25.8216 153.837 25.8955C153.875 25.9694 153.966 25.9982 154.04 25.9599L153.901 25.6923ZM154.303 25.8234C154.377 25.785 154.406 25.6941 154.368 25.6202C154.33 25.5463 154.239 25.5174 154.165 25.5558L154.303 25.8234ZM155.219 25.0096C155.145 25.0479 155.116 25.1389 155.154 25.2128C155.192 25.2867 155.283 25.3155 155.357 25.2772L155.219 25.0096ZM155.621 25.1407C155.695 25.1024 155.723 25.0114 155.685 24.9375C155.647 24.8636 155.556 24.8348 155.482 24.8731L155.621 25.1407ZM156.536 24.327C156.462 24.3653 156.433 24.4563 156.471 24.5302C156.51 24.604 156.601 24.6329 156.675 24.5946L156.536 24.327ZM156.938 24.458C157.012 24.4197 157.041 24.3288 157.003 24.2549C156.964 24.181 156.873 24.1521 156.799 24.1904L156.938 24.458ZM157.853 23.6443C157.779 23.6826 157.751 23.7736 157.789 23.8475C157.827 23.9214 157.918 23.9502 157.992 23.9119L157.853 23.6443ZM158.255 23.7754C158.329 23.7371 158.358 23.6461 158.32 23.5722C158.282 23.4983 158.191 23.4695 158.117 23.5078L158.255 23.7754ZM159.171 22.9617C159.097 23 159.068 23.0909 159.106 23.1648C159.144 23.2387 159.235 23.2676 159.309 23.2293L159.171 22.9617ZM159.573 23.0927C159.647 23.0544 159.676 22.9635 159.637 22.8896C159.599 22.8157 159.508 22.7868 159.434 22.8251L159.573 23.0927ZM160.488 22.279C160.414 22.3173 160.385 22.4083 160.424 22.4822C160.462 22.5561 160.553 22.5849 160.627 22.5466L160.488 22.279ZM160.89 22.4101C160.964 22.3718 160.993 22.2808 160.955 22.2069C160.917 22.133 160.826 22.1042 160.752 22.1425L160.89 22.4101ZM161.806 21.5964C161.732 21.6347 161.703 21.7256 161.741 21.7995C161.779 21.8734 161.87 21.9023 161.944 21.864L161.806 21.5964ZM162.208 21.7274C162.282 21.6891 162.311 21.5981 162.272 21.5242C162.234 21.4504 162.143 21.4215 162.069 21.4598L162.208 21.7274ZM163.123 20.9137C163.049 20.952 163.02 21.043 163.058 21.1169C163.097 21.1908 163.188 21.2196 163.262 21.1813L163.123 20.9137ZM163.525 21.0448C163.599 21.0065 163.628 20.9155 163.59 20.8416C163.551 20.7677 163.461 20.7389 163.387 20.7772L163.525 21.0448ZM164.441 20.231C164.367 20.2694 164.338 20.3603 164.376 20.4342C164.414 20.5081 164.505 20.537 164.579 20.4986L164.441 20.231ZM164.843 20.3621C164.916 20.3238 164.945 20.2328 164.907 20.1589C164.869 20.085 164.778 20.0562 164.704 20.0945L164.843 20.3621ZM165.758 19.5484C165.684 19.5867 165.655 19.6777 165.693 19.7516C165.732 19.8255 165.823 19.8543 165.896 19.816L165.758 19.5484ZM166.16 19.6795C166.234 19.6411 166.263 19.5502 166.225 19.4763C166.186 19.4024 166.095 19.3735 166.021 19.4119L166.16 19.6795ZM167.075 18.8657C167.001 18.9041 166.972 18.995 167.011 19.0689C167.049 19.1428 167.14 19.1717 167.214 19.1333L167.075 18.8657ZM167.477 18.9968C167.551 18.9585 167.58 18.8675 167.542 18.7936C167.504 18.7197 167.413 18.6909 167.339 18.7292L167.477 18.9968ZM168.393 18.1831C168.319 18.2214 168.29 18.3124 168.328 18.3863C168.366 18.4602 168.457 18.489 168.531 18.4507L168.393 18.1831ZM168.795 18.3142C168.869 18.2758 168.898 18.1849 168.859 18.111C168.821 18.0371 168.73 18.0082 168.656 18.0466L168.795 18.3142ZM169.71 17.5004C169.636 17.5387 169.607 17.6297 169.646 17.7036C169.684 17.7775 169.775 17.8063 169.849 17.768L169.71 17.5004ZM170.112 17.6315C170.186 17.5932 170.215 17.5022 170.177 17.4283C170.139 17.3544 170.048 17.3256 169.974 17.3639L170.112 17.6315ZM171.028 16.8178C170.954 16.8561 170.925 16.9471 170.963 17.0209C171.001 17.0948 171.092 17.1237 171.166 17.0854L171.028 16.8178ZM171.43 16.9488C171.504 16.9105 171.532 16.8196 171.494 16.7457C171.456 16.6718 171.365 16.6429 171.291 16.6812L171.43 16.9488ZM172.345 16.1351C172.271 16.1734 172.242 16.2644 172.28 16.3383C172.319 16.4122 172.41 16.441 172.484 16.4027L172.345 16.1351ZM172.747 16.2662C172.821 16.2279 172.85 16.1369 172.812 16.063C172.773 15.9891 172.682 15.9603 172.608 15.9986L172.747 16.2662ZM173.662 15.4525C173.588 15.4908 173.56 15.5817 173.598 15.6556C173.636 15.7295 173.727 15.7584 173.801 15.7201L173.662 15.4525ZM174.064 15.5835C174.138 15.5452 174.167 15.4543 174.129 15.3804C174.091 15.3065 174 15.2776 173.926 15.3159L174.064 15.5835ZM174.98 14.7698C174.906 14.8081 174.877 14.8991 174.915 14.973C174.953 15.0469 175.044 15.0757 175.118 15.0374L174.98 14.7698ZM175.382 14.9009C175.456 14.8626 175.485 14.7716 175.446 14.6977C175.408 14.6238 175.317 14.595 175.243 14.6333L175.382 14.9009ZM176.297 14.0872C176.223 14.1255 176.194 14.2164 176.233 14.2903C176.271 14.3642 176.362 14.3931 176.436 14.3548L176.297 14.0872ZM176.61 14.2671C176.688 14.2366 176.726 14.1491 176.696 14.0716C176.665 13.9942 176.578 13.9561 176.5 13.9865L176.61 14.2671ZM177.108 14.0114C177.033 13.9747 176.943 14.0055 176.906 14.0802C176.869 14.155 176.9 14.2453 176.975 14.2819L177.108 14.0114ZM177.15 14.3891C177.221 14.4333 177.314 14.412 177.358 14.3414C177.402 14.2709 177.381 14.1779 177.311 14.1337L177.15 14.3891ZM178.386 14.8079C178.315 14.7637 178.222 14.785 178.178 14.8555C178.134 14.9261 178.155 15.0191 178.225 15.0633L178.386 14.8079ZM178.494 15.2319C178.565 15.2761 178.658 15.2547 178.702 15.1842C178.746 15.1137 178.725 15.0207 178.654 14.9765L178.494 15.2319ZM179.73 15.6507C179.659 15.6065 179.566 15.6278 179.522 15.6983C179.477 15.7688 179.499 15.8619 179.569 15.9061L179.73 15.6507ZM179.838 16.0746C179.908 16.1188 180.001 16.0975 180.046 16.027C180.09 15.9565 180.069 15.8634 179.998 15.8192L179.838 16.0746ZM181.073 16.4935C181.003 16.4492 180.91 16.4706 180.866 16.5411C180.821 16.6116 180.843 16.7046 180.913 16.7489L181.073 16.4935ZM181.182 16.9174C181.252 16.9616 181.345 16.9403 181.39 16.8698C181.434 16.7992 181.413 16.7062 181.342 16.662L181.182 16.9174ZM182.417 17.3362C182.347 17.292 182.254 17.3134 182.209 17.3839C182.165 17.4544 182.186 17.5474 182.257 17.5916L182.417 17.3362ZM182.526 17.7602C182.596 17.8044 182.689 17.7831 182.733 17.7125C182.778 17.642 182.756 17.549 182.686 17.5048L182.526 17.7602ZM183.761 18.179C183.691 18.1348 183.597 18.1561 183.553 18.2267C183.509 18.2972 183.53 18.3902 183.601 18.4344L183.761 18.179ZM183.869 18.603C183.94 18.6472 184.033 18.6259 184.077 18.5553C184.122 18.4848 184.1 18.3918 184.03 18.3476L183.869 18.603ZM185.105 19.0218C185.034 18.9776 184.941 18.9989 184.897 19.0694C184.853 19.14 184.874 19.233 184.944 19.2772L185.105 19.0218ZM185.213 19.4457C185.284 19.49 185.377 19.4686 185.421 19.3981C185.465 19.3276 185.444 19.2346 185.374 19.1904L185.213 19.4457ZM186.449 19.8646C186.378 19.8204 186.285 19.8417 186.241 19.9122C186.197 19.9827 186.218 20.0758 186.288 20.12L186.449 19.8646ZM186.497 20.2617C186.557 20.3192 186.652 20.3169 186.71 20.2566C186.767 20.1964 186.765 20.101 186.705 20.0436L186.497 20.2617ZM186.682 21.1516C186.744 21.0966 186.751 21.0014 186.696 20.9389C186.641 20.8764 186.546 20.8703 186.483 20.9253L186.682 21.1516ZM186.282 21.0512C186.209 21.0926 186.184 21.1847 186.225 21.2569C186.267 21.3291 186.359 21.3542 186.431 21.3128L186.282 21.0512ZM185.432 21.8846C185.504 21.8433 185.529 21.7512 185.488 21.6789C185.446 21.6067 185.354 21.5817 185.282 21.623L185.432 21.8846ZM185.032 21.766C184.96 21.8073 184.935 21.8994 184.976 21.9716C185.017 22.0439 185.109 22.0689 185.182 22.0276L185.032 21.766ZM184.182 22.5994C184.254 22.558 184.28 22.4659 184.238 22.3937C184.197 22.3214 184.105 22.2964 184.033 22.3378L184.182 22.5994ZM136.4 73.6638L136.267 73.7466L136.426 74.0025L136.559 73.9197L136.4 73.6638ZM135.202 74.4087L134.936 74.5742L135.095 74.8302L135.361 74.6646L135.202 74.4087ZM133.871 75.2364L133.605 75.4019L133.764 75.6578L134.031 75.4923L133.871 75.2364ZM132.541 76.0641L132.274 76.2296L132.433 76.4855L132.7 76.32L132.541 76.0641ZM131.21 76.8917L131.077 76.9745L131.236 77.2304L131.369 77.1476L131.21 76.8917ZM131.077 76.9745C131.062 76.9836 131.047 76.9918 131.031 76.9991L131.161 77.2714C131.186 77.2593 131.211 77.2456 131.236 77.2304L131.077 76.9745ZM130.635 76.9947C130.619 76.987 130.605 76.9785 130.59 76.969L130.425 77.2213C130.449 77.237 130.474 77.2512 130.499 77.264L130.635 76.9947ZM130.59 76.969L130.459 76.883L130.293 77.1353L130.425 77.2213L130.59 76.969ZM129.407 76.195L129.144 76.023L128.979 76.2753L129.242 76.4473L129.407 76.195ZM128.093 75.335L127.83 75.163L127.665 75.4153L127.928 75.5873L128.093 75.335ZM126.779 74.4751L126.516 74.3031L126.351 74.5553L126.614 74.7273L126.779 74.4751ZM125.465 73.6151L125.202 73.4431L125.036 73.6953L125.299 73.8673L125.465 73.6151ZM124.15 72.7551L123.887 72.5831L123.722 72.8354L123.985 73.0074L124.15 72.7551ZM122.836 71.8951L122.573 71.7231L122.408 71.9754L122.671 72.1474L122.836 71.8951ZM121.522 71.0351L121.259 70.8631L121.094 71.1154L121.357 71.2874L121.522 71.0351ZM120.208 70.1752L120.076 70.0892L119.911 70.3414L120.042 70.4274L120.208 70.1752ZM120.076 70.0892C120.049 70.0715 120.025 70.0519 120.004 70.0308L119.792 70.2453C119.827 70.2805 119.867 70.3128 119.911 70.3414L120.076 70.0892ZM120.025 69.3716C120.047 69.3519 120.072 69.3338 120.101 69.3178L119.952 69.0559C119.906 69.0818 119.864 69.1115 119.827 69.1445L120.025 69.3716ZM120.101 69.3178L120.23 69.244L120.081 68.9821L119.952 69.0559L120.101 69.3178ZM121.268 68.6538L121.527 68.5062L121.378 68.2442L121.119 68.3918L121.268 68.6538ZM122.565 67.9159L122.824 67.7683L122.675 67.5064L122.416 67.6539L122.565 67.9159ZM123.862 67.1781L124.121 67.0305L123.972 66.7685L123.713 66.9161L123.862 67.1781ZM125.159 66.4402L125.418 66.2926L125.269 66.0307L125.01 66.1782L125.159 66.4402ZM126.456 65.7024L126.715 65.5548L126.566 65.2928L126.307 65.4404L126.456 65.7024ZM127.753 64.9645L128.012 64.8169L127.863 64.555L127.604 64.7025L127.753 64.9645ZM129.05 64.2266L129.309 64.0791L129.16 63.8171L128.901 63.9647L129.05 64.2266ZM130.347 63.4888L130.606 63.3412L130.457 63.0793L130.198 63.2268L130.347 63.4888ZM131.644 62.7509L131.903 62.6034L131.754 62.3414L131.495 62.489L131.644 62.7509ZM132.941 62.0131L133.2 61.8655L133.051 61.6036L132.792 61.7511L132.941 62.0131ZM134.238 61.2752L134.497 61.1277L134.348 60.8657L134.089 61.0133L134.238 61.2752ZM135.534 60.5374L135.794 60.3898L135.645 60.1279L135.386 60.2754L135.534 60.5374ZM136.831 59.7995L137.091 59.652L136.942 59.39L136.683 59.5376L136.831 59.7995ZM138.128 59.0617L138.388 58.9141L138.239 58.6522L137.979 58.7997L138.128 59.0617ZM139.425 58.3238L139.685 58.1763L139.536 57.9143L139.276 58.0619L139.425 58.3238ZM140.722 57.586L140.982 57.4384L140.833 57.1764L140.573 57.324L140.722 57.586ZM142.019 56.8481L142.279 56.7006L142.13 56.4386L141.87 56.5862L142.019 56.8481ZM143.316 56.1103L143.576 55.9627L143.427 55.7007L143.167 55.8483L143.316 56.1103ZM144.613 55.3724L144.873 55.2248L144.724 54.9629L144.464 55.1105L144.613 55.3724ZM145.91 54.6346L146.17 54.487L146.021 54.225L145.761 54.3726L145.91 54.6346ZM147.207 53.8967L147.467 53.7491L147.318 53.4872L147.058 53.6348L147.207 53.8967ZM148.504 53.1589L148.764 53.0113L148.615 52.7493L148.355 52.8969L148.504 53.1589ZM149.801 52.421L150.061 52.2734L149.912 52.0115L149.652 52.1591L149.801 52.421ZM151.098 51.6832L151.357 51.5356L151.209 51.2736L150.949 51.4212L151.098 51.6832ZM152.395 50.9453L152.654 50.7977L152.506 50.5358L152.246 50.6833L152.395 50.9453ZM153.692 50.2075L153.951 50.0599L153.802 49.7979L153.543 49.9455L153.692 50.2075ZM154.989 49.4696L155.248 49.322L155.099 49.0601L154.84 49.2076L154.989 49.4696ZM156.286 48.7317L156.545 48.5842L156.396 48.3222L156.137 48.4698L156.286 48.7317ZM157.583 47.9939L157.842 47.8463L157.693 47.5844L157.434 47.7319L157.583 47.9939ZM158.88 47.256L159.139 47.1085L158.99 46.8465L158.731 46.9941L158.88 47.256ZM160.177 46.5182L160.436 46.3706L160.287 46.1087L160.028 46.2562L160.177 46.5182ZM161.474 45.7803L161.733 45.6328L161.584 45.3708L161.325 45.5184L161.474 45.7803ZM162.771 45.0425L163.03 44.8949L162.881 44.633L162.622 44.7805L162.771 45.0425ZM164.068 44.3046L164.327 44.1571L164.178 43.8951L163.919 44.0427L164.068 44.3046ZM165.365 43.5668L165.624 43.4192L165.475 43.1572L165.216 43.3048L165.365 43.5668ZM166.662 42.8289L166.921 42.6814L166.772 42.4194L166.513 42.567L166.662 42.8289ZM167.959 42.0911L168.218 41.9435L168.069 41.6815L167.81 41.8291L167.959 42.0911ZM169.256 41.3532L169.385 41.2794L169.236 41.0175L169.107 41.0913L169.256 41.3532ZM169.385 41.2794C169.432 41.2529 169.475 41.2223 169.513 41.1884L169.314 40.9622C169.291 40.9824 169.265 41.001 169.236 41.0175L169.385 41.2794ZM169.521 40.0668C169.483 40.0324 169.441 40.0013 169.394 39.9742L169.242 40.2344C169.271 40.2511 169.296 40.2701 169.319 40.2906L169.521 40.0668ZM169.394 39.9742L169.266 39.8993L169.114 40.1594L169.242 40.2344L169.394 39.9742ZM168.243 39.2996L167.987 39.1497L167.834 39.4099L168.09 39.5598L168.243 39.2996ZM166.963 38.5501L166.707 38.4002L166.554 38.6603L166.81 38.8102L166.963 38.5501ZM165.683 37.8006L165.427 37.6507L165.275 37.9108L165.531 38.0607L165.683 37.8006ZM164.403 37.051L164.147 36.9011L163.995 37.1613L164.251 37.3112L164.403 37.051ZM163.124 36.3015L162.868 36.1516L162.715 36.4117L162.971 36.5616L163.124 36.3015ZM161.844 35.552L161.588 35.4021L161.435 35.6622L161.691 35.8121L161.844 35.552ZM160.564 34.8024L160.308 34.6525L160.156 34.9126L160.412 35.0626L160.564 34.8024ZM159.284 34.0529L159.028 33.903L158.876 34.1631L159.132 34.313L159.284 34.0529ZM158.005 33.3034L157.749 33.1534L157.596 33.4136L157.852 33.5635L158.005 33.3034ZM156.725 32.5538L156.469 32.4039L156.316 32.664L156.572 32.8139L156.725 32.5538ZM155.445 31.8043L155.189 31.6544L155.037 31.9145L155.293 32.0644L155.445 31.8043ZM154.165 31.0547L153.909 30.9048L153.757 31.165L154.013 31.3149L154.165 31.0547ZM152.886 30.3052L152.63 30.1553L152.477 30.4154L152.733 30.5653L152.886 30.3052ZM151.606 29.5557L151.35 29.4058L151.197 29.6659L151.453 29.8158L151.606 29.5557ZM150.326 28.8061L150.198 28.7312L150.046 28.9913L150.174 29.0663L150.326 28.8061ZM150.198 28.7312C150.169 28.714 150.143 28.6947 150.12 28.6737L149.917 28.8968C149.955 28.932 149.998 28.9637 150.046 28.9913L150.198 28.7312ZM150.138 27.9929C150.162 27.9732 150.189 27.9552 150.219 27.9396L150.081 27.672C150.032 27.6972 149.987 27.7266 149.947 27.7597L150.138 27.9929ZM150.219 27.9396L150.351 27.8713L150.212 27.6037L150.081 27.672L150.219 27.9396ZM151.405 27.3252L151.668 27.1887L151.53 26.9211L151.266 27.0576L151.405 27.3252ZM152.722 26.6425L152.986 26.506L152.847 26.2384L152.584 26.3749L152.722 26.6425ZM154.04 25.9599L154.303 25.8234L154.165 25.5558L153.901 25.6923L154.04 25.9599ZM155.357 25.2772L155.621 25.1407L155.482 24.8731L155.219 25.0096L155.357 25.2772ZM156.675 24.5946L156.938 24.458L156.799 24.1904L156.536 24.327L156.675 24.5946ZM157.992 23.9119L158.255 23.7754L158.117 23.5078L157.853 23.6443L157.992 23.9119ZM159.309 23.2293L159.573 23.0927L159.434 22.8251L159.171 22.9617L159.309 23.2293ZM160.627 22.5466L160.89 22.4101L160.752 22.1425L160.488 22.279L160.627 22.5466ZM161.944 21.864L162.208 21.7274L162.069 21.4598L161.806 21.5964L161.944 21.864ZM163.262 21.1813L163.525 21.0448L163.387 20.7772L163.123 20.9137L163.262 21.1813ZM164.579 20.4986L164.843 20.3621L164.704 20.0945L164.441 20.231L164.579 20.4986ZM165.896 19.816L166.16 19.6795L166.021 19.4119L165.758 19.5484L165.896 19.816ZM167.214 19.1333L167.477 18.9968L167.339 18.7292L167.075 18.8657L167.214 19.1333ZM168.531 18.4507L168.795 18.3142L168.656 18.0466L168.393 18.1831L168.531 18.4507ZM169.849 17.768L170.112 17.6315L169.974 17.3639L169.71 17.5004L169.849 17.768ZM171.166 17.0854L171.43 16.9488L171.291 16.6812L171.028 16.8178L171.166 17.0854ZM172.484 16.4027L172.747 16.2662L172.608 15.9986L172.345 16.1351L172.484 16.4027ZM173.801 15.7201L174.064 15.5835L173.926 15.3159L173.662 15.4525L173.801 15.7201ZM175.118 15.0374L175.382 14.9009L175.243 14.6333L174.98 14.7698L175.118 15.0374ZM176.436 14.3548L176.568 14.2865L176.429 14.0189L176.297 14.0872L176.436 14.3548ZM176.568 14.2865C176.582 14.2792 176.596 14.2728 176.61 14.2671L176.5 13.9865C176.476 13.996 176.452 14.0068 176.429 14.0189L176.568 14.2865ZM176.975 14.2819C176.989 14.2888 177.003 14.2964 177.016 14.3048L177.176 14.0494C177.154 14.0355 177.131 14.0228 177.108 14.0114L176.975 14.2819ZM177.016 14.3048L177.15 14.3891L177.311 14.1337L177.176 14.0494L177.016 14.3048ZM178.225 15.0633L178.494 15.2319L178.654 14.9765L178.386 14.8079L178.225 15.0633ZM179.569 15.9061L179.838 16.0746L179.998 15.8192L179.73 15.6507L179.569 15.9061ZM180.913 16.7489L181.182 16.9174L181.342 16.662L181.073 16.4935L180.913 16.7489ZM182.257 17.5916L182.526 17.7602L182.686 17.5048L182.417 17.3362L182.257 17.5916ZM183.601 18.4344L183.869 18.603L184.03 18.3476L183.761 18.179L183.601 18.4344ZM184.944 19.2772L185.213 19.4457L185.374 19.1904L185.105 19.0218L184.944 19.2772ZM186.288 20.12L186.423 20.2042L186.583 19.9489L186.449 19.8646L186.288 20.12ZM186.423 20.2042C186.45 20.2216 186.475 20.2409 186.497 20.2617L186.705 20.0436C186.668 20.0087 186.628 19.9769 186.583 19.9489L186.423 20.2042ZM186.483 20.9253C186.46 20.9452 186.435 20.9635 186.406 20.9797L186.556 21.2413C186.602 21.2151 186.644 21.185 186.682 21.1516L186.483 20.9253ZM186.406 20.9797L186.282 21.0512L186.431 21.3128L186.556 21.2413L186.406 20.9797ZM185.282 21.623L185.032 21.766L185.182 22.0276L185.432 21.8846L185.282 21.623ZM184.033 22.3378L183.908 22.4092L184.057 22.6708L184.182 22.5994L184.033 22.3378Z" fill="#F2F1F6"/>
<path d="M132.772 68.4351L145.23 61.236L157.581 68.7321L144.894 76.2796L132.772 68.4351Z" fill="#F2F1F6"/>
<path d="M144.57 59.1163L130.984 66.9537C129.762 67.659 129.718 69.3981 130.903 70.164L144.12 78.7048C144.727 79.0969 145.506 79.1116 146.127 78.7426L159.962 70.5259C161.187 69.7983 161.195 68.0372 159.976 67.2987L146.51 59.1373C145.916 58.7774 145.172 58.7694 144.57 59.1163Z" stroke="#F2F1F6" stroke-width="0.301461"/>
<path d="M162.874 27.6817L175.332 20.4815L187.682 27.9774L174.996 35.5261L162.874 27.6817Z" fill="#F2F1F6"/>
<path d="M174.673 18.3612L161.086 26.1998C159.864 26.9052 159.82 28.6444 161.005 29.4103L174.222 37.9509C174.828 38.343 175.607 38.3577 176.228 37.9887L190.063 29.7707C191.288 29.0431 191.296 27.2818 190.078 26.5433L176.612 18.3821C176.018 18.0222 175.274 18.0142 174.673 18.3612Z" stroke="#F2F1F6" stroke-width="0.301461"/>
<path d="M174.07 21.455L170.886 19.175C171.443 19.5874 172.219 19.6042 173.102 19.1547L176.287 21.4346C175.345 21.8783 174.574 21.8025 174.07 21.455Z" fill="#C0BFC4"/>
<path d="M176.028 11.9976L179.212 14.2767C179.716 14.6242 180.001 15.3671 179.902 16.3701C179.708 18.317 178.104 20.6017 176.286 21.4356L173.102 19.1564C174.92 18.3226 176.577 16.1026 176.717 14.0909C176.811 13.1469 176.526 12.404 176.028 11.9976Z" fill="#C0BFC4"/>
<path d="M178.152 8.69113C179.214 9.45114 180.276 10.2111 181.337 10.9712C180.388 10.2818 179.013 10.2657 177.378 11.0585L173.702 8.90886C175.39 8.18099 177.204 8.00181 178.152 8.69113Z" fill="#DEDDE2"/>
<path d="M174.824 28.9151L171.58 26.6301C170.068 25.5878 167.05 22.8483 167.478 17.9459C167.776 14.3414 170.433 10.4922 173.702 8.90749L177.378 11.0562C174.115 12.582 171.026 16.5673 170.727 20.1719C170.299 25.0743 173.312 27.8727 174.824 28.9151Z" fill="#DEDDE2"/>
<path d="M177.266 10.9868C180.589 9.46693 182.99 11.1925 182.632 14.7913C181.993 21.2218 175.624 29.2931 175.488 29.4584C175.376 29.3877 170.028 26.5979 170.668 20.1673C171.02 16.6276 174.003 12.5126 177.266 10.9868ZM176.286 21.4349C178.105 20.6011 179.762 18.3811 179.902 16.3695C180.096 14.4226 178.756 13.4567 176.937 14.2906C175.119 15.1245 173.521 17.3502 173.322 19.3561C173.128 21.303 174.468 22.2688 176.286 21.4349Z" fill="#E9E8ED"/>
<path d="M143.998 61.9108L140.813 59.6309C141.371 60.0433 142.147 60.0602 143.03 59.6107L146.215 61.8906C145.273 62.3342 144.502 62.2584 143.998 61.9108Z" fill="#C0BFC4"/>
<path d="M145.956 52.4535L149.141 54.7327C149.645 55.0802 149.93 55.8231 149.83 56.8261C149.636 58.7729 148.033 61.0575 146.214 61.8913L143.03 59.612C144.848 58.7782 146.505 56.5584 146.645 54.5468C146.739 53.6029 146.454 52.8599 145.956 52.4535Z" fill="#C0BFC4"/>
<path d="M148.08 49.1473C149.142 49.9073 150.203 50.6674 151.265 51.4274C150.316 50.738 148.941 50.7218 147.306 51.5143L143.629 49.3646C145.318 48.6369 147.131 48.4579 148.08 49.1473Z" fill="#DEDDE2"/>
<path d="M144.752 69.3709L141.509 67.0859C139.996 66.0435 136.977 63.3039 137.405 58.4016C137.704 54.7972 140.36 50.9482 143.63 49.3637L147.306 51.5126C144.042 53.0381 140.953 57.0233 140.655 60.6277C140.227 65.53 143.24 68.3286 144.752 69.3709Z" fill="#DEDDE2"/>
<path d="M147.193 51.443C150.516 49.9233 152.918 51.6489 152.56 55.2476C151.92 61.6779 145.552 69.7486 145.416 69.9139C145.304 69.8433 139.956 67.0533 140.595 60.6229C140.947 57.0833 143.93 52.9685 147.193 51.443ZM146.214 61.8907C148.032 61.057 149.689 58.8372 149.83 56.8256C150.023 54.8788 148.683 53.9129 146.865 54.7466C145.046 55.5804 143.449 57.806 143.249 59.8118C143.055 61.7586 144.396 62.7245 146.214 61.8907Z" fill="#E9E8ED"/>
<path d="M4.64006 104.981C3.4846 104.342 3.47585 102.684 4.6245 102.03L61.2895 69.8057C61.7969 69.5172 62.4169 69.5103 62.9301 69.7875L107.526 93.8783C108.69 94.5071 108.713 96.1693 107.566 96.8313L50.8227 129.591C50.3087 129.887 49.6769 129.893 49.1578 129.606L4.64006 104.981Z" fill="#E8E7EC"/>
<path d="M80.0201 108.011L80.3635 50.5833L56.6666 36.91L56.3231 93.6539L80.0201 108.011Z" fill="#F2F1F6" stroke="white" stroke-width="0.563879"/>
<path d="M103.03 94.6794L80.3632 108.011V50.5833L103.03 36.91V94.6794Z" fill="#F2F1F6" stroke="white" stroke-width="0.563879"/>
<path d="M80.3638 22.5532L103.03 36.9101L80.3638 50.5833L57.0103 36.9101L80.3638 22.5532Z" fill="#F2F1F6" stroke="white" stroke-width="0.563879"/>
<mask id="mask0" mask-type="alpha" maskUnits="userSpaceOnUse" x="83" y="87" width="7" height="16">
<path d="M83.1105 91.6029L89.9557 87.8428V98.4395L83.1105 102.541V91.6029Z" fill="#C4C4C4"/>
</mask>
<g mask="url(#mask0)">
<path d="M79.9211 83.7401H79.6759V106.231H79.9211V83.7401Z" fill="white"/>
<path d="M80.2727 83.7411H80.0276V106.232H80.2727V83.7411Z" fill="white"/>
<path d="M80.7607 83.7411H80.5156V104.119H80.7607V83.7411Z" fill="white"/>
<path d="M81.386 83.7411H80.9733V104.119H81.386V83.7411Z" fill="white"/>
<path d="M81.6436 83.7411H81.5067V104.119H81.6436V83.7411Z" fill="white"/>
<path d="M82.4994 83.7411H82.056V104.119H82.4994V83.7411Z" fill="white"/>
<path d="M82.9735 83.7411H82.7283V104.119H82.9735V83.7411Z" fill="white"/>
<path d="M83.6582 83.7411H83.2618V104.119H83.6582V83.7411Z" fill="white"/>
<path d="M84.4219 83.7411H83.8723V104.119H84.4219V83.7411Z" fill="white"/>
<path d="M84.7288 83.7411H84.5756V104.119H84.7288V83.7411Z" fill="white"/>
<path d="M85.0944 83.7411H84.9411V106.199H85.0944V83.7411Z" fill="white"/>
<path d="M85.4296 83.7411H85.2764V106.199H85.4296V83.7411Z" fill="white"/>
<path d="M85.797 83.7411H85.6438V106.199H85.797V83.7411Z" fill="white"/>
<path d="M86.1771 83.8015H86.0239V104.18H86.1771V83.8015Z" fill="white"/>
<path d="M86.59 83.8015H86.4367V104.18H86.59V83.8015Z" fill="white"/>
<path d="M87.6688 83.8015H87.3439V104.18H87.6688V83.8015Z" fill="white"/>
<path d="M88.1409 83.8015H87.9222V104.18H88.1409V83.8015Z" fill="white"/>
<path d="M88.8046 83.8015H88.5574V104.18H88.8046V83.8015Z" fill="white"/>
<path d="M89.2011 83.8015H89.0479V104.18H89.2011V83.8015Z" fill="white"/>
<path d="M89.6891 83.8015H89.5359V104.18H89.6891V83.8015Z" fill="white"/>
<path d="M90.6658 83.8101H90.5126V106.301H90.6658V83.8101Z" fill="white"/>
<path d="M90.3148 83.8101H90.1615V106.301H90.3148V83.8101Z" fill="white"/>
<path d="M90.0553 83.8101H89.9021V106.301H90.0553V83.8101Z" fill="white"/>
</g>
<path d="M8.92981 80.323L48.4247 102.2L74.1822 87.1596L35.7176 64.257L8.92981 80.323Z" fill="#F2F1F6" stroke="white" stroke-width="0.563879"/>
<path d="M48.0801 122.368V102.2L8.92871 80.3226V100.491L48.0801 122.368Z" fill="#E8E7EC" stroke="white" stroke-width="0.563879"/>
<path d="M74.5243 87.5012L48.4233 102.2V122.368L74.5243 107.669V87.5012Z" fill="#FAFBFD" stroke="white" stroke-width="0.563879"/>
<path d="M19.9185 73.486L38.1204 83.0572V96.3886L19.9185 86.4755V73.486Z" fill="#E8E7EC" stroke="white" stroke-width="0.563879"/>
<path d="M37.0908 63.5734L19.9191 73.4865L37.7776 83.0577L55.6362 73.1446L37.0908 63.5734Z" fill="#F2F1F6" stroke="white" stroke-width="0.563879"/>
<path d="M55.6355 86.8174L38.1204 96.3886V82.7154L55.6355 73.1442V86.8174Z" fill="#F2F1F6" stroke="white" stroke-width="0.563879"/>
<path d="M47.0493 75.1952L37.7766 79.9808V72.4606L47.0493 67.6749V75.1952Z" fill="#F2F1F6"/>
<path d="M37.7766 79.9808H37.6356V80.2122L37.8413 80.1061L37.7766 79.9808ZM47.0493 75.1952L47.114 75.3205L47.1903 75.2811V75.1952H47.0493ZM47.0493 67.6749H47.1903L46.9847 67.5497L47.0493 67.6749ZM37.7766 72.4606L37.712 72.3353L37.6356 72.3747V72.4606H37.7766ZM37.8413 80.1061L47.114 75.3205L46.9847 75.0699L37.712 79.8556L37.8413 80.1061ZM47.1903 75.1952V67.6749H46.9084V75.1952H47.1903ZM46.9847 67.5497L37.712 72.3353L37.8413 72.5858L47.114 67.8002L46.9847 67.5497ZM37.6356 72.4606V79.9808H37.9176V72.4606H37.6356Z" fill="#2C3345"/>
<path d="M37.7775 62.2056L47.0502 67.6749L37.7775 72.4605L28.8483 67.333L37.7775 62.2056Z" fill="#F2F1F6"/>
<path d="M47.0502 67.6749L47.1149 67.8001L47.1219 67.5534L47.0502 67.6749ZM37.7775 62.2056L37.8492 62.0841L37.7785 62.0425L37.7073 62.0833L37.7775 62.2056ZM28.8483 67.333L28.7781 67.2108V67.4553L28.8483 67.333ZM37.7775 72.4605L37.7073 72.5827L37.7739 72.621L37.8422 72.5858L37.7775 72.4605ZM47.1219 67.5534L37.8492 62.0841L37.7059 62.327L46.9786 67.7963L47.1219 67.5534ZM37.7073 62.0833L28.7781 67.2108L28.9185 67.4553L37.8477 62.3278L37.7073 62.0833ZM28.7781 67.4553L37.7073 72.5827L37.8477 72.3382L28.9185 67.2108L28.7781 67.4553ZM37.8422 72.5858L47.1149 67.8001L46.9856 67.5496L37.7129 72.3352L37.8422 72.5858Z" fill="#2C3345"/>
<path d="M28.8477 75.1947V67.3331L37.7769 72.4606V79.9804L28.8477 75.1947Z" fill="#F2F1F6"/>
<path d="M28.8477 67.3331L28.9179 67.2109L28.7067 67.3331H28.8477ZM28.8477 75.1947H28.7067V75.2791L28.7811 75.319L28.8477 75.1947ZM37.7769 79.9804L37.7103 80.1046L37.9179 80.2158V79.9804H37.7769ZM37.7769 72.4606H37.9179V72.379L37.8471 72.3383L37.7769 72.4606ZM28.7067 67.3331V75.1947H28.9886V67.3331H28.7067ZM28.7811 75.319L37.7103 80.1046L37.8435 79.8561L28.9142 75.0705L28.7811 75.319ZM37.9179 79.9804V72.4606H37.636V79.9804H37.9179ZM37.8471 72.3383L28.9179 67.2109L28.7775 67.4554L37.7067 72.5828L37.8471 72.3383Z" fill="#2C3345"/>
<path d="M33.9267 64.7199L42.5129 69.8474L42.6575 69.6053L34.0713 64.4778L33.9267 64.7199Z" fill="#00CF3E"/>
<mask id="mask1" mask-type="alpha" maskUnits="userSpaceOnUse" x="48" y="83" width="7" height="7">
<path d="M48.7671 86.4049L54.4044 83.3992V86.0042L48.7671 89.2103V86.4049Z" fill="#C4C4C4"/>
</mask>
<g mask="url(#mask1)">
<path d="M48.9018 83.3992H48.7671V89.392H48.9018V83.3992Z" fill="#2C3345"/>
<path d="M49.0951 83.3994H48.9604V89.3923H49.0951V83.3994Z" fill="#2C3345"/>
<path d="M49.3633 83.3994H49.2286V88.8293H49.3633V83.3994Z" fill="#2C3345"/>
<path d="M49.7069 83.3994H49.4801V88.8293H49.7069V83.3994Z" fill="#2C3345"/>
<path d="M49.8485 83.3994H49.7733V88.8293H49.8485V83.3994Z" fill="#2C3345"/>
<path d="M50.3188 83.3994H50.0752V88.8293H50.3188V83.3994Z" fill="#2C3345"/>
<path d="M50.5794 83.3994H50.4447V88.8293H50.5794V83.3994Z" fill="#2C3345"/>
<path d="M50.9557 83.3994H50.7379V88.8293H50.9557V83.3994Z" fill="#2C3345"/>
<path d="M51.3754 83.3994H51.0734V88.8293H51.3754V83.3994Z" fill="#2C3345"/>
<path d="M51.5441 83.3994H51.4599V88.8293H51.5441V83.3994Z" fill="#2C3345"/>
<path d="M51.745 83.3994H51.6608V89.3836H51.745V83.3994Z" fill="#2C3345"/>
<path d="M51.9293 83.3994H51.8451V89.3836H51.9293V83.3994Z" fill="#2C3345"/>
<path d="M52.1312 83.3994H52.047V89.3836H52.1312V83.3994Z" fill="#2C3345"/>
<path d="M52.3401 83.4155H52.2559V88.8454H52.3401V83.4155Z" fill="#2C3345"/>
<path d="M52.567 83.4155H52.4828V88.8454H52.567V83.4155Z" fill="#2C3345"/>
<path d="M53.1599 83.4155H52.9814V88.8454H53.1599V83.4155Z" fill="#2C3345"/>
<path d="M53.4193 83.4155H53.2992V88.8454H53.4193V83.4155Z" fill="#2C3345"/>
<path d="M53.7841 83.4155H53.6482V88.8454H53.7841V83.4155Z" fill="#2C3345"/>
<path d="M54.0021 83.4155H53.9178V88.8454H54.0021V83.4155Z" fill="#2C3345"/>
<path d="M54.2703 83.4155H54.1861V88.8454H54.2703V83.4155Z" fill="#2C3345"/>
<path d="M54.807 83.4178H54.7228V89.4107H54.807V83.4178Z" fill="#2C3345"/>
<path d="M54.6141 83.4178H54.5299V89.4107H54.6141V83.4178Z" fill="#2C3345"/>
<path d="M54.4715 83.4178H54.3873V89.4107H54.4715V83.4178Z" fill="#2C3345"/>
</g>
<mask id="mask2" mask-type="alpha" maskUnits="userSpaceOnUse" x="63" y="102" width="11" height="12">
<path d="M63.1914 108.023L73.4707 102.542V107.292L63.1914 113.138V108.023Z" fill="#C4C4C4"/>
</mask>
<g mask="url(#mask2)">
<path d="M63.4371 102.542H63.1914V113.47H63.4371V102.542Z" fill="white"/>
<path d="M63.7895 102.542H63.5438V113.47H63.7895V102.542Z" fill="white"/>
<path d="M64.2786 102.542H64.0329V112.444H64.2786V102.542Z" fill="white"/>
<path d="M64.9052 102.542H64.4916V112.444H64.9052V102.542Z" fill="white"/>
<path d="M65.1634 102.542H65.0262V112.444H65.1634V102.542Z" fill="white"/>
<path d="M66.0209 102.542H65.5766V112.444H66.0209V102.542Z" fill="white"/>
<path d="M66.4961 102.542H66.2504V112.444H66.4961V102.542Z" fill="white"/>
<path d="M67.1823 102.542H66.785V112.444H67.1823V102.542Z" fill="white"/>
<path d="M67.9476 102.542H67.3969V112.444H67.9476V102.542Z" fill="white"/>
<path d="M68.2552 102.542H68.1017V112.444H68.2552V102.542Z" fill="white"/>
<path d="M68.6216 102.542H68.468V113.455H68.6216V102.542Z" fill="white"/>
<path d="M68.9575 102.542H68.8039V113.455H68.9575V102.542Z" fill="white"/>
<path d="M69.3257 102.542H69.1722V113.455H69.3257V102.542Z" fill="white"/>
<path d="M69.7066 102.572H69.553V112.473H69.7066V102.572Z" fill="white"/>
<path d="M70.1204 102.572H69.9668V112.473H70.1204V102.572Z" fill="white"/>
<path d="M71.2015 102.572H70.876V112.473H71.2015V102.572Z" fill="white"/>
<path d="M71.6746 102.572H71.4555V112.473H71.6746V102.572Z" fill="white"/>
<path d="M72.3397 102.572H72.092V112.473H72.3397V102.572Z" fill="white"/>
<path d="M72.7372 102.572H72.5836V112.473H72.7372V102.572Z" fill="white"/>
<path d="M73.2262 102.572H73.0727V112.473H73.2262V102.572Z" fill="white"/>
<path d="M74.205 102.576H74.0514V113.504H74.205V102.576Z" fill="white"/>
<path d="M73.8532 102.576H73.6996V113.504H73.8532V102.576Z" fill="white"/>
<path d="M73.5932 102.576H73.4396V113.504H73.5932V102.576Z" fill="white"/>
</g>
<mask id="mask3" mask-type="alpha" maskUnits="userSpaceOnUse" x="42" y="73" width="5" height="4">
<path d="M42.5854 75.0895L46.2331 73.1442V74.8301L42.5854 76.9051V75.0895Z" fill="#C4C4C4"/>
</mask>
<g mask="url(#mask3)">
<path d="M42.6726 73.1442H42.5854V77.0227H42.6726V73.1442Z" fill="#2C3345"/>
<path d="M42.7977 73.1443H42.7105V77.0229H42.7977V73.1443Z" fill="#2C3345"/>
<path d="M42.9712 73.1443H42.884V76.6585H42.9712V73.1443Z" fill="#2C3345"/>
<path d="M43.1936 73.1443H43.0468V76.6585H43.1936V73.1443Z" fill="#2C3345"/>
<path d="M43.2852 73.1443H43.2365V76.6585H43.2852V73.1443Z" fill="#2C3345"/>
<path d="M43.5895 73.1443H43.4318V76.6585H43.5895V73.1443Z" fill="#2C3345"/>
<path d="M43.7581 73.1443H43.6709V76.6585H43.7581V73.1443Z" fill="#2C3345"/>
<path d="M44.0016 73.1443H43.8607V76.6585H44.0016V73.1443Z" fill="#2C3345"/>
<path d="M44.2732 73.1443H44.0778V76.6585H44.2732V73.1443Z" fill="#2C3345"/>
<path d="M44.3824 73.1443H44.3279V76.6585H44.3824V73.1443Z" fill="#2C3345"/>
<path d="M44.5123 73.1443H44.4579V77.0173H44.5123V73.1443Z" fill="#2C3345"/>
<path d="M44.6316 73.1443H44.5771V77.0173H44.6316V73.1443Z" fill="#2C3345"/>
<path d="M44.7622 73.1443H44.7077V77.0173H44.7622V73.1443Z" fill="#2C3345"/>
<path d="M44.8974 73.1548H44.8429V76.669H44.8974V73.1548Z" fill="#2C3345"/>
<path d="M45.0442 73.1548H44.9897V76.669H45.0442V73.1548Z" fill="#2C3345"/>
<path d="M45.4279 73.1548H45.3123V76.669H45.4279V73.1548Z" fill="#2C3345"/>
<path d="M45.5957 73.1548H45.518V76.669H45.5957V73.1548Z" fill="#2C3345"/>
<path d="M45.8318 73.1548H45.7438V76.669H45.8318V73.1548Z" fill="#2C3345"/>
<path d="M45.9728 73.1548H45.9183V76.669H45.9728V73.1548Z" fill="#2C3345"/>
<path d="M46.1463 73.1548H46.0918V76.669H46.1463V73.1548Z" fill="#2C3345"/>
<path d="M46.4936 73.1562H46.4391V77.0348H46.4936V73.1562Z" fill="#2C3345"/>
<path d="M46.3688 73.1562H46.3143V77.0348H46.3688V73.1562Z" fill="#2C3345"/>
<path d="M46.2765 73.1562H46.222V77.0348H46.2765V73.1562Z" fill="#2C3345"/>
</g>
<rect x="108.522" y="155.772" width="70.2375" height="1.50054" fill="#F2F1F6"/>
<rect opacity="0.2" x="172.127" y="143.17" width="9.9478" height="1.50054" fill="#00CF3E"/>
<rect opacity="0.2" x="90.1333" y="140.47" width="36.7767" height="1.20043" fill="#00CF3E"/>
<rect x="219.157" y="148.871" width="20.197" height="1.50052" fill="#F2F1F6"/>
<rect x="186.898" y="174.145" width="42.5042" height="1.50052" fill="#F2F1F6"/>
<ellipse cx="233.924" cy="27.054" rx="5.12463" ry="5.10071" fill="#F2F1F6"/>
<ellipse cx="236.185" cy="47.6073" rx="1.95948" ry="1.95068" fill="#00CF3E"/>
<ellipse cx="205.437" cy="68.9097" rx="2.5624" ry="2.55035" fill="#00CF3E"/>
<path d="M239.985 127.783L194.018 101.289C191.504 99.8746 187.131 100.038 184.289 101.67L87.8719 156.943C84.975 158.575 84.647 161.078 87.1613 162.547L133.129 189.041C135.643 190.456 140.016 190.292 142.858 188.66L239.329 133.441C242.172 131.755 242.5 129.252 239.985 127.783Z" fill="#F2F1F6"/>
<path d="M137.393 184.363C135.644 184.363 134.004 183.982 132.747 183.274L86.7797 156.78C85.4132 156.019 84.7026 154.876 84.7026 153.625C84.7026 152.21 85.7411 150.796 87.4902 149.762L183.962 94.5432C187.132 92.7479 191.778 92.5847 194.511 94.1624L240.478 120.657C241.845 121.418 242.555 122.561 242.555 123.812C242.555 125.226 241.517 126.641 239.768 127.675L143.242 182.839C141.547 183.819 139.415 184.363 137.393 184.363ZM189.81 94.652C188.007 94.652 186.148 95.0872 184.727 95.9033L88.2554 151.177C86.9983 151.884 86.2877 152.809 86.2877 153.625C86.2877 154.441 86.9983 155.039 87.5449 155.366L133.512 181.86C135.753 183.166 139.853 182.948 142.476 181.479L238.893 126.206C240.15 125.499 240.861 124.574 240.861 123.758C240.861 122.942 240.15 122.343 239.604 122.017L193.636 95.5225C192.652 94.924 191.286 94.652 189.81 94.652Z" fill="white"/>
<path d="M131.763 172.719L83.937 145.191C82.3519 144.267 81.6414 143.07 81.696 141.818V134.909L84.3743 138.01C84.5383 137.901 84.7022 137.793 84.9209 137.684L182.759 81.6488C186.64 79.4182 192.488 79.2006 195.877 81.1047L243.047 108.306C243.976 107.273 245.998 105.096 245.998 105.096V111.842C246.053 113.366 244.96 114.998 242.773 116.249L144.935 172.284C141 174.46 135.152 174.678 131.763 172.719Z" fill="#E8E7EC"/>
<path d="M105.91 155.856L108.643 157.434C109.025 157.652 109.299 157.434 109.299 156.944C109.299 156.455 109.025 155.91 108.643 155.693L105.91 154.115C105.527 153.897 105.254 154.115 105.254 154.605C105.254 155.04 105.527 155.638 105.91 155.856Z" fill="#00CF3E"/>
<path d="M182.759 81.5948C186.64 79.3643 192.488 79.1467 195.877 81.0508L243.047 108.252C243.976 107.219 245.998 105.042 245.998 105.042V111.788C246.053 113.312 244.96 114.944 242.773 116.195L144.935 172.23C142.913 173.373 140.344 174.026 137.885 174.08L137.994 107.327L182.759 81.5948Z" fill="#E8E7EC"/>
<path d="M243.702 101.725L195.877 74.1427C192.542 72.1842 186.639 72.4562 182.759 74.6868L84.9206 130.722C81.0399 132.952 80.6027 136.325 83.9915 138.229L131.817 165.812C135.151 167.77 141.055 167.498 144.935 165.268L242.773 109.233C246.654 107.002 247.037 103.629 243.702 101.725Z" fill="#F2F1F6"/>
<path d="M131.763 166.519L83.9375 138.991C82.1884 138.012 81.4778 136.597 81.7511 135.183C81.8604 136.325 82.571 137.413 83.9921 138.23L131.818 165.812C135.152 167.77 141.055 167.498 144.936 165.268L242.774 109.233C244.632 108.145 245.725 106.785 245.944 105.479C246.053 107.002 244.96 108.689 242.719 109.94L144.881 165.975C141.001 168.26 135.097 168.478 131.763 166.519Z" fill="white"/>
<path d="M239.985 102.813L194.018 76.3185C191.504 74.904 187.131 75.0672 184.289 76.6993L87.8719 131.918C84.975 133.55 84.647 136.053 87.1613 137.522L133.129 164.016C135.643 165.431 140.016 165.267 142.858 163.635L239.329 108.416C242.172 106.73 242.5 104.227 239.985 102.813Z" fill="white"/>
<path d="M191.723 135.617L107.549 120.656L121.76 112.495L204.84 128.272L191.723 135.617Z" fill="#F5F5F5"/>
<path d="M217.411 120.928L139.25 107.055L145.809 104.607L222.877 117.936L217.411 120.928Z" fill="#F5F5F5"/>
<path d="M226.704 115.76L148.543 101.887L155.102 99.4388L232.17 112.768L226.704 115.76Z" fill="#F5F5F5"/>
<ellipse opacity="0.2" rx="41.2482" ry="21.1448" transform="matrix(0.917264 -0.398279 0.401423 0.915893 157.902 120.871)" fill="#DEDDE2"/>
<path d="M150.182 149.171L154.323 151.232L161.226 140.514L157.775 138.315C154.105 136.325 150.173 143.94 150.182 149.171Z" fill="black" stroke="black" stroke-width="0.275051"/>
<ellipse rx="4.06527" ry="6.53293" transform="matrix(0.866851 0.498567 -0.501434 0.865196 157.538 145.719)" fill="#2C3345"/>
<ellipse rx="2.72033" ry="4.60338" transform="matrix(0.866999 0.49831 -0.501692 0.865046 157.57 145.733)" fill="white"/>
<ellipse rx="0.689783" ry="0.96285" transform="matrix(0.911069 0.412255 -0.415479 0.909603 157.837 145.748)" fill="#2C3345"/>
<path d="M190.212 129.445L193.031 130.848L199.328 119.782L196.482 117.931C192.87 117.105 188.012 121.71 188.614 127.334C188.714 128.269 189.37 129.026 190.212 129.445Z" fill="black" stroke="black" stroke-width="0.275051"/>
<ellipse rx="4.06527" ry="6.53293" transform="matrix(0.866851 0.498567 -0.501434 0.865196 196.247 125.333)" fill="#2C3345"/>
<ellipse rx="2.72033" ry="4.60338" transform="matrix(0.866999 0.49831 -0.501692 0.865046 196.278 125.345)" fill="white"/>
<ellipse rx="0.689783" ry="0.96285" transform="matrix(0.911069 0.412255 -0.415479 0.909603 196.495 125.411)" fill="#2C3345"/>
<path d="M165.507 108.997V137.854L209.962 111.47V82.7504L165.507 108.997Z" fill="#F2F1F6"/>
<path d="M165.507 108.997L140.518 94.5685V122.464L165.507 137.854V108.997Z" fill="#E8E7EC"/>
<path d="M209.963 82.7508L165.508 108.997L140.519 94.5684L184.974 68.4597L209.963 82.7508Z" fill="#FCFBFF"/>
<path d="M162.607 136.659C152.667 139.078 151.195 146.461 151.701 149.851C146.841 151.5 142.313 151.088 141.071 150.401L127.403 142.156C125.415 141.057 124.227 139.27 124.227 138.033V128.414C124.365 120.719 128.507 115.223 129.474 113.574C130.44 111.925 138.033 107.115 139.69 106.291C141.015 105.631 142.083 105.833 142.451 106.016L159.846 117.009C162.166 118.548 162.654 123.33 162.607 125.529V136.659Z" fill="#2C3345" stroke="#2C3345" stroke-width="0.275051"/>
<path d="M160.26 127.653L149.008 138.458C148.83 138.628 148.537 138.487 148.546 138.241C149.111 122.989 155.27 123.251 160.26 121.195V127.653Z" fill="#22293B"/>
<path d="M141.898 136.447C136.045 134.139 127.954 128.065 124.641 125.317C123.957 124.276 126.836 117.229 129.059 114.218C129.611 113.668 130.255 114.14 130.578 114.324C135.364 117.393 145.405 123.778 147.283 124.767C149.16 125.757 149.169 127.104 148.939 127.653C148.571 129.073 147.669 132.517 147.007 134.936C146.344 137.354 143.325 136.951 141.898 136.447Z" fill="#22293B"/>
<path d="M149.008 138.458L148.912 138.359L149.008 138.458ZM160.26 127.653L160.355 127.753C160.382 127.727 160.398 127.691 160.398 127.653H160.26ZM160.26 121.195H160.398C160.398 121.149 160.375 121.106 160.337 121.081C160.299 121.055 160.25 121.05 160.208 121.068L160.26 121.195ZM148.546 138.241L148.684 138.246L148.546 138.241ZM124.641 125.317L124.526 125.392C124.534 125.404 124.543 125.414 124.553 125.423L124.641 125.317ZM141.898 136.447L141.848 136.575L141.853 136.577L141.898 136.447ZM147.007 134.936L146.874 134.899L147.007 134.936ZM148.939 127.653L148.813 127.6C148.81 127.606 148.808 127.613 148.806 127.619L148.939 127.653ZM147.283 124.767L147.347 124.645L147.283 124.767ZM130.578 114.324L130.652 114.208L130.646 114.204L130.578 114.324ZM129.059 114.218L128.962 114.121C128.957 114.126 128.952 114.131 128.948 114.137L129.059 114.218ZM149.103 138.557L160.355 127.753L160.165 127.554L148.912 138.359L149.103 138.557ZM160.398 127.653V121.195H160.123V127.653H160.398ZM160.208 121.068C159.589 121.323 158.95 121.542 158.303 121.762C157.657 121.981 157.001 122.2 156.354 122.453C155.058 122.959 153.784 123.603 152.649 124.669C150.376 126.804 148.692 130.596 148.409 138.236L148.684 138.246C148.966 130.635 150.642 126.931 152.838 124.87C153.937 123.837 155.174 123.209 156.454 122.709C157.094 122.459 157.743 122.242 158.391 122.022C159.038 121.803 159.684 121.581 160.313 121.322L160.208 121.068ZM124.553 125.423C127.867 128.171 135.972 134.258 141.848 136.575L141.949 136.319C136.117 134.02 128.042 127.959 124.729 125.211L124.553 125.423ZM141.853 136.577C142.579 136.834 143.713 137.066 144.758 136.924C145.281 136.852 145.789 136.686 146.211 136.374C146.635 136.06 146.966 135.606 147.139 134.972L146.874 134.899C146.716 135.475 146.421 135.877 146.048 136.153C145.673 136.43 145.213 136.584 144.72 136.651C143.733 136.786 142.645 136.565 141.944 136.318L141.853 136.577ZM147.139 134.972C147.802 132.553 148.704 129.108 149.073 127.688L148.806 127.619C148.438 129.038 147.536 132.482 146.874 134.899L147.139 134.972ZM149.066 127.706C149.327 127.084 149.281 125.665 147.347 124.645L147.219 124.889C149.04 125.849 149.012 127.123 148.813 127.6L149.066 127.706ZM147.347 124.645C145.476 123.66 135.442 117.279 130.652 114.208L130.503 114.439C135.285 117.506 145.334 123.896 147.219 124.889L147.347 124.645ZM130.646 114.204C130.498 114.12 130.233 113.941 129.94 113.863C129.634 113.781 129.28 113.804 128.962 114.121L129.156 114.316C129.39 114.083 129.635 114.066 129.869 114.129C130.117 114.195 130.335 114.344 130.51 114.443L130.646 114.204ZM128.948 114.137C127.827 115.655 126.546 118.181 125.632 120.455C125.175 121.592 124.807 122.671 124.596 123.534C124.491 123.965 124.424 124.347 124.406 124.656C124.388 124.958 124.414 125.222 124.526 125.392L124.756 125.241C124.697 125.151 124.663 124.968 124.681 124.673C124.697 124.386 124.76 124.022 124.864 123.599C125.07 122.754 125.433 121.688 125.887 120.557C126.797 118.294 128.068 115.792 129.169 114.3L128.948 114.137ZM148.912 138.359C148.832 138.436 148.679 138.379 148.684 138.246L148.409 138.236C148.396 138.595 148.829 138.821 149.103 138.557L148.912 138.359Z" fill="#22293B"/>
<path d="M146.369 144.083C141.826 142.738 139.467 143.495 138.514 144.322C138.121 144.663 138.147 145.25 138.5 145.633C140.045 147.301 143.666 147.801 145.913 147.852C146.354 147.863 146.8 147.715 147.059 147.359C147.672 146.515 147.567 145.556 147.308 144.874C147.155 144.47 146.784 144.205 146.369 144.083Z" fill="#00CF3E" stroke="#00CF3E" stroke-width="0.275051"/>
<path d="M160.015 132.763L158.632 133.353C158.531 133.396 158.465 133.496 158.465 133.606V134.52C158.465 134.717 158.667 134.85 158.848 134.773L160.231 134.183C160.332 134.14 160.398 134.04 160.398 133.93V133.016C160.398 132.819 160.197 132.686 160.015 132.763Z" fill="#00CF3E"/>
<path d="M130.579 139.197L136.792 142.632V144.693L130.579 140.983V139.197Z" fill="white"/>
<path d="M124.227 137.272V133.15C129.447 137.589 128.959 139.033 127.754 139.293C127.352 139.38 126.949 139.207 126.613 138.968L124.227 137.272Z" fill="#00CF3E"/>
<path d="M124.227 133.15L124.316 133.045C124.276 133.01 124.218 133.002 124.17 133.025C124.121 133.047 124.09 133.096 124.09 133.15H124.227ZM124.227 137.272H124.09V137.343L124.148 137.384L124.227 137.272ZM126.613 138.968L126.693 138.856L126.613 138.968ZM127.754 139.293L127.783 139.427H127.783L127.754 139.293ZM124.09 133.15V137.272H124.365V133.15H124.09ZM124.148 137.384L126.533 139.08L126.693 138.856L124.307 137.16L124.148 137.384ZM127.783 139.427C128.104 139.358 128.405 139.204 128.566 138.914C128.727 138.623 128.726 138.232 128.528 137.738C128.134 136.755 126.927 135.265 124.316 133.045L124.138 133.255C126.748 135.474 127.906 136.926 128.272 137.84C128.454 138.293 128.431 138.59 128.325 138.781C128.218 138.974 128.006 139.098 127.725 139.158L127.783 139.427ZM126.533 139.08C126.881 139.327 127.324 139.526 127.783 139.427L127.725 139.158C127.379 139.233 127.017 139.087 126.693 138.856L126.533 139.08Z" fill="#00CF3E"/>
</svg>
