<svg width="40" height="40" viewBox="0 0 40 40" fill="none" xmlns="http://www.w3.org/2000/svg">
<path fill-rule="evenodd" clip-rule="evenodd" d="M30.6665 21.3333H25.3332V16H29.3332C30.0692 16 30.6665 16.5973 30.6665 17.3333V21.3333ZM30.6665 26.6667H29.6279C28.8959 25.8533 27.8465 25.3333 26.6665 25.3333C26.1959 25.3333 25.7519 25.4293 25.3332 25.5787V24H30.6665V26.6667ZM26.6665 30.6667C25.9319 30.6667 25.3332 30.068 25.3332 29.3333C25.3332 28.5987 25.9319 28 26.6665 28C27.4012 28 27.9999 28.5987 27.9999 29.3333C27.9999 30.068 27.4012 30.6667 26.6665 30.6667ZM22.6665 13.3333V26.6667H19.3119C18.7172 24.3707 16.6492 22.6667 14.1665 22.6667C12.7172 22.6667 11.4079 23.248 10.4505 24.1893C10.0345 24.5973 9.33321 24.288 9.33321 23.7053V10.6667C9.33321 9.93067 9.93054 9.33333 10.6665 9.33333H21.3332C22.0692 9.33333 22.6665 9.93067 22.6665 10.6667V13.3333ZM16.4625 29.3333C15.9999 30.1267 15.1492 30.6667 14.1665 30.6667C13.1839 30.6667 12.3332 30.1267 11.8705 29.3333C11.6412 28.94 11.4999 28.488 11.4999 28C11.4999 27.512 11.6412 27.06 11.8705 26.6667C12.3332 25.8733 13.1839 25.3333 14.1665 25.3333C15.1492 25.3333 15.9999 25.8733 16.4625 26.6667C16.6919 27.06 16.8332 27.512 16.8332 28C16.8332 28.488 16.6919 28.94 16.4625 29.3333ZM30.6665 13.3334H25.3332V9.33335C25.3332 7.86002 24.1398 6.66669 22.6665 6.66669H9.33317C7.85984 6.66669 6.6665 7.86002 6.6665 9.33335V26.9787C6.6665 28.2787 7.72117 29.3334 9.02117 29.3334C9.61717 31.6294 11.6838 33.3334 14.1665 33.3334C16.6492 33.3334 18.7158 31.6294 19.3118 29.3334H22.6665C22.6665 31.5427 24.4572 33.3334 26.6665 33.3334C28.8758 33.3334 30.6665 31.5427 30.6665 29.3334C32.1398 29.3334 33.3332 28.14 33.3332 26.6667V16C33.3332 14.5267 32.1398 13.3334 30.6665 13.3334Z" fill="#007CFF"/>
</svg>
