<svg width="52" height="52" viewBox="0 0 52 52" fill="none" xmlns="http://www.w3.org/2000/svg">
<rect opacity="0.1" width="52" height="52" rx="7" fill="#007CFF"/>
<path fill-rule="evenodd" clip-rule="evenodd" d="M29.6875 28.563C29.6875 29.1495 29.2115 29.6255 28.625 29.6255H27.5625V30.688C27.5625 31.2745 27.0865 31.7505 26.5 31.7505C25.9135 31.7505 25.4375 31.2745 25.4375 30.688V29.6255H24.375C23.7885 29.6255 23.3125 29.1495 23.3125 28.563C23.3125 27.9765 23.7885 27.5005 24.375 27.5005H25.4375V26.438C25.4375 25.8515 25.9135 25.3755 26.5 25.3755C27.0865 25.3755 27.5625 25.8515 27.5625 26.438V27.5005H28.625C29.2115 27.5005 29.6875 27.9765 29.6875 28.563ZM32.875 32.8125C32.875 33.399 32.3038 33.875 31.6 33.875H21.4C20.6962 33.875 20.125 33.399 20.125 32.8125V24.3125C20.125 23.726 20.6962 23.25 21.4 23.25H31.6C32.3038 23.25 32.875 23.726 32.875 24.3125V32.8125ZM24.375 19C24.375 17.8281 25.3281 16.875 26.5 16.875C27.6719 16.875 28.625 17.9375 28.625 19V21.125H24.375V19ZM32.5714 21.1253H31.3571V19.0004C31.3571 16.613 28.6116 14.2246 25.4849 14.8514C23.1801 15.3136 21.6429 17.2377 21.6429 19.3064V21.1253H20.4286C19.0868 21.1253 18 22.0763 18 23.2503V33.875C18 35.0491 19.0868 36 20.4286 36H32.5714C33.9132 36 35 35.0491 35 33.875V23.2503C35 22.0763 33.9132 21.1253 32.5714 21.1253Z" fill="#007CFF"/>
</svg>
