<svg width="52" height="52" viewBox="0 0 52 52" fill="none" xmlns="http://www.w3.org/2000/svg">
<rect opacity="0.1" width="52" height="52" rx="7" fill="#007CFF"/>
<path fill-rule="evenodd" clip-rule="evenodd" d="M26 24C24.895 24 24 25 24 26C24 26.231 24.058 26.461 24.153 26.68L16.362 29.545L18.684 31.868L16 34.552L17.448 36L20.132 33.316L22.455 35.638L25.32 27.847C25.539 27.942 25.769 28 26 28C27.105 28 28 27 28 26C28 24.895 27.105 24 26 24ZM26 20V22C28.206 22 30 23.794 30 26H32C32 22.686 29.314 20 26 20ZM36 26H34C34 21.589 30.411 18 26 18V16C31.523 16 36 20.477 36 26Z" fill="#007CFF"/>
</svg>
