<svg width="54" height="52" viewBox="0 0 54 52" fill="none" xmlns="http://www.w3.org/2000/svg">
<rect width="54" height="52" rx="7" fill="#E5F2FF"/>
<path fill-rule="evenodd" clip-rule="evenodd" d="M31.8 31.1H22.6V24.2C22.6 21.1341 24.9 19.6 27.1988 19.6H27.2011C29.5 19.6 31.8 21.1341 31.8 24.2V31.1ZM28.35 34.55C28.35 35.1848 27.8348 35.7 27.2 35.7C26.5652 35.7 26.05 35.1848 26.05 34.55V33.4H28.35V34.55ZM35.25 31.1H34.1V24.2C34.1 20.114 31.3768 17.8462 28.35 17.3908V15H26.05V17.3908C23.0232 17.8462 20.3 20.114 20.3 24.2V31.1H19.15C18.5152 31.1 18 31.6152 18 32.25C18 32.8848 18.5152 33.4 19.15 33.4H23.75V34.55C23.75 36.4555 25.2944 38 27.2 38C29.1055 38 30.65 36.4555 30.65 34.55V33.4H35.25C35.8848 33.4 36.4 32.8848 36.4 32.25C36.4 31.6152 35.8848 31.1 35.25 31.1Z" fill="#007CFF"/>
</svg>
