<svg width="40" height="40" viewBox="0 0 40 40" fill="none" xmlns="http://www.w3.org/2000/svg">
<rect opacity="0.1" width="40" height="40" rx="7" fill="#007CFF"/>
<path fill-rule="evenodd" clip-rule="evenodd" d="M20 20.049C17.794 20.049 16 18.255 16 16.049C16 13.843 17.794 12.049 20 12.049C22.206 12.049 24 13.843 24 16.049C24 18.255 22.206 20.049 20 20.049ZM23.758 20.722C25.124 19.623 26 17.939 26 16.049C26 12.735 23.314 10.049 20 10.049C16.686 10.049 14 12.735 14 16.049C14 17.939 14.876 19.623 16.242 20.722C12.583 22.097 10 25.4939 10 30.049H12C12 25.049 15.589 22.049 20 22.049C24.411 22.049 28 25.049 28 30.049H30C30 25.4939 27.417 22.097 23.758 20.722Z" fill="#007CFF"/>
</svg>
