<svg xmlns="http://www.w3.org/2000/svg" width="1069" height="1020" fill="none"><mask id="a" width="1069" height="1020" x="0" y="0" maskUnits="userSpaceOnUse"><path fill="#C4C4C4" d="M0 0h1069v1020H0z"/></mask><g mask="url(#a)"><g filter="url(#filter0_d)"><path fill="url(#paint0_linear)" d="M-69.5 906c4.975-.334 26.007-10.989 58.65-29.16-15.094 63.879-47.994 158.95-7.65 144.16 58.215-21.346 1028.99-634.731 1085.19-670.753 1.71-1.092 1.56-2.27-.16-3.348L580.921 41.361a7 7 0 0 0-7.458.002L131.013 320c-5.486 3.454-3.734 11.866 2.675 12.843l13.037 1.988a7.002 7.002 0 0 1 4.798 3.081l14.013 21.369a3 3 0 0 0 4.119.886l370.604-235.836a7.001 7.001 0 0 1 7.596.052l324.94 213.036c1.835 1.202 2.164 3.678.298 4.833C819.479 375.448 188.28 765.99-10.851 876.84-3.497 845.718-.37 822-12 822c-35.5 0-92 84-57.5 84z"/><path stroke="#00F0FF" stroke-width=".75" d="M-69.5 906c35.322-2.368 880.19-525.11 942.593-563.747 1.866-1.155 1.537-3.631-.298-4.833l-324.94-213.036a7.001 7.001 0 0 0-7.596-.052L169.655 360.168a3 3 0 0 1-4.119-.886l-14.013-21.369a7.002 7.002 0 0 0-4.798-3.081l-13.037-1.988c-6.409-.977-8.161-9.389-2.675-12.843l442.45-278.638a7 7 0 0 1 7.458-.002L1066.53 346.9c1.72 1.078 1.87 2.256.16 3.348C1010.49 386.269 39.715 999.654-18.5 1021c-60 22 42-199 6.5-199s-92 84-57.5 84zm0 0c28.254 0-64.5 2.5 0 0zm0 0c0-79-36.677 2.459 0 0z"/></g><g filter="url(#filter1_d)"><path fill="url(#paint1_linear)" d="M1444.71 914.924c-93.24 46.247-1564.785 775.646-1632.246 780.166-21.711 1.46-28.599-19.11-27.794-43.58 12.845-14.56 26.99-23.84 41.091-23.84 0-103.28-39.313-30.21-41.091 23.84-46.852 53.11-76.414 176.53-23.491 176.53 67.433 0-96.876 146.23 17.096 104.45C-109.68 1891.42 1753.53 960.288 1813.52 929.721c1.8-.919.49-1.387-1.22-2.465l-928.212-583.91a7 7 0 0 0-7.457.001l-858.093 540.3c-5.486 3.454-3.734 11.866 2.675 12.844l44.243 6.745a7.004 7.004 0 0 1 4.798 3.081l29.617 45.157a3 3 0 0 0 4.119.886l709.646-451.509a7.001 7.001 0 0 1 7.595.051l623.729 408.857c1.94 1.27 1.83 4.135-.25 5.165z"/><path stroke="#00F0FF" stroke-width=".75" d="M-174.239 1627.67c-65.533 0-132.015 200.37-64.582 200.37 67.433 0-96.876 146.23 17.096 104.45C-109.68 1891.42 1753.53 960.288 1813.52 929.721c1.8-.919.49-1.387-1.22-2.465l-928.212-583.91a7 7 0 0 0-7.457.001l-858.093 540.3c-5.486 3.454-3.734 11.866 2.675 12.844l44.243 6.745a7.003 7.003 0 0 1 4.798 3.081l29.617 45.157a3 3 0 0 0 4.119.886l709.646-451.509a7.001 7.001 0 0 1 7.595.051l623.729 408.857c1.94 1.27 1.83 4.135-.25 5.165-93.24 46.247-1564.785 775.646-1632.246 780.166-69.669 4.67 13.297-217.45 13.297-67.42zm0 0c53.668 0-122.519 4.75 0 0z"/></g><path fill="url(#paint2_linear)" fill-opacity=".8" d="M783.691 210.093l154.551 98.763-45.734 29.981-152.974-100.526 44.157-28.218z" filter="url(#filter2_f)"/><path fill="#414141" d="M799.575 171.566l2.152 24.97-34.792 22.957-1.793-25.373 34.433-22.554z"/><path fill="#625757" d="M751.152 178.416l34.075-22.553 14.347 15.706-34.433 22.554-13.989-15.707z"/><path fill="#271C1C" d="M775.901 171.972l-1.793 1.208s-4.305 3.222-5.022 6.847c-1.076 3.222 4.304 8.458 4.304 8.458l.359 6.041 1.793 1.611-.358-8.458s3.586-10.874 3.228-11.277c0-.805-2.511-4.43-2.511-4.43z"/><path fill="#3A2929" d="M775.185 187.677s-5.739-10.874-1.076-14.096c4.663-3.222 8.25-6.042 10.761-2.014a92.793 92.793 0 0 1 4.304 6.847l-13.989 9.263z"/><path fill="#291E1E" d="M789.175 178.411l.358 8.457-13.988 9.263-.359-8.457 13.989-9.263z"/><path fill="#1D1616" d="M777.336 168.753c3.228-1.611 7.174.806 8.967 4.833 1.794 4.43.359 9.263-2.869 10.874-3.228 2.014-7.532 0-9.326-4.833-1.435-4.43 0-9.263 3.228-10.874zm-1.076 10.069c1.076 3.222 3.946 4.43 6.456 3.222 2.152-1.208 3.229-4.43 2.152-7.652-1.076-2.819-3.945-4.43-6.097-3.222-2.511 1.208-3.587 4.43-2.511 7.652z"/><path fill="#1D1616" d="M779.128 173.58c1.435-.806 2.87.402 3.587 2.013.718 1.611 0 3.625-1.076 4.43-1.435.806-3.228 0-3.587-2.013-.717-1.611-.358-3.625 1.076-4.43z"/><path fill="#322424" d="M775.545 200.968l-.717-9.263-6.815 4.43.717 9.264 6.815-4.431z"/><path fill="#271C1C" d="M773.393 199.76l-.359-6.846 1.794-1.209.717 9.263-6.815 4.431v-2.417l4.663-3.222z"/><path fill="#503939" d="M776.979 243.258l47.704-31.817 115.136 73.299-46.987 31.817-115.853-73.299z"/><path fill="url(#paint3_linear)" d="M754.38 143.779l51.65-35.039c.359-.402.717-.402 1.076-.805 1.435-.403 3.587 0 7.891 3.222 7.173 5.638 30.129 20.137 30.129 20.137 7.173 6.444 6.456 18.526 6.456 18.526v30.608l-.359 41.483-20.086-12.888 5.739 21.748-38.02 26.178-8.249-52.356 2.152-37.858-31.205-19.734-7.174-3.222z"/><path fill="#352020" d="M756.174 231.177l23.673-16.512-22.955-12.485s-5.022 4.43-6.098 6.444c-1.076 2.819 5.38 22.553 5.38 22.553z"/><path fill="#352E2E" d="M770.88 218.287l.718-.403c.358 0 .717-.402.717-.402 4.304-.806 9.684 5.235 11.119 14.498 1.435 8.055 0 15.707-3.228 17.721l-8.608 5.638-9.326-31.011 8.608-6.041z"/><path fill="#625757" d="M759.403 241.246c1.794 8.86 6.457 15.304 10.761 14.499 4.304-.806 6.097-8.861 4.663-17.721-1.794-8.86-6.457-15.304-10.761-14.499-4.304.806-6.097 8.861-4.663 17.721z"/><path fill="#CED9E3" d="M762.988 240.442c.717 4.833 3.586 8.055 5.738 7.652 2.152-.403 3.229-4.833 2.511-9.666-.717-4.833-3.587-8.055-5.739-7.652-2.152.806-3.228 4.833-2.51 9.666z"/><path fill="#332C2D" d="M765.499 230.775h1.435c-1.793.806-2.869 4.833-2.152 9.263.717 3.625 2.921 6.422 4.714 7.227 0 0-.769.425-.769.828-2.152.403-4.662-2.819-5.739-7.652-.717-4.833.359-8.86 2.511-9.666z"/><path fill="url(#paint4_linear)" d="M939.819 188.483v96.658l-46.987 31.414v-97.061l46.987-31.011z"/><path fill="#00FB28" d="M892.832 247.282l46.987-29.4v48.732l-46.987 31.011v-50.343z"/><path fill="#362121" d="M853.377 301.251l26.184-17.318-15.065-14.902-10.402 2.014s-7.532 8.055-7.891 9.263c-.358 1.208 7.174 20.943 7.174 20.943z"/><path fill="url(#paint5_linear)" d="M805.673 163.513l87.159 56.384 46.987-31.011-86.801-55.981-47.345 30.608z"/><path fill="url(#paint6_linear)" d="M753.303 145.792l-5.381 28.192s-5.38 25.372-6.456 31.011c-1.435 6.444 1.793 11.679 3.946 16.512 1.793 2.417 2.869 4.43 5.38 6.041 4.663 3.222 6.097 4.028 6.097 4.028s.359-22.957 10.043-16.11c10.761 7.652 10.761 28.192 10.761 28.192l21.162 13.29V185.26s.717-12.082-6.098-18.526c0 0-22.597-14.901-29.77-20.137-9.326-7.249-9.684-.805-9.684-.805zm27.259 53.564l-28.694-20.137 5.739-31.816 22.955 15.707v36.246z"/><path fill="#352E2E" d="M866.65 281.922l.717-.403c.359 0 .718-.402.718-.402 4.304-.806 9.684 5.235 11.119 14.498 1.434 8.055 0 15.707-3.228 17.721l-8.609 5.638-9.325-31.011 8.608-6.041z"/><path fill="#625757" d="M855.53 304.872c1.794 8.861 6.457 15.304 10.761 14.499 4.304-.806 6.097-8.86 4.663-17.721-1.794-8.86-6.457-15.304-10.761-14.498-4.304.805-6.456 8.86-4.663 17.72z"/><path fill="#CED9E3" d="M859.116 304.073c.718 4.833 3.587 8.055 5.739 7.652 2.152-.402 3.228-4.833 2.511-9.665-.717-4.833-3.587-8.055-5.739-7.653-2.511.403-3.587 4.833-2.511 9.666z"/><path fill="#332C2D" d="M861.268 294.409h1.434c-1.793.805-2.869 4.833-2.152 9.263.718 3.624 2.511 6.846 4.304 7.652 0 0-.358 0-.358.403-2.152.402-4.663-2.82-5.739-7.653-.717-4.832.359-9.263 2.511-9.665z"/><path fill="#2C4CAD" d="M892.83 219.898v96.658l-20.086-12.485c-.718-8.055-3.229-18.124-9.326-22.151-6.098-3.625-8.608 3.625-9.326 10.069l-48.421-30.609v-97.866l87.159 56.384z"/><path fill="#3C2A2A" d="M872.742 304.074l20.086 12.887v10.069l-19.369-12.485c0-.403 0-4.833-.717-10.471zM854.092 291.992c-.717 4.833-.717 9.263-.717 9.263l-76.04-47.926-.359-10.069 77.116 48.732z"/><path fill="#29CB00" d="M892.83 247.688l-87.159-54.773v51.551l87.159 53.162v-49.94z"/><path fill="#503939" d="M939.819 285.15v10.471l-46.987 31.011v-10.069l46.987-31.413z"/><path fill="#595959" d="M777.695 212.247v-6.444l-6.815-4.833v8.055l6.815 4.43v-1.208z"/><path fill="#4D3636" d="M777.337 205.402s1.435.402 1.435 2.416v4.43s-.359 1.611-1.435.806c-1.076-.806-.717-2.014-.717-2.014v-4.833s.359-1.208.717-.805z"/><path fill="#2D2121" d="M776.619 206.207s.358-1.208.717-.805v4.43s-.359 1.208.717 2.013c0 0 .359 0 .359.403 0 0-.359 1.611-1.435.806-1.076-.806-.717-2.014-.717-2.014l.359-4.833z"/><path fill="#9B330C" d="M888.883 302.456v2.819l-.717 1.208-5.022-6.041 1.076-.805 4.663 2.819z"/><path fill="#D0671A" d="M888.175 303.655v2.819l-5.021-3.222v-2.819l5.021 3.222z"/><path fill="#9B330C" d="M794.913 243.255v2.819l-1.076.806-4.663-5.639 1.076-1.208 4.663 3.222z"/><path fill="#D0671A" d="M793.808 244.498v2.416l-4.663-2.819v-2.819l4.663 3.222z"/><path fill="#BDEBFD" d="M939.819 285.143v-5.639l-7.891 5.639-3.228 7.652 11.119-7.652zM906.462 307.29l-5.022-2.416-8.608 6.041v5.639l13.63-9.264z"/><path fill="#D0671A" d="M936.949 281.518l-.717 6.041 3.587-2.417v-5.638l-2.87 2.014zM896.059 308.906l1.076 4.833-4.304 2.819v-5.639l3.228-2.013z"/><path fill="#6AB8F1" d="M928.343 270.239v-4.43l-6.815 4.43v4.43l6.815-4.43zM915.787 277.894v-4.43l-6.815 4.43v4.431l6.815-4.431z"/><path fill="#2D2121" d="M923.32 269.031v4.43l-1.793 1.209v-4.43l1.793-1.209zM915.787 273.464v4.43l-1.794 1.209v-4.43l1.794-1.209z"/><path fill="#656565" d="M939.819 288.366l-46.987 31.816v6.444l46.987-31.011v-7.249z"/><path fill="#2C4CAD" d="M931.925 285.15l-30.487 19.734 5.021 2.416 22.238-14.498 3.228-7.652z"/><path fill="#2C4CAD" d="M917.938 202.582h1.076v91.422h-1.076v-91.422z"/><ellipse cx="83.481" cy="199.513" fill="url(#paint7_linear)" rx="61.505" ry="74.072"/><g filter="url(#filter3_d)"><path fill="url(#paint8_linear)" d="M18.983 358.036s13.367-15.509 22.622-21.206c3.379-2.058 6.904-3.957 10.576-5.539 27.176-11.711 63.753-11.395 90.341.949 2.938 1.424 5.729 2.849 8.374 4.59 10.135 6.33 22.475 20.256 22.475 20.256v13.769c0 12.344-7.492 24.687-22.475 34.025-29.967 18.674-79.177 18.674-109.291 0-14.983-9.338-22.475-21.523-22.622-33.709v-13.135zm75.651-29.911c-25.853.475-56.408 13.769-57.436 29.911 0 1.108 0 2.215.147 3.323.587 3.007 1.91 5.856 3.672 8.704.147.159.147.317.294.475.147.158.147.317.294.475.294.316.587.791.734 1.108l.147.158c.294.316.588.633.735.949l1.763 1.899.734.792.147.158c.294.317.587.475.734.791.294.317.588.475.882.792l.44.474c.147.159.294.159.441.317l.147.158.147.158c.587.475 1.175.95 1.763 1.266 1.616 1.266 3.378 2.374 4.994 3.324.147 0 .147.158.294.158l1.763.95c.734.316 1.469.791 2.203 1.107.881.475 1.763.792 2.644 1.266.882.317 1.616.633 2.497.95.147 0 .294.158.588.158.734.317 1.322.475 2.057.791.44.159.734.317 1.175.317.734.317 1.616.475 2.35.791.44.159.735.158 1.175.317.147 0 .294 0 .44.158.148 0 .295 0 .442.158 6.61 1.741 13.66 2.849 20.859 3.007h5.288c.881 0 1.616 0 2.497-.158 2.204-.158 4.554-.317 7.051-.633h.441l3.085-.475 3.085-.475c.44 0 .881-.158 1.322-.316l2.203-.475c.294 0 .588-.158.882-.158.44-.158.881-.159 1.322-.317 2.938-.791 5.875-1.741 8.52-2.848h.146c.882-.317 1.91-.792 2.792-1.108.293-.158.587-.317.734-.317.588-.316 1.175-.633 1.763-.791a53.005 53.005 0 0 0 11.605-7.913c4.847-4.431 7.932-9.337 9.254-14.401.294-1.424.441-3.007.294-4.589-1.322-17.725-34.521-30.86-61.55-30.386z"/><path fill="url(#paint9_linear)" d="M41.605 323.696c30.114-18.674 79.324-18.674 109.291 0 14.69 9.179 22.181 21.207 22.475 33.393v1.107c-.147 12.186-7.638 24.213-22.475 33.55-29.967 18.675-79.177 18.675-109.29 0-14.984-9.337-22.476-21.522-22.623-33.708-.146-12.502 7.345-25.004 22.622-34.342zm-.587 46.37c.147.158.147.316.294.474.147.159.147.317.293.475.294.317.588.791.735 1.108l.147.158c.294.317.587.633.734.95l1.763 1.899.734.791.147.158c.294.317.588.475.735.791.294.317.587.475.881.792l.44.475c.148.158.295.158.442.316l.147.158.146.159c.588.474 1.176.949 1.763 1.266 1.616 1.266 3.379 2.373 4.995 3.323.146 0 .146.158.293.158l1.763.95c.735.316 1.47.791 2.204 1.108.881.474 1.762.791 2.644 1.266.881.316 1.616.633 2.497.949.147 0 .294.158.588.158.734.317 1.322.475 2.056.792.44.158.735.316 1.175.316.735.317 1.616.475 2.35.791.441.159.735.159 1.176.317.147 0 .294 0 .44.158.147 0 .294 0 .441.158 6.61 1.741 13.662 2.849 20.86 3.007H99.188c.881 0 1.615 0 2.497-.158 2.203-.158 4.554-.316 7.051-.633h.441l3.084-.475 3.085-.475c.441 0 .882-.158 1.322-.316l2.204-.475c.293 0 .587-.158.881-.158.441-.158.881-.158 1.322-.317 2.938-.791 5.876-1.74 8.52-2.848h.147c.881-.317 1.91-.791 2.791-1.108.294-.158.588-.316.734-.316.588-.317 1.176-.633 1.763-.792a52.947 52.947 0 0 0 11.605-7.913c4.848-4.431 7.932-9.337 9.254-14.401.294-1.424.441-3.007.294-4.589-1.322-17.567-34.373-30.86-61.55-30.227-25.853.475-56.407 13.768-57.435 29.91 0 1.108 0 2.216.146 3.324.735 2.848 1.91 5.697 3.673 8.546z"/><path fill="#6BBEAD" d="M146.487 377.501c-3.672 3.166-7.491 5.856-11.604 7.913 1.468-.791 2.937-1.582 4.26-2.374 2.791-1.74 5.288-3.481 7.344-5.539zM98.892 393.652c.882 0 1.617 0 2.499-.158-.735.158-1.617.158-2.5.158zM108.59 393.011c-2.497.316-4.848.475-7.051.633 2.35-.158 4.701-.317 7.051-.633zM115.2 392.059l-3.08.474c.88-.158 1.907-.316 3.08-.474zM112.116 392.532l-3.08.475c.88-.158 2.054-.317 3.08-.475zM118.725 391.27zM62.462 386.836c-.882-.475-1.764-.792-2.647-1.267.736.475 1.618.95 2.647 1.267zM64.96 387.95c-.882-.317-1.617-.634-2.499-.95.882.316 1.617.633 2.5.95zM65.402 388.11c-.15 0-.299-.16-.597-.16.298 0 .448.16.597.16zM70.986 390.007c-.735-.158-1.617-.475-2.352-.792.882.317 1.617.634 2.352.792zM67.605 388.899c-.738-.318-1.329-.477-2.067-.795.59.318 1.329.636 2.067.795zM68.635 389.379c-.453-.162-.754-.325-1.206-.325.452 0 .904.163 1.206.325zM55.852 383.538c-.163 0-.163-.175-.326-.175 0 0 .163.175.326.175zM48.64 378.606c.593.478 1.184.956 1.776 1.275-.592-.319-1.183-.797-1.775-1.275zM50.425 380.036a33.989 33.989 0 0 0 3.813 2.686c.44.316.733.474 1.173.632-1.613-.948-3.226-2.212-4.986-3.318zM57.617 384.632l-1.775-.956c.592.159 1.184.478 1.775.956zM45.716 375.909l-.725-.78c.29.156.435.468.725.78zM41.024 370.066c.145.312.435.624.58.779-.145-.155-.29-.467-.58-.779z"/><path fill="#157E04" d="M37.345 361.358c-.147-1.107-.294-2.215-.147-3.323.881-16.142 31.583-29.277 57.436-29.91 27.176-.475 60.228 12.66 61.55 30.226.147 1.583 0 3.166-.294 4.59 2.938-10.603-1.469-21.998-13.368-30.702-1.028-.791-2.056-1.424-3.085-2.057-23.209-14.718-61.402-14.876-84.905-.317l-2.204 1.425c-12.34 8.387-17.187 19.465-14.983 30.068z"/><path fill="#A0EAE5" d="M146.489 377.504c3.966-3.482 8.079-8.546 9.255-14.402-1.322 5.064-4.407 9.97-9.255 14.402zM120.928 390.798c2.791-.791 5.729-1.741 8.52-2.848-2.791 1.107-5.582 1.899-8.52 2.848zM72.892 390.635c6.463 1.74 13.367 2.848 20.859 3.006-7.051-.158-14.102-1.266-20.86-3.006zM46.598 376.696l-.725-.779.725.779zM37.345 361.359c.587 3.165 1.91 6.172 3.672 8.704-1.763-2.849-2.938-5.697-3.672-8.704z"/></g><path fill="url(#paint10_linear)" d="M72.09 106.202c16.998-10.975 32.594-11.954 43.809-4.704l37.676 23.32 2.278 1.372-5.432 29.787-16.823 91.321-21.904 120.128-39.429-24.3s-26.285-38.41-51.519-80.151c-5.607-9.21-10.514-21.164-10.514-37.625.175-43.701 28.038-97.396 61.858-119.148zm8.411 145.995c23.657-15.285 43.109-52.715 43.109-83.286 0-7.055-1.052-12.934-2.804-18.029-1.928.784-4.031 1.96-6.133 3.332-23.657 15.285-42.933 52.911-42.933 83.481 0 7.055 1.051 12.934 2.803 18.029 1.928-.979 4.03-2.155 5.958-3.527z"/><path fill="url(#paint11_linear)" d="M104.858 135.199c2.103-1.764 4.381-3.136 6.484-4.703 16.297-10.387 31.192-11.758 42.232-5.683l2.278 1.371c10.865 7.251 17.523 22.341 17.523 43.701 0 29.787-4.556 47.816-12.091 72.312-8.411 27.631-48.54 122.479-49.767 125.419 0 0-26.285-38.41-51.52-80.151-4.906-8.23-9.462-18.421-10.338-32.138-.175-1.764-.175-3.528-.175-5.487.175-40.958 24.533-90.537 55.374-114.641zM80.5 252.191c23.657-15.285 43.108-52.715 43.108-83.286 0-7.055-1.051-12.934-2.803-18.029-1.928.784-4.031 1.96-6.134 3.332-23.657 15.285-42.932 52.911-42.932 83.482 0 7.054 1.051 12.933 2.803 18.029 1.928-.98 4.03-2.156 5.958-3.528z"/><path fill="url(#paint12_linear)" d="M74.543 255.528c6.133 16.853 21.904 21.556 40.129 9.798 6.834-4.311 13.318-10.582 19.1-18.029 14.195-18.225 24.008-43.504 24.008-65.257 0-11.366-2.629-20.184-7.185-26.063-6.659-8.623-17.348-10.779-29.615-5.096 1.928 4.9 2.804 10.975 2.804 18.029 0 30.571-19.451 68.197-43.108 83.286-2.103 1.372-4.206 2.548-6.133 3.332z"/><path stroke="#F2FDED" stroke-width="3" d="M1 950c-51.18 22.977 921.074-571.15 923.045-572.355.061-.037.036-.024.095-.063 47.187-31.691 21.979-36.982 9.37-47.557" filter="url(#filter4_f)"/><path stroke="#fff" stroke-width="2" d="M160.759 331.787L388.516 185.91" filter="url(#filter5_f)"/><path stroke="#fff" stroke-width="2.5" d="M740.182 193.218L566.946 80.598" filter="url(#filter6_f)"/><path stroke="#fff" stroke-width=".5" d="M160.759 331.787l247.583-156.963M735.465 191.453L566.946 80.597"/><path fill="#B47E47" d="M364.872 238.037l122.331-79.36-8.238-5.316"/><path fill="url(#paint13_linear)" d="M364.872 117.162v258.205L530.426 482.7V224.368L364.872 117.162z"/><path fill="url(#paint14_linear)" d="M530.426 224.371v258.331l46.269-29.997v-5.822l27.649-17.847 4.401 2.911 43.336-28.098V145.517l-121.655 78.854z"/><path fill="#B6CA48" d="M652.08 145.517L486.413 38.311l-121.541 78.854 165.554 107.206 121.654-78.854z"/><path fill="#0070F3" d="M494.313 30.712l-115.786 74.93v-13.67l115.786-74.93v13.67z"/><path fill="#0093E9" d="M494.312 17.042v13.67l162.282 105.18v-13.669L494.312 17.042z"/><path fill="#0469D9" d="M357.875 91.344v21.264L530.426 224.37v-21.264L357.875 91.344z"/><path fill="url(#paint15_linear)" d="M666.975 114.76v21.138l-136.551 88.473v-21.264l136.551-88.347z"/><path fill="#00F0FF" d="M494.311 3l172.664 111.762-136.551 88.347L357.873 91.347 494.311 3zm151.786 112.395L494.311 17.049 378.525 91.98l151.786 98.346 115.786-74.93z"/><path fill="url(#paint16_linear)" d="M494.313 30.718l141.178 91.511-105.178 68.095-141.291-91.511 105.291-68.095z"/><path fill="#00A3FF" d="M580.758 216.775v59.994l-20.764 13.417v-59.995l20.764-13.416z"/><path fill="#0361CE" d="M578.165 222.077v24.176l-15.461 9.999v-24.175l15.461-10z"/><path fill="#056CE5" d="M578.161 250.822v24.175l-15.461 9.999v-24.175l15.461-9.999z"/><path fill="#00A3FF" d="M626.574 187.164v59.995l-20.765 13.417v-59.995l20.765-13.417z"/><path fill="#025DC8" d="M623.983 192.34v24.301l-15.461 10v-24.302l15.461-9.999z"/><path fill="#0670EB" d="M623.979 221.078v24.301l-15.46 9.999v-24.301l15.46-9.999z"/><path fill="url(#paint17_linear)" d="M647.227 312.338v59.995l-33.291 21.517v-59.995l33.291-21.517z"/><path fill="url(#paint18_linear)" d="M570.487 361.953v60.121l-33.291 21.518v-59.995l33.291-21.644z"/><path fill="url(#paint19_linear)" d="M383.38 294.873v59.995l125.604 81.258v-59.994L383.38 294.873z"/><path fill="#007AD2" d="M442.741 80.835L426.378 91.34v-6.961l16.363-10.632v7.088z"/><path fill="#0051B1" d="M442.74 73.747v7.088l21.78 14.049v-6.962l-21.78-14.175z"/><path fill="#0098DD" d="M415.657 84.001v11.012l27.084 17.593v-11.012l-27.084-17.593z"/><path fill="#007AD2" d="M469.825 84.001v11.012l-27.085 17.593v-11.012l27.085-17.593z"/><path fill="#00F0FF" d="M442.74 66.41l27.085 17.594-27.085 17.593-27.084-17.593L442.74 66.41zm16.364 17.974L442.74 73.75l-16.363 10.632 16.363 10.633 16.364-10.633z"/><path fill="#0156C6" d="M442.742 80.84l10.834 7.088-10.834 6.962-10.947-7.088 10.947-6.962z"/><path fill="url(#paint20_linear)" d="M576.696 357.777c.113 31.389.339 62.905.452 94.295 10.495-6.708 21.103-13.416 31.598-20.125v-95.055l-32.05 20.885z"/><path fill="url(#paint21_linear)" d="M601.296 346.766l.339 55.312c-6.546 4.303-13.091 8.733-19.637 13.036v-55.817a829.6 829.6 0 0 0 19.298-12.531z"/><path fill="#007CFF" d="M443.669 498.931l12.616 8.113V501.4l-12.616-8.112v5.643zM443.665 493.288v5.643l-17.347 10.935v-5.644l17.347-10.934z"/><path fill="#3787FF" d="M464.798 501.406v8.466l-21.447 13.756v-8.466l21.447-13.756z"/><path fill="#139CFF" d="M422.22 501.406v8.466l21.132 13.756v-8.466l-21.132-13.756z"/><path fill="#00E1F4" d="M443.352 487.644L421.904 501.4l21.448 13.756L464.8 501.4l-21.448-13.756zM430.736 501.4l12.932-8.466 12.931 8.466-12.931 8.465-12.932-8.465z"/><path fill="#113661" d="M443.668 498.928l-8.832 5.291 8.832 5.644 8.516-5.644-8.516-5.291z"/><path fill="#0345A8" d="M448.711 413.573v91.355l-5.047 3.175v-91.356l5.047-3.174z"/><path fill="#06F" d="M438.621 413.568v91.356l5.047 3.174v-91.355l-5.047-3.175z"/><path fill="#61623B" d="M438.621 413.575l5.047-3.528 5.046 3.528-5.046 3.174-5.047-3.174z"/><path fill="#0345A8" d="M461.012 452.029v6.349l-5.046 3.175v-6.349l5.046-3.175z"/><path fill="#06F" d="M443.666 447.098v6.702l12.301 7.76v-6.349l-12.301-8.113z"/><path fill="#003C85" d="M443.667 447.086l5.047-3.175 12.301 8.113-5.047 3.174-12.301-8.112z"/><path fill="#0345A8" d="M461.014 435.435v16.931l-5.046 3.175V438.61l5.046-3.175z"/><path fill="#06F" d="M450.922 435.44v16.931l5.047 3.174v-16.931l-5.047-3.174z"/><path fill="#61623B" d="M450.92 435.444l5.046-3.174 5.047 3.174-5.047 3.175-5.046-3.175z"/><path fill="#06F" d="M426.317 441.435v6.349l5.047 3.174v-6.349l-5.047-3.174z"/><path fill="#0345A8" d="M443.664 436.85v6.349l-12.301 7.76v-6.349l12.301-7.76z"/><path fill="#1C344F" d="M443.666 436.851l-5.046-3.527-12.301 8.113 5.046 3.174 12.301-7.76z"/><path fill="#06F" d="M426.318 429.452v12.345l5.046 3.175v-12.346l-5.046-3.174z"/><path fill="#0048B4" d="M436.405 429.44v12.346l-5.047 3.174v-12.345l5.047-3.175z"/><path fill="#61623B" d="M436.417 429.441l-5.046-3.174-5.047 3.174 5.047 3.175 5.046-3.175z"/><path fill="#06F" d="M492.871 387.12c0 28.923-21.132 52.555-46.996 52.555s-46.996-23.632-46.996-52.555c0-4.233.315-8.466 1.262-12.346 5.046-22.927 23.655-40.21 45.734-40.21 3.469 0 6.939.352 10.093 1.411 21.133 4.938 36.903 26.101 36.903 51.145z"/><path fill="#00F0FF" stroke="#06F" stroke-width=".25" d="M482.053 378.653c0 25.341-18.25 45.729-40.878 45.729s-40.878-20.388-40.878-45.729V374.787c5.041-22.874 23.604-40.099 45.609-40.099 3.46 0 6.913.352 10.049 1.403 15.402 6.681 26.098 23.21 26.098 42.562z"/><path fill="#2D8DFF" d="M448.711 415.337c0 14.461-10.409 26.101-23.34 26.101-12.932 0-23.341-11.64-23.341-26.101 0-2.117.316-4.233.631-5.997 2.523-11.287 11.67-20.105 22.71-20.105 1.892 0 3.469.353 5.046.706 10.724 2.821 18.294 13.05 18.294 25.396z"/><path fill="#0FF" d="M443.364 411.104c0 12.698-9.147 22.574-20.186 22.574-11.355 0-20.186-10.229-20.186-22.574v-1.764c2.523-11.287 11.67-20.105 22.709-20.105 1.893 0 3.47.353 5.047.705 7.254 3.528 12.616 11.64 12.616 21.164z"/><path fill="#007CFF" d="M349.049 446.023l12.616 8.113v-5.644l-12.616-8.112v5.643zM349.041 440.367v5.644l-17.347 10.934v-5.644l17.347-10.934z"/><path fill="#3787FF" d="M370.18 448.483v8.466l-21.448 13.756v-8.466l21.448-13.756z"/><path fill="#139CFF" d="M327.6 448.483v8.466l21.132 13.756v-8.466L327.6 448.483z"/><path fill="#00E1F4" d="M348.732 434.73l-21.448 13.756 21.448 13.756 21.448-13.756-21.448-13.756zm-12.616 13.756l12.931-8.465 12.932 8.465-12.932 8.465-12.931-8.465z"/><path fill="#113661" d="M349.048 446.019l-8.831 5.29 8.831 5.644 8.516-5.644-8.516-5.29z"/><path fill="#0345A8" d="M354.09 360.656v91.355l-5.046 3.175V363.83l5.046-3.174z"/><path fill="#06F" d="M343.997 360.647v91.355l5.047 3.175v-91.356l-5.047-3.174z"/><path fill="#61623B" d="M343.998 360.652l5.046-3.527 5.047 3.527-5.047 3.175-5.046-3.175z"/><path fill="#0345A8" d="M366.391 399.104v6.349l-5.046 3.175v-6.349l5.046-3.175z"/><path fill="#06F" d="M349.044 394.169v6.702l12.301 7.76v-6.349l-12.301-8.113z"/><path fill="#003C85" d="M349.044 394.162l5.047-3.174 12.301 8.113-5.047 3.174-12.301-8.113z"/><path fill="#0345A8" d="M366.391 382.532v16.931l-5.046 3.174v-16.93l5.046-3.175z"/><path fill="#06F" d="M356.299 382.526v16.93l5.046 3.175V385.7l-5.046-3.174z"/><path fill="#61623B" d="M356.299 382.528l5.047-3.174 5.046 3.174-5.046 3.175-5.047-3.175z"/><path fill="#06F" d="M331.696 388.518v6.349l5.046 3.174v-6.349l-5.046-3.174z"/><path fill="#0345A8" d="M349.044 383.933v6.349l-12.301 7.76v-6.349l12.301-7.76z"/><path fill="#1C344F" d="M349.043 383.931l-5.046-3.527-12.301 8.113 5.046 3.174 12.301-7.76z"/><path fill="#06F" d="M331.696 376.519v12.346l5.047 3.174v-12.345l-5.047-3.175z"/><path fill="#0048B4" d="M341.79 376.524v12.346l-5.047 3.174v-12.345l5.047-3.175z"/><path fill="#61623B" d="M341.79 376.525l-5.047-3.174-5.046 3.174 5.046 3.175 5.047-3.175z"/><path fill="#06F" d="M398.247 334.205c0 28.923-21.132 52.556-46.996 52.556s-46.996-23.633-46.996-52.556c0-4.233.315-8.465 1.262-12.345 5.046-22.927 23.655-40.211 45.734-40.211 3.469 0 6.939.353 10.093 1.411 21.133 4.938 36.903 26.102 36.903 51.145z"/><path fill="#00F0FF" stroke="#06F" stroke-width=".25" d="M387.431 325.738c0 25.341-18.25 45.73-40.878 45.73s-40.878-20.389-40.878-45.73V321.872c5.04-22.874 23.604-40.099 45.609-40.099 3.46 0 6.913.352 10.049 1.403 15.402 6.681 26.098 23.21 26.098 42.562z"/><path fill="#2D8DFF" d="M354.093 362.42c0 14.462-10.409 26.102-23.341 26.102-12.931 0-23.34-11.64-23.34-26.102 0-2.116.316-4.232.631-5.996 2.523-11.287 11.67-20.105 22.709-20.105 1.893 0 3.47.353 5.047.705 10.724 2.822 18.294 13.051 18.294 25.396z"/><path fill="#0FF" d="M348.739 358.188c0 12.698-9.147 22.575-20.186 22.575-11.355 0-20.186-10.229-20.186-22.575v-1.763c2.523-11.288 11.67-20.106 22.709-20.106 1.893 0 3.47.353 5.047.706 7.254 3.527 12.616 11.64 12.616 21.163z"/></g><defs><filter id="filter0_d" width="1152.9" height="987.004" x="-82.624" y="39.911" color-interpolation-filters="sRGB" filterUnits="userSpaceOnUse"><feFlood flood-opacity="0" result="BackgroundImageFix"/><feColorMatrix in="SourceAlpha" values="0 0 0 0 0 0 0 0 0 0 0 0 0 0 0 0 0 0 127 0"/><feOffset dy="2"/><feGaussianBlur stdDeviation="1"/><feColorMatrix values="0 0 0 0 0 0 0 0 0 0 0 0 0 0 0 0 0 0 0.25 0"/><feBlend in2="BackgroundImageFix" result="effect1_dropShadow"/><feBlend in="SourceGraphic" in2="effect1_dropShadow" result="shape"/></filter><filter id="filter1_d" width="2086.14" height="1602.48" x="-269.375" y="341.896" color-interpolation-filters="sRGB" filterUnits="userSpaceOnUse"><feFlood flood-opacity="0" result="BackgroundImageFix"/><feColorMatrix in="SourceAlpha" values="0 0 0 0 0 0 0 0 0 0 0 0 0 0 0 0 0 0 127 0"/><feOffset dy="2"/><feGaussianBlur stdDeviation="1"/><feColorMatrix values="0 0 0 0 0 0 0 0 0 0 0 0 0 0 0 0 0 0 0.25 0"/><feBlend in2="BackgroundImageFix" result="effect1_dropShadow"/><feBlend in="SourceGraphic" in2="effect1_dropShadow" result="shape"/></filter><filter id="filter2_f" width="206.708" height="136.744" x="735.534" y="206.093" color-interpolation-filters="sRGB" filterUnits="userSpaceOnUse"><feFlood flood-opacity="0" result="BackgroundImageFix"/><feBlend in="SourceGraphic" in2="BackgroundImageFix" result="shape"/><feGaussianBlur result="effect1_foregroundBlur" stdDeviation="2"/></filter><filter id="filter3_d" width="158.39" height="114.194" x="16.981" y="309.691" color-interpolation-filters="sRGB" filterUnits="userSpaceOnUse"><feFlood flood-opacity="0" result="BackgroundImageFix"/><feColorMatrix in="SourceAlpha" values="0 0 0 0 0 0 0 0 0 0 0 0 0 0 0 0 0 0 127 0"/><feOffset dy="3"/><feGaussianBlur stdDeviation="1"/><feColorMatrix values="0 0 0 0 0 0 0 0 0 0 0 0 0 0 0 0 0 0 0.25 0"/><feBlend in2="BackgroundImageFix" result="effect1_dropShadow"/><feBlend in="SourceGraphic" in2="effect1_dropShadow" result="shape"/></filter><filter id="filter4_f" width="959.573" height="627.273" x="-4.452" y="326.876" color-interpolation-filters="sRGB" filterUnits="userSpaceOnUse"><feFlood flood-opacity="0" result="BackgroundImageFix"/><feBlend in="SourceGraphic" in2="BackgroundImageFix" result="shape"/><feGaussianBlur result="effect1_foregroundBlur" stdDeviation="1"/></filter><filter id="filter5_f" width="232.835" height="151.562" x="158.22" y="183.068" color-interpolation-filters="sRGB" filterUnits="userSpaceOnUse"><feFlood flood-opacity="0" result="BackgroundImageFix"/><feBlend in="SourceGraphic" in2="BackgroundImageFix" result="shape"/><feGaussianBlur result="effect1_foregroundBlur" stdDeviation="1"/></filter><filter id="filter6_f" width="178.598" height="118.717" x="564.265" y="77.549" color-interpolation-filters="sRGB" filterUnits="userSpaceOnUse"><feFlood flood-opacity="0" result="BackgroundImageFix"/><feBlend in="SourceGraphic" in2="BackgroundImageFix" result="shape"/><feGaussianBlur result="effect1_foregroundBlur" stdDeviation="1"/></filter><linearGradient id="paint0_linear" x1="501.494" x2="1802.56" y1="180.104" y2="990.429" gradientUnits="userSpaceOnUse"><stop stop-color="#0089EC"/><stop offset="1" stop-color="#0094FF" stop-opacity=".6"/></linearGradient><linearGradient id="paint1_linear" x1="736.569" x2="3207.73" y1="608.956" y2="2148.3" gradientUnits="userSpaceOnUse"><stop stop-color="#0089EC"/><stop offset="1" stop-color="#0094FF" stop-opacity=".6"/></linearGradient><linearGradient id="paint2_linear" x1="930.357" x2="891.322" y1="291.22" y2="352.719" gradientUnits="userSpaceOnUse"><stop stop-color="#151414"/><stop offset="1" stop-color="#3D3D3D" stop-opacity=".7"/></linearGradient><linearGradient id="paint3_linear" x1="794.729" x2="816.184" y1="206.698" y2="117.744" gradientUnits="userSpaceOnUse"><stop stop-color="#9F9F9F"/><stop offset="1" stop-color="#F5F5F5"/></linearGradient><linearGradient id="paint4_linear" x1="917.74" x2="917.74" y1="197.879" y2="305.46" gradientUnits="userSpaceOnUse"><stop stop-color="#0068E9"/><stop offset="1" stop-color="#0057C4"/></linearGradient><linearGradient id="paint5_linear" x1="840.465" x2="906.695" y1="144.971" y2="189.009" gradientUnits="userSpaceOnUse"><stop stop-color="#0093FF"/><stop offset="1" stop-color="#2C4CAD"/></linearGradient><linearGradient id="paint6_linear" x1="769.993" x2="769.993" y1="143.152" y2="256.948" gradientUnits="userSpaceOnUse"><stop stop-color="#fff"/><stop offset="1" stop-color="#BEBEBE"/></linearGradient><linearGradient id="paint7_linear" x1="121.33" x2="66.364" y1="224.204" y2="203.458" gradientUnits="userSpaceOnUse"><stop stop-color="#002F5B"/><stop offset="1" stop-color="#004381" stop-opacity=".5"/></linearGradient><linearGradient id="paint8_linear" x1="173.371" x2="15.684" y1="392.402" y2="384.528" gradientUnits="userSpaceOnUse"><stop stop-color="#037D00"/><stop offset=".503" stop-color="#07FF00"/><stop offset="1" stop-color="#057C02"/></linearGradient><linearGradient id="paint9_linear" x1="96.176" x2="96.176" y1="309.691" y2="405.752" gradientUnits="userSpaceOnUse"><stop stop-color="#1DC300"/><stop offset="1" stop-color="#38FF15"/></linearGradient><linearGradient id="paint10_linear" x1="151.576" x2="48.12" y1="108.555" y2="370.479" gradientUnits="userSpaceOnUse"><stop stop-color="#315DFF"/><stop offset=".276" stop-color="#0075FF"/><stop offset=".497" stop-color="#1ABAFF"/><stop offset=".746" stop-color="#007CEF"/><stop offset="1" stop-color="#032399"/></linearGradient><linearGradient id="paint11_linear" x1="106.403" x2="112.688" y1="148.082" y2="367.58" gradientUnits="userSpaceOnUse"><stop stop-color="#00B3FF"/><stop offset=".558" stop-color="#06F"/><stop offset="1" stop-color="#0047D0"/></linearGradient><linearGradient id="paint12_linear" x1="116.161" x2="116.161" y1="147.723" y2="271.837" gradientUnits="userSpaceOnUse"><stop stop-color="#0031A7"/><stop offset=".503" stop-color="#0043C6"/><stop offset="1" stop-color="#0094FF"/></linearGradient><linearGradient id="paint13_linear" x1="447.649" x2="447.649" y1="117.162" y2="482.7" gradientUnits="userSpaceOnUse"><stop stop-color="#0057FF"/><stop offset="1" stop-color="#00EDFC"/></linearGradient><linearGradient id="paint14_linear" x1="591.253" x2="591.253" y1="145.517" y2="482.702" gradientUnits="userSpaceOnUse"><stop stop-color="#00B0FF"/><stop offset="1" stop-color="#00A6FF"/></linearGradient><linearGradient id="paint15_linear" x1="598.7" x2="598.7" y1="114.76" y2="224.371" gradientUnits="userSpaceOnUse"><stop stop-color="#005DC9"/><stop offset="1" stop-color="#00F0FF"/></linearGradient><linearGradient id="paint16_linear" x1="461.96" x2="602.776" y1="61.198" y2="165.619" gradientUnits="userSpaceOnUse"><stop stop-color="#00C2FF"/><stop offset="1" stop-color="#1F8FFF"/></linearGradient><linearGradient id="paint17_linear" x1="630.581" x2="630.581" y1="312.338" y2="393.85" gradientUnits="userSpaceOnUse"><stop stop-color="#025DC8"/><stop offset="1" stop-color="#0075FF"/></linearGradient><linearGradient id="paint18_linear" x1="553.842" x2="553.842" y1="361.953" y2="443.592" gradientUnits="userSpaceOnUse"><stop stop-color="#025DC8"/><stop offset="1" stop-color="#0075FF"/></linearGradient><linearGradient id="paint19_linear" x1="446.182" x2="446.182" y1="294.873" y2="436.126" gradientUnits="userSpaceOnUse"><stop stop-color="#0094FF"/><stop offset="1" stop-color="#00C2FF"/></linearGradient><linearGradient id="paint20_linear" x1="592.721" x2="592.721" y1="336.892" y2="452.072" gradientUnits="userSpaceOnUse"><stop stop-color="#004DB3"/><stop offset="1" stop-color="#0094FF"/></linearGradient><linearGradient id="paint21_linear" x1="591.817" x2="591.817" y1="346.766" y2="415.114" gradientUnits="userSpaceOnUse"><stop stop-color="#0073FB"/><stop offset="1" stop-color="#0051AF"/></linearGradient></defs></svg>