<?xml version="1.0" encoding="utf-8"?>
<!-- Generator: Adobe Illustrator 19.0.0, SVG Export Plug-In . SVG Version: 6.00 Build 0)  -->
<svg version="1.1" id="Слой_1" xmlns="http://www.w3.org/2000/svg" xmlns:xlink="http://www.w3.org/1999/xlink" x="0px" y="0px"
	 viewBox="121 -121.7 465 258.7" style="enable-background:new 121 -121.7 465 258.7;" xml:space="preserve" fill="#007cff">
<g>
	<path d="M321.5,110.5H317V-90.6c0-3.2-2.6-5.7-5.7-5.7h-73c-3.2,0-5.7,2.6-5.7,5.7v201.1h-7.7v-222.8c0-2-1-3.8-2.7-4.9
		c-1.7-1.1-3.8-1.2-5.5-0.3l-11.8,5.7l-11.5,5.5l-16.1,7.7c-2,1-3.3,3-3.3,5.2v43.2L143-30.9c-1.7,1-2.7,2.9-2.7,4.9v136.5h-8.3
		c-3.2,0-5.7,2.6-5.7,5.7s2.6,5.7,5.7,5.7h14h73h19.1h73h10.2c3.2,0,5.7-2.6,5.7-5.7S324.6,110.5,321.5,110.5z M213.4,110.5h-61.5
		V-22.8l30.9-19.4c1.7-1,2.7-2.9,2.7-4.9v-42.8l27.9-13.4V110.5z M305.5,110.5h-25H269h-25V6.1c0.2,0,0.4,0,0.6,0h60.3
		c0.2,0,0.4,0,0.6,0V110.5z M305.5-5.3c-0.2,0-0.4,0-0.6,0h-60.3c-0.2,0-0.4,0-0.6,0v-79.6h61.5V-5.3z"/>
	<path d="M170.3,0.9c-3.2,0-5.7,2.6-5.7,5.7v7.1c0,3.2,2.6,5.7,5.7,5.7s5.7-2.6,5.7-5.7V6.6C176,3.4,173.4,0.9,170.3,0.9z"/>
	<path d="M194.2,19.4c3.2,0,5.7-2.6,5.7-5.7V6.6c0-3.2-2.6-5.7-5.7-5.7c-3.2,0-5.7,2.6-5.7,5.7v7.1
		C188.5,16.8,191.1,19.4,194.2,19.4z"/>
	<path d="M170.3,25.6c-3.2,0-5.7,2.6-5.7,5.7v7c0,3.2,2.6,5.7,5.7,5.7s5.7-2.6,5.7-5.7v-7C176,28.1,173.4,25.6,170.3,25.6z"/>
	<path d="M194.2,44.1c3.2,0,5.7-2.6,5.7-5.7v-7c0-3.2-2.6-5.7-5.7-5.7c-3.2,0-5.7,2.6-5.7,5.7v7C188.5,41.5,191.1,44.1,194.2,44.1z"
		/>
	<path d="M170.3,50.2c-3.2,0-5.7,2.6-5.7,5.7v7c0,3.2,2.6,5.7,5.7,5.7s5.7-2.6,5.7-5.7v-7C176,52.8,173.4,50.2,170.3,50.2z"/>
	<path d="M194.2,68.8c3.2,0,5.7-2.6,5.7-5.7v-7c0-3.2-2.6-5.7-5.7-5.7c-3.2,0-5.7,2.6-5.7,5.7v7C188.5,66.2,191.1,68.8,194.2,68.8z"
		/>
	<path d="M170.3,74.9c-3.2,0-5.7,2.6-5.7,5.7v7.1c0,3.2,2.6,5.7,5.7,5.7s5.7-2.6,5.7-5.7v-7.1C176,77.5,173.4,74.9,170.3,74.9z"/>
	<path d="M194.2,93.4c3.2,0,5.7-2.6,5.7-5.7v-7.1c0-3.2-2.6-5.7-5.7-5.7c-3.2,0-5.7,2.6-5.7,5.7v7.1
		C188.5,90.9,191.1,93.4,194.2,93.4z"/>
	<rect x="256.7" y="-65.2" width="12.2" height="12.2"/>
	<rect x="280.6" y="-65.2" width="12.2" height="12.2"/>
	<rect x="256.7" y="-38.6" width="12.2" height="12.2"/>
	<rect x="280.6" y="-38.6" width="12.2" height="12.2"/>
	<rect x="256.7" y="19.5" width="12.2" height="12.2"/>
	<rect x="280.6" y="19.5" width="12.2" height="12.2"/>
	<rect x="256.7" y="44.1" width="12.2" height="12.2"/>
	<rect x="280.6" y="44.1" width="12.2" height="12.2"/>
	<rect x="256.7" y="68.8" width="12.2" height="12.2"/>
	<rect x="280.6" y="68.8" width="12.2" height="12.2"/>
	<path d="M564.8,77l-17.5-7l-7-17.5c-0.6-1.4-2-2.4-3.5-2.4h-26.6c-2.1,0-3.8,1.7-3.8,3.8v38h-7.6V27.4c0-2.1-1.7-3.8-3.8-3.8H343.1
		c-2.1,0-3.8,1.7-3.8,3.8v68.4c0,2.1,1.7,3.8,3.8,3.8h5.9c-1.3,2.2-2.1,4.8-2.1,7.6c0,8.4,6.8,15.2,15.2,15.2
		c5.6,0,10.5-3.1,13.1-7.6h11.7c2.6,4.5,7.5,7.6,13.1,7.6c8.4,0,15.2-6.8,15.2-15.2c0-2.8-0.8-5.4-2.1-7.6h53.5
		c-1.3,2.2-2.1,4.8-2.1,7.6c0,8.4,6.8,15.2,15.2,15.2c5.6,0,10.5-3.1,13.1-7.6h17.2v0h9.7c2.6,4.5,7.5,7.6,13.1,7.6
		c5.6,0,10.5-3.1,13.1-7.6h17.2c2.1,0,3.8-1.7,3.8-3.8V80.5C567.2,79,566.2,77.6,564.8,77z M346.9,31.2h144.3v60.8h0H346.9V31.2z
		 M362.1,114.7c-4.2,0-7.6-3.4-7.6-7.6c0-4.2,3.4-7.6,7.6-7.6c4.2,0,7.6,3.4,7.6,7.6C369.6,111.3,366.2,114.7,362.1,114.7z
		 M377.2,107.1c0-2.8-0.8-5.4-2.1-7.6h11.7c-1.3,2.2-2.1,4.8-2.1,7.6H377.2z M407.6,107.1c0,4.2-3.4,7.6-7.6,7.6
		c-4.2,0-7.6-3.4-7.6-7.6c0-4.2,3.4-7.6,7.6-7.6C404.2,99.5,407.6,102.9,407.6,107.1z M479.8,114.7c-4.2,0-7.6-3.4-7.6-7.6
		c0-4.2,3.4-7.6,7.6-7.6c4.2,0,7.6,3.4,7.6,7.6C487.4,111.3,484,114.7,479.8,114.7z M492.9,99.5h2.1c0,0,0,0,0,0v0h11.4v7.6H495
		C495,104.4,494.2,101.8,492.9,99.5z M533,114.7c-4.2,0-7.6-3.4-7.6-7.6c0-4.2,3.4-7.6,7.6-7.6c4.2,0,7.6,3.4,7.6,7.6
		C540.6,111.3,537.2,114.7,533,114.7z M559.6,107.1h-11.4c0-8.4-6.8-15.2-15.2-15.2c-8.4,0-15.2,6.8-15.2,15.2H514V57.8h20.2
		l6.6,16.6c0.4,1,1.2,1.7,2.1,2.1l16.6,6.6V107.1z"/>
	<rect x="354.5" y="38.8" width="7.6" height="45.6"/>
	<rect x="369.6" y="38.8" width="7.6" height="45.6"/>
	<rect x="384.8" y="38.8" width="7.6" height="45.6"/>
	<rect x="400" y="38.8" width="7.6" height="45.6"/>
	<rect x="415.2" y="38.8" width="7.6" height="45.6"/>
	<rect x="430.4" y="38.8" width="7.6" height="45.6"/>
	<rect x="445.6" y="38.8" width="7.6" height="45.6"/>
	<rect x="460.8" y="38.8" width="7.6" height="45.6"/>
	<rect x="476" y="38.8" width="7.6" height="45.6"/>
	<rect x="339.3" y="-6.8" width="11.4" height="7.6"/>
	<rect x="358.3" y="-6.8" width="34.2" height="7.6"/>
	<rect x="369.6" y="8.4" width="57" height="7.6"/>
</g>
</svg>
