<svg xmlns="http://www.w3.org/2000/svg" width="1920" height="995" fill="none"><g filter="url(#filter0_d)"><path fill="url(#paint0_linear)" d="M-407.71 876.91c93.242 46.246 1564.79 775.65 1632.25 780.17 21.71 1.45 28.59-19.12 27.79-43.58-12.85-14.57-26.99-23.84-41.09-23.84 0-103.28 39.31-30.21 41.09 23.84 46.85 53.11 76.41 176.52 23.49 176.52-67.43 0 96.88 146.24-17.09 104.46C1146.68 1853.4-716.535 922.273-776.519 891.706c-1.803-.918-.494-1.387 1.219-2.464l928.212-583.911a6.999 6.999 0 0 1 7.457.002l858.091 540.299c5.49 3.455 3.74 11.867-2.67 12.844l-44.246 6.746a6.997 6.997 0 0 0-4.798 3.081l-29.617 45.157a3 3 0 0 1-4.119.886l-709.646-451.51a7 7 0 0 0-7.595.052l-623.73 408.856c-1.939 1.271-1.826 4.136.251 5.166z"/><path stroke="#00F0FF" stroke-width=".75" d="M1211.24 1589.66c65.53 0 132.01 200.36 64.58 200.36-67.43 0 96.88 146.24-17.09 104.46C1146.68 1853.4-716.535 922.273-776.519 891.706c-1.803-.918-.494-1.387 1.219-2.465l928.212-583.91a6.999 6.999 0 0 1 7.457.002l858.091 540.299c5.49 3.455 3.74 11.867-2.67 12.844l-44.246 6.746a6.997 6.997 0 0 0-4.798 3.081l-29.617 45.157a3 3 0 0 1-4.119.886l-709.646-451.51a7 7 0 0 0-7.595.052l-623.73 408.856c-1.939 1.271-1.826 4.136.251 5.166 93.242 46.246 1564.79 775.65 1632.25 780.17 69.66 4.67-13.3-217.46-13.3-67.42zm0 0c-53.67 0 122.52 4.75 0 0z"/></g><path fill="url(#paint1_linear)" fill-opacity=".8" d="M253.309 172.079L98.758 270.841l45.734 29.982 152.974-100.526-44.157-28.218z" filter="url(#filter1_f)"/><path stroke="#fff" stroke-width="2" d="M876.241 293.772L648.484 147.895" filter="url(#filter2_f)"/><path stroke="#fff" stroke-width="2.5" d="M296.818 155.204L470.054 42.583" filter="url(#filter3_f)"/><path stroke="#fff" stroke-width=".5" d="M876.241 293.772L628.658 136.809"/><g filter="url(#filter4_d)"><path fill="url(#paint2_linear)" d="M160.267 301.986c-.832.531-519.415 331.557-482.767 334.014H-495c-35.5 0 285.999-106.5 225.999-128.5-55.772-20.45 81.454-116.929 102.381-130.028 1.674-1.047 3.585-2.052 5.277-3.069L147.904 188.5 458.143 2a6.997 6.997 0 0 1 3.606-1H1930c3.87 0 7 3.134 7 7v72.89c0 1.657-1.34 3-3 3H495.016a6.998 6.998 0 0 0-3.838 1.146L160.284 301.975l-.007.005-.009.006h-.001z"/><path stroke="#00F0FF" stroke-width=".75" d="M-322.5 636c-36.665-2.458 482.432-333.8 482.768-334.014l.016-.011L491.178 85.036a6.998 6.998 0 0 1 3.838-1.146H1934c1.66 0 3-1.343 3-3V8c0-3.866-3.13-7-7-7H461.749a6.997 6.997 0 0 0-3.606 1L147.904 188.5l-309.247 185.903c-1.692 1.017-3.603 2.022-5.277 3.069-20.927 13.099-158.153 109.578-102.381 130.028C-209.001 529.5-530.5 636-495 636h172.5zm0 0c-28.253 0 64.5 2.5 0 0zm0 0c0-79 36.677 2.459 0 0z"/></g><path fill="#414141" d="M237.425 133.552l-2.152 24.97 34.792 22.956 1.793-25.373-34.433-22.553z"/><path fill="#625757" d="M285.848 140.402l-34.075-22.554-14.347 15.707 34.433 22.554 13.989-15.707z"/><path fill="#271C1C" d="M261.099 133.958l1.793 1.208s4.305 3.222 5.022 6.847c1.076 3.222-4.304 8.457-4.304 8.457l-.359 6.042-1.793 1.611.358-8.458s-3.586-10.874-3.228-11.277c0-.805 2.511-4.43 2.511-4.43z"/><path fill="#3A2929" d="M261.815 149.662s5.739-10.874 1.076-14.096c-4.663-3.222-8.25-6.041-10.761-2.013-2.51 3.624-4.304 6.846-4.304 6.846l13.989 9.263z"/><path fill="#291E1E" d="M247.825 140.396l-.358 8.458 13.988 9.263.359-8.457-13.989-9.264z"/><path fill="#1D1616" d="M259.664 130.739c-3.228-1.611-7.174.805-8.967 4.833-1.794 4.43-.359 9.263 2.869 10.874 3.228 2.014 7.532 0 9.326-4.833 1.435-4.43 0-9.263-3.228-10.874zm1.076 10.069c-1.076 3.221-3.946 4.43-6.456 3.221-2.152-1.208-3.229-4.43-2.152-7.652 1.076-2.819 3.945-4.43 6.097-3.222 2.511 1.209 3.587 4.431 2.511 7.653z"/><path fill="#1D1616" d="M257.872 135.565c-1.435-.806-2.87.403-3.587 2.014-.718 1.611 0 3.624 1.076 4.43 1.435.805 3.228 0 3.587-2.014.717-1.611.358-3.625-1.076-4.43z"/><path fill="#322424" d="M261.455 162.954l.717-9.263 6.815 4.43-.717 9.263-6.815-4.43z"/><path fill="#271C1C" d="M263.607 161.746l.359-6.847-1.794-1.208-.717 9.263 6.815 4.43v-2.416l-4.663-3.222z"/><path fill="#503939" d="M260.021 205.243l-47.704-31.816-115.136 73.299 46.987 31.816 115.853-73.299z"/><path fill="url(#paint3_linear)" d="M282.62 105.764l-51.65-35.038c-.359-.403-.717-.403-1.076-.806-1.435-.402-3.587 0-7.891 3.222-7.173 5.639-30.129 20.137-30.129 20.137-7.173 6.444-6.456 18.527-6.456 18.527v30.608l.359 41.482 20.086-12.887-5.739 21.748 38.02 26.178 8.249-52.357-2.152-37.857 31.205-19.735 7.174-3.222z"/><path fill="#352020" d="M280.826 193.163l-23.673-16.512 22.955-12.485s5.022 4.43 6.098 6.443c1.076 2.82-5.38 22.554-5.38 22.554z"/><path fill="#352E2E" d="M266.12 180.273l-.718-.403c-.358 0-.717-.403-.717-.403-4.304-.805-9.684 5.236-11.119 14.499-1.435 8.055 0 15.707 3.228 17.721l8.608 5.638 9.326-31.011-8.608-6.041z"/><path fill="#625757" d="M277.597 203.231c-1.794 8.86-6.457 15.304-10.761 14.499-4.304-.806-6.097-8.861-4.663-17.721 1.794-8.86 6.457-15.304 10.761-14.499 4.304.806 6.097 8.861 4.663 17.721z"/><path fill="#CED9E3" d="M274.012 202.428c-.717 4.832-3.586 8.054-5.738 7.652-2.152-.403-3.229-4.833-2.511-9.666.717-4.833 3.587-8.055 5.739-7.652 2.152.805 3.228 4.833 2.51 9.666z"/><path fill="#332C2D" d="M271.501 192.761h-1.435c1.793.805 2.869 4.833 2.152 9.263-.717 3.624-2.921 6.421-4.714 7.227 0 0 .769.425.769.828 2.152.402 4.662-2.82 5.739-7.652.717-4.833-.359-8.861-2.511-9.666z"/><path fill="url(#paint4_linear)" d="M97.181 150.468v96.658l46.987 31.414v-97.061l-46.987-31.011z"/><path fill="#00FB28" d="M144.168 209.267l-46.987-29.4v48.732l46.987 31.011v-50.343z"/><path fill="#362121" d="M183.623 263.236l-26.184-17.318 15.065-14.901 10.402 2.013s7.532 8.055 7.891 9.263c.358 1.209-7.174 20.943-7.174 20.943z"/><path fill="url(#paint5_linear)" d="M231.327 125.499l-87.159 56.383-46.987-31.011 86.801-55.98 47.345 30.608z"/><path fill="url(#paint6_linear)" d="M283.697 107.777l5.381 28.192s5.38 25.373 6.456 31.011c1.435 6.444-1.793 11.68-3.946 16.513-1.793 2.416-2.869 4.43-5.38 6.041-4.663 3.222-6.097 4.027-6.097 4.027s-.359-22.956-10.043-16.11c-10.761 7.653-10.761 28.192-10.761 28.192l-21.162 13.291V147.246s-.717-12.082 6.098-18.526c0 0 22.597-14.902 29.77-20.137 9.326-7.25 9.684-.806 9.684-.806zm-27.259 53.565l28.694-20.137-5.739-31.817-22.955 15.707v36.247z"/><path fill="#352E2E" d="M170.35 243.908l-.717-.403c-.359 0-.718-.403-.718-.403-4.304-.805-9.684 5.236-11.119 14.499-1.434 8.055 0 15.707 3.228 17.72l8.609 5.639 9.325-31.011-8.608-6.041z"/><path fill="#625757" d="M181.47 266.858c-1.794 8.86-6.457 15.304-10.761 14.499-4.304-.806-6.097-8.861-4.663-17.721 1.794-8.86 6.457-15.304 10.761-14.499 4.304.806 6.456 8.861 4.663 17.721z"/><path fill="#CED9E3" d="M177.884 266.059c-.718 4.833-3.587 8.055-5.739 7.652-2.152-.403-3.228-4.833-2.511-9.666.717-4.833 3.587-8.054 5.739-7.652 2.511.403 3.587 4.833 2.511 9.666z"/><path fill="#332C2D" d="M175.732 256.394h-1.434c1.793.806 2.869 4.833 2.152 9.263-.718 3.625-2.511 6.847-4.304 7.652 0 0 .358 0 .358.403 2.152.403 4.663-2.819 5.739-7.652.717-4.833-.359-9.263-2.511-9.666z"/><path fill="#2C4CAD" d="M144.17 181.883v96.658l20.086-12.485c.718-8.054 3.229-18.123 9.326-22.15 6.098-3.625 8.608 3.624 9.326 10.068l48.421-30.608V125.5l-87.159 56.383z"/><path fill="#3C2A2A" d="M164.258 266.059l-20.086 12.888v10.068l19.369-12.485c0-.402 0-4.833.717-10.471zM182.908 253.977c.717 4.833.717 9.263.717 9.263l76.04-47.926.359-10.068-77.116 48.731z"/><path fill="#29CB00" d="M144.17 209.674l87.159-54.773v51.551l-87.159 53.162v-49.94z"/><path fill="#503939" d="M97.181 247.135v10.472l46.987 31.011v-10.069l-46.987-31.414z"/><path fill="#595959" d="M259.305 174.232v-6.444l6.815-4.832v8.054l-6.815 4.431v-1.209z"/><path fill="#4D3636" d="M259.663 167.387s-1.435.403-1.435 2.416v4.43s.359 1.611 1.435.806c1.076-.806.717-2.014.717-2.014v-4.833s-.359-1.208-.717-.805z"/><path fill="#2D2121" d="M260.381 168.192s-.358-1.208-.717-.805v4.43s.359 1.208-.717 2.014c0 0-.359 0-.359.402 0 0 .359 1.611 1.435.806 1.076-.806.717-2.014.717-2.014l-.359-4.833z"/><path fill="#9B330C" d="M148.117 264.442v2.819l.717 1.208 5.022-6.041-1.076-.806-4.663 2.82z"/><path fill="#D0671A" d="M148.825 265.641v2.819l5.021-3.222v-2.819l-5.021 3.222z"/><path fill="#9B330C" d="M242.087 205.241v2.819l1.076.805 4.663-5.638-1.076-1.208-4.663 3.222z"/><path fill="#D0671A" d="M243.192 206.483v2.417l4.663-2.82v-2.819l-4.663 3.222z"/><path fill="#BDEBFD" d="M97.181 247.128v-5.638l7.891 5.638 3.228 7.652-11.119-7.652zM130.538 269.276l5.022-2.417 8.608 6.041v5.639l-13.63-9.263z"/><path fill="#D0671A" d="M100.051 243.503l.717 6.042-3.587-2.417v-5.638l2.87 2.013zM140.941 270.891l-1.076 4.833 4.304 2.819v-5.638l-3.228-2.014z"/><path fill="#6AB8F1" d="M108.657 232.224v-4.43l6.815 4.43v4.43l-6.815-4.43zM121.213 239.88v-4.43l6.815 4.43v4.43l-6.815-4.43z"/><path fill="#2D2121" d="M113.68 231.017v4.43l1.793 1.208v-4.43l-1.793-1.208zM121.213 235.45v4.43l1.794 1.208v-4.43l-1.794-1.208z"/><path fill="#656565" d="M97.181 250.351l46.987 31.817v6.444L97.181 257.6v-7.249z"/><path fill="#2C4CAD" d="M105.075 247.135l30.487 19.735-5.021 2.416-22.238-14.499-3.228-7.652z"/><path fill="#2C4CAD" d="M119.062 164.567h-1.076v91.423h1.076v-91.423z"/><path stroke="#F2FDED" stroke-width="3" d="M-379.5 494.5c45.57 20.458-12.874 120.829-26.347 142.761-1.462 2.381-4.981 2.845-5.456.092C-419.665 588.827 90.808 293.226 103 283" filter="url(#filter5_f)"/><path stroke="#fff" stroke-width=".5" d="M301.535 153.439L471.5 43.499h1446"/><path stroke="#F2FDED" stroke-width="3" d="M1940.81 43.59c-156.03.064 88.23.41 88.34.41h.01c144.05-.089-1519.728-.97-1558.16-1" filter="url(#filter6_f)"/><path fill="#B47E47" d="M611.872 295.037l122.331-79.36-8.238-5.316"/><path fill="url(#paint7_linear)" d="M611.872 174.163v258.205L777.426 539.7V281.368L611.872 174.163z"/><path fill="url(#paint8_linear)" d="M777.426 281.371v258.332l46.269-29.998v-5.822l27.649-17.847 4.401 2.912 43.336-28.099V202.517l-121.655 78.854z"/><path fill="#B6CA48" d="M899.08 202.517L733.413 95.311l-121.541 78.854 165.554 107.206 121.654-78.854z"/><path fill="#0070F3" d="M741.313 87.712l-115.786 74.93v-13.67l115.786-74.93v13.67z"/><path fill="#0093E9" d="M741.312 74.042v13.67l162.282 105.18v-13.669L741.312 74.042z"/><path fill="#0469D9" d="M604.875 148.344v21.264L777.426 281.37v-21.264L604.875 148.344z"/><path fill="url(#paint9_linear)" d="M913.975 171.761v21.137l-136.551 88.473v-21.264l136.551-88.346z"/><path fill="#00F0FF" d="M741.311 60l172.664 111.762-136.551 88.347-172.551-111.762L741.311 60zm151.786 112.395L741.311 74.049l-115.786 74.93 151.786 98.346 115.786-74.93z"/><path fill="url(#paint10_linear)" d="M741.313 87.718l141.178 91.511-105.178 68.095-141.291-91.511 105.291-68.095z"/><path fill="#00A3FF" d="M827.758 273.774v59.995l-20.764 13.417v-59.995l20.764-13.417z"/><path fill="#0361CE" d="M825.165 279.077v24.176l-15.461 9.999v-24.175l15.461-10z"/><path fill="#056CE5" d="M825.161 307.822v24.175l-15.461 9.999v-24.175l15.461-9.999z"/><path fill="#00A3FF" d="M873.574 244.165v59.994l-20.765 13.417v-59.995l20.765-13.416z"/><path fill="#025DC8" d="M870.983 249.34v24.301l-15.461 10v-24.302l15.461-9.999z"/><path fill="#0670EB" d="M870.979 278.078v24.301l-15.46 9.999v-24.301l15.46-9.999z"/><path fill="url(#paint11_linear)" d="M894.227 369.338v59.995l-33.291 21.517v-59.995l33.291-21.517z"/><path fill="url(#paint12_linear)" d="M817.487 418.953v60.121l-33.291 21.517v-59.994l33.291-21.644z"/><path fill="url(#paint13_linear)" d="M630.38 351.873v59.995l125.604 81.258v-59.994L630.38 351.873z"/><path fill="#007AD2" d="M689.741 137.835l-16.363 10.505v-6.961l16.363-10.632v7.088z"/><path fill="#0051B1" d="M689.74 130.747v7.088l21.78 14.049v-6.961l-21.78-14.176z"/><path fill="#0098DD" d="M662.657 141.001v11.012l27.084 17.593v-11.012l-27.084-17.593z"/><path fill="#007AD2" d="M716.825 141.001v11.012l-27.085 17.593v-11.012l27.085-17.593z"/><path fill="#00F0FF" d="M689.74 123.41l27.085 17.594-27.085 17.593-27.084-17.593 27.084-17.594zm16.364 17.973l-16.364-10.632-16.363 10.632 16.363 10.632 16.364-10.632z"/><path fill="#0156C6" d="M689.742 137.84l10.834 7.088-10.834 6.961-10.947-7.088 10.947-6.961z"/><path fill="url(#paint14_linear)" d="M823.696 414.777c.113 31.389.339 62.905.452 94.295 10.495-6.708 21.103-13.416 31.598-20.125v-95.055l-32.05 20.885z"/><path fill="url(#paint15_linear)" d="M848.296 403.766l.339 55.312c-6.546 4.303-13.091 8.733-19.637 13.036v-55.817a829.6 829.6 0 0 0 19.298-12.531z"/><path fill="#007CFF" d="M690.669 555.932l12.616 8.112v-5.643l-12.616-8.113v5.644zM690.665 550.288v5.644l-17.347 10.934v-5.643l17.347-10.935z"/><path fill="#3787FF" d="M711.798 558.406v8.466l-21.447 13.756v-8.466l21.447-13.756z"/><path fill="#139CFF" d="M669.22 558.406v8.466l21.132 13.756v-8.466l-21.132-13.756z"/><path fill="#00E1F4" d="M690.352 544.644L668.904 558.4l21.448 13.756L711.8 558.4l-21.448-13.756zM677.736 558.4l12.932-8.466 12.931 8.466-12.931 8.465-12.932-8.465z"/><path fill="#113661" d="M690.668 555.929l-8.832 5.291 8.832 5.643 8.516-5.643-8.516-5.291z"/><path fill="#0345A8" d="M695.711 470.573v91.355l-5.047 3.175v-91.356l5.047-3.174z"/><path fill="#06F" d="M685.621 470.568v91.356l5.047 3.174v-91.355l-5.047-3.175z"/><path fill="#61623B" d="M685.621 470.575l5.047-3.528 5.046 3.528-5.046 3.174-5.047-3.174z"/><path fill="#0345A8" d="M708.012 509.029v6.349l-5.046 3.175v-6.349l5.046-3.175z"/><path fill="#06F" d="M690.666 504.099v6.701l12.301 7.76v-6.349l-12.301-8.112z"/><path fill="#003C85" d="M690.667 504.086l5.047-3.175 12.301 8.113-5.047 3.174-12.301-8.112z"/><path fill="#0345A8" d="M708.014 492.436v16.93l-5.046 3.175V495.61l5.046-3.174z"/><path fill="#06F" d="M697.922 492.44v16.931l5.047 3.174v-16.931l-5.047-3.174z"/><path fill="#61623B" d="M697.92 492.445l5.046-3.175 5.047 3.175-5.047 3.174-5.046-3.174z"/><path fill="#06F" d="M673.317 498.435v6.349l5.047 3.174v-6.349l-5.047-3.174z"/><path fill="#0345A8" d="M690.664 493.85v6.349l-12.301 7.76v-6.349l12.301-7.76z"/><path fill="#1C344F" d="M690.666 493.851l-5.046-3.527-12.301 8.113 5.046 3.174 12.301-7.76z"/><path fill="#06F" d="M673.318 486.452v12.345l5.046 3.175v-12.346l-5.046-3.174z"/><path fill="#0048B4" d="M683.405 486.44v12.346l-5.047 3.174v-12.345l5.047-3.175z"/><path fill="#61623B" d="M683.417 486.441l-5.046-3.174-5.047 3.174 5.047 3.175 5.046-3.175z"/><path fill="#06F" d="M739.871 444.12c0 28.923-21.132 52.556-46.996 52.556s-46.996-23.633-46.996-52.556c0-4.233.315-8.466 1.262-12.346 5.046-22.927 23.655-40.21 45.734-40.21 3.469 0 6.939.353 10.093 1.411 21.133 4.938 36.903 26.101 36.903 51.145z"/><path fill="#00F0FF" stroke="#06F" stroke-width=".25" d="M729.053 435.653c0 25.341-18.25 45.73-40.878 45.73s-40.878-20.389-40.878-45.73V431.787c5.041-22.874 23.604-40.099 45.609-40.099 3.46 0 6.913.352 10.049 1.403 15.402 6.681 26.098 23.21 26.098 42.562z"/><path fill="#2D8DFF" d="M695.711 472.337c0 14.462-10.409 26.101-23.34 26.101-12.932 0-23.341-11.639-23.341-26.101 0-2.116.316-4.233.631-5.996 2.523-11.288 11.67-20.106 22.71-20.106 1.892 0 3.469.353 5.046.706 10.724 2.822 18.294 13.051 18.294 25.396z"/><path fill="#0FF" d="M690.364 468.104c0 12.698-9.147 22.575-20.186 22.575-11.355 0-20.186-10.229-20.186-22.575v-1.763c2.523-11.288 11.67-20.106 22.709-20.106 1.893 0 3.47.353 5.047.706 7.254 3.527 12.616 11.64 12.616 21.163z"/><path fill="#007CFF" d="M596.049 503.023l12.616 8.113v-5.643l-12.616-8.113v5.643zM596.041 497.367v5.644l-17.347 10.934v-5.643l17.347-10.935z"/><path fill="#3787FF" d="M617.18 505.483v8.466l-21.448 13.756v-8.465l21.448-13.757z"/><path fill="#139CFF" d="M574.6 505.483v8.466l21.132 13.756v-8.465L574.6 505.483z"/><path fill="#00E1F4" d="M595.732 491.729l-21.448 13.757 21.448 13.756 21.448-13.756-21.448-13.757zm-12.616 13.757l12.931-8.466 12.932 8.466-12.932 8.465-12.931-8.465z"/><path fill="#113661" d="M596.048 503.019l-8.831 5.29 8.831 5.644 8.516-5.644-8.516-5.29z"/><path fill="#0345A8" d="M601.09 417.656v91.355l-5.046 3.175V420.83l5.046-3.174z"/><path fill="#06F" d="M590.997 417.647v91.355l5.047 3.175v-91.356l-5.047-3.174z"/><path fill="#61623B" d="M590.998 417.652l5.046-3.527 5.047 3.527-5.047 3.175-5.046-3.175z"/><path fill="#0345A8" d="M613.391 456.104v6.35l-5.046 3.174v-6.349l5.046-3.175z"/><path fill="#06F" d="M596.044 451.169v6.702l12.301 7.76v-6.349l-12.301-8.113z"/><path fill="#003C85" d="M596.044 451.163l5.047-3.175 12.301 8.113-5.047 3.174-12.301-8.112z"/><path fill="#0345A8" d="M613.391 439.532v16.931l-5.046 3.174v-16.93l5.046-3.175z"/><path fill="#06F" d="M603.299 439.526v16.931l5.046 3.174V442.7l-5.046-3.174z"/><path fill="#61623B" d="M603.299 439.528l5.047-3.174 5.046 3.174-5.046 3.175-5.047-3.175z"/><path fill="#06F" d="M578.696 445.518v6.349l5.046 3.174v-6.349l-5.046-3.174z"/><path fill="#0345A8" d="M596.044 440.933v6.349l-12.301 7.76v-6.349l12.301-7.76z"/><path fill="#1C344F" d="M596.043 440.931l-5.046-3.527-12.301 8.113 5.046 3.174 12.301-7.76z"/><path fill="#06F" d="M578.696 433.52v12.345l5.047 3.174v-12.345l-5.047-3.174z"/><path fill="#0048B4" d="M588.79 433.524v12.346l-5.047 3.174v-12.345l5.047-3.175z"/><path fill="#61623B" d="M588.79 433.526l-5.047-3.175-5.046 3.175 5.046 3.174 5.047-3.174z"/><path fill="#06F" d="M645.247 391.205c0 28.924-21.132 52.556-46.996 52.556s-46.996-23.632-46.996-52.556c0-4.232.315-8.465 1.262-12.345 5.046-22.927 23.655-40.211 45.734-40.211 3.469 0 6.939.353 10.093 1.411 21.133 4.938 36.903 26.102 36.903 51.145z"/><path fill="#00F0FF" stroke="#06F" stroke-width=".25" d="M634.431 382.738c0 25.341-18.25 45.73-40.878 45.73s-40.878-20.389-40.878-45.73V378.872c5.04-22.874 23.604-40.099 45.609-40.099 3.46 0 6.913.352 10.049 1.403 15.402 6.681 26.098 23.21 26.098 42.562z"/><path fill="#2D8DFF" d="M601.093 419.42c0 14.462-10.409 26.102-23.341 26.102-12.931 0-23.34-11.64-23.34-26.102 0-2.116.316-4.232.631-5.996 2.523-11.287 11.67-20.105 22.709-20.105 1.893 0 3.47.353 5.047.705 10.724 2.822 18.294 13.051 18.294 25.396z"/><path fill="#0FF" d="M595.739 415.188c0 12.698-9.147 22.575-20.186 22.575-11.355 0-20.186-10.229-20.186-22.575v-1.763c2.523-11.288 11.67-20.106 22.709-20.106 1.893 0 3.47.353 5.047.706 7.254 3.527 12.616 11.64 12.616 21.163z"/><defs><filter id="filter0_d" width="2086.14" height="1602.48" x="-779.761" y="303.881" color-interpolation-filters="sRGB" filterUnits="userSpaceOnUse"><feFlood flood-opacity="0" result="BackgroundImageFix"/><feColorMatrix in="SourceAlpha" values="0 0 0 0 0 0 0 0 0 0 0 0 0 0 0 0 0 0 127 0"/><feOffset dy="2"/><feGaussianBlur stdDeviation="1"/><feColorMatrix values="0 0 0 0 0 0 0 0 0 0 0 0 0 0 0 0 0 0 0.25 0"/><feBlend in2="BackgroundImageFix" result="effect1_dropShadow"/><feBlend in="SourceGraphic" in2="effect1_dropShadow" result="shape"/></filter><filter id="filter1_f" width="206.708" height="136.744" x="94.758" y="168.079" color-interpolation-filters="sRGB" filterUnits="userSpaceOnUse"><feFlood flood-opacity="0" result="BackgroundImageFix"/><feBlend in="SourceGraphic" in2="BackgroundImageFix" result="shape"/><feGaussianBlur result="effect1_foregroundBlur" stdDeviation="2"/></filter><filter id="filter2_f" width="232.835" height="151.562" x="645.945" y="145.053" color-interpolation-filters="sRGB" filterUnits="userSpaceOnUse"><feFlood flood-opacity="0" result="BackgroundImageFix"/><feBlend in="SourceGraphic" in2="BackgroundImageFix" result="shape"/><feGaussianBlur result="effect1_foregroundBlur" stdDeviation="1"/></filter><filter id="filter3_f" width="178.598" height="118.717" x="294.137" y="39.535" color-interpolation-filters="sRGB" filterUnits="userSpaceOnUse"><feFlood flood-opacity="0" result="BackgroundImageFix"/><feBlend in="SourceGraphic" in2="BackgroundImageFix" result="shape"/><feGaussianBlur result="effect1_foregroundBlur" stdDeviation="1"/></filter><filter id="filter4_d" width="2439.5" height="639.75" x="-500.121" y=".625" color-interpolation-filters="sRGB" filterUnits="userSpaceOnUse"><feFlood flood-opacity="0" result="BackgroundImageFix"/><feColorMatrix in="SourceAlpha" values="0 0 0 0 0 0 0 0 0 0 0 0 0 0 0 0 0 0 127 0"/><feOffset dy="2"/><feGaussianBlur stdDeviation="1"/><feColorMatrix values="0 0 0 0 0 0 0 0 0 0 0 0 0 0 0 0 0 0 0.25 0"/><feBlend in2="BackgroundImageFix" result="effect1_dropShadow"/><feBlend in="SourceGraphic" in2="effect1_dropShadow" result="shape"/></filter><filter id="filter5_f" width="520.868" height="362.887" x="-414.904" y="279.851" color-interpolation-filters="sRGB" filterUnits="userSpaceOnUse"><feFlood flood-opacity="0" result="BackgroundImageFix"/><feBlend in="SourceGraphic" in2="BackgroundImageFix" result="shape"/><feGaussianBlur result="effect1_foregroundBlur" stdDeviation="1"/></filter><filter id="filter6_f" width="1571.73" height="8" x="468.999" y="39.5" color-interpolation-filters="sRGB" filterUnits="userSpaceOnUse"><feFlood flood-opacity="0" result="BackgroundImageFix"/><feBlend in="SourceGraphic" in2="BackgroundImageFix" result="shape"/><feGaussianBlur result="effect1_foregroundBlur" stdDeviation="1"/></filter><linearGradient id="paint0_linear" x1="300.431" x2="-2170.73" y1="570.941" y2="2110.29" gradientUnits="userSpaceOnUse"><stop stop-color="#0089EC"/><stop offset="1" stop-color="#0094FF" stop-opacity=".6"/></linearGradient><linearGradient id="paint1_linear" x1="106.643" x2="145.678" y1="253.205" y2="314.704" gradientUnits="userSpaceOnUse"><stop stop-color="#151414"/><stop offset="1" stop-color="#3D3D3D" stop-opacity=".7"/></linearGradient><linearGradient id="paint2_linear" x1="535.507" x2="-765.56" y1="142.09" y2="952.415" gradientUnits="userSpaceOnUse"><stop stop-color="#0089EC"/><stop offset="1" stop-color="#0094FF" stop-opacity=".6"/></linearGradient><linearGradient id="paint3_linear" x1="242.271" x2="220.816" y1="168.683" y2="79.73" gradientUnits="userSpaceOnUse"><stop stop-color="#9F9F9F"/><stop offset="1" stop-color="#F5F5F5"/></linearGradient><linearGradient id="paint4_linear" x1="119.26" x2="119.26" y1="159.865" y2="267.446" gradientUnits="userSpaceOnUse"><stop stop-color="#0068E9"/><stop offset="1" stop-color="#0057C4"/></linearGradient><linearGradient id="paint5_linear" x1="196.535" x2="130.305" y1="106.956" y2="150.995" gradientUnits="userSpaceOnUse"><stop stop-color="#0093FF"/><stop offset="1" stop-color="#2C4CAD"/></linearGradient><linearGradient id="paint6_linear" x1="267.007" x2="267.007" y1="105.138" y2="218.934" gradientUnits="userSpaceOnUse"><stop stop-color="#fff"/><stop offset="1" stop-color="#BEBEBE"/></linearGradient><linearGradient id="paint7_linear" x1="694.649" x2="694.649" y1="174.163" y2="539.7" gradientUnits="userSpaceOnUse"><stop stop-color="#0057FF"/><stop offset="1" stop-color="#00EDFC"/></linearGradient><linearGradient id="paint8_linear" x1="838.253" x2="838.253" y1="202.517" y2="539.703" gradientUnits="userSpaceOnUse"><stop stop-color="#00B0FF"/><stop offset="1" stop-color="#00A6FF"/></linearGradient><linearGradient id="paint9_linear" x1="845.7" x2="845.7" y1="171.761" y2="281.371" gradientUnits="userSpaceOnUse"><stop stop-color="#005DC9"/><stop offset="1" stop-color="#00F0FF"/></linearGradient><linearGradient id="paint10_linear" x1="708.96" x2="849.776" y1="118.198" y2="222.619" gradientUnits="userSpaceOnUse"><stop stop-color="#00C2FF"/><stop offset="1" stop-color="#1F8FFF"/></linearGradient><linearGradient id="paint11_linear" x1="877.581" x2="877.581" y1="369.338" y2="450.85" gradientUnits="userSpaceOnUse"><stop stop-color="#025DC8"/><stop offset="1" stop-color="#0075FF"/></linearGradient><linearGradient id="paint12_linear" x1="800.842" x2="800.842" y1="418.953" y2="500.591" gradientUnits="userSpaceOnUse"><stop stop-color="#025DC8"/><stop offset="1" stop-color="#0075FF"/></linearGradient><linearGradient id="paint13_linear" x1="693.182" x2="693.182" y1="351.873" y2="493.126" gradientUnits="userSpaceOnUse"><stop stop-color="#0094FF"/><stop offset="1" stop-color="#00C2FF"/></linearGradient><linearGradient id="paint14_linear" x1="839.721" x2="839.721" y1="393.892" y2="509.072" gradientUnits="userSpaceOnUse"><stop stop-color="#004DB3"/><stop offset="1" stop-color="#0094FF"/></linearGradient><linearGradient id="paint15_linear" x1="838.817" x2="838.817" y1="403.766" y2="472.114" gradientUnits="userSpaceOnUse"><stop stop-color="#0073FB"/><stop offset="1" stop-color="#0051AF"/></linearGradient></defs></svg>