<svg xmlns="http://www.w3.org/2000/svg" width="1920" height="643" fill="none"><g filter="url(#filter0_d)"><path fill="url(#paint0_linear)" d="M160.267 301.986c-.832.531-519.415 331.557-482.767 334.014H-495c-35.5 0 285.999-106.5 225.999-128.5-55.772-20.45 81.454-116.929 102.381-130.028 1.674-1.047 3.585-2.052 5.277-3.069L147.904 188.5 458.143 2a6.997 6.997 0 0 1 3.606-1H1930c3.87 0 7 3.134 7 7v72.89c0 1.657-1.34 3-3 3H495.016a6.998 6.998 0 0 0-3.838 1.146L160.284 301.975l-.007.005-.009.006h-.001z"/><path stroke="#00F0FF" stroke-width=".75" d="M-322.5 636c-36.665-2.458 482.432-333.8 482.768-334.014l.016-.011L491.178 85.036a6.998 6.998 0 0 1 3.838-1.146H1934c1.66 0 3-1.343 3-3V8c0-3.866-3.13-7-7-7H461.749a6.997 6.997 0 0 0-3.606 1L147.904 188.5l-309.247 185.903c-1.692 1.017-3.603 2.022-5.277 3.069-20.927 13.099-158.153 109.578-102.381 130.028C-209.001 529.5-530.5 636-495 636h172.5zm0 0c-28.253 0 64.5 2.5 0 0zm0 0c0-79 36.677 2.459 0 0z"/></g><path fill="#414141" d="M237.425 133.552l-2.152 24.97 34.792 22.956 1.793-25.373-34.433-22.553z"/><path fill="#625757" d="M285.848 140.402l-34.075-22.554-14.347 15.707 34.433 22.554 13.989-15.707z"/><path fill="#271C1C" d="M261.099 133.958l1.793 1.208s4.305 3.222 5.022 6.847c1.076 3.222-4.304 8.457-4.304 8.457l-.359 6.042-1.793 1.611.358-8.458s-3.586-10.874-3.228-11.277c0-.805 2.511-4.43 2.511-4.43z"/><path fill="#3A2929" d="M261.815 149.662s5.739-10.874 1.076-14.096c-4.663-3.222-8.25-6.041-10.761-2.013-2.51 3.624-4.304 6.846-4.304 6.846l13.989 9.263z"/><path fill="#291E1E" d="M247.825 140.396l-.358 8.458 13.988 9.263.359-8.457-13.989-9.264z"/><path fill="#1D1616" d="M259.664 130.739c-3.228-1.611-7.174.805-8.967 4.833-1.794 4.43-.359 9.263 2.869 10.874 3.228 2.014 7.532 0 9.326-4.833 1.435-4.43 0-9.263-3.228-10.874zm1.076 10.069c-1.076 3.221-3.946 4.43-6.456 3.221-2.152-1.208-3.229-4.43-2.152-7.652 1.076-2.819 3.945-4.43 6.097-3.222 2.511 1.209 3.587 4.431 2.511 7.653z"/><path fill="#1D1616" d="M257.872 135.565c-1.435-.806-2.87.403-3.587 2.014-.718 1.611 0 3.624 1.076 4.43 1.435.805 3.228 0 3.587-2.014.717-1.611.358-3.625-1.076-4.43z"/><path fill="#322424" d="M261.455 162.954l.717-9.263 6.815 4.43-.717 9.263-6.815-4.43z"/><path fill="#271C1C" d="M263.607 161.746l.359-6.847-1.794-1.208-.717 9.263 6.815 4.43v-2.416l-4.663-3.222z"/><path fill="#503939" d="M260.021 205.243l-47.704-31.816-115.136 73.299 46.987 31.816 115.853-73.299z"/><path fill="url(#paint1_linear)" d="M282.62 105.764l-51.65-35.038c-.359-.403-.717-.403-1.076-.806-1.435-.402-3.587 0-7.891 3.222-7.173 5.639-30.129 20.137-30.129 20.137-7.173 6.444-6.456 18.527-6.456 18.527v30.608l.359 41.482 20.086-12.887-5.739 21.748 38.02 26.178 8.249-52.357-2.152-37.857 31.205-19.735 7.174-3.222z"/><path fill="#352020" d="M280.826 193.163l-23.673-16.512 22.955-12.485s5.022 4.43 6.098 6.443c1.076 2.82-5.38 22.554-5.38 22.554z"/><path fill="#352E2E" d="M266.12 180.273l-.718-.403c-.358 0-.717-.403-.717-.403-4.304-.805-9.684 5.236-11.119 14.499-1.435 8.055 0 15.707 3.228 17.721l8.608 5.638 9.326-31.011-8.608-6.041z"/><path fill="#625757" d="M277.597 203.231c-1.794 8.86-6.457 15.304-10.761 14.499-4.304-.806-6.097-8.861-4.663-17.721 1.794-8.86 6.457-15.304 10.761-14.499 4.304.806 6.097 8.861 4.663 17.721z"/><path fill="#CED9E3" d="M274.012 202.428c-.717 4.832-3.586 8.054-5.738 7.652-2.152-.403-3.229-4.833-2.511-9.666.717-4.833 3.587-8.055 5.739-7.652 2.152.805 3.228 4.833 2.51 9.666z"/><path fill="#332C2D" d="M271.501 192.761h-1.435c1.793.805 2.869 4.833 2.152 9.263-.717 3.624-2.921 6.421-4.714 7.227 0 0 .769.425.769.828 2.152.402 4.662-2.82 5.739-7.652.717-4.833-.359-8.861-2.511-9.666z"/><path fill="url(#paint2_linear)" d="M97.181 150.468v96.658l46.987 31.414v-97.061l-46.987-31.011z"/><path fill="#00FB28" d="M144.168 209.267l-46.987-29.4v48.732l46.987 31.011v-50.343z"/><path fill="#362121" d="M183.623 263.236l-26.184-17.318 15.065-14.901 10.402 2.013s7.532 8.055 7.891 9.263c.358 1.209-7.174 20.943-7.174 20.943z"/><path fill="url(#paint3_linear)" d="M231.327 125.499l-87.159 56.383-46.987-31.011 86.801-55.98 47.345 30.608z"/><path fill="url(#paint4_linear)" d="M283.697 107.777l5.381 28.192s5.38 25.373 6.456 31.011c1.435 6.444-1.793 11.68-3.946 16.513-1.793 2.416-2.869 4.43-5.38 6.041-4.663 3.222-6.097 4.027-6.097 4.027s-.359-22.956-10.043-16.11c-10.761 7.653-10.761 28.192-10.761 28.192l-21.162 13.291V147.246s-.717-12.082 6.098-18.526c0 0 22.597-14.902 29.77-20.137 9.326-7.25 9.684-.806 9.684-.806zm-27.259 53.565l28.694-20.137-5.739-31.817-22.955 15.707v36.247z"/><path fill="#352E2E" d="M170.35 243.908l-.717-.403c-.359 0-.718-.403-.718-.403-4.304-.805-9.684 5.236-11.119 14.499-1.434 8.055 0 15.707 3.228 17.72l8.609 5.639 9.325-31.011-8.608-6.041z"/><path fill="#625757" d="M181.47 266.858c-1.794 8.86-6.457 15.304-10.761 14.499-4.304-.806-6.097-8.861-4.663-17.721 1.794-8.86 6.457-15.304 10.761-14.499 4.304.806 6.456 8.861 4.663 17.721z"/><path fill="#CED9E3" d="M177.884 266.059c-.718 4.833-3.587 8.055-5.739 7.652-2.152-.403-3.228-4.833-2.511-9.666.717-4.833 3.587-8.054 5.739-7.652 2.511.403 3.587 4.833 2.511 9.666z"/><path fill="#332C2D" d="M175.732 256.394h-1.434c1.793.806 2.869 4.833 2.152 9.263-.718 3.625-2.511 6.847-4.304 7.652 0 0 .358 0 .358.403 2.152.403 4.663-2.819 5.739-7.652.717-4.833-.359-9.263-2.511-9.666z"/><path fill="#2C4CAD" d="M144.17 181.883v96.658l20.086-12.485c.718-8.054 3.229-18.123 9.326-22.15 6.098-3.625 8.608 3.624 9.326 10.068l48.421-30.608V125.5l-87.159 56.383z"/><path fill="#3C2A2A" d="M164.258 266.059l-20.086 12.888v10.068l19.369-12.485c0-.402 0-4.833.717-10.471zM182.908 253.977c.717 4.833.717 9.263.717 9.263l76.04-47.926.359-10.068-77.116 48.731z"/><path fill="#29CB00" d="M144.17 209.674l87.159-54.773v51.551l-87.159 53.162v-49.94z"/><path fill="#503939" d="M97.181 247.135v10.472l46.987 31.011v-10.069l-46.987-31.414z"/><path fill="#595959" d="M259.305 174.232v-6.444l6.815-4.832v8.054l-6.815 4.431v-1.209z"/><path fill="#4D3636" d="M259.663 167.387s-1.435.403-1.435 2.416v4.43s.359 1.611 1.435.806c1.076-.806.717-2.014.717-2.014v-4.833s-.359-1.208-.717-.805z"/><path fill="#2D2121" d="M260.381 168.192s-.358-1.208-.717-.805v4.43s.359 1.208-.717 2.014c0 0-.359 0-.359.402 0 0 .359 1.611 1.435.806 1.076-.806.717-2.014.717-2.014l-.359-4.833z"/><path fill="#9B330C" d="M148.117 264.442v2.819l.717 1.208 5.022-6.041-1.076-.806-4.663 2.82z"/><path fill="#D0671A" d="M148.825 265.641v2.819l5.021-3.222v-2.819l-5.021 3.222z"/><path fill="#9B330C" d="M242.087 205.241v2.819l1.076.805 4.663-5.638-1.076-1.208-4.663 3.222z"/><path fill="#D0671A" d="M243.192 206.483v2.417l4.663-2.82v-2.819l-4.663 3.222z"/><path fill="#BDEBFD" d="M97.181 247.128v-5.638l7.891 5.638 3.228 7.652-11.119-7.652zM130.538 269.276l5.022-2.417 8.608 6.041v5.639l-13.63-9.263z"/><path fill="#D0671A" d="M100.051 243.503l.717 6.042-3.587-2.417v-5.638l2.87 2.013zM140.941 270.891l-1.076 4.833 4.304 2.819v-5.638l-3.228-2.014z"/><path fill="#6AB8F1" d="M108.657 232.224v-4.43l6.815 4.43v4.43l-6.815-4.43zM121.213 239.88v-4.43l6.815 4.43v4.43l-6.815-4.43z"/><path fill="#2D2121" d="M113.68 231.017v4.43l1.793 1.208v-4.43l-1.793-1.208zM121.213 235.45v4.43l1.794 1.208v-4.43l-1.794-1.208z"/><path fill="#656565" d="M97.181 250.351l46.987 31.817v6.444L97.181 257.6v-7.249z"/><path fill="#2C4CAD" d="M105.075 247.135l30.487 19.735-5.021 2.416-22.238-14.499-3.228-7.652z"/><path fill="#2C4CAD" d="M119.062 164.567h-1.076v91.423h1.076v-91.423z"/><path stroke="#F2FDED" stroke-width="3" d="M-379.5 494.5c45.57 20.458-12.874 120.829-26.347 142.761-1.462 2.381-4.981 2.845-5.456.092C-419.665 588.827 90.808 293.226 103 283" filter="url(#filter1_f)"/><path stroke="#fff" stroke-width=".5" d="M301.535 153.439L471.5 43.499h1446"/><path stroke="#F2FDED" stroke-width="3" d="M1940.81 43.59c-156.03.064 88.23.41 88.34.41h.01c144.05-.089-1519.728-.97-1558.16-1" filter="url(#filter2_f)"/><defs><filter id="filter0_d" width="2439.5" height="639.75" x="-500.121" y=".625" color-interpolation-filters="sRGB" filterUnits="userSpaceOnUse"><feFlood flood-opacity="0" result="BackgroundImageFix"/><feColorMatrix in="SourceAlpha" values="0 0 0 0 0 0 0 0 0 0 0 0 0 0 0 0 0 0 127 0"/><feOffset dy="2"/><feGaussianBlur stdDeviation="1"/><feColorMatrix values="0 0 0 0 0 0 0 0 0 0 0 0 0 0 0 0 0 0 0.25 0"/><feBlend in2="BackgroundImageFix" result="effect1_dropShadow"/><feBlend in="SourceGraphic" in2="effect1_dropShadow" result="shape"/></filter><filter id="filter1_f" width="520.868" height="362.887" x="-414.904" y="279.851" color-interpolation-filters="sRGB" filterUnits="userSpaceOnUse"><feFlood flood-opacity="0" result="BackgroundImageFix"/><feBlend in="SourceGraphic" in2="BackgroundImageFix" result="shape"/><feGaussianBlur result="effect1_foregroundBlur" stdDeviation="1"/></filter><filter id="filter2_f" width="1571.73" height="8" x="468.999" y="39.5" color-interpolation-filters="sRGB" filterUnits="userSpaceOnUse"><feFlood flood-opacity="0" result="BackgroundImageFix"/><feBlend in="SourceGraphic" in2="BackgroundImageFix" result="shape"/><feGaussianBlur result="effect1_foregroundBlur" stdDeviation="1"/></filter><linearGradient id="paint0_linear" x1="535.507" x2="-765.56" y1="142.09" y2="952.415" gradientUnits="userSpaceOnUse"><stop stop-color="#0089EC"/><stop offset="1" stop-color="#0094FF" stop-opacity=".6"/></linearGradient><linearGradient id="paint1_linear" x1="242.271" x2="220.816" y1="168.683" y2="79.73" gradientUnits="userSpaceOnUse"><stop stop-color="#9F9F9F"/><stop offset="1" stop-color="#F5F5F5"/></linearGradient><linearGradient id="paint2_linear" x1="119.26" x2="119.26" y1="159.865" y2="267.446" gradientUnits="userSpaceOnUse"><stop stop-color="#0068E9"/><stop offset="1" stop-color="#0057C4"/></linearGradient><linearGradient id="paint3_linear" x1="196.535" x2="130.305" y1="106.956" y2="150.995" gradientUnits="userSpaceOnUse"><stop stop-color="#0093FF"/><stop offset="1" stop-color="#2C4CAD"/></linearGradient><linearGradient id="paint4_linear" x1="267.007" x2="267.007" y1="105.138" y2="218.934" gradientUnits="userSpaceOnUse"><stop stop-color="#fff"/><stop offset="1" stop-color="#BEBEBE"/></linearGradient></defs></svg>