<?xml version="1.0" encoding="utf-8"?><svg viewBox="0 0 1041 688" xmlns="http://www.w3.org/2000/svg" xmlns:xlink="http://www.w3.org/1999/xlink"><style>:root>svg{display:none}:root>svg:target{display:block}</style><svg fill="none" viewBox="0 0 20 10" id="arrow" xmlns="http://www.w3.org/2000/svg"><path fill-rule="evenodd" clip-rule="evenodd" d="M14.848 1.678l1.412 1.48a.492.492 0 01-.363.833H1c-.552 0-1 .457-1 1.01v-.008c0 .553.448 1.001 1 1.001h14.882c.441 0 .666.543.36.86l-1.404 1.462a.996.996 0 00.04 1.412l.002.004a.99.99 0 001.397-.043l3.177-3.342a2.004 2.004 0 00-.007-2.757L16.298.307a.988.988 0 00-1.39-.042l-.01.01a.992.992 0 00-.05 1.403z" fill="#fff"/></svg><svg fill="none" viewBox="0 0 24 24" id="arrow_sm" xmlns="http://www.w3.org/2000/svg"><path d="M7 10l5 5 5-5H7z" fill="#303144"/></svg><svg fill="none" viewBox="0 0 52 52" id="b-1" xmlns="http://www.w3.org/2000/svg"><rect opacity=".1" width="52" height="52" rx="7" fill="#007CFF"/><path fill-rule="evenodd" clip-rule="evenodd" d="M21.27 26L25 21.524V26h-3.73zM27 26h3.73L27 30.476V26zm8-2h-8v-8L17 28h8v8l10-12z" fill="#007CFF"/></svg><svg fill="none" viewBox="0 0 52 52" id="b-2" xmlns="http://www.w3.org/2000/svg"><rect opacity=".1" width="52" height="52" rx="7" fill="#007CFF"/><path fill-rule="evenodd" clip-rule="evenodd" d="M33 26v-3l1 3h-1zm0 8H19a1 1 0 01-1-1v-5h3a1 1 0 011 1v1a2 2 0 002 2h4a2 2 0 002-2v-1a1 1 0 011-1h3v5a1 1 0 01-1 1zM19 23v3h-1l1-3zm3-5h8a1 1 0 011 1v7h-1a2 2 0 00-2 2v1a1 1 0 01-1 1h-2a1 1 0 01-1-1v-1a2 2 0 00-2-2h-1v-7a1 1 0 011-1zm12 2h-1v-2a2 2 0 00-2-2H21a2 2 0 00-2 2v2h-1l-2 6v8a2 2 0 002 2h16a2 2 0 002-2v-8l-2-6z" fill="#007CFF"/></svg><svg fill="none" viewBox="0 0 52 52" id="b-3" xmlns="http://www.w3.org/2000/svg"><rect opacity=".1" width="52" height="52" rx="7" fill="#007CFF"/><path fill-rule="evenodd" clip-rule="evenodd" d="M29 26c0 1.53-1.193 2.77-2.667 2.77-1.473 0-2.666-1.24-2.666-2.77 0-1.529 1.193-2.768 2.666-2.768 1.474 0 2.667 1.24 2.667 2.769zm-2.667 5.232c-3.985 0-7.74-1.969-10.134-5.231 2.394-3.263 6.149-5.233 10.134-5.233 3.986 0 7.74 1.97 10.135 5.233-2.395 3.262-6.15 5.23-10.135 5.23zm0-13.232C20.632 18 15.665 21.222 13 26c2.665 4.779 7.632 8 13.333 8 5.702 0 10.668-3.221 13.334-8-2.666-4.778-7.632-8-13.334-8z" fill="#007CFF"/></svg><svg fill="none" viewBox="0 0 52 52" id="b-4" xmlns="http://www.w3.org/2000/svg"><rect opacity=".1" width="52" height="52" rx="7" fill="#007CFF"/><path fill-rule="evenodd" clip-rule="evenodd" d="M34 26c0-4.411-3.589-8-8-8s-8 3.589-8 8 3.589 8 8 8 8-3.589 8-8zm2 0c0 5.523-4.477 10-10 10s-10-4.477-10-10 4.477-10 10-10 10 4.477 10 10zm-4 1a1 1 0 01-1 1h-4a2 2 0 01-2-2v-5a1 1 0 012 0v4c0 .55.45 1 1 1h3a1 1 0 011 1z" fill="#007CFF"/></svg><svg fill="none" viewBox="0 0 52 52" id="b-5" xmlns="http://www.w3.org/2000/svg"><rect opacity=".1" width="52" height="52" rx="7" fill="#007CFF"/><path fill-rule="evenodd" clip-rule="evenodd" d="M21.005 22.945a1.15 1.15 0 000-1.617l-.015-.014a1.125 1.125 0 00-1.602 0l-4.056 4.093a1.152 1.152 0 000 1.618l4.056 4.094c.443.446 1.16.446 1.602 0l.015-.015a1.15 1.15 0 000-1.617l-2.44-2.462a1.152 1.152 0 010-1.618l2.44-2.462zm15.586 2.462l-4.056-4.093a1.125 1.125 0 00-1.602 0l-.015.014a1.15 1.15 0 000 1.617l2.44 2.462a1.152 1.152 0 010 1.618l-2.44 2.462a1.15 1.15 0 000 1.617l.015.015c.443.446 1.16.446 1.602 0l4.056-4.094a1.152 1.152 0 000-1.618zm-6.811-4.782L23.939 33.12c-.19.393-.521.879-.95.879h-.022c-.833 0-1.376-1.131-1.008-1.894l5.808-12.378c.189-.392.89-.699.89-.699V19c1.133 0 1.49.862 1.123 1.625z" fill="#007CFF"/></svg><svg fill="none" viewBox="0 0 52 52" id="b-6" xmlns="http://www.w3.org/2000/svg"><rect opacity=".1" width="52" height="52" rx="7" fill="#007CFF"/><path fill-rule="evenodd" clip-rule="evenodd" d="M36 18v5a1 1 0 01-2 0v-4a1 1 0 00-1-1h-4a1 1 0 010-2h5a2 2 0 012 2zm-2 18h-5a1 1 0 010-2h4a1 1 0 001-1v-4a1 1 0 012 0v5a2 2 0 01-2 2zm-18-2v-5a1 1 0 012 0v4a1 1 0 001 1h4a1 1 0 010 2h-5a2 2 0 01-2-2zm0-11v-5a2 2 0 012-2h5a1 1 0 010 2h-4a1 1 0 00-1 1v4a1 1 0 01-2 0zm.01 3l-.01.01v-.02l.01.01zM26 28c-1.103 0-2-.897-2-2s.897-2 2-2 2 .897 2 2-.897 2-2 2zm3.859-1H31a1 1 0 000-2h-1.141A3.987 3.987 0 0027 22.141V21a1 1 0 00-2 0v1.141A3.987 3.987 0 0022.141 25H21a1 1 0 000 2h1.141A3.987 3.987 0 0025 29.859V31a1 1 0 002 0v-1.141A3.987 3.987 0 0029.859 27z" fill="#007CFF"/></svg><svg fill="none" viewBox="0 0 52 52" id="b-7" xmlns="http://www.w3.org/2000/svg"><rect opacity=".1" width="52" height="52" rx="7" fill="#007CFF"/><path fill-rule="evenodd" clip-rule="evenodd" d="M23.778 20.444h4.444V16h-4.444v4.444zm0 15.556h4.444v-4.444h-4.444V36zm8.889 0h4.444v-4.444h-4.444V36zm-17.778 0h4.444v-4.444H14.89V36zm3.333-6.667H16V24.89h8.889v-2.222h2.222v2.222H36v4.444h-2.222v-2.222H27.11v2.222H24.89v-2.222h-6.667v2.222z" fill="#007CFF"/></svg><svg fill="none" viewBox="0 0 52 52" id="b-8" xmlns="http://www.w3.org/2000/svg"><rect opacity=".1" width="52" height="52" rx="7" fill="#007CFF"/><path fill-rule="evenodd" clip-rule="evenodd" d="M20 28v-9a1 1 0 011-1h10a1 1 0 011 1v9H20zm10 3a1 1 0 112 0 1 1 0 01-2 0zm-10 0a1 1 0 112 0 1 1 0 01-2 0zm16-6a1 1 0 00-1-1h-1v-6a2 2 0 00-2-2H20a2 2 0 00-2 2v6h-1a1 1 0 000 2h1v2a2 2 0 00-2 2v2a2 2 0 002 2v1a1 1 0 001 1h2a1 1 0 001-1v-1h8v1a1 1 0 001 1h2a1 1 0 001-1v-1a2 2 0 002-2v-2a2 2 0 00-2-2v-2h1a1 1 0 001-1z" fill="#007CFF"/></svg><svg fill="none" viewBox="0 0 35 35" id="cargo-1" xmlns="http://www.w3.org/2000/svg"><rect opacity=".1" width="35" height="35" rx="4" fill="#007CFF"/><path fill-rule="evenodd" clip-rule="evenodd" d="M13.183 13.953a1 1 0 100-2 1 1 0 000 2zM10 15h16v-4H10v4zm-2 2h20V9H8v8zm2 8h16v-2H10v2zm0-4h16v-2H10v2z" fill="#007CFF"/></svg><svg fill="none" viewBox="0 0 35 35" id="cargo-2" xmlns="http://www.w3.org/2000/svg"><rect opacity=".1" width="35" height="35" rx="4" fill="#007CFF"/><path fill-rule="evenodd" clip-rule="evenodd" d="M28 13.965l-1.383 1.414-1.384-1.42-9.685 9.91-1.383 1.405-1.268-1.323L9.87 27H8v-1.318l3.27-3.098-1.14-1.418 1.383-1.416 2.652 2.715 2.767-2.834-1.268-1.298 1.383-1.416 1.269 1.298 5.533-5.667-1.268-1.298-5.534 5.667-4.15 4.25-1.384-1.417 9.685-9.916-1.383-1.417L21.198 7l2.767 2.834 1.383-1.417 1.384 1.417-1.384 1.416L28 13.965z" fill="#007CFF"/></svg><svg fill="none" viewBox="0 0 35 35" id="cargo-3" xmlns="http://www.w3.org/2000/svg"><rect opacity=".1" width="35" height="35" rx="4" fill="#007CFF"/><path fill-rule="evenodd" clip-rule="evenodd" d="M10 17h10v-6H10v6zm2-2h6v-2h-6v2zm16-8h-6v12H10v2.184A2.99 2.99 0 008 24a3 3 0 106 0 2.99 2.99 0 00-2-2.816V21h10v.184A2.99 2.99 0 0020 24a3 3 0 106 0 2.99 2.99 0 00-2-2.816V9h4V7zM11 22.951c.547.194 1 .388 1 1.049 0 .551-.449 1-1 1-.551 0-1-.449-1-1 0-.661.453-.855 1-1.049zm12 0c.547.194 1 .388 1 1.049 0 .551-.449 1-1 1-.551 0-1-.449-1-1 0-.661.453-.855 1-1.049z" fill="#007CFF"/></svg><svg fill="none" viewBox="0 0 35 35" id="cargo-4" xmlns="http://www.w3.org/2000/svg"><rect opacity=".1" width="35" height="35" rx="4" fill="#007CFF"/><path fill-rule="evenodd" clip-rule="evenodd" d="M18 25c-.551 0-1-.449-1-1 0-.551.449-1 1-1 .551 0 1 .449 1 1 0 .551-.449 1-1 1zm0-4a3 3 0 100 6 3 3 0 000-6zm0-3c-.551 0-1-.449-1-1 0-.551.449-1 1-1 .551 0 1 .449 1 1 0 .551-.449 1-1 1zm0-4a3 3 0 100 6 3 3 0 000-6zm0-5c.551 0 1 .449 1 1 0 .551-.449 1-1 1-.551 0-1-.449-1-1 0-.551.449-1 1-1zm0 4a3 3 0 100-6 3 3 0 000 6z" fill="#007CFF"/></svg><svg fill="none" viewBox="0 0 35 35" id="cargo_arrow" xmlns="http://www.w3.org/2000/svg"><rect width="35" height="35" rx="4" fill="#fff"/><path d="M27.707 17.707a1 1 0 000-1.414l-6.364-6.364a1 1 0 00-1.414 1.414L25.586 17l-5.657 5.657a1 1 0 001.414 1.414l6.364-6.364zM7 18h20v-2H7v2z" fill="#007CFF"/></svg><svg viewBox="0 0 24 24" id="check" xmlns="http://www.w3.org/2000/svg"><path d="M10 17l-5-5 1.41-1.41L10 14.17l7.59-7.59L19 8l-9 9z" /></svg><svg fill="none" viewBox="0 0 40 35" id="comment" xmlns="http://www.w3.org/2000/svg"><path d="M0 2a2 2 0 012-2h36a2 2 0 012 2v26a2 2 0 01-2 2H2a2 2 0 01-2-2V2zM8 30v2.708c0 1.609 1.802 2.559 3.13 1.65L17.5 30H8z" fill="#007CFF"/></svg><svg fill="none" viewBox="0 0 40 40" id="documents" xmlns="http://www.w3.org/2000/svg"><rect width="40" height="40" rx="7" fill="#EFEDFF"/><path fill-rule="evenodd" clip-rule="evenodd" d="M28 18H12v-5c0-.552.337-1 .889-1h3.355a1 1 0 01.898.56l1.136 2.319A2 2 0 0020.074 16h6.815c.552 0 1.111.448 1.111 1v1zm0 9c0 .552-.559 1-1.111 1h-14c-.552 0-.889-.448-.889-1v-7h16v7zm-.111-13h-6.764a2 2 0 01-1.789-1.106l-.894-1.788A2 2 0 0016.653 10h-4.764C10.784 10 10 10.895 10 12v16c0 1.105.784 2 1.889 2h16C28.993 30 30 29.105 30 28V16c0-1.105-1.007-2-2.111-2z" fill="#6E59FF"/></svg><svg fill="none" viewBox="0 0 31 30" id="fic-1" xmlns="http://www.w3.org/2000/svg"><path fill-rule="evenodd" clip-rule="evenodd" d="M22.43 10.364s-.704-1.868-2.56-3.145c-4.324-2.976-10.162-.2-10.822 5.056 0 0-1.433.33-2.345 1.667-1.827 2.675-.039 6.28 3.28 6.44v-2.048a2.192 2.192 0 01-1.21-.44c-2.104-1.605.352-4.921 2.447-3.21-2.033-6.886 8.315-9.366 9.663-2.498a.384.384 0 00.05-.006c.017-.002.033-.004.05-.004 3.292 0 4.22 4.8 1 5.972v2.088c5.244-1.27 5.244-8.375.446-9.872zm-3.375 5.367l1.414 1.454L14.812 23v-.001l-.003.001-3.297-3.39 1.415-1.453 1.884 1.937 4.244-4.363z" fill="#007CFF"/></svg><svg fill="none" viewBox="0 0 30 30" id="fic-2" xmlns="http://www.w3.org/2000/svg"><path fill-rule="evenodd" clip-rule="evenodd" d="M19 23h4v-4h-4v4zm-6 0V13h4v10h-4zm-6 0V7h4v16H7zm12-6v-6h-6V5H5v20h20v-8h-6z" fill="#007CFF"/></svg><svg fill="none" viewBox="0 0 30 30" id="fic-3" xmlns="http://www.w3.org/2000/svg"><path fill-rule="evenodd" clip-rule="evenodd" d="M23 15c0-4.41-3.588-8-8-8-4.41 0-8 3.59-8 8 0 4.411 3.59 8 8 8 4.412 0 8-3.589 8-8zm2 0c0 5.523-4.477 10-10 10S5 20.523 5 15 9.477 5 15 5s10 4.477 10 10zm-4 1a1 1 0 01-1 1h-4a2 2 0 01-2-2v-5a1 1 0 012 0v4c0 .55.45 1 1 1h3a1 1 0 011 1z" fill="#007CFF"/></svg><svg fill="none" viewBox="0 0 30 30" id="fic-4" xmlns="http://www.w3.org/2000/svg"><path fill-rule="evenodd" clip-rule="evenodd" d="M24.006 15.003a.997.997 0 00-.993 1c0 .552.445 1 .993 1a.997.997 0 00.994-1c0-.552-.445-1-.994-1zm-7.95 7.998a.997.997 0 00-.993 1c0 .551.445.999.994.999a.997.997 0 00.994-1c0-.552-.446-1-.994-1zm3.976 0a.997.997 0 00-.994 1c0 .551.445.999.994.999a.997.997 0 00.993-1c0-.552-.445-1-.993-1zm3.974 0a.997.997 0 00-.993 1c0 .551.445.999.993.999A.997.997 0 0025 24c0-.552-.445-1-.994-1zM8.107 23a.997.997 0 01-.993-1c0-.552-.446-1-.994-1h-.064c-.548 0-1.056.448-1.056 1v1h.063c0 1 .922 1.999 2.019 1.999h1.025a.997.997 0 00.994-1c0-.552-.445-1-.994-1zM6.12 7.006a.997.997 0 00.994-1c0-.552-.446-1-.994-1a.997.997 0 00-.994 1c0 .552.445 1 .994 1zm17.886 11.996a.997.997 0 00-.993 1c0 .551.445 1 .993 1a.997.997 0 00.994-1c0-.552-.445-1-.994-1zM10.095 5.006a.997.997 0 00-.994 1c0 .552.445 1 .994 1a.997.997 0 00.993-1c0-.552-.445-1-.993-1zm3.974 0a.997.997 0 00-.993 1c0 .552.445 1 .993 1a.997.997 0 00.994-1c0-.552-.445-1-.994-1zm-7.95 5.998a.997.997 0 00.995-1c0-.551-.446-.999-.994-.999a.997.997 0 00-.994 1c0 .551.445 1 .994 1zm0 7.998a.997.997 0 00.995-1c0-.552-.446-1-.994-1a.997.997 0 00-.994 1c0 .552.445 1 .994 1zM12.083 23a.997.997 0 00-.994 1c0 .551.446.999.994.999a.997.997 0 00.994-1c0-.552-.446-1-.994-1zm11.924-9.997c.549 0 .868-.448.868-1 0-.443.067-.995-.229-1.293L19.297 5.3c-.366-.368-.718-.293-1.253-.293-.548 0-1.12.448-1.12 1v4.998c0 1.104 1.016 2 2.114 2h4.968zm-18.88 1c0-.552.445-1 .994-1 .548 0 .994.448.994 1 0 .551-.446 1-.994 1a.997.997 0 01-.994-1z" fill="#007CFF"/></svg><svg fill="none" viewBox="0 0 30 30" id="fic-5" xmlns="http://www.w3.org/2000/svg"><path fill-rule="evenodd" clip-rule="evenodd" d="M23 23H7V7h8V5H5v20h20V15h-2v8zM12.221 10.121l3.122 3.122L23.586 5 25 6.414l-9.657 9.657h-.001l-4.535-4.535 1.414-1.415z" fill="#007CFF"/></svg><svg fill="none" viewBox="0 0 30 30" id="fic-6" xmlns="http://www.w3.org/2000/svg"><path fill-rule="evenodd" clip-rule="evenodd" d="M18 15c0 1.53-1.194 2.77-2.667 2.77-1.473 0-2.667-1.24-2.667-2.77 0-1.529 1.194-2.768 2.667-2.768 1.473 0 2.667 1.24 2.667 2.769zm-2.667 5.232c-3.986 0-7.74-1.969-10.135-5.231 2.395-3.263 6.15-5.233 10.135-5.233 3.985 0 7.74 1.97 10.135 5.233-2.395 3.262-6.15 5.23-10.135 5.23zm0-13.232C9.632 7 4.665 10.222 2 15c2.665 4.779 7.632 8 13.333 8 5.701 0 10.668-3.221 13.333-8-2.665-4.778-7.632-8-13.333-8z" fill="#007CFF"/></svg><svg fill="none" viewBox="0 0 40 40" id="finance" xmlns="http://www.w3.org/2000/svg"><rect width="40" height="40" rx="7" fill="#EAF7EB"/><path fill-rule="evenodd" clip-rule="evenodd" d="M12 14v-1a2 2 0 012-2h12a2 2 0 012 2v1a1 1 0 01-2 0 1 1 0 00-1-1H15a1 1 0 00-1 1 1 1 0 01-2 0zm10 9a2 2 0 11-3.999.001A2 2 0 0122 23zm6-2.343L26.343 19c1.629 0 1.657.384 1.657 1.657zM26.343 27L28 25.343C28 26.97 27.62 27 26.343 27zm-9.858 0l-4-4 4-4h7.03l4 4-4 4h-7.03zM12 25.343L13.657 27C12.03 27 12 26.62 12 25.343zM13.657 19L12 20.657c0-1.629.384-1.657 1.657-1.657zM28 17H12a2 2 0 00-2 2v8a2 2 0 002 2h16a2 2 0 002-2v-8a2 2 0 00-2-2z" fill="#55C665"/></svg><svg fill="none" viewBox="0 0 246 191" id="hero2_mob" xmlns="http://www.w3.org/2000/svg"><path d="M90.962 44.117l12.457-7.198 12.352 7.496-12.686 7.546-12.123-7.844zM86.356 70.648l12.458-7.198 12.352 7.496-12.687 7.546-12.123-7.844zM116.022 29.7l12.458-7.198 12.352 7.496-12.686 7.546-12.124-7.844zM141.654 15.64l12.457-7.197 12.352 7.496-12.686 7.546-12.123-7.844zM137.242 41.739L149.7 34.54l12.352 7.496-12.687 7.547-12.123-7.845zM157.891 53.42l12.458-7.198 12.352 7.496-12.687 7.547-12.123-7.845zM182.593 39.571l12.457-7.198 12.353 7.497-12.687 7.546-12.123-7.845zM111.581 56.096l12.458-7.197 12.352 7.496-12.686 7.546-12.124-7.845zM107.411 82.821l12.457-7.197 12.352 7.496-12.686 7.546-12.123-7.845zM136.559 73.92a.15.15 0 10-.159-.256l.159.256zm47.349-51.51a.15.15 0 10.149.26l-.149-.26zm2.595-2.334l-.08.128.08-.128zm-.022 1.034l.075.131-.075-.13zm-9.983-6.957l.07.133-.07-.133zm.598.024l-.08.128.08-.128zm-26.974 14.684l-.076.13.076-.13zm.028-1.055l.069.134-.069-.134zm19.161 13.342l-.075-.13.075.13zm.007-1.044l-.076.13.076-.13zm-49.325 30.111l.083-.126-.083.126zm.033-1.028l.075.13-.075-.13zm11.13 7.916l.08.127-.08-.127zm-.649-.008l-.082.126.082-.126zm5.76-3.348a.15.15 0 10.159.255l-.159-.255zm-.906.918a.15.15 0 10-.159-.256l.159.256zm-.425-.09a.15.15 0 00-.048.207.15.15 0 00.207.048l-.159-.256zm-.905.917a.151.151 0 00-.16-.256l.16.256zm-.426-.09a.151.151 0 00-.048.207.15.15 0 00.207.049l-.159-.256zm-.905.918a.151.151 0 00.048-.208.15.15 0 00-.207-.048l.159.256zm-.426-.09a.151.151 0 00-.048.207.15.15 0 00.207.049l-.159-.256zm-.905.918a.151.151 0 00.048-.208.15.15 0 00-.207-.048l.159.256zm-.338-.149a.15.15 0 00-.071.2.15.15 0 00.201.072l-.13-.272zm-.532.265a.15.15 0 00.202-.067.15.15 0 00-.066-.202l-.136.269zm-.04-.381a.151.151 0 00-.166.252l.166-.252zm-1.217-.436c.07.046.163.026.209-.043a.151.151 0 00-.044-.209l-.165.252zm-.098-.424a.15.15 0 00-.165.252l.165-.252zm-1.216-.436a.15.15 0 00.208-.043.15.15 0 00-.043-.209l-.165.252zm-.098-.424a.151.151 0 10-.165.252l.165-.252zm-1.216-.436a.15.15 0 00.165-.252l-.165.252zm-.098-.424a.151.151 0 10-.165.252l.165-.252zm-1.217-.436a.151.151 0 00.166-.252l-.166.252zm-.097-.424a.151.151 0 00-.166.252l.166-.252zm-1.217-.436c.07.046.163.026.209-.043a.151.151 0 00-.044-.209l-.165.252zm-.098-.424a.15.15 0 00-.165.252l.165-.252zm-1.216-.436a.15.15 0 00.208-.043.15.15 0 00-.043-.209l-.165.252zm-.098-.424a.151.151 0 10-.165.252l.165-.252zm-1.216-.436a.15.15 0 00.165-.252l-.165.252zm-.098-.424a.151.151 0 10-.165.252l.165-.252zm-1.217-.436a.151.151 0 00.166-.252l-.166.252zm-.038-.396a.15.15 0 10-.212.215l.212-.215zm-.177-.887a.15.15 0 10.198.228l-.198-.228zm.403.1a.15.15 0 10-.149-.262l.149.262zm.889-.852a.151.151 0 00-.057.205.151.151 0 00.206.057l-.149-.262zm.408.114a.15.15 0 10-.149-.262l.149.262zm.889-.852a.151.151 0 00-.057.206.151.151 0 00.206.056l-.149-.262zm.408.114a.15.15 0 10-.149-.262l.149.262zm.889-.852a.15.15 0 10.149.262l-.149-.262zm.408.115a.15.15 0 10-.149-.263l.149.263zm.889-.853a.15.15 0 10.149.262l-.149-.262zm.408.115a.15.15 0 10-.149-.262l.149.262zm.889-.853a.15.15 0 10.149.262l-.149-.262zm.408.115a.151.151 0 00.057-.206.151.151 0 00-.206-.056l.149.262zm.889-.853a.15.15 0 10.149.263l-.149-.263zm.408.115a.151.151 0 10-.149-.262l.149.262zm.889-.852a.15.15 0 10.149.262l-.149-.262zm.408.114a.151.151 0 00.057-.205.151.151 0 00-.206-.057l.149.262zm.889-.852a.15.15 0 10.149.262l-.149-.262zm.408.114a.151.151 0 00.057-.205.151.151 0 00-.206-.057l.149.262zm.889-.852a.15.15 0 10.149.262l-.149-.262zm.408.114a.151.151 0 00.057-.205.152.152 0 00-.206-.057l.149.262zm.889-.852a.15.15 0 10.149.262l-.149-.262zm.408.114a.151.151 0 00.057-.205.151.151 0 00-.206-.056l.149.261zm.889-.852a.15.15 0 10.149.262l-.149-.262zm.408.115a.151.151 0 00.057-.206.152.152 0 00-.206-.056l.149.262zm.889-.853a.15.15 0 10.148.262l-.148-.262zm.408.115a.15.15 0 00.056-.206.15.15 0 00-.205-.056l.149.262zm.889-.852a.15.15 0 10.148.262l-.148-.262zm.408.114a.15.15 0 00.056-.206.15.15 0 00-.205-.056l.149.262zm.888-.852a.151.151 0 00-.056.205.15.15 0 00.205.057l-.149-.262zm.409.114a.15.15 0 00.056-.205.15.15 0 00-.205-.057l.149.262zm.888-.852a.151.151 0 00.149.262l-.149-.262zm.409.114a.15.15 0 00.056-.205.15.15 0 00-.205-.057l.149.262zm.888-.852a.151.151 0 00-.056.206.15.15 0 00.205.056l-.149-.262zm.409.114a.151.151 0 00-.149-.262l.149.262zm.888-.852a.151.151 0 00.149.262l-.149-.262zm.409.115a.151.151 0 00.056-.206.15.15 0 00-.205-.056l.149.262zm.888-.853a.151.151 0 00-.056.206.15.15 0 00.205.056l-.149-.262zm.409.115a.151.151 0 00-.149-.262l.149.262zm.888-.852a.151.151 0 00.149.261l-.149-.261zm.409.114a.151.151 0 00-.149-.262l.149.262zm.888-.852a.151.151 0 00-.056.205.15.15 0 00.205.057l-.149-.262zm.409.114a.151.151 0 00-.149-.262l.149.262zm.888-.852a.151.151 0 00.149.262l-.149-.262zm.409.114a.151.151 0 00-.149-.262l.149.262zm.888-.852a.15.15 0 00-.056.206.15.15 0 00.205.056l-.149-.262zm.409.114a.151.151 0 00.056-.205.15.15 0 00-.205-.057l.149.262zm.888-.852a.15.15 0 00-.056.206.15.15 0 00.205.056l-.149-.262zm.409.114a.151.151 0 00-.149-.262l.149.262zm.888-.852a.15.15 0 00-.056.206.15.15 0 00.205.056l-.149-.262zm.408.115a.15.15 0 10-.148-.262l.148.262zm.889-.853a.15.15 0 00-.056.206.15.15 0 00.205.056l-.149-.262zm.408.115a.15.15 0 10-.148-.262l.148.262zm.889-.852a.151.151 0 00-.057.205.152.152 0 00.206.056l-.149-.261zm.408.114a.15.15 0 10-.149-.262l.149.262zm.889-.852a.151.151 0 00-.057.205.152.152 0 00.206.057l-.149-.262zm.408.114a.15.15 0 10-.149-.262l.149.262zm.889-.852a.151.151 0 00-.057.205.151.151 0 00.206.057l-.149-.262zm.408.114a.15.15 0 10-.149-.262l.149.262zm.889-.852a.151.151 0 00-.057.206.152.152 0 00.206.056l-.149-.262zm.408.114a.15.15 0 10-.149-.262l.149.262zm.889-.852a.151.151 0 10.149.262l-.149-.262zm.408.114a.15.15 0 10-.149-.261l.149.261zm.889-.852a.151.151 0 00-.057.206.151.151 0 00.206.056l-.149-.262zm.408.115a.15.15 0 10-.149-.262l.149.262zm.889-.853a.151.151 0 10.149.262l-.149-.262zm.408.115a.15.15 0 10-.149-.262l.149.262zm.889-.852a.15.15 0 10.149.261l-.149-.261zm.408.114a.15.15 0 10-.149-.262l.149.262zm.889-.852a.15.15 0 10.149.262l-.149-.262zm.408.114a.15.15 0 10-.149-.262l.149.262zm.889-.852a.15.15 0 10.149.262l-.149-.262zm.408.114a.15.15 0 10-.149-.262l.149.262zm.889-.852a.15.15 0 10.149.262l-.149-.262zm.408.114a.151.151 0 00.057-.205.151.151 0 00-.206-.057l.149.262zm.889-.852a.15.15 0 10.149.262l-.149-.262zm.408.114a.151.151 0 00.057-.205.151.151 0 00-.206-.056l.149.261zm.889-.852a.15.15 0 10.149.262l-.149-.262zm.406.097a.15.15 0 10-.199-.226l.199.226zm-.194-.897a.15.15 0 00.202-.224l-.202.224zm-.053-.392a.15.15 0 10-.152.26l.152-.26zm-1.176-.34a.15.15 0 00.206-.053.151.151 0 00-.053-.206l-.153.26zm-.103-.41a.15.15 0 10-.153.26l.153-.26zm-1.177-.339a.15.15 0 10.153-.26l-.153.26zm-.103-.41a.15.15 0 00-.206.054.15.15 0 00.053.206l.153-.26zm-1.176-.34a.15.15 0 10.152-.26l-.152.26zm-.104-.41a.15.15 0 10-.152.26l.152-.26zm-1.176-.339a.15.15 0 10.152-.26l-.152.26zm-.104-.41a.15.15 0 00-.152.26l.152-.26zm-1.176-.34a.151.151 0 00.153-.26l-.153.26zm-.103-.41a.15.15 0 10-.153.26l.153-.26zm-1.177-.339a.15.15 0 10.153-.26l-.153.26zm-.103-.41a.151.151 0 00-.153.26l.153-.26zm-1.176-.34a.15.15 0 00.152-.26l-.152.26zm-.104-.41a.15.15 0 10-.152.26l.152-.26zm-1.176-.339a.15.15 0 10.152-.26l-.152.26zm-.104-.41a.15.15 0 10-.152.26l.152-.26zm-1.176-.34a.15.15 0 00.206-.053.15.15 0 00-.053-.207l-.153.26zm-.103-.41a.15.15 0 10-.153.26l.153-.26zm-1.177-.34a.15.15 0 10.153-.26l-.153.26zm-.103-.41a.151.151 0 00-.153.26l.153-.26zm-1.176-.339a.15.15 0 10.152-.26l-.152.26zm-.104-.41a.15.15 0 10-.152.26l.152-.26zm-1.176-.34a.15.15 0 10.152-.26l-.152.26zm-.104-.41a.15.15 0 00-.152.261l.152-.26zm-1.176-.339a.15.15 0 00.206-.054.15.15 0 00-.053-.206l-.153.26zm-.103-.41a.15.15 0 10-.153.26l.153-.26zm-1.177-.34a.15.15 0 10.153-.26l-.153.26zm-.103-.41a.151.151 0 00-.153.26l.153-.26zm-1.176-.339a.15.15 0 00.152-.26l-.152.26zm-.054-.392a.15.15 0 00-.203.223l.203-.223zm-.173-.914a.15.15 0 00.191.233l-.191-.233zm.404.111a.151.151 0 00.065-.203.152.152 0 00-.204-.064l.139.267zm.915-.813a.15.15 0 00-.064.203.15.15 0 00.203.064l-.139-.267zm.402.13a.15.15 0 10-.138-.268l.138.269zm.916-.813a.15.15 0 10.138.268l-.138-.268zm.402.131a.15.15 0 00.064-.203.15.15 0 00-.203-.065l.139.268zm.915-.814a.15.15 0 00-.064.203.15.15 0 00.203.065l-.139-.268zm.402.131a.15.15 0 10-.138-.268l.138.268zm.916-.813a.15.15 0 10.138.268l-.138-.268zm.402.13a.15.15 0 00-.139-.267l.139.268zm.915-.813a.151.151 0 00-.065.203c.039.074.13.103.204.065l-.139-.268zm.402.131a.151.151 0 10-.139-.268l.139.268zm.915-.814a.15.15 0 00.139.268l-.139-.268zm.402.131a.15.15 0 10-.138-.268l.138.268zm.916-.813a.15.15 0 10.138.268l-.138-.268zm.402.13a.15.15 0 00.064-.202.15.15 0 00-.203-.065l.139.268zm.915-.813a.15.15 0 00-.064.203.15.15 0 00.203.065l-.139-.268zm.402.131a.15.15 0 10-.138-.268l.138.268zm.916-.814a.15.15 0 10.138.268l-.138-.268zm.402.131a.15.15 0 00-.139-.268l.139.268zm.915-.813a.151.151 0 00-.065.203c.039.074.13.103.204.064l-.139-.267zm.402.13a.15.15 0 10-.138-.268l.138.269zm.916-.813a.15.15 0 10.138.268l-.138-.268zm.402.131a.15.15 0 10-.139-.268l.139.268zm.915-.814a.151.151 0 00-.065.204.15.15 0 00.203.064l-.138-.268zm.402.132a.151.151 0 00.065-.204.152.152 0 00-.204-.064l.139.268zm.915-.814a.15.15 0 00-.064.203.15.15 0 00.203.064l-.139-.267zm.402.13a.15.15 0 10-.138-.268l.138.269zm.916-.813a.15.15 0 10.138.268l-.138-.268zm.402.131a.15.15 0 00.064-.203.15.15 0 00-.203-.064l.139.267zm.915-.814a.15.15 0 00-.064.204.15.15 0 00.203.064l-.139-.268zm.402.131a.15.15 0 10-.138-.268l.138.268zm.916-.813a.15.15 0 10.138.268l-.138-.268zm.402.13a.15.15 0 00-.139-.267l.139.268zm.915-.813a.151.151 0 00-.065.203c.039.074.13.103.204.065l-.139-.268zm.402.131a.151.151 0 00.065-.203.152.152 0 00-.204-.064l.139.267zm.915-.813a.15.15 0 00.139.267l-.139-.268zm.402.13a.15.15 0 10-.138-.268l.138.268zm.916-.813a.15.15 0 10.138.268l-.138-.268zm.402.13a.15.15 0 00.064-.202.15.15 0 00-.203-.065l.139.268zm.915-.813a.15.15 0 00-.064.203.15.15 0 00.203.065l-.139-.268zm.313.18a.151.151 0 00.086-.195.151.151 0 00-.196-.085l.11.28zm.498-.256a.151.151 0 00-.133.27l.133-.27zm.042.378a.15.15 0 00.161-.255l-.161.255zm1.236.419a.15.15 0 00-.161.255l.161-.255zm.108.424a.15.15 0 10.16-.255l-.16.255zm1.236.419a.15.15 0 00-.161.255l.161-.255zm.108.424a.15.15 0 10.16-.255l-.16.255zm1.235.419a.15.15 0 00-.207.047.15.15 0 00.047.208l.16-.255zm.109.423a.15.15 0 10.16-.255l-.16.255zm1.235.42a.15.15 0 10-.16.255l.16-.256zm.109.423a.15.15 0 00.207-.048.15.15 0 00-.047-.207l-.16.255zm1.235.419a.151.151 0 00-.16.255l.16-.255zm.108.424a.15.15 0 00.161-.255l-.161.255zm1.236.419a.15.15 0 00-.161.255l.161-.255zm.108.424a.15.15 0 00.161-.256l-.161.256zm1.236.419a.15.15 0 00-.161.255l.161-.255zm.048.397a.15.15 0 10.208-.218l-.208.218zm.185.89a.151.151 0 00-.199-.226l.199.226zm-.4-.1a.15.15 0 10.149.26l-.149-.26zm-.85.833a.151.151 0 00.056-.206.151.151 0 00-.206-.056l.15.262zm-.4-.119a.15.15 0 10.15.262l-.15-.262zm-.85.833a.15.15 0 10-.149-.261l.149.261zM136.4 73.664l-.133.083.159.255.133-.082-.159-.256zm-1.198.745l-.266.165.159.256.266-.165-.159-.256zm-1.331.827l-.266.166.159.256.267-.166-.16-.256zm-1.33.828l-.267.166.159.255.267-.165-.159-.256zm-1.331.828l-.133.083.159.255.133-.082-.159-.256zm-.133.083a.44.44 0 01-.046.024l.13.272a.896.896 0 00.075-.04l-.159-.256zm-.442.02a.435.435 0 01-.045-.026l-.165.252c.024.016.049.03.074.043l.136-.27zm-.045-.026l-.131-.086-.166.252.132.086.165-.252zm-1.183-.774l-.263-.172-.165.252.263.172.165-.252zm-1.314-.86l-.263-.172-.165.252.263.172.165-.252zm-1.314-.86l-.263-.172-.165.252.263.172.165-.252zm-1.314-.86l-.263-.172-.166.252.263.172.166-.252zm-1.315-.86l-.263-.172-.165.252.263.172.165-.252zm-1.314-.86l-.263-.172-.165.252.263.172.165-.252zm-1.314-.86l-.263-.172-.165.252.263.172.165-.252zm-1.314-.86l-.132-.086-.165.252.131.086.166-.252zm-.132-.086a.447.447 0 01-.072-.058l-.212.214a.725.725 0 00.119.096l.165-.252zm-.051-.717a.41.41 0 01.076-.054l-.149-.262a.713.713 0 00-.125.088l.198.228zm.076-.054l.129-.074-.149-.262-.129.074.149.262zm1.167-.664l.259-.148-.149-.262-.259.148.149.262zm1.297-.738l.259-.148-.149-.262-.259.148.149.262zm1.297-.738l.259-.147-.149-.263-.259.148.149.262zm1.297-.738l.259-.147-.149-.262-.259.147.149.262zm1.297-.738l.259-.147-.149-.262-.259.147.149.262zm1.297-.737l.259-.148-.149-.262-.259.147.149.263zm1.297-.738l.259-.148-.149-.262-.259.148.149.262zm1.297-.738l.259-.148-.149-.262-.259.148.149.262zm1.297-.738l.259-.148-.149-.262-.259.148.149.262zm1.297-.738l.259-.148-.149-.261-.259.147.149.262zm1.297-.738l.259-.147-.149-.262-.259.147.149.262zm1.296-.738l.26-.147-.149-.262-.259.147.148.262zm1.297-.737l.26-.148-.149-.262-.259.148.148.262zm1.297-.738l.26-.148-.149-.262-.26.148.149.262zm1.297-.738l.26-.148-.149-.262-.26.148.149.262zm1.297-.738l.26-.148-.149-.262-.26.148.149.262zm1.297-.738l.26-.147-.149-.262-.26.147.149.262zm1.297-.738l.26-.147-.149-.262-.26.147.149.262zm1.297-.738l.26-.147-.149-.262-.26.148.149.261zm1.297-.737l.26-.148-.149-.262-.26.148.149.262zm1.297-.738l.26-.148-.149-.262-.26.148.149.262zm1.297-.738l.26-.148-.149-.262-.26.148.149.262zm1.297-.738l.26-.148-.149-.262-.26.148.149.262zm1.297-.738l.259-.147-.148-.262-.26.147.149.262zm1.297-.738l.259-.147-.148-.262-.26.147.149.262zm1.297-.737l.259-.148-.149-.262-.259.148.149.262zm1.297-.738l.259-.148-.149-.262-.259.148.149.262zm1.297-.738l.259-.148-.149-.262-.259.148.149.262zm1.297-.738l.259-.148-.149-.262-.259.148.149.262zm1.297-.738l.259-.148-.149-.261-.259.147.149.262zm1.297-.738l.259-.147-.149-.262-.259.147.149.262zm1.297-.738l.259-.147-.149-.262-.259.147.149.262zm1.297-.738l.259-.147-.149-.262-.259.148.149.261zm1.297-.737l.259-.148-.149-.262-.259.148.149.262zm1.297-.738l.259-.148-.149-.262-.259.148.149.262zm1.297-.738l.259-.148-.149-.262-.259.148.149.262zm1.297-.738l.259-.148-.149-.261-.259.147.149.262zm1.297-.738l.129-.074-.149-.262-.129.074.149.262zm.129-.074a.733.733 0 00.128-.09l-.199-.227a.47.47 0 01-.078.055l.149.262zm.136-1.212a.737.737 0 00-.127-.093l-.152.26a.46.46 0 01.077.057l.202-.224zm-.127-.093l-.128-.075-.152.26.128.075.152-.26zm-1.151-.674l-.256-.15-.153.26.256.15.153-.26zm-1.28-.75l-.256-.15-.153.26.256.15.153-.26zm-1.28-.75l-.256-.15-.152.26.256.15.152-.26zm-1.28-.749l-.256-.15-.152.26.256.15.152-.26zm-1.279-.75l-.256-.15-.153.26.256.15.153-.26zm-1.28-.749l-.256-.15-.153.26.256.15.153-.26zm-1.28-.75l-.256-.15-.152.26.256.15.152-.26zm-1.28-.75l-.256-.149-.152.26.256.15.152-.26zm-1.279-.749l-.256-.15-.153.26.256.15.153-.26zm-1.28-.75l-.256-.15-.153.261.256.15.153-.26zm-1.28-.749l-.256-.15-.152.26.256.15.152-.26zm-1.28-.75l-.256-.15-.152.261.256.15.152-.26zm-1.279-.749l-.256-.15-.153.26.256.15.153-.26zm-1.28-.75l-.256-.15-.153.26.256.15.153-.26zm-1.28-.749l-.128-.075-.152.26.128.075.152-.26zm-.128-.075a.474.474 0 01-.078-.057l-.203.223a.71.71 0 00.129.094l.152-.26zm-.06-.738a.467.467 0 01.081-.053l-.138-.268a.743.743 0 00-.134.088l.191.233zm.081-.053l.132-.069-.139-.267-.131.068.138.268zm1.186-.615l.263-.136-.138-.268-.264.137.139.267zm1.317-.683l.264-.136-.139-.268-.263.137.138.267zm1.318-.682l.263-.137-.138-.267-.264.136.139.268zm1.317-.683l.264-.136-.139-.268-.263.137.138.267zm1.318-.682l.263-.137-.139-.268-.263.137.139.268zm1.317-.683l.263-.137-.138-.267-.264.136.139.268zm1.317-.683l.264-.136-.139-.268-.263.137.138.267zm1.318-.682l.263-.137-.138-.268-.264.137.139.268zm1.317-.683l.264-.137-.139-.267-.263.136.138.268zm1.318-.683l.263-.136-.138-.268-.264.137.139.267zm1.317-.682l.264-.137-.139-.267-.263.136.138.268zm1.317-.683l.264-.136-.139-.268-.263.136.138.268zm1.318-.683l.263-.136-.138-.268-.264.137.139.267zm1.317-.682l.264-.137-.139-.267-.263.136.138.268zm1.318-.683l.263-.137-.138-.267-.264.136.139.268zm1.317-.683l.264-.136-.139-.268-.263.137.138.267zm1.318-.682l.263-.137-.139-.267-.263.136.139.268zm1.317-.683l.263-.136-.138-.268-.264.136.139.268zm1.317-.683l.264-.136-.139-.268-.263.137.138.267zm1.318-.682l.132-.069-.139-.267-.132.068.139.268zm.132-.069a.491.491 0 01.042-.019l-.11-.28a.73.73 0 00-.071.032l.139.268zm.407-.004a.41.41 0 01.041.023l.16-.256a.758.758 0 00-.068-.038l-.133.27zm.041.023l.134.084.161-.255-.135-.085-.16.256zm1.209.758l.269.169.16-.255-.268-.17-.161.256zm1.344.843l.269.169.16-.256-.268-.168-.161.255zm1.344.843l.269.168.16-.255-.269-.168-.16.255zm1.344.843l.269.168.16-.255-.269-.169-.16.256zm1.344.842l.268.169.161-.255-.269-.169-.16.255zm1.343.843l.269.169.161-.256-.269-.168-.161.255zm1.344.843l.135.084.16-.255-.134-.084-.161.255zm.135.084a.51.51 0 01.074.058l.208-.218a.77.77 0 00-.122-.095l-.16.255zm.06.721a.458.458 0 01-.077.055l.15.261a.76.76 0 00.126-.09l-.199-.226zm-.077.055l-.124.071.149.262.125-.072-.15-.261zm-1.124.643l-.25.143.15.262.25-.143-.15-.262zm-1.249.715l-.125.071.149.262.125-.072-.149-.261zM132.772 68.435l12.458-7.199 12.351 7.496-12.687 7.548-12.122-7.845z" fill="#F2F1F6"/><path d="M144.57 59.116l-13.586 7.838a1.88 1.88 0 00-.081 3.21l13.217 8.54a1.907 1.907 0 002.007.039l13.835-8.217a1.879 1.879 0 00.014-3.227l-13.466-8.162a1.908 1.908 0 00-1.94-.02z" stroke="#F2F1F6" stroke-width=".301"/><path d="M162.874 27.682l12.458-7.2 12.35 7.495-12.686 7.55-12.122-7.845z" fill="#F2F1F6"/><path d="M174.673 18.361L161.086 26.2a1.88 1.88 0 00-.081 3.21l13.217 8.54a1.905 1.905 0 002.006.039l13.835-8.218a1.88 1.88 0 00.015-3.228l-13.466-8.16a1.906 1.906 0 00-1.939-.022z" stroke="#F2F1F6" stroke-width=".301"/><path d="M174.07 21.455l-3.184-2.28c.557.412 1.333.43 2.216-.02l3.185 2.28c-.942.443-1.713.367-2.217.02z" fill="#C0BFC4"/><path d="M176.028 11.998l3.184 2.279c.504.347.789 1.09.69 2.093-.194 1.947-1.798 4.232-3.616 5.066l-3.184-2.28c1.818-.833 3.475-3.053 3.615-5.065.094-.944-.191-1.687-.689-2.093z" fill="#C0BFC4"/><path d="M178.152 8.691l3.185 2.28c-.949-.69-2.324-.705-3.959.088l-3.676-2.15c1.688-.728 3.502-.907 4.45-.218z" fill="#DEDDE2"/><path d="M174.824 28.915l-3.244-2.285c-1.512-1.042-4.53-3.782-4.102-8.684.298-3.605 2.955-7.454 6.224-9.039l3.676 2.15c-3.263 1.525-6.352 5.51-6.651 9.115-.428 4.902 2.585 7.7 4.097 8.743z" fill="#DEDDE2"/><path d="M177.266 10.987c3.323-1.52 5.724.206 5.366 3.804-.639 6.43-7.008 14.502-7.144 14.667-.112-.07-5.46-2.86-4.82-9.29.352-3.54 3.335-7.655 6.598-9.181zm-.98 10.448c1.819-.834 3.476-3.054 3.616-5.066.194-1.946-1.146-2.912-2.965-2.078-1.818.833-3.416 3.06-3.615 5.065-.194 1.947 1.146 2.913 2.964 2.079z" fill="#E9E8ED"/><path d="M143.998 61.91l-3.185-2.28c.558.413 1.334.43 2.217-.02l3.185 2.28c-.942.444-1.713.368-2.217.02z" fill="#C0BFC4"/><path d="M145.956 52.453l3.185 2.28c.504.347.789 1.09.689 2.093-.194 1.947-1.797 4.231-3.616 5.065l-3.184-2.279c1.818-.834 3.475-3.054 3.615-5.065.094-.944-.191-1.687-.689-2.093z" fill="#C0BFC4"/><path d="M148.08 49.147l3.185 2.28c-.949-.689-2.324-.705-3.959.087l-3.677-2.15c1.689-.727 3.502-.906 4.451-.217z" fill="#DEDDE2"/><path d="M144.752 69.37l-3.243-2.284c-1.513-1.043-4.532-3.782-4.104-8.684.299-3.605 2.955-7.454 6.225-9.038l3.676 2.149c-3.264 1.525-6.353 5.51-6.651 9.115-.428 4.902 2.585 7.7 4.097 8.743z" fill="#DEDDE2"/><path d="M147.193 51.443c3.323-1.52 5.725.206 5.367 3.805-.64 6.43-7.008 14.5-7.144 14.666-.112-.07-5.46-2.86-4.821-9.291.352-3.54 3.335-7.654 6.598-9.18zm-.979 10.448c1.818-.834 3.475-3.054 3.616-5.065.193-1.947-1.147-2.913-2.965-2.08-1.819.834-3.416 3.06-3.616 5.066-.194 1.947 1.147 2.913 2.965 2.079z" fill="#E9E8ED"/><path d="M4.64 104.981c-1.155-.639-1.164-2.297-.015-2.951l56.664-32.224a1.692 1.692 0 011.641-.019l44.596 24.091c1.164.63 1.187 2.291.04 2.953l-56.743 32.76a1.694 1.694 0 01-1.665.015L4.64 104.981z" fill="#E8E7EC"/><path d="M80.02 108.011l.344-57.428L56.666 36.91l-.344 56.744L80.02 108.01z" fill="#F2F1F6" stroke="#fff" stroke-width=".564"/><path d="M103.03 94.68L80.363 108.01V50.583L103.03 36.91v57.77z" fill="#F2F1F6" stroke="#fff" stroke-width=".564"/><path d="M80.364 22.553L103.03 36.91 80.364 50.583 57.01 36.91l23.354-14.357z" fill="#F2F1F6" stroke="#fff" stroke-width=".564"/><mask id="aza" maskUnits="userSpaceOnUse" x="83" y="87" width="7" height="16"><path d="M83.11 91.603l6.846-3.76v10.596l-6.846 4.102V91.603z" fill="#C4C4C4"/></mask><g mask="url(#aza)" fill="#fff"><path d="M79.921 83.74h-.245v22.491h.245v-22.49zM80.273 83.741h-.245v22.491h.245v-22.49zM80.76 83.741h-.244v20.378h.245V83.741zM81.386 83.741h-.413v20.378h.413V83.741zM81.644 83.741h-.137v20.378h.137V83.741zM82.5 83.741h-.444v20.378h.443V83.741zM82.974 83.741h-.246v20.378h.246V83.741zM83.658 83.741h-.396v20.378h.396V83.741zM84.422 83.741h-.55v20.378h.55V83.741zM84.729 83.741h-.153v20.378h.153V83.741zM85.094 83.741h-.153V106.2h.153V83.741zM85.43 83.741h-.154V106.2h.154V83.741zM85.797 83.741h-.153V106.2h.153V83.741zM86.177 83.802h-.153v20.378h.153V83.801zM86.59 83.802h-.153v20.378h.153V83.801zM87.669 83.802h-.325v20.378h.325V83.801zM88.14 83.802h-.218v20.378h.219V83.801zM88.805 83.802h-.248v20.378h.248V83.801zM89.201 83.802h-.153v20.378h.153V83.801zM89.69 83.802h-.154v20.378h.153V83.801zM90.666 83.81h-.153v22.491h.153v-22.49zM90.315 83.81h-.153v22.491h.153v-22.49zM90.055 83.81h-.153v22.491h.153v-22.49z"/></g><path d="M8.93 80.323L48.425 102.2l25.757-15.04-38.464-22.903L8.93 80.323z" fill="#F2F1F6" stroke="#fff" stroke-width=".564"/><path d="M48.08 122.368V102.2L8.93 80.323v20.168l39.151 21.877z" fill="#E8E7EC" stroke="#fff" stroke-width=".564"/><path d="M74.524 87.501l-26.1 14.699v20.168l26.1-14.699V87.501z" fill="#FAFBFD" stroke="#fff" stroke-width=".564"/><path d="M19.919 73.486l18.201 9.571V96.39L19.92 86.476v-12.99z" fill="#E8E7EC" stroke="#fff" stroke-width=".564"/><path d="M37.09 63.573l-17.17 9.914 17.858 9.57 17.858-9.912-18.545-9.572z" fill="#F2F1F6" stroke="#fff" stroke-width=".564"/><path d="M55.636 86.817L38.12 96.39V82.715l17.516-9.57v13.672z" fill="#F2F1F6" stroke="#fff" stroke-width=".564"/><path d="M47.05 75.195l-9.273 4.786v-7.52l9.272-4.786v7.52z" fill="#F2F1F6"/><path d="M37.777 79.98h-.141v.232l.205-.106-.064-.125zm9.272-4.785l.065.126.076-.04v-.086h-.14zm0-7.52h.141l-.205-.125.064.125zm-9.272 4.786l-.065-.126-.076.04v.086h.14zm.064 7.645l9.273-4.785-.13-.251-9.272 4.786.13.25zm9.35-4.91v-7.521h-.283v7.52h.282zm-.206-7.646l-9.273 4.785.13.25 9.272-4.785-.13-.25zm-9.35 4.91v7.52h.283v-7.52h-.282z" fill="#2C3345"/><path d="M37.778 62.206l9.272 5.469-9.272 4.785-8.93-5.127 8.93-5.127z" fill="#F2F1F6"/><path d="M47.05 67.675l.065.125.007-.247-.072.122zm-9.272-5.47l.071-.12-.07-.043-.072.041.07.123zm-8.93 5.128l-.07-.122v.244l.07-.122zm8.93 5.127l-.07.123.066.038.068-.035-.064-.126zm9.344-4.907l-9.273-5.469-.143.243 9.273 5.47.143-.244zm-9.415-5.47l-8.929 5.128.14.244 8.93-5.127-.14-.245zm-8.929 5.372l8.93 5.128.14-.245-8.93-5.127-.14.244zm9.064 5.13l9.273-4.785-.13-.25-9.272 4.785.13.25z" fill="#2C3345"/><path d="M28.848 75.195v-7.862l8.929 5.128v7.52l-8.93-4.786z" fill="#F2F1F6"/><path d="M28.848 67.333l.07-.122-.211.122h.14zm0 7.862h-.141v.084l.074.04.067-.124zm8.929 4.785l-.067.125.208.11v-.235h-.141zm0-7.52h.14v-.081l-.07-.04-.07.122zm-9.07-5.127v7.862h.282v-7.862h-.282zm.074 7.986l8.93 4.786.133-.249-8.93-4.785-.133.248zm9.137 4.661v-7.52h-.282v7.52h.282zm-.07-7.642l-8.93-5.127-.14.244 8.929 5.128.14-.245z" fill="#2C3345"/><path d="M33.927 64.72l8.586 5.127.145-.242-8.587-5.127-.144.242z" fill="#00CF3E"/><mask id="azb" maskUnits="userSpaceOnUse" x="48" y="83" width="7" height="7"><path d="M48.767 86.405l5.637-3.006v2.605l-5.637 3.206v-2.805z" fill="#C4C4C4"/></mask><g mask="url(#azb)" fill="#2C3345"><path d="M48.902 83.4h-.135v5.992h.135v-5.993zM49.095 83.4h-.135v5.992h.135V83.4zM49.363 83.4h-.134v5.43h.134V83.4zM49.707 83.4h-.227v5.43h.227V83.4zM49.849 83.4h-.076v5.43h.075V83.4zM50.319 83.4h-.244v5.43h.244V83.4zM50.58 83.4h-.135v5.43h.134V83.4zM50.956 83.4h-.218v5.43h.218V83.4zM51.375 83.4h-.302v5.43h.302V83.4zM51.544 83.4h-.084v5.43h.084V83.4zM51.745 83.4h-.084v5.984h.084v-5.985zM51.93 83.4h-.085v5.984h.084v-5.985zM52.131 83.4h-.084v5.984h.084v-5.985zM52.34 83.415h-.084v5.43h.084v-5.43zM52.567 83.415h-.084v5.43h.084v-5.43zM53.16 83.415h-.179v5.43h.179v-5.43zM53.42 83.415h-.12v5.43h.12v-5.43zM53.784 83.415h-.136v5.43h.136v-5.43zM54.002 83.415h-.084v5.43h.084v-5.43zM54.27 83.415h-.084v5.43h.084v-5.43zM54.807 83.418h-.084v5.993h.084v-5.993zM54.614 83.418h-.084v5.993h.084v-5.993zM54.471 83.418h-.084v5.993h.084v-5.993z"/></g><mask id="azc" maskUnits="userSpaceOnUse" x="63" y="102" width="11" height="12"><path d="M63.191 108.023l10.28-5.481v4.75l-10.28 5.846v-5.115z" fill="#C4C4C4"/></mask><g mask="url(#azc)" fill="#fff"><path d="M63.437 102.542h-.246v10.928h.246v-10.928zM63.79 102.542h-.246v10.928h.245v-10.928zM64.279 102.542h-.246v9.902h.246v-9.902zM64.905 102.542h-.413v9.902h.413v-9.902zM65.163 102.542h-.137v9.902h.137v-9.902zM66.02 102.542h-.443v9.902h.444v-9.902zM66.496 102.542h-.246v9.902h.246v-9.902zM67.182 102.542h-.397v9.902h.397v-9.902zM67.948 102.542h-.551v9.902h.55v-9.902zM68.255 102.542h-.153v9.902h.153v-9.902zM68.622 102.542h-.154v10.913h.154v-10.913zM68.957 102.542h-.153v10.913h.153v-10.913zM69.326 102.542h-.154v10.913h.154v-10.913zM69.707 102.572h-.154v9.901h.154v-9.901zM70.12 102.572h-.153v9.901h.153v-9.901zM71.201 102.572h-.325v9.901h.325v-9.901zM71.675 102.572h-.22v9.901h.22v-9.901zM72.34 102.572h-.248v9.901h.248v-9.901zM72.737 102.572h-.153v9.901h.153v-9.901zM73.226 102.572h-.153v9.901h.153v-9.901zM74.205 102.576h-.154v10.928h.154v-10.928zM73.853 102.576H73.7v10.928h.153v-10.928zM73.593 102.576h-.153v10.928h.153v-10.928z"/></g><mask id="azd" maskUnits="userSpaceOnUse" x="42" y="73" width="5" height="4"><path d="M42.585 75.09l3.648-1.946v1.686l-3.648 2.075V75.09z" fill="#C4C4C4"/></mask><g mask="url(#azd)" fill="#2C3345"><path d="M42.673 73.144h-.088v3.879h.088v-3.879zM42.798 73.144h-.087v3.879h.087v-3.879zM42.971 73.144h-.087v3.514h.087v-3.514zM43.194 73.144h-.147v3.514h.147v-3.514zM43.285 73.144h-.048v3.514h.048v-3.514zM43.59 73.144h-.158v3.514h.157v-3.514zM43.758 73.144h-.087v3.514h.087v-3.514zM44.002 73.144h-.141v3.514H44v-3.514zM44.273 73.144h-.195v3.514h.195v-3.514zM44.382 73.144h-.054v3.514h.054v-3.514zM44.512 73.144h-.054v3.873h.054v-3.873zM44.632 73.144h-.055v3.873h.055v-3.873zM44.762 73.144h-.054v3.873h.054v-3.873zM44.897 73.155h-.054v3.514h.054v-3.514zM45.044 73.155h-.054v3.514h.054v-3.514zM45.428 73.155h-.116v3.514h.116v-3.514zM45.596 73.155h-.078v3.514h.078v-3.514zM45.832 73.155h-.088v3.514h.088v-3.514zM45.973 73.155h-.055v3.514h.055v-3.514zM46.146 73.155h-.054v3.514h.054v-3.514zM46.494 73.156h-.055v3.879h.055v-3.879zM46.369 73.156h-.055v3.879h.055v-3.879zM46.276 73.156h-.054v3.879h.054v-3.879z"/></g><path fill="#F2F1F6" d="M108.522 155.772h70.237v1.501h-70.237z"/><path opacity=".2" fill="#00CF3E" d="M172.127 143.17h9.948v1.501h-9.948zM90.133 140.47h36.777v1.2H90.133z"/><path fill="#F2F1F6" d="M219.157 148.871h20.197v1.501h-20.197zM186.898 174.145h42.504v1.501h-42.504z"/><ellipse cx="233.924" cy="27.054" rx="5.125" ry="5.101" fill="#F2F1F6"/><ellipse cx="236.185" cy="47.607" rx="1.959" ry="1.951" fill="#00CF3E"/><ellipse cx="205.437" cy="68.91" rx="2.562" ry="2.55" fill="#00CF3E"/><path d="M239.985 127.783l-45.967-26.494c-2.514-1.414-6.887-1.251-9.729.381l-96.417 55.273c-2.897 1.632-3.225 4.135-.71 5.604l45.967 26.494c2.514 1.415 6.887 1.251 9.729-.381l96.471-55.219c2.843-1.686 3.171-4.189.656-5.658z" fill="#F2F1F6"/><path d="M137.393 184.363c-1.749 0-3.389-.381-4.646-1.089L86.78 156.78c-1.367-.761-2.077-1.904-2.077-3.155 0-1.415 1.038-2.829 2.787-3.863l96.472-55.219c3.17-1.795 7.816-1.958 10.549-.38l45.967 26.494c1.367.761 2.077 1.904 2.077 3.155 0 1.414-1.038 2.829-2.787 3.863l-96.526 55.164c-1.695.98-3.827 1.524-5.849 1.524zm52.417-89.711c-1.803 0-3.662.435-5.083 1.251l-96.472 55.274c-1.257.707-1.967 1.632-1.967 2.448 0 .816.71 1.414 1.257 1.741l45.967 26.494c2.241 1.306 6.341 1.088 8.964-.381l96.417-55.273c1.257-.707 1.968-1.632 1.968-2.448 0-.816-.711-1.415-1.257-1.741l-45.968-26.495c-.984-.598-2.35-.87-3.826-.87z" fill="#fff"/><path d="M131.763 172.719l-47.826-27.528c-1.585-.924-2.296-2.121-2.241-3.373v-6.909l2.678 3.101a4.81 4.81 0 01.547-.326l97.838-56.035c3.881-2.23 9.729-2.448 13.118-.544l47.17 27.201c.929-1.033 2.951-3.21 2.951-3.21v6.746c.055 1.524-1.038 3.156-3.225 4.407l-97.838 56.035c-3.935 2.176-9.783 2.394-13.172.435z" fill="#E8E7EC"/><path d="M105.91 155.856l2.733 1.578c.382.218.656 0 .656-.49 0-.489-.274-1.034-.656-1.251l-2.733-1.578c-.383-.218-.656 0-.656.49 0 .435.273 1.033.656 1.251z" fill="#00CF3E"/><path d="M182.759 81.595c3.881-2.23 9.729-2.448 13.118-.544l47.17 27.201c.929-1.033 2.951-3.21 2.951-3.21v6.746c.055 1.524-1.038 3.156-3.225 4.407l-97.838 56.035c-2.022 1.143-4.591 1.796-7.05 1.85l.109-66.753 44.765-25.732z" fill="#E8E7EC"/><path d="M243.702 101.725l-47.825-27.582c-3.335-1.959-9.238-1.687-13.118.544l-97.838 56.035c-3.881 2.23-4.318 5.603-.93 7.507l47.826 27.583c3.334 1.958 9.238 1.686 13.118-.544l97.838-56.035c3.881-2.231 4.264-5.604.929-7.508z" fill="#F2F1F6"/><path d="M131.763 166.519l-47.826-27.528c-1.749-.979-2.46-2.394-2.186-3.808.11 1.142.82 2.23 2.241 3.047l47.826 27.582c3.334 1.958 9.237 1.686 13.118-.544l97.838-56.035c1.858-1.088 2.951-2.448 3.17-3.754.109 1.523-.984 3.21-3.225 4.461l-97.838 56.035c-3.88 2.285-9.784 2.503-13.118.544z" fill="#fff"/><path d="M239.985 102.813l-45.967-26.495c-2.514-1.414-6.887-1.25-9.729.381l-96.417 55.219c-2.897 1.632-3.225 4.135-.71 5.604l45.967 26.494c2.514 1.415 6.887 1.251 9.729-.381l96.471-55.219c2.843-1.686 3.171-4.189.656-5.603z" fill="#fff"/><path d="M191.723 135.617l-84.174-14.961 14.211-8.161 83.08 15.777-13.117 7.345zM217.411 120.928l-78.161-13.873 6.559-2.448 77.068 13.329-5.466 2.992zM226.704 115.76l-78.161-13.873 6.559-2.448 77.068 13.329-5.466 2.992z" fill="#F5F5F5"/><ellipse opacity=".2" rx="41.248" ry="21.145" transform="matrix(.91726 -.39828 .40142 .9159 157.902 120.871)" fill="#DEDDE2"/><path d="M150.182 149.171l4.141 2.061 6.903-10.718-3.451-2.199c-3.67-1.99-7.602 5.625-7.593 10.856z" fill="#000" stroke="#000" stroke-width=".275"/><ellipse rx="4.065" ry="6.533" transform="matrix(.86685 .49857 -.50143 .8652 157.538 145.719)" fill="#2C3345"/><ellipse rx="2.72" ry="4.603" transform="matrix(.867 .49831 -.5017 .86505 157.57 145.733)" fill="#fff"/><ellipse rx=".69" ry=".963" transform="matrix(.91107 .41225 -.41548 .9096 157.837 145.748)" fill="#2C3345"/><path d="M190.212 129.445l2.819 1.403 6.297-11.066-2.846-1.851c-3.612-.826-8.47 3.779-7.868 9.403.1.935.756 1.692 1.598 2.111z" fill="#000" stroke="#000" stroke-width=".275"/><ellipse rx="4.065" ry="6.533" transform="matrix(.86685 .49857 -.50143 .8652 196.247 125.333)" fill="#2C3345"/><ellipse rx="2.72" ry="4.603" transform="matrix(.867 .49831 -.5017 .86505 196.278 125.345)" fill="#fff"/><ellipse rx=".69" ry=".963" transform="matrix(.91107 .41225 -.41548 .9096 196.495 125.411)" fill="#2C3345"/><path d="M165.507 108.997v28.857l44.455-26.384V82.75l-44.455 26.247z" fill="#F2F1F6"/><path d="M165.507 108.997l-24.989-14.428v27.895l24.989 15.39v-28.857z" fill="#E8E7EC"/><path d="M209.963 82.75l-44.455 26.247-24.989-14.429 44.455-26.108 24.989 14.29z" fill="#FCFBFF"/><path d="M162.607 136.659c-9.94 2.419-11.412 9.802-10.906 13.192-4.86 1.649-9.388 1.237-10.63.55l-13.668-8.245c-1.988-1.099-3.176-2.886-3.176-4.123v-9.619c.138-7.695 4.28-13.191 5.247-14.84.966-1.649 8.559-6.459 10.216-7.283 1.325-.66 2.393-.458 2.761-.275l17.395 10.993c2.32 1.539 2.808 6.321 2.761 8.52v11.13z" fill="#2C3345" stroke="#2C3345" stroke-width=".275"/><path d="M160.26 127.653l-11.252 10.805c-.178.17-.471.029-.462-.217.565-15.252 6.724-14.99 11.714-17.046v6.458zM141.898 136.447c-5.853-2.308-13.944-8.382-17.257-11.13-.684-1.041 2.195-8.088 4.418-11.099.552-.55 1.196-.078 1.519.106 4.786 3.069 14.827 9.454 16.705 10.443 1.877.99 1.886 2.337 1.656 2.886-.368 1.42-1.27 4.864-1.932 7.283-.663 2.418-3.682 2.015-5.109 1.511z" fill="#22293B"/><path d="M149.008 138.458l-.096-.099.096.099zm11.252-10.805l.095.1a.14.14 0 00.043-.1h-.138zm0-6.458h.138a.136.136 0 00-.061-.114.135.135 0 00-.129-.013l.052.127zm-11.714 17.046l.138.005-.138-.005zm-23.905-12.924l-.115.075a.163.163 0 00.027.031l.088-.106zm17.257 11.13l-.05.128.005.002.045-.13zm5.109-1.511l-.133-.037.133.037zm1.932-7.283l-.126-.053-.007.019.133.034zm-1.656-2.886l.064-.122-.064.122zm-16.705-10.443l.074-.116-.006-.004-.068.12zm-1.519-.106l-.097-.097-.014.016.111.081zm20.044 24.339l11.252-10.804-.19-.199-11.253 10.805.191.198zm11.295-10.904v-6.458h-.275v6.458h.275zm-.19-6.585a32.27 32.27 0 01-1.905.694c-.646.219-1.302.438-1.949.691-1.296.506-2.57 1.15-3.705 2.216-2.273 2.135-3.957 5.927-4.24 13.567l.275.01c.282-7.611 1.958-11.315 4.154-13.376 1.099-1.033 2.336-1.661 3.616-2.161.64-.25 1.289-.467 1.937-.687a31.89 31.89 0 001.922-.7l-.105-.254zm-35.655 4.355c3.314 2.748 11.419 8.835 17.295 11.152l.101-.256c-5.832-2.299-13.907-8.36-17.22-11.108l-.176.212zm17.3 11.154c.726.257 1.86.489 2.905.347.523-.072 1.031-.238 1.453-.55.424-.314.755-.768.928-1.402l-.265-.073c-.158.576-.453.978-.826 1.254-.375.277-.835.431-1.328.498-.987.135-2.075-.086-2.776-.333l-.091.259zm5.286-1.605a673.977 673.977 0 001.934-7.284l-.267-.069a664.076 664.076 0 01-1.932 7.28l.265.073zm1.927-7.266c.261-.622.215-2.041-1.719-3.061l-.128.244c1.821.96 1.793 2.234 1.594 2.711l.253.106zm-1.719-3.061c-1.871-.985-11.905-7.366-16.695-10.437l-.149.231c4.782 3.067 14.831 9.457 16.716 10.45l.128-.244zm-16.701-10.441c-.148-.084-.413-.263-.706-.341a.957.957 0 00-.978.258l.194.195a.683.683 0 01.713-.187c.248.066.466.215.641.314l.136-.239zm-1.698-.067c-1.121 1.518-2.402 4.044-3.316 6.318-.457 1.137-.825 2.216-1.036 3.079a6.56 6.56 0 00-.19 1.122c-.018.302.008.566.12.736l.23-.151c-.059-.09-.093-.273-.075-.568.016-.287.079-.651.183-1.074.206-.845.569-1.911 1.023-3.042.91-2.263 2.181-4.765 3.282-6.257l-.221-.163zm19.964 24.222c-.08.077-.233.02-.228-.113l-.275-.01c-.013.359.42.585.694.321l-.191-.198z" fill="#22293B"/><path d="M146.369 144.083c-4.543-1.345-6.902-.588-7.855.239-.393.341-.367.928-.014 1.311 1.545 1.668 5.166 2.168 7.413 2.219.441.011.887-.137 1.146-.493.613-.844.508-1.803.249-2.485-.153-.404-.524-.669-.939-.791z" fill="#00CF3E" stroke="#00CF3E" stroke-width=".275"/><path d="M160.015 132.763l-1.383.59a.275.275 0 00-.167.253v.914c0 .197.202.33.383.253l1.383-.59a.275.275 0 00.167-.253v-.914a.275.275 0 00-.383-.253z" fill="#00CF3E"/><path d="M130.579 139.197l6.213 3.435v2.061l-6.213-3.71v-1.786z" fill="#fff"/><path d="M124.227 137.272v-4.122c5.22 4.439 4.732 5.883 3.527 6.143-.402.087-.805-.086-1.141-.325l-2.386-1.696z" fill="#00CF3E"/><path d="M124.227 133.15l.089-.105a.135.135 0 00-.146-.02.136.136 0 00-.08.125h.137zm0 4.122h-.137v.071l.058.041.079-.112zm2.386 1.696l.08-.112-.08.112zm1.141.325l.029.134-.029-.134zm-3.664-6.143v4.122h.275v-4.122h-.275zm.058 4.234l2.385 1.696.16-.224-2.386-1.696-.159.224zm3.635 2.043c.321-.069.622-.223.783-.513.161-.291.16-.682-.038-1.176-.394-.983-1.601-2.473-4.212-4.693l-.178.21c2.61 2.219 3.768 3.671 4.134 4.585.182.453.159.75.053.941-.107.193-.319.317-.6.377l.058.269zm-1.25-.347c.348.247.791.446 1.25.347l-.058-.269c-.346.075-.708-.071-1.032-.302l-.16.224z" fill="#00CF3E"/></svg><svg fill="none" viewBox="0 0 869 505" id="hero3" xmlns="http://www.w3.org/2000/svg"><path d="M820.929 364.298v4.134h10.323l1.685-4.755c-.505 0-2.879 2.481-4.002 3.721l.21-2.894-2.738 2.274c.21-1.378.632-4.175.632-4.341 0-.165-2.809 3.239-4.214 4.961l-1.896-3.1zM831.937 354.676v2.756h-6.882l-1.124-3.17c.337 0 1.92 1.654 2.669 2.481l-.141-1.93 1.826 1.516c-.14-.918-.421-2.783-.421-2.893 0-.111 1.872 2.158 2.809 3.307l1.264-2.067zM847.948 354.676v2.756h-6.882l-1.124-3.17c.337 0 1.919 1.654 2.669 2.481l-.141-1.93 1.826 1.516c-.141-.918-.421-2.783-.421-2.893 0-.111 1.872 2.158 2.808 3.307l1.265-2.067zM833.938 365.098l.445 3.334h4.002c0-.715 1.557-4.286 1.557-5l-2.891 2.857-.222-1.905c-.178.19-.964 1.667-1.334 2.381l-1.557-1.667z" fill="#F2F1F6" stroke="#F2F1F6"/><path d="M845.176 357.65l.248-19.41m.247-19.41l-.135 10.587m-.112 8.823l3.361-5.834m-3.361 5.834l.112-8.823m0 0l-6.304-4.436m-11.887 30.123l.591-11.532m.258-5.014l-.258 5.014m0 0l2.239-1.196m4.928 12.389c-.142-2.545-.069-6.308.237-9.631" stroke="#8F929D"/><path fill="#F2F1F6" d="M222.151 430h233.158v5H222.151z"/><path opacity=".2" fill="#00CF3E" d="M433.294 388h33.022v5h-33.022zM161.109 379h122.083v4H161.109z"/><path fill="#F2F1F6" d="M131.089 329h113.077v6H131.089zM455.308 478h110.075v5H455.308zM553.375 421h233.158v5H553.375zM786.533 393h34.023v5h-34.023z"/><ellipse cx="675.958" cy="456.5" rx="8.506" ry="8.5" fill="#2C3345"/><path d="M565.383 106.068s4.816-5.773 10.507-4.996c6.004.001 11.219 7.996 16.511 7.996 11.008 0 7.505-8 17.762-8 10.257 0 8.756 8 17.762 8 4.68 0 10.018-7.218 15.511-7.996 5.079-.72 10.507 4.996 10.507 4.996" stroke="#2C3345" stroke-width="3" stroke-linecap="round" stroke-linejoin="round"/><ellipse cx="734.498" cy="153" rx="17.012" ry="17" fill="#F2F1F6"/><path d="M772.023 107c0 2.485-2.016 4.5-4.503 4.5a4.502 4.502 0 01-4.503-4.5c0-2.485 2.016-4.5 4.503-4.5a4.502 4.502 0 014.503 4.5zM282.692 500c0 2.485-2.016 4.5-4.504 4.5a4.502 4.502 0 01-4.503-4.5c0-2.485 2.016-4.5 4.503-4.5a4.502 4.502 0 014.504 4.5zM249.669 104c0 2.485-2.015 4.5-4.503 4.5a4.502 4.502 0 01-4.503-4.5c0-2.485 2.016-4.5 4.503-4.5a4.501 4.501 0 014.503 4.5z" fill="#00CF3E" stroke="#00CF3E"/><ellipse cx="573.889" cy="6.5" rx="6.504" ry="6.5" fill="#00CF3E"/><ellipse cx="297.702" cy="77.5" rx="8.506" ry="8.5" fill="#00CF3E"/><ellipse cx="307.708" cy="477.5" rx="14.51" ry="14.5" fill="#00CF3E"/><path d="M298.202 331.5v-131l-8.506-12h-80.054V185l147.1-73 104.571-2.5 9.006 16.5 172.617 75.5v130H298.202z" fill="#F9FAFE"/><path d="M298.202 200.5v131h344.734v-130L470.319 126m-172.117 74.5L470.319 126m-172.117 74.5l-8.506-12h-80.054V185l147.1-73 104.571-2.5 9.006 16.5" stroke="#F9FAFE"/><path fill-rule="evenodd" clip-rule="evenodd" d="M646.938 186.5V334H202.137v-3l440.799 1V200.5l-172.617-75-172.617 75h-94.064V331h-1.501V186.5l153.104-76 115.078-3.5 176.619 79.5zm-357.242 0h-80.554l148.6-74 104.071-1.756L289.696 186.5z" fill="#2C3345"/><path d="M646.938 332V186.5L470.319 107m176.619 225h-4.002m4.002 0v2H202.137v-3m268.182-224l-8.506 3.744m8.506-3.744l-115.078 3.5m-153.104 76v14m0-14l153.104-76m-153.104 76h7.005m-7.005 14h1.501m-1.501 0V331m440.799 1V200.5l-172.617-75-172.617 75h-94.064M642.936 332l-440.799-1m153.104-220.5l2.501 2m-148.6 74h80.554l172.117-75.756M209.142 186.5l148.6-74m0 0l104.071-1.756M203.638 200.5V331h-1.501" stroke="#2C3345"/><path fill="#E8EBF5" d="M203.638 201h94.064v130h-94.064z"/><path fill="#fff" d="M203.638 270h94.064v7h-94.064z"/><path d="M424.088 216.337l43.03.001h43.029l.001 115.001-43.029-.001-43.029-.001-.002-115z" stroke="#2C3345" stroke-width="5"/><path d="M468.119 197.837c5.803 0 10.507-4.7 10.507-10.499s-4.704-10.5-10.507-10.5-10.507 4.701-10.507 10.5c.001 5.798 4.705 10.499 10.507 10.499z" stroke="#2C3345" stroke-width="2"/><g clip-path="url(#baclip0)"><path d="M472.954 184.083c-1.18 0-2.359.727-3.133 1.328a2.188 2.188 0 00-.23-.19l1.937-3.279s-.292-.584-1.199-1.184c-.8-.529-1.598-.758-2.311-.758-1.495 0-2.619 1.006-2.619 2.367 0 1.179.727 2.357 1.328 3.131a2.21 2.21 0 00-.19.23l-3.281-1.936s-.584.291-1.184 1.198c-1.639 2.474-.403 4.927 1.609 4.927 1.18 0 2.359-.727 3.133-1.328.073.069.15.132.231.19l-1.938 3.279s.292.584 1.199 1.184c.8.529 1.598.758 2.311.758 1.495 0 2.619-1.006 2.619-2.367 0-1.179-.727-2.357-1.328-3.131a2.21 2.21 0 00.19-.23l3.281 1.936s.584-.291 1.184-1.198c1.639-2.474.403-4.927-1.609-4.927zm-3.017 8.635c-.33.298-.799.462-1.32.462-.6 0-1.243-.215-1.858-.622a3.778 3.778 0 01-.667-.553l1.702-2.881a2.181 2.181 0 001.448-.141c.092.117.187.245.282.381.583.839.891 1.623.891 2.269 0 .428-.165.803-.478 1.085zm-1.619-4.351a1.37 1.37 0 01-1.369-1.367 1.37 1.37 0 012.737 0 1.37 1.37 0 01-1.368 1.367zm-5.949-.072a2.177 2.177 0 01-.225-1.224c.047-.531.258-1.095.612-1.629.202-.304.398-.52.553-.666l2.883 1.701a2.196 2.196 0 00.141 1.447c-.11.086-.23.176-.357.265-.848.593-1.642.907-2.295.907-.56 0-1.038-.292-1.312-.801zm4.329-7.013c.33-.298.799-.462 1.32-.462.6 0 1.243.215 1.858.622.305.202.521.398.667.553l-1.702 2.881a2.183 2.183 0 00-1.448.141 8.418 8.418 0 01-.282-.381c-.583-.839-.891-1.623-.891-2.269 0-.428.165-.803.478-1.085zm3.604 4.794c.117-.092.245-.187.382-.282.838-.582 1.624-.89 2.27-.89.56 0 1.038.292 1.312.801.187.349.265.772.225 1.224-.047.531-.258 1.095-.612 1.629-.202.304-.397.52-.553.666l-2.883-1.701a2.181 2.181 0 00-.141-1.447z" fill="#00CF3E"/></g><path fill="#404759" d="M503.841 343.5h192.13v22h-192.13z"/><path d="M484.328 231h-2v117.5h239.66V231h-237.66z" fill="#F2F1F6" stroke="#FAFBFD" stroke-width="4"/><path d="M495.836 237.5h5.003v105h-5.003v-105zM510.846 237.5h5.003v105h-5.003v-105zM525.856 237.5h5.004v105h-5.004v-105zM540.866 237.5h5.004v105h-5.004v-105zM555.877 237.5h5.003v105h-5.003v-105zM570.887 237.5h5.003v105h-5.003v-105zM585.897 237.5h5.003v105h-5.003v-105zM600.907 237.5h5.004v105h-5.004v-105zM615.917 237.5h5.004v105h-5.004v-105zM630.927 237.5h5.004v105h-5.004v-105zM645.938 237.5h5.003v105h-5.003v-105zM660.948 237.5h5.003v105h-5.003v-105zM675.958 237.5h5.003v105h-5.003v-105zM690.968 237.5h5.004v105h-5.004v-105zM705.978 237.5h5.004v105h-5.004v-105z" fill="#fff"/><path fill="#2C3345" d="M690.968 340.5h103.07v33h-103.07z"/><path d="M727.993 340.999c17.345-2.5 52.436-1.2 54.037 24h28.019V331.5c-3.169-12.5-11.508-40.3-19.513-51.5-1.001-1.167-4.604-3.5-11.008-3.5h-51.535v64.499z" fill="#363D4F"/><path d="M779.528 276.5c6.404 0 10.007 2.333 11.008 3.5 8.005 11.2 16.344 39 19.513 51.5v33.499h-18.012M779.528 276.5h-51.535m51.535 0h-51.535m0 0v63m0 0v1.499c17.345-2.5 52.436-1.2 54.037 24h10.007M727.993 339.5h64.044v25.499" stroke="#363D4F"/><rect x="804.045" y="352.5" width="16.011" height="15" rx="1" fill="#00CF3E"/><path d="M529.859 395.5c11.604 0 21.013-9.401 21.013-21s-9.409-21-21.013-21c-11.604 0-21.013 9.401-21.013 21s9.409 21 21.013 21z" fill="#fff" stroke="#2C3345" stroke-width="4"/><ellipse cx="529.859" cy="374.5" rx="6.004" ry="6" fill="#C4C4C4"/><path d="M579.893 395.5c11.604 0 21.013-9.401 21.013-21s-9.409-21-21.013-21c-11.604 0-21.013 9.401-21.013 21s9.409 21 21.013 21z" fill="#fff" stroke="#2C3345" stroke-width="4"/><ellipse cx="579.893" cy="374.5" rx="6.004" ry="6" fill="#C4C4C4"/><path d="M750.008 393.5c11.604 0 21.013-9.401 21.013-21s-9.409-21-21.013-21c-11.604 0-21.013 9.401-21.013 21s9.409 21 21.013 21z" fill="#fff" stroke="#2C3345" stroke-width="4"/><ellipse cx="750.008" cy="372.5" rx="6.004" ry="6" fill="#C4C4C4"/><path d="M740.55 309.482c-1.672-.003-3.05-1.349-3.05-3.022V290.5a4 4 0 014-4h28.079c.614 0 1.213.184 1.706.549 6.724 4.985 18.286 17.283 19.651 32.913.187 2.143-2.043 3.475-3.875 2.348-8.95-5.506-15.66-12.781-46.511-12.828z" fill="#0E1527" stroke="#0E1527"/><rect x="735.999" y="315.5" width="12.008" height="5" rx="1" fill="#00CF3E"/><path d="M357.742 336v-43l-10.006 4v39h10.006z" fill="#F2F1F6" stroke="#F2F1F6"/><path d="M400.772 293h-43.03v46h43.03v-46z" fill="#F2F1F6" stroke="#F2F1F6"/><path fill="#00CF3E" d="M378.256 293h6.004v46h-6.004zM351.238 295h2.001v42l-2.001-.74V295z"/><path d="M368.249 338l-10.507.5V379l10.507 2.5V338z" fill="#DEDDE2" stroke="#DEDDE2"/><path d="M410.778 338h-42.529v43.5h42.529V338z" fill="#E8E7EC" stroke="#E8E7EC"/><path fill="#2C3345" d="M388.263 338h6.004v44h-6.004zM360.244 338h3.002v41.825l-3.002-.737V338z"/><path d="M315.714 381.5V336H357.742v45.5h-42.028z" fill="#E8E7EC" stroke="#E8E7EC"/><path d="M304.206 378.999l11.008 2.5v-45.444l-11.008 4.944v38z" fill="#F2F1F6" stroke="#F2F1F6"/><path fill="#2C3345" d="M335.227 336h6.004v46h-6.004z"/><path d="M54.037 352.043v10h24.516l4.003-11.5c-1.2 0-6.838 6-9.507 9l.5-7-6.504 5.5c.5-3.333 1.501-10.1 1.501-10.5 0-.4-6.67 7.834-10.006 12l-4.503-7.5zM81.555 355.543l1 7h9.007c0-1.5 3.502-9 3.502-10.5l-6.504 6-.5-4c-.4.4-2.169 3.5-3.002 5l-3.503-3.5zM50.662 271.421c.542 5.187 5.899 7.224 8.51 7.595 14.953-5.452 18.191-19.202 17.972-26.236-.019-.619-.161-1.219-.348-1.809-.72-2.267-1.74-6.389-1.681-9.938.061-3.686.367-12.398.554-17.441.037-.978-.064-1.964-.45-2.864-2.004-4.665-7.89-11.592-19.419-10.222-12.744 1.513-19.59 13.403-21.419 19.159-8.18 19.792 7.445 36.084 16.281 41.756z" fill="#F2F1F6" stroke="#F2F1F6"/><path d="M60.65 331.606l-.38-40.592m-.114-12.178l.114 12.178m0 0l7.136-11.469" stroke="#8F929D"/><path opacity=".5" d="M60.156 278.836l-.657-22.753m-.774-26.797l.438 15.168m7.135-4.352l-6.437 9.307-.533.771m-.165-5.726l-6.303-4.694m6.303 4.694l.165 5.726m-12.77-15.115l6.302 4.695m0 0l1.928-9.755m4.71 26.078l-17.643-16.137M59.5 256.083l-.17-5.903" stroke="#2C3345"/><path d="M68.046 298.542c-2.001 2.8-1.168 8.5-.5 11-1.97 8.266 1.39 8.495 3.405 7.547 6.327-.363 8.371-11.516 8.603-17.047-4.003-6.8-9.34-3.833-11.508-1.5z" fill="#F2F1F6"/><path d="M71.048 317.042a3.085 3.085 0 01-.097.047m0 0c-2.015.948-5.375.719-3.406-7.547-.667-2.5-1.5-8.2.501-11 2.168-2.333 7.505-5.3 11.508 1.5-.232 5.531-2.276 16.684-8.603 17.047z" stroke="#F2F1F6"/><path opacity=".1" d="M95.065 288.543c12.008 14.4-2.669 23.666-11.508 26.5-4.003-2.5-10.307-10.2-3.502-21 1.5-2.667 6.605-7.5 15.01-5.5z" fill="#00CF3E" stroke="#00CF3E"/><path opacity=".1" d="M102.814 298.861c4.434 8.588-.126 15.797-4.116 19.383-.847.762-2.15.489-2.699-.51-6.373-11.615-.336-17.631 4.647-19.696.825-.342 1.759.029 2.168.823z" fill="#00CF3E" stroke="#00CF3E"/><path opacity=".7" d="M70.047 331.543l.725-10.5m.276-3.5l-.276 3.5m0 0l2.778-1.5" stroke="#8F929D"/><path opacity=".1" d="M83.557 315.543l-1.001 8m-1.501 12l1.5-12m0 0l-3.001-4.5m17.512 0l-.5 16.5" stroke="#00CF3E"/><path d="M34.629 332.6c-13.868-6.647-24.777-1.72-30.849 3.713-1.798 1.609-.503 4.23 1.91 4.23h98.139c2.673 0 3.657-2.835 1.379-4.233a43.216 43.216 0 00-3.139-1.767c-2.256-1.127-12.634.892-18.447 2.247-.69.16-1.412.078-2.05-.229-5.073-2.437-14.916-6.518-20.53-6.518-5.7 0-18.16 1.802-24.546 2.84a3.16 3.16 0 01-1.867-.283zM831.1 262.565c-11.852 45.163 4.24 57.547 13.767 58.094 15.926-1.72 21.25-31.262 19.631-34.025-1.62-2.762-3.135-16.626-3.909-18.255-.619-1.303-4.961-5.27-7.055-7.091-12.996-7.958-20.371-2.465-22.434 1.277z" fill="#F2F1F6" stroke="#F2F1F6"/><path d="M836.564 334.411c4.994 6.696 1.815 10.342-.251 11.59-.738.446-1.593.141-2.072-.576-.863-1.292-1.466-2.809-1.889-4.555l-.014-.057-.252.018c-3.682.272-6.622-1.976-7.632-3.134-5.714-5.886-5.322-18.965.413-20.15 4.588-.948 7.702 3.817 8.685 6.319 3.952 3.406 3.654 8.449 3.012 10.545z" fill="#F2F1F6"/><path d="M836.564 334.411c4.994 6.696 1.815 10.342-.251 11.59-.738.446-1.593.141-2.072-.576-.863-1.292-1.466-2.809-1.889-4.555m4.212-6.459c.642-2.096.94-7.139-3.012-10.545-.983-2.502-4.097-7.267-8.685-6.319-5.735 1.185-6.127 14.264-.413 20.15 1.01 1.158 3.95 3.406 7.632 3.134 3.681-.272 1.711-.087.266.039m4.212-6.459c-4.124 1.155-4.862 3.778-4.212 6.459" stroke="#F2F1F6"/><path d="M844.939 285.964l.211 10.132m.084 4.052l6.493-9.679m-6.493 9.679l.116 5.573m-.116-5.573l-.084-4.052m9.978-10.698l-3.401 5.071m0 0l.849-5.94m-7.067 28.791l.208 7.493v2.133m-.208-9.626l8.54-9.773m-8.54 9.773l-.159-7.599m12.325-6.322l-3.626 4.148m0 0l-.62-6.269m-8.079 8.443l-11.113-5.002m10.913-4.623l-4.336-6.029m-2.951-4.103l2.951 4.103m0 0l1.011-7.073" stroke="#8F929D"/><defs><clipPath id="baclip0"><path fill="#fff" d="M461.313 180h14.009v14h-14.009z"/></clipPath></defs></svg><svg fill="none" viewBox="0 0 1041 688" id="hero_bg2" xmlns="http://www.w3.org/2000/svg"><g opacity=".4" fill="#F2F1F6"><path opacity=".4" d="M951.546 91.344l-.857-.571-88.556-51.101L951.546-12l89.414 51.672-89.414 51.672zm-83.129-51.672l83.129 47.96 83.124-47.96-83.124-47.96-83.129 47.96z"/><path opacity=".4" d="M779.009 91.344l-89.413-51.672L779.009-12l89.413 51.672-89.413 51.672zm-83.128-51.672l83.128 47.96 83.129-47.96-83.129-47.96-83.128 47.96z"/><path opacity=".4" d="M865.277 141.02l-.857-.571-88.556-51.102 89.413-51.671.857.57 88.556 51.101-89.413 51.673zm-83.128-51.673l83.128 47.961 83.128-47.96-83.128-47.961-83.128 47.96z"/><path opacity=".4" d="M951.546 190.694l-.857-.571-88.556-51.101 89.413-51.672.857.57 88.557 51.102-89.414 51.672zm-83.129-51.672l83.129 47.961 83.124-47.961-83.124-47.675-83.129 47.675zM606.465 91.344l-.857-.571-88.556-51.101L606.465-12l89.413 51.672-89.413 51.672zm-82.842-51.672l83.128 47.96 83.128-47.96-83.128-47.96-83.128 47.96z"/><path opacity=".4" d="M692.737 141.02l-89.413-51.673 89.413-51.671 89.413 51.671-89.413 51.673zm-82.843-51.673l83.129 47.961 83.128-47.96-83.128-47.961-83.129 47.96z"/><path opacity=".4" d="M779.009 190.694l-89.413-51.672 89.413-51.672.857.57 88.556 51.102-89.413 51.672zm-83.128-51.672l83.128 47.961 83.129-47.961-83.129-47.675-83.128 47.675z"/><path opacity=".4" d="M865.277 240.364l-.857-.571-88.556-51.101 89.413-51.672.857.571 88.556 51.101-89.413 51.672zm-83.128-51.386l83.128 47.96 83.128-47.96-83.128-47.961-83.128 47.961z"/><path opacity=".4" d="M951.546 290.324l-.857-.571-88.556-51.101 89.413-51.672.857.571 88.557 51.101-89.414 51.672zm-83.129-51.672l83.129 47.961 83.124-47.961-83.124-47.961-83.129 47.961zM434.208 91.344l-.857-.571-88.556-51.101L434.208-12l.857.571 88.556 51.101-89.413 51.672zM351.08 39.672l83.128 47.96 83.128-47.96-83.128-47.96-83.128 47.96z"/><path opacity=".4" d="M520.482 141.02l-.857-.571-88.556-51.102 89.413-51.671.857.57 88.556 51.101-89.413 51.673zm-83.128-51.673l83.128 47.961 83.129-47.96-83.129-47.961-83.128 47.96z"/><path opacity=".4" d="M606.465 190.694l-.857-.571-88.556-51.101 89.413-51.672 89.413 51.672-89.413 51.672zm-82.842-51.672l83.128 47.961 83.128-47.961-83.414-47.675-82.842 47.675z"/><path opacity=".4" d="M692.737 240.364l-89.413-51.672 89.413-51.672 89.413 51.672-89.413 51.672zm-82.843-51.386l83.129 47.96 83.128-47.96-83.128-47.961-83.129 47.961z"/><path opacity=".4" d="M779.009 290.324l-89.413-51.672 89.413-51.672.857.571 88.556 51.101-89.413 51.672zm-83.128-51.672l83.128 47.961 83.129-47.961-83.129-47.961-83.128 47.961z"/><path opacity=".4" d="M865.277 339.998l-.857-.571-88.556-51.101 89.413-51.672.857.571 88.556 51.101-89.413 51.672zm-83.128-51.672l83.128 47.961 83.128-47.961-83.128-47.961-83.128 47.961z"/><path opacity=".4" d="M951.546 389.673l-.857-.571-88.556-51.101 89.413-51.672.857.571 88.557 51.101-89.414 51.672zm-83.129-51.672l83.129 47.961 83.124-47.961-83.124-47.961-83.129 47.961zM261.671 91.344l-.857-.571-88.556-51.101L261.671-12l89.413 51.672-89.413 51.672zm-82.843-51.672l83.129 47.96 83.128-47.96-83.128-47.96-83.129 47.96z"/><path opacity=".4" d="M347.939 141.02l-.857-.571-88.556-51.102 89.413-51.671.857.57 88.556 51.101-89.413 51.673zM264.81 89.347l83.129 47.961 83.128-47.96-83.128-47.961-83.129 47.96z"/><path opacity=".4" d="M434.208 190.694l-89.413-51.672 89.413-51.672.857.57 88.556 51.102-89.413 51.672zm-83.128-51.672l83.128 47.961 83.128-47.961-83.128-47.675-83.128 47.675z"/><path opacity=".4" d="M520.482 240.364l-.857-.571-88.556-51.101 89.413-51.672.857.571 88.556 51.101-89.413 51.672zm-83.128-51.386l83.128 47.96 83.129-47.96-83.129-47.961-83.128 47.961z"/><path opacity=".4" d="M606.465 290.324l-89.413-51.672 89.413-51.672 89.413 51.672-89.413 51.672zm-82.842-51.672l83.128 47.961 83.128-47.961-83.128-47.961-83.128 47.961z"/><path opacity=".4" d="M692.737 339.998l-.857-.571-88.556-51.101 89.413-51.672 89.413 51.672-89.413 51.672zm-82.843-51.672l83.129 47.961 83.128-47.961-83.128-47.961-83.129 47.961z"/><path opacity=".4" d="M779.009 389.673l-.857-.571-88.556-51.101 89.413-51.672.857.571 88.556 51.101-89.413 51.672zm-83.128-51.672l83.128 47.961 83.129-47.961-83.129-47.961-83.128 47.961z"/><path opacity=".4" d="M865.277 439.347l-89.413-51.672 89.413-51.672.857.571 88.556 51.101-89.413 51.672zm-83.128-51.387l83.128 47.961 83.128-47.961-83.128-47.961-83.128 47.961z"/><path opacity=".4" d="M951.546 489.024l-.857-.57-88.556-51.102 89.413-51.671.857.57 88.557 51.101-89.414 51.672zm-83.129-51.386l83.129 47.961 83.124-47.961-83.124-47.961-83.129 47.961zM89.415 91.345L.002 39.673l89.413-51.672.857.571 88.556 51.101-89.413 51.672zM6.287 39.673l83.128 47.96 83.129-47.96-83.129-47.96-83.128 47.96z"/><path opacity=".4" d="M175.682 141.02l-.857-.571-88.556-51.102 89.413-51.671.857.57 88.556 51.101-89.413 51.673zM92.554 89.347l83.128 47.961 83.128-47.96-83.128-47.961-83.128 47.96z"/><path opacity=".4" d="M261.671 190.694l-.857-.571-88.556-51.101 89.413-51.672.857.57 88.556 51.102-89.413 51.672zm-82.843-51.672l83.129 47.961 83.128-47.961-83.414-47.675-82.843 47.675z"/><path opacity=".4" d="M347.939 240.364l-.857-.571-88.556-51.101 89.413-51.672 89.413 51.672-89.413 51.672zm-83.129-51.386l83.129 47.96 83.128-47.96-83.128-47.961-83.129 47.961z"/><path opacity=".4" d="M434.208 290.324l-.857-.571-88.556-51.101 89.413-51.672.857.571 88.556 51.101-89.413 51.672zm-83.128-51.672l83.128 47.961 83.128-47.961-83.128-47.961-83.128 47.961z"/><path opacity=".4" d="M520.482 339.998l-89.413-51.672 89.413-51.672 89.413 51.672-89.413 51.672zm-83.128-51.672l83.128 47.961 83.129-47.961-83.129-47.961-83.128 47.961z"/><path opacity=".4" d="M606.751 389.673l-.857-.571-88.556-51.101 89.413-51.672.857.571 88.556 51.101-89.413 51.672zm-83.128-51.672l83.128 47.961 83.129-47.961-83.129-47.961-83.128 47.961z"/><path opacity=".4" d="M692.737 439.347l-.857-.571-88.556-51.101 89.413-51.672.857.571 88.556 51.101-89.413 51.672zm-82.843-51.387l83.129 47.961 83.128-47.961-83.128-47.961-83.129 47.961z"/><path opacity=".4" d="M779.009 489.024l-.857-.57-88.556-51.102 89.413-51.671 89.413 51.671-89.413 51.672zm-83.128-51.386l83.128 47.961 83.129-47.961-83.129-47.961-83.128 47.961z"/><path opacity=".4" d="M865.277 538.98l-.857-.571-88.556-51.101 89.413-51.672.857.571 88.556 51.101-89.413 51.672zm-83.128-51.672l83.128 47.96 83.128-47.96-83.128-47.961-83.128 47.961z"/><path opacity=".4" d="M951.546 588.649l-89.413-51.672 89.413-51.672.857.571 88.557 51.101-89.414 51.672zm-83.129-51.672l83.129 47.961 83.124-47.961-83.124-47.961-83.129 47.961zM89.413 190.694L0 139.022 89.413 87.35l.857.57 88.556 51.102-89.413 51.672zM6.285 139.022l83.128 47.961 83.128-47.961-83.128-47.675-83.128 47.675z"/><path opacity=".4" d="M175.682 240.364l-.857-.571-88.556-51.101 89.413-51.672.857.571 88.556 51.101-89.413 51.672zm-83.128-51.386l83.128 47.96 83.128-47.96-83.128-47.961-83.128 47.961z"/><path opacity=".4" d="M261.671 290.324l-.857-.571-88.556-51.101 89.413-51.672.857.571 88.556 51.101-89.413 51.672zm-82.843-51.672l83.129 47.961 83.128-47.961-83.128-47.961-83.129 47.961z"/><path opacity=".4" d="M347.939 340l-.857-.571-88.556-51.101 89.413-51.387.857.571 88.556 51.101L347.939 340zm-83.129-51.672l83.129 47.96 83.128-47.96-83.128-47.961-83.129 47.961z"/><path opacity=".4" d="M434.208 389.673l-89.413-51.672 89.413-51.672 89.413 51.672-89.413 51.672zm-83.128-51.672l83.128 47.961 83.128-47.961-83.128-47.961-83.128 47.961z"/><path opacity=".4" d="M520.482 439.347l-89.413-51.672 89.413-51.672.857.571 88.556 51.101-89.413 51.672zm-83.128-51.387l83.128 47.961 83.129-47.961-83.129-47.961-83.128 47.961z"/><path opacity=".4" d="M606.751 489.024l-.857-.57-88.556-51.102 89.413-51.671.857.57 88.556 51.101-89.413 51.672zm-83.128-51.386l83.128 47.961 83.129-47.961-83.129-47.961-83.128 47.961z"/><path opacity=".4" d="M692.737 538.98l-.857-.571-88.556-51.101 89.413-51.672.857.571 88.556 51.101-89.413 51.672zm-82.843-51.672l83.129 47.96 83.128-47.96-83.128-47.961-83.129 47.961z"/><path opacity=".4" d="M779.009 588.649l-.857-.571-88.556-51.101 89.413-51.672.857.571 88.556 51.101-89.413 51.672zm-83.128-51.672l83.128 47.961 83.129-47.961-83.129-47.961-83.128 47.961z"/><path opacity=".4" d="M865.277 638.324l-.857-.571-88.556-51.101 89.413-51.672 89.413 51.672-89.413 51.672zm-83.128-51.387l83.128 47.961 83.128-47.961-83.128-47.961-83.128 47.961z"/><path opacity=".4" d="M951.546 688l-89.413-51.387 89.413-51.672.857.571 88.557 51.101L951.546 688zm-83.129-51.387l83.129 47.961 83.124-47.961-83.124-47.961-83.129 47.961zM89.413 290.324l-.857-.571L0 238.652l89.413-51.672.857.571 88.556 51.101-89.413 51.672zM6.285 238.652l83.128 47.961 83.128-47.961-83.128-47.961-83.128 47.961z"/><path opacity=".4" d="M175.682 339.998l-89.413-51.672 89.413-51.672.857.571 88.556 51.101-89.413 51.672zm-83.128-51.672l83.128 47.961 83.128-47.961-83.128-47.961-83.128 47.961z"/><path opacity=".4" d="M261.671 389.673l-.857-.571-88.556-51.101 89.413-51.672.857.571 88.556 51.101-89.413 51.672zm-82.843-51.672l83.129 47.961 83.128-47.961-83.128-47.961-83.129 47.961z"/><path opacity=".4" d="M347.939 439.347l-.857-.571-88.556-51.101 89.413-51.672 89.413 51.672-89.413 51.672zm-82.843-51.387l83.128 47.961 83.129-47.961-83.414-47.961-82.843 47.961z"/><path opacity=".4" d="M434.208 489.024l-89.413-51.672 89.413-51.671 89.413 51.671-89.413 51.672zm-83.128-51.386l83.128 47.961 83.128-47.961-83.128-47.961-83.128 47.961z"/><path opacity=".4" d="M520.482 538.98l-.857-.571-88.556-51.101 89.413-51.672.857.571 88.556 51.101-89.413 51.672zm-83.128-51.672l83.128 47.96 83.129-47.96-83.129-47.961-83.128 47.961z"/><path opacity=".4" d="M606.751 588.649l-89.413-51.672 89.413-51.672.857.571 88.556 51.101-89.413 51.672zm-83.128-51.672l83.128 47.961 83.129-47.961-83.129-47.961-83.128 47.961z"/><path opacity=".4" d="M692.737 638.324l-.857-.571-88.556-51.101 89.413-51.672.857.571 88.556 51.101-89.413 51.672zm-82.843-51.387l83.129 47.961 83.128-47.961-83.128-47.961-83.129 47.961z"/><path opacity=".4" d="M779.009 688l-.857-.571-88.556-51.101 89.413-51.672.857.571 88.556 51.101L779.009 688zm-83.128-51.387l83.128 47.961 83.129-47.961-83.129-47.96-83.128 47.96zM89.413 389.673l-.857-.571L0 338.001l89.413-51.672 89.413 51.672-89.413 51.672zM6.285 338.001l83.128 47.961 83.128-47.961-83.128-47.961-83.128 47.961z"/><path opacity=".4" d="M175.682 439.347l-.857-.571-88.556-51.101 89.413-51.672.857.571 88.556 51.101-89.413 51.672zM92.554 387.96l83.128 47.961 83.128-47.961-83.128-47.961-83.128 47.961z"/><path opacity=".4" d="M261.671 489.024l-89.413-51.672 89.413-51.671.857.57 88.556 51.101-89.413 51.672zm-82.843-51.386l83.129 47.961 83.128-47.961-83.128-47.961-83.129 47.961z"/><path opacity=".4" d="M347.939 538.98l-89.413-51.672 89.413-51.672 89.413 51.672-89.413 51.672zm-82.843-51.672l83.128 47.96 83.129-47.96-83.414-47.961-82.843 47.961z"/><path opacity=".4" d="M434.208 588.649l-.857-.571-88.556-51.101 89.413-51.672.857.571 88.556 51.101-89.413 51.672zm-83.128-51.672l83.128 47.961 83.128-47.961-83.128-47.961-83.128 47.961z"/><path opacity=".4" d="M520.482 638.324l-.857-.571-88.556-51.101 89.413-51.672 89.413 51.672-89.413 51.672zm-83.128-51.387l83.128 47.961 83.129-47.961-83.129-47.961-83.128 47.961z"/><path opacity=".4" d="M606.751 688l-.857-.571-88.556-51.101 89.413-51.672.857.571 88.556 51.101L606.751 688zm-83.128-51.387l83.128 47.961 83.129-47.961-83.129-47.96-83.128 47.96zM89.413 489.024l-.857-.57L0 437.352l89.413-51.671.857.57 88.556 51.101-89.413 51.672zM6.285 437.638l83.128 47.961 83.128-47.961-83.128-47.961-83.128 47.961z"/><path opacity=".4" d="M175.682 538.98l-.857-.571-88.556-51.101 89.413-51.672 89.413 51.672-89.413 51.672zm-83.128-51.672l83.128 47.96 83.128-47.96-83.128-47.961-83.128 47.961z"/><path opacity=".4" d="M261.671 588.649l-89.413-51.672 89.413-51.672 89.413 51.672-89.413 51.672zm-82.843-51.672l83.129 47.961 83.128-47.961-83.128-47.961-83.129 47.961z"/><path opacity=".4" d="M347.939 638.324l-.857-.571-88.556-51.101 89.413-51.672.857.571 88.556 51.101-89.413 51.672zm-82.843-51.387l83.128 47.961 83.129-47.961-83.414-47.961-82.843 47.961z"/><path opacity=".4" d="M434.208 688l-.857-.571-88.556-51.101 89.413-51.672.857.571 88.556 51.101L434.208 688zm-83.128-51.387l83.128 47.961 83.128-47.961-83.128-47.96-83.128 47.96zM89.413 588.649l-.857-.571L0 536.977l89.413-51.672.857.571 88.556 51.101-89.413 51.672zM6.285 536.977l83.128 47.961 83.128-47.961-83.128-47.961-83.128 47.961z"/><path opacity=".4" d="M175.682 638.324l-.857-.571-88.556-51.101 89.413-51.672 89.413 51.672-89.413 51.672zm-83.128-51.672l83.128 47.96 83.128-47.96-83.128-47.961-83.128 47.961z"/><path opacity=".4" d="M261.671 688l-89.128-51.387 89.413-51.672.857.571 88.556 51.101L261.671 688zm-82.843-51.387l83.128 47.961 83.129-47.961-83.129-47.961-83.128 47.961z"/><path opacity=".4" d="M89.413 688l-.857-.571L0 636.328l89.413-51.672.857.571 88.556 51.101L89.413 688zM6.285 636.613l83.128 47.961 83.128-47.961-83.128-47.96-83.128 47.96z"/></g></svg><svg fill="none" viewBox="0 0 40 40" id="ic_1" xmlns="http://www.w3.org/2000/svg"><path fill-rule="evenodd" clip-rule="evenodd" d="M17.333 13.333h5.334V8h-5.334v5.333zM28 32h5.333v-5.333H28V32zM6.666 32H12v-5.333H6.667V32zm4-8H8v-5.333h10.666V16h2.667v2.667H32V24h-2.667v-2.667H10.667V24z" fill="#007CFF"/></svg><svg fill="none" viewBox="0 0 40 40" id="ic_2" xmlns="http://www.w3.org/2000/svg"><path fill-rule="evenodd" clip-rule="evenodd" d="M30.666 21.333h-5.333V16h4c.736 0 1.334.597 1.334 1.333v4zm0 5.334h-1.038a3.971 3.971 0 00-2.962-1.334c-.47 0-.914.096-1.333.246V24h5.334v2.667zm-4 4a1.336 1.336 0 01-1.333-1.334c0-.734.599-1.333 1.334-1.333.734 0 1.333.599 1.333 1.333 0 .735-.599 1.334-1.334 1.334zm-4-17.334v13.334h-3.354c-.595-2.296-2.663-4-5.146-4a5.28 5.28 0 00-3.716 1.522c-.415.408-1.117.099-1.117-.484V10.667c0-.736.598-1.334 1.333-1.334h10.667c.736 0 1.334.598 1.334 1.334v2.666zm-6.204 16a2.658 2.658 0 01-2.296 1.334c-.982 0-1.833-.54-2.296-1.334A2.637 2.637 0 0111.5 28c0-.488.141-.94.37-1.333a2.658 2.658 0 012.296-1.334c.983 0 1.834.54 2.296 1.334.23.393.371.845.371 1.333s-.141.94-.37 1.333zm14.204-16h-5.333v-4a2.666 2.666 0 00-2.666-2.666H9.332a2.666 2.666 0 00-2.667 2.666V26.98c0 1.3 1.055 2.354 2.355 2.354.596 2.296 2.663 4 5.145 4 2.483 0 4.55-1.704 5.146-4h3.354a4 4 0 108 0 2.666 2.666 0 002.667-2.666V16a2.666 2.666 0 00-2.666-2.667z" fill="#007CFF"/></svg><svg fill="none" viewBox="0 0 40 40" id="ic_3" xmlns="http://www.w3.org/2000/svg"><path fill-rule="evenodd" clip-rule="evenodd" d="M29.333 20v-4l1.333 4h-1.333zm0 10.667H10.666a1.334 1.334 0 01-1.333-1.334v-6.666h4c.736 0 1.333.597 1.333 1.333v1.333A2.666 2.666 0 0017.333 28h5.333a2.666 2.666 0 002.667-2.667V24c0-.736.597-1.333 1.333-1.333h4v6.666c0 .736-.597 1.334-1.333 1.334zM10.666 16v4H9.333l1.333-4zm4-6.667h10.667c.736 0 1.333.598 1.333 1.334V20h-1.333a2.666 2.666 0 00-2.667 2.667V24c0 .736-.597 1.333-1.333 1.333h-2.667A1.334 1.334 0 0117.333 24v-1.333A2.666 2.666 0 0014.666 20h-1.333v-9.333c0-.736.597-1.334 1.333-1.334zm16 2.667h-1.333V9.333a2.666 2.666 0 00-2.666-2.666H13.332a2.666 2.666 0 00-2.667 2.666V12H9.333l-2.667 8v10.667a2.666 2.666 0 002.667 2.666h21.333a2.666 2.666 0 002.667-2.666V20l-2.666-8z" fill="#007CFF"/></svg><svg fill="none" viewBox="0 0 40 40" id="ic_4" xmlns="http://www.w3.org/2000/svg"><path fill-rule="evenodd" clip-rule="evenodd" d="M32.948 31.062a1.332 1.332 0 11-1.885 1.885l-3.813-3.813c.85-.375 1.672-.815 2.456-1.315l3.242 3.243zm-22.65-3.247c.785.5 1.605.94 2.457 1.316l-3.812 3.811a1.332 1.332 0 01-1.885 0 1.332 1.332 0 010-1.885l3.24-3.242zM7.064 8.947a1.332 1.332 0 010-1.885 1.332 1.332 0 011.885 0l4.221 4.221a18.2 18.2 0 00-2.501 1.27L7.063 8.947zm22.273 3.602a18.286 18.286 0 00-2.502-1.268l4.224-4.224a1.334 1.334 0 011.885 1.885l-3.607 3.607zm-6.664 7.75a2.668 2.668 0 11-5.335-.002 2.668 2.668 0 015.335.002zm-2.666 5.039c-3.986 0-7.74-1.897-10.135-5.039 2.395-3.142 6.15-5.04 10.135-5.04 3.985 0 7.74 1.898 10.134 5.04-2.394 3.142-6.15 5.039-10.134 5.039zm13.333-5.039c-2.667-4.602-7.632-7.706-13.334-7.706-5.701 0-10.668 3.104-13.333 7.706 2.665 4.602 7.632 7.706 13.333 7.706 5.702 0 10.667-3.104 13.334-7.706z" fill="#007CFF"/></svg><svg fill="none" viewBox="0 0 40 40" id="ic_5" xmlns="http://www.w3.org/2000/svg"><path fill-rule="evenodd" clip-rule="evenodd" d="M23.556 17.778h7.11v-7.111h-7.11v7.11zm-14.223 0h7.112v-7.111H9.334v7.11zm17.778 3.555h3.556v7.111H9.333v-7.11h3.556v3.555h14.222v-3.556z" fill="#007CFF"/></svg><svg fill="none" viewBox="0 0 86 28" id="inn_logo" xmlns="http://www.w3.org/2000/svg"><path d="M34.36 9.382h2.57v13.724h-2.57V9.382zM39.265 18.137c0-2.714 2.111-4.969 4.925-4.969 2.815 0 4.889 2.217 4.889 4.969 0 2.714-2.111 4.969-4.926 4.969-2.814 0-4.888-2.217-4.888-4.97zm7.703 0c0-1.682-1.185-3.058-2.815-3.058-1.703 0-2.777 1.376-2.777 3.058 0 1.643 1.185 3.058 2.814 3.058 1.704 0 2.778-1.376 2.778-3.058zM51.394 25.682l.783-1.794c.97.668 2.05 1.085 3.318 1.085 1.9 0 2.944-1.085 2.944-3.17v-.793c-.783 1.126-1.752 1.919-3.28 1.919-2.162 0-4.212-1.794-4.212-4.88 0-3.087 2.05-4.88 4.212-4.88 1.566 0 2.535.792 3.243 1.751v-1.543h2.125v8.217c0 1.752-.41 3.045-1.193 3.921-.858.96-2.162 1.377-3.802 1.377-1.528 0-2.945-.417-4.138-1.21zm7.045-7.675c0-1.71-1.23-2.878-2.72-2.878-1.492 0-2.647 1.126-2.647 2.878 0 1.71 1.192 2.878 2.646 2.878 1.491 0 2.721-1.168 2.721-2.878zM67.77 21.675l.974-1.508c1.051.773 2.18 1.199 3.193 1.199.973 0 1.519-.387 1.519-1.083s-.935-.967-1.986-1.276c-.04 0-.117-.039-.156-.039-1.441-.425-3.038-1.005-3.038-2.861 0-1.818 1.52-2.939 3.466-2.939 1.207 0 2.531.425 3.544 1.083l-.896 1.585c-.934-.58-1.947-.928-2.726-.928-.856 0-1.363.387-1.363 1.005 0 .658.935.967 1.986 1.276.04 0 .117.04.195.04 1.402.425 2.999 1.082 2.999 2.86 0 2.011-1.597 3.017-3.583 3.017-1.402 0-2.92-.503-4.128-1.43zM77.974 20.115v-5.294h-1.558v-1.98h1.558v-2.749h2.613v2.748h3.072v1.98h-3.072v4.931c0 .89.505 1.253 1.421 1.253.596 0 1.1-.12 1.605-.323v1.9c-.642.323-1.375.525-2.338.525-1.925-.04-3.3-.768-3.3-2.99zM63.33 13.168h2.571v9.938h-2.57v-9.938z" fill="#2A92FF"/><path d="M67.768 10.802l-2.7-4.408-.926 1.482C55.198 3.013 45.005.391 34.57.391A62.443 62.443 0 008.422 6.128c.363.38.645.836.846 1.33a61.032 61.032 0 0125.302-5.51c10.153 0 20.064 2.547 28.767 7.258l-.968 1.596h5.4zM8.656 13.363h2.08v1.52c.585-.935 1.424-1.715 2.848-1.715 2.045 0 3.25 1.481 3.25 3.741v6.158h-2.082v-5.495c0-1.52-.693-2.377-1.934-2.377-1.205 0-2.045.896-2.045 2.416v5.495h-2.08v-9.743h-.037zM18.936 13.363h2.14v1.52c.602-.935 1.465-1.715 2.93-1.715 2.103 0 3.342 1.481 3.342 3.741v6.158h-2.14v-5.495c0-1.52-.714-2.377-1.99-2.377-1.24 0-2.104.896-2.104 2.416v5.495h-2.14v-9.743h-.038zM29.917 20.74h2.337v2.366h-2.337V20.74zM3.983 13.168h2.57v9.938h-2.57v-9.938zM4.918 10.802c1.42 0 2.57-1.165 2.57-2.603 0-1.437-1.15-2.603-2.57-2.603S2.348 6.762 2.348 8.2c0 1.438 1.15 2.603 2.57 2.603z" fill="#00CF3E"/></svg><svg fill="none" viewBox="0 0 52 52" id="l2_ic1" xmlns="http://www.w3.org/2000/svg"><rect opacity=".1" width="52" height="52" rx="7" fill="#007CFF"/><path fill-rule="evenodd" clip-rule="evenodd" d="M32 27h2v-2h-2v2zm-1 2h.188A6.032 6.032 0 0129 31.188V31a1 1 0 00-1-1h-4a1 1 0 00-1 1v.188A6.032 6.032 0 0120.812 29H21a1 1 0 001-1v-4a1 1 0 00-1-1h-.188A6.024 6.024 0 0123 20.812V21a1 1 0 001 1h4a1 1 0 001-1v-.188c.907.526 1.662 1.188 2.188 2.188H31a1 1 0 00-1 1v4a1 1 0 001 1zm-6 5h2v-2h-2v2zm0-14h2v-2h-2v2zm-5 7h-2v-2h2v2zm15-4h-1.587A8.027 8.027 0 0029 18.587V17a1 1 0 00-1-1h-4a1 1 0 00-1 1v1.587A8.015 8.015 0 0018.587 23H17a1 1 0 00-1 1v4a1 1 0 001 1h1.587A8.02 8.02 0 0023 33.413V35a1 1 0 001 1h4a1 1 0 001-1v-1.587A8.02 8.02 0 0033.413 29H35a1 1 0 001-1v-4a1 1 0 00-1-1z" fill="#007CFF"/></svg><svg fill="none" viewBox="0 0 52 52" id="l2_ic2" xmlns="http://www.w3.org/2000/svg"><rect opacity=".1" width="52" height="52" rx="7" fill="#007CFF"/><path fill-rule="evenodd" clip-rule="evenodd" d="M29.688 28.563c0 .587-.476 1.063-1.063 1.063h-1.063v1.062a1.063 1.063 0 01-2.125 0v-1.063h-1.062a1.063 1.063 0 010-2.125h1.063v-1.062a1.063 1.063 0 012.125 0v1.063h1.062c.587 0 1.063.476 1.063 1.062zm3.187 4.25c0 .586-.571 1.062-1.275 1.062H21.4c-.704 0-1.275-.476-1.275-1.063v-8.5c0-.586.571-1.062 1.275-1.062h10.2c.704 0 1.275.476 1.275 1.063v8.5zM24.375 19c0-1.172.953-2.125 2.125-2.125 1.172 0 2.125 1.063 2.125 2.125v2.125h-4.25V19zm8.196 2.125h-1.214V19c0-2.387-2.745-4.775-5.872-4.149-2.305.463-3.842 2.387-3.842 4.455v1.82h-1.214c-1.342 0-2.429.95-2.429 2.124v10.625C18 35.049 19.087 36 20.429 36H32.57C33.913 36 35 35.05 35 33.875V23.25c0-1.174-1.087-2.125-2.429-2.125z" fill="#007CFF"/></svg><svg fill="none" viewBox="0 0 52 52" id="l2_ic3" xmlns="http://www.w3.org/2000/svg"><rect opacity=".1" width="52" height="52" rx="7" fill="#007CFF"/><path fill-rule="evenodd" clip-rule="evenodd" d="M26 24c-1.105 0-2 1-2 2 0 .231.058.461.153.68l-7.791 2.865 2.322 2.323L16 34.552 17.448 36l2.684-2.684 2.323 2.322 2.865-7.791c.219.095.449.153.68.153 1.105 0 2-1 2-2a2 2 0 00-2-2zm0-4v2c2.206 0 4 1.794 4 4h2a6 6 0 00-6-6zm10 6h-2c0-4.411-3.589-8-8-8v-2c5.523 0 10 4.477 10 10z" fill="#007CFF"/></svg><svg fill="none" viewBox="0 0 54 52" id="l3-1" xmlns="http://www.w3.org/2000/svg"><rect width="54" height="52" rx="7" fill="#E5F2FF"/><path fill-rule="evenodd" clip-rule="evenodd" d="M21 29v-9a1 1 0 011-1h10a1 1 0 011 1v9H21zm10 3a1 1 0 112 0 1 1 0 01-2 0zm-10 0a1 1 0 112 0 1 1 0 01-2 0zm16-6a1 1 0 00-1-1h-1v-6a2 2 0 00-2-2H21a2 2 0 00-2 2v6h-1a1 1 0 000 2h1v2a2 2 0 00-2 2v2a2 2 0 002 2v1a1 1 0 001 1h2a1 1 0 001-1v-1h8v1a1 1 0 001 1h2a1 1 0 001-1v-1a2 2 0 002-2v-2a2 2 0 00-2-2v-2h1a1 1 0 001-1z" fill="#007CFF"/></svg><svg fill="none" viewBox="0 0 54 52" id="l3-2" xmlns="http://www.w3.org/2000/svg"><rect width="54" height="52" rx="7" fill="#E5F2FF"/><path fill-rule="evenodd" clip-rule="evenodd" d="M36.006 26.003a.997.997 0 00-.993 1c0 .552.445 1 .993 1a.997.997 0 00.994-1c0-.552-.445-1-.994-1zm-7.95 7.998a.997.997 0 00-.993 1c0 .551.445.999.994.999a.997.997 0 00.994-1c0-.551-.446-1-.994-1zm3.976 0a.997.997 0 00-.994 1c0 .551.445.999.994.999a.997.997 0 00.993-1c0-.551-.445-1-.993-1zm3.974 0a.997.997 0 00-.993 1c0 .551.445.999.993.999A.997.997 0 0037 35c0-.551-.445-1-.994-1zm-15.899 0a.997.997 0 01-.993-1c0-.552-.446-1-.994-1h-.064c-.548 0-1.056.448-1.056 1v1h.063c0 1 .922 1.999 2.019 1.999h1.025a.997.997 0 00.994-1c0-.551-.445-1-.994-1zM18.12 18.006a.997.997 0 00.994-1c0-.552-.446-1-.994-1a.997.997 0 00-.994 1c0 .552.445 1 .994 1zm17.886 11.996a.997.997 0 00-.993 1c0 .551.445 1 .993 1a.997.997 0 00.994-1c0-.552-.445-1-.994-1zM22.095 16.006a.997.997 0 00-.994 1c0 .552.445 1 .994 1a.997.997 0 00.993-1c0-.552-.445-1-.993-1zm3.974 0a.997.997 0 00-.993 1c0 .552.445 1 .993 1a.997.997 0 00.994-1c0-.552-.445-1-.994-1zm-7.95 5.998a.997.997 0 00.995-1c0-.551-.446-.999-.994-.999a.997.997 0 00-.994 1c0 .552.445 1 .994 1zm0 7.998a.997.997 0 00.995-1c0-.552-.446-1-.994-1a.997.997 0 00-.994 1c0 .552.445 1 .994 1zM24.083 34a.997.997 0 00-.994 1c0 .551.445.999.994.999a.997.997 0 00.994-1c0-.551-.445-1-.994-1zm11.924-9.997c.549 0 .868-.448.868-1 0-.443.067-.995-.229-1.293L31.297 16.3c-.366-.368-.718-.293-1.253-.293-.548 0-1.12.448-1.12 1v4.998c0 1.104 1.016 2 2.114 2h4.968zm-18.88 1c0-.552.445-1 .994-1 .548 0 .994.448.994 1 0 .551-.446 1-.994 1a.997.997 0 01-.994-1z" fill="#007CFF"/></svg><svg fill="none" viewBox="0 0 54 52" id="l3-3" xmlns="http://www.w3.org/2000/svg"><rect width="54" height="52" rx="7" fill="#E5F2FF"/><path fill-rule="evenodd" clip-rule="evenodd" d="M27 34c-4.073 0-7.444-3-7.937-7h4.063c.444 2 2.01 3 3.874 3 1.864 0 3.43-1 3.874-3h4.063c-.493 4-3.864 7-7.937 7zm0-16c4.073 0 7.444 3 7.937 7h-4.063c-.444-2-2.01-3-3.874-3-1.864 0-3.43 1-3.874 3h-4.063c.493-4 3.864-7 7.937-7zm0-2c-5.523 0-10 4.477-10 10s4.477 10 10 10 10-4.477 10-10-4.477-10-10-10z" fill="#007CFF"/></svg><svg fill="none" viewBox="0 0 54 52" id="l3-4" xmlns="http://www.w3.org/2000/svg"><rect width="54" height="52" rx="7" fill="#E5F2FF"/><path fill-rule="evenodd" clip-rule="evenodd" d="M35 33a1 1 0 01-1 1H20a1 1 0 01-1-1V19a1 1 0 011-1h6a1 1 0 011 1v6a1 1 0 001 1h6a1 1 0 011 1v6zm-8-17h-9a1 1 0 00-1 1v18a1 1 0 001 1h18a1 1 0 001-1V17a1 1 0 00-1-1h-9z" fill="#007CFF"/></svg><svg fill="none" viewBox="0 0 54 52" id="l3-5" xmlns="http://www.w3.org/2000/svg"><rect width="54" height="52" rx="7" fill="#E5F2FF"/><path fill-rule="evenodd" clip-rule="evenodd" d="M31.8 31.1h-9.2v-6.9c0-3.066 2.3-4.6 4.599-4.6h.002c2.299 0 4.599 1.534 4.599 4.6v6.9zm-3.45 3.45a1.15 1.15 0 01-2.3 0V33.4h2.3v1.15zm6.9-3.45H34.1v-6.9c0-4.086-2.723-6.354-5.75-6.81V15h-2.3v2.39c-3.027.456-5.75 2.724-5.75 6.81v6.9h-1.15a1.15 1.15 0 000 2.3h4.6v1.15a3.45 3.45 0 106.9 0V33.4h4.6a1.15 1.15 0 000-2.3z" fill="#007CFF"/></svg><svg fill="none" viewBox="0 0 54 52" id="l3-6" xmlns="http://www.w3.org/2000/svg"><rect width="54" height="52" rx="7" fill="#E5F2FF"/><path fill-rule="evenodd" clip-rule="evenodd" d="M27 26a4.805 4.805 0 01-4.8-4.8c0-2.647 2.153-4.8 4.8-4.8s4.8 2.153 4.8 4.8S29.647 26 27 26zm4.51.808A7.18 7.18 0 0034.2 21.2 7.2 7.2 0 0027 14a7.2 7.2 0 00-7.2 7.2 7.18 7.18 0 002.69 5.608C18.1 28.458 15 32.534 15 38h2.4c0-6 4.307-9.6 9.6-9.6 5.293 0 9.6 3.6 9.6 9.6H39c0-5.466-3.1-9.542-7.49-11.192z" fill="#007CFF"/><path d="M31.51 26.808l-.157-.195-.341.274.41.155.088-.234zm-9.02 0l.088.234.41-.155-.34-.274-.158.195zM15 38h-.25v.25H15V38zm2.4 0v.25h.25V38h-.25zm19.2 0h-.25v.25h.25V38zm2.4 0v.25h.25V38H39zM27 25.75c-2.51 0-4.55-2.04-4.55-4.55h-.5A5.055 5.055 0 0027 26.25v-.5zm-4.55-4.55c0-2.51 2.04-4.55 4.55-4.55v-.5a5.055 5.055 0 00-5.05 5.05h.5zM27 16.65c2.51 0 4.55 2.04 4.55 4.55h.5A5.055 5.055 0 0027 16.15v.5zm4.55 4.55c0 2.51-2.04 4.55-4.55 4.55v.5a5.055 5.055 0 005.05-5.05h-.5zm.116 5.802A7.43 7.43 0 0034.45 21.2h-.5a6.93 6.93 0 01-2.597 5.413l.313.39zM34.45 21.2A7.45 7.45 0 0027 13.75v.5a6.95 6.95 0 016.95 6.95h.5zM27 13.75a7.45 7.45 0 00-7.45 7.45h.5A6.95 6.95 0 0127 14.25v-.5zm-7.45 7.45a7.43 7.43 0 002.784 5.802l.313-.39A6.93 6.93 0 0120.05 21.2h-.5zm2.852 5.374C17.915 28.26 14.75 32.43 14.75 38h.5c0-5.362 3.035-9.345 7.328-10.958l-.175-.468zM15 38.25h2.4v-.5H15v.5zm2.65-.25c0-2.937 1.052-5.27 2.737-6.869 1.687-1.6 4.023-2.481 6.613-2.481v-.5c-2.703 0-5.167.92-6.957 2.619-1.792 1.7-2.893 4.168-2.893 7.231h.5zM27 28.65c2.59 0 4.926.88 6.613 2.481 1.685 1.6 2.737 3.932 2.737 6.869h.5c0-3.063-1.101-5.53-2.893-7.231-1.79-1.7-4.254-2.619-6.957-2.619v.5zm9.6 9.6H39v-.5h-2.4v.5zm2.65-.25c0-5.57-3.164-9.74-7.652-11.426l-.176.468C35.715 28.655 38.75 32.638 38.75 38h.5z" fill="#E5F2FF"/></svg><svg fill="none" viewBox="0 0 676 518" id="land2_img" xmlns="http://www.w3.org/2000/svg"><path fill="#FAFBFD" d="M172 81h303v364H172z"/><g filter="url(#brfilter0_d)"><rect x="20" y="10" width="293" height="368" rx="10" fill="#fff"/></g><circle cx="61" cy="51" r="16" fill="#F2F1F6"/><rect x="103" y="43" width="108" height="5" rx="2.5" fill="#00CF3E"/><rect x="103" y="54" width="32" height="5" rx="2.5" fill="#F2F1F6"/><circle cx="61" cy="108" r="16" fill="#F2F1F6"/><rect x="103" y="100" width="158" height="5" rx="2.5" fill="#00CF3E"/><rect x="103" y="111" width="82" height="5" rx="2.5" fill="#F2F1F6"/><circle cx="61" cy="165" r="16" fill="#F2F1F6"/><rect x="103" y="157" width="57" height="5" rx="2.5" fill="#00CF3E"/><rect x="103" y="168" width="32" height="5" rx="2.5" fill="#F2F1F6"/><circle cx="61" cy="222" r="16" fill="#F2F1F6"/><rect x="103" y="214" width="69" height="5" rx="2.5" fill="#00CF3E"/><rect x="103" y="225" width="119" height="5" rx="2.5" fill="#F2F1F6"/><circle cx="61" cy="279" r="16" fill="#F2F1F6"/><rect x="103" y="271" width="95" height="5" rx="2.5" fill="#00CF3E"/><rect x="103" y="282" width="82" height="5" rx="2.5" fill="#F2F1F6"/><circle cx="61" cy="336" r="16" fill="#F2F1F6"/><rect x="103" y="328" width="170" height="5" rx="2.5" fill="#00CF3E"/><rect x="103" y="339" width="145" height="5" rx="2.5" fill="#F2F1F6"/><g filter="url(#brfilter1_d)"><rect x="363" y="120" width="293" height="368" rx="10" fill="#fff"/></g><path d="M436 166.5c0 12.979-10.521 23.5-23.5 23.5S389 179.479 389 166.5s10.521-23.5 23.5-23.5 23.5 10.521 23.5 23.5zm-43.475 0c0 11.032 8.943 19.975 19.975 19.975 11.032 0 19.975-8.943 19.975-19.975 0-11.032-8.943-19.975-19.975-19.975-11.032 0-19.975 8.943-19.975 19.975z" fill="#E5F2FF"/><mask id="bra" fill="#fff"><path d="M395.493 180.038c-.762.606-.892 1.72-.231 2.434a23.5 23.5 0 1017.802-39.465c-.973-.024-1.722.812-1.672 1.784.049.972.879 1.712 1.852 1.748a19.968 19.968 0 0115.753 8.698 19.974 19.974 0 01-30.968 25.032c-.671-.705-1.775-.837-2.536-.231z"/></mask><path d="M395.493 180.038c-.762.606-.892 1.72-.231 2.434a23.5 23.5 0 1017.802-39.465c-.973-.024-1.722.812-1.672 1.784.049.972.879 1.712 1.852 1.748a19.968 19.968 0 0115.753 8.698 19.974 19.974 0 01-30.968 25.032c-.671-.705-1.775-.837-2.536-.231z" fill="#C4C4C4" stroke="#00CF3E" stroke-width="4" mask="url(#bra)"/><circle cx="412" cy="166" r="4" fill="#E5F2FF"/><rect x="396" y="201" width="32" height="6" rx="3" fill="#E5F2FF"/><path d="M630 166.5c0 12.979-10.521 23.5-23.5 23.5S583 179.479 583 166.5s10.521-23.5 23.5-23.5 23.5 10.521 23.5 23.5zm-43.475 0c0 11.032 8.943 19.975 19.975 19.975 11.032 0 19.975-8.943 19.975-19.975 0-11.032-8.943-19.975-19.975-19.975-11.032 0-19.975 8.943-19.975 19.975z" fill="#E5F2FF"/><mask id="brb" fill="#fff"><path d="M618.366 184.713c.531.816 1.628 1.051 2.401.46a23.496 23.496 0 007.707-27.004 23.506 23.506 0 00-23.673-15.108c-.971.071-1.636.974-1.493 1.937.143.963 1.04 1.619 2.012 1.562a19.971 19.971 0 0119.858 12.859 19.978 19.978 0 01-6.342 22.791c-.765.602-1.002 1.688-.47 2.503z"/></mask><path d="M618.366 184.713c.531.816 1.628 1.051 2.401.46a23.496 23.496 0 007.707-27.004 23.506 23.506 0 00-23.673-15.108c-.971.071-1.636.974-1.493 1.937.143.963 1.04 1.619 2.012 1.562a19.971 19.971 0 0119.858 12.859 19.978 19.978 0 01-6.342 22.791c-.765.602-1.002 1.688-.47 2.503z" fill="#C4C4C4" stroke="#007CFF" stroke-width="4" mask="url(#brb)"/><circle cx="606" cy="166" r="4" fill="#E5F2FF"/><rect x="590" y="201" width="32" height="6" rx="3" fill="#E5F2FF"/><path d="M533 166.5c0 12.979-10.521 23.5-23.5 23.5S486 179.479 486 166.5s10.521-23.5 23.5-23.5 23.5 10.521 23.5 23.5zm-43.475 0c0 11.032 8.943 19.975 19.975 19.975 11.032 0 19.975-8.943 19.975-19.975 0-11.032-8.943-19.975-19.975-19.975-11.032 0-19.975 8.943-19.975 19.975z" fill="#E5F2FF"/><mask id="brc" fill="#fff"><path d="M523.826 150.151c.641-.732.571-1.852-.207-2.437a23.508 23.508 0 00-15.244-4.687c-.973.047-1.659.933-1.54 1.899.119.967 1 1.645 1.973 1.611a19.982 19.982 0 0112.481 3.838c.786.574 1.895.508 2.537-.224z"/></mask><path d="M523.826 150.151c.641-.732.571-1.852-.207-2.437a23.508 23.508 0 00-15.244-4.687c-.973.047-1.659.933-1.54 1.899.119.967 1 1.645 1.973 1.611a19.982 19.982 0 0112.481 3.838c.786.574 1.895.508 2.537-.224z" fill="#C4C4C4" stroke="#2C3345" stroke-width="4" mask="url(#brc)"/><circle cx="509" cy="166" r="4" fill="#E5F2FF"/><rect x="493" y="201" width="32" height="6" rx="3" fill="#E5F2FF"/><rect opacity=".5" x="393" y="277" width="6" height="187" rx="3" fill="#F2F1F6"/><rect x="393" y="277" width="6" height="33" rx="3" fill="#00CF3E"/><rect opacity=".5" x="431" y="385" width="6" height="79" rx="3" fill="#F2F1F6"/><rect x="431" y="385" width="6" height="33" rx="3" fill="#00CF3E"/><rect opacity=".5" x="469" y="352" width="6" height="112" rx="3" fill="#F2F1F6"/><rect x="469" y="352" width="6" height="33" rx="3" fill="#00CF3E"/><rect opacity=".5" x="507" y="277" width="6" height="187" rx="3" fill="#F2F1F6"/><rect x="507" y="277" width="6" height="33" rx="3" fill="#00CF3E"/><rect opacity=".5" x="545" y="277" width="6" height="187" rx="3" fill="#F2F1F6"/><rect x="545" y="277" width="6" height="33" rx="3" fill="#00CF3E"/><rect opacity=".5" x="583" y="322" width="6" height="142" rx="3" fill="#F2F1F6"/><rect x="583" y="322" width="6" height="33" rx="3" fill="#00CF3E"/><rect opacity=".5" x="621" y="297" width="6" height="167" rx="3" fill="#F2F1F6"/><rect x="621" y="297" width="6" height="33" rx="3" fill="#00CF3E"/><defs><filter id="brfilter0_d" x="0" y="0" width="333" height="408" filterUnits="userSpaceOnUse" color-interpolation-filters="sRGB"><feFlood flood-opacity="0" result="BackgroundImageFix"/><feColorMatrix in="SourceAlpha" values="0 0 0 0 0 0 0 0 0 0 0 0 0 0 0 0 0 0 127 0"/><feOffset dy="10"/><feGaussianBlur stdDeviation="10"/><feColorMatrix values="0 0 0 0 0 0 0 0 0 0 0 0 0 0 0 0 0 0 0.08 0"/><feBlend in2="BackgroundImageFix" result="effect1_dropShadow"/><feBlend in="SourceGraphic" in2="effect1_dropShadow" result="shape"/></filter><filter id="brfilter1_d" x="343" y="110" width="333" height="408" filterUnits="userSpaceOnUse" color-interpolation-filters="sRGB"><feFlood flood-opacity="0" result="BackgroundImageFix"/><feColorMatrix in="SourceAlpha" values="0 0 0 0 0 0 0 0 0 0 0 0 0 0 0 0 0 0 127 0"/><feOffset dy="10"/><feGaussianBlur stdDeviation="10"/><feColorMatrix values="0 0 0 0 0 0 0 0 0 0 0 0 0 0 0 0 0 0 0.08 0"/><feBlend in2="BackgroundImageFix" result="effect1_dropShadow"/><feBlend in="SourceGraphic" in2="effect1_dropShadow" result="shape"/></filter></defs></svg><svg fill="none" viewBox="0 0 30 30" id="lang" xmlns="http://www.w3.org/2000/svg"><path fill-rule="evenodd" clip-rule="evenodd" d="M17.311 22.665a15.065 15.065 0 002.196-6.662h3.423a8.02 8.02 0 01-5.619 6.662zm-2.306-.16a13.06 13.06 0 01-2.51-6.502h5.011a13.054 13.054 0 01-2.501 6.503zm-7.936-6.502h3.424a15.062 15.062 0 002.206 6.665 8.021 8.021 0 01-5.63-6.665zm5.219-8.524a15.066 15.066 0 00-1.821 6.523H7.069a8.017 8.017 0 015.219-6.523zm2.679-.482l.027-.036.026.036a13.052 13.052 0 012.512 7.005h-5.065c.136-2.476.97-4.913 2.5-7.005zm7.963 7.005h-3.398a15.075 15.075 0 00-1.833-6.528 8.016 8.016 0 015.231 6.528zm-7.075-8.965C9.942 4.535 5 9.2 5 15.002c0 5.437 4.335 9.84 9.71 9.994 5.677.164 10.29-4.4 10.29-9.994 0-5.162-3.932-9.52-9.145-9.965z" fill="#007CFF"/></svg><svg fill="none" viewBox="0 0 40 40" id="orders" xmlns="http://www.w3.org/2000/svg"><rect width="40" height="40" rx="7" fill="#FFF6E8"/><path fill-rule="evenodd" clip-rule="evenodd" d="M16 20h8v-2h-8v2zm0 4h8v-2h-8v2zm1-10h6v-4h-6v4zm13-4v20H10V10h5v2h-3v16h16V12h-3v-2h5z" fill="#FFB529"/></svg><svg fill="none" viewBox="0 0 44 44" id="play" xmlns="http://www.w3.org/2000/svg"><circle cx="22" cy="22" r="21.5" stroke="#00CF3E"/><path d="M32.813 22.372l-16.22 9.365v-18.73l16.22 9.365z" fill="#00CF3E"/></svg><svg fill="none" viewBox="0 0 40 40" id="profile" xmlns="http://www.w3.org/2000/svg"><rect opacity=".1" width="40" height="40" rx="7" fill="#007CFF"/><path fill-rule="evenodd" clip-rule="evenodd" d="M20 20.049c-2.206 0-4-1.794-4-4s1.794-4 4-4 4 1.794 4 4-1.794 4-4 4zm3.758.673A5.983 5.983 0 0026 16.049a6 6 0 10-9.758 4.673C12.583 22.097 10 25.494 10 30.049h2c0-5 3.589-8 8-8s8 3 8 8h2c0-4.555-2.583-7.952-6.242-9.327z" fill="#007CFF"/></svg><svg fill="none" viewBox="0 0 40 40" id="transport" xmlns="http://www.w3.org/2000/svg"><rect width="40" height="40" rx="7" fill="#FDECEA"/><path fill-rule="evenodd" clip-rule="evenodd" d="M14 22v-9a1 1 0 011-1h10a1 1 0 011 1v9H14zm10 3a1 1 0 112 0 1 1 0 01-2 0zm-10 0a1 1 0 112 0 1 1 0 01-2 0zm16-6a1 1 0 00-1-1h-1v-6a2 2 0 00-2-2H14a2 2 0 00-2 2v6h-1a1 1 0 000 2h1v2a2 2 0 00-2 2v2a2 2 0 002 2v1a1 1 0 001 1h2a1 1 0 001-1v-1h8v1a1 1 0 001 1h2a1 1 0 001-1v-1a2 2 0 002-2v-2a2 2 0 00-2-2v-2h1a1 1 0 001-1z" fill="#F65628"/></svg></svg>