<?xml version="1.0" encoding="utf-8"?>
<!-- Generator: Adobe Illustrator 19.0.0, SVG Export Plug-In . SVG Version: 6.00 Build 0)  -->
<svg version="1.1" id="Слой_1" xmlns="http://www.w3.org/2000/svg" xmlns:xlink="http://www.w3.org/1999/xlink" x="0px" y="0px"
	 viewBox="0 0 50 50" style="enable-background:new 0 0 50 50;" xml:space="preserve">
<style type="text/css">
	.st0{fill:url(#XMLID_6_);}
	.st1{fill:url(#XMLID_7_);}
	.st2{fill:url(#SVGID_1_);}
</style>
<g>
	<linearGradient id="XMLID_6_" gradientUnits="userSpaceOnUse" x1="23.8292" y1="14.8748" x2="23.8292" y2="30.1242">
		<stop  offset="0" style="stop-color:#BFD3DF"/>
		<stop  offset="1" style="stop-color:#70ACCD"/>
	</linearGradient>
	<path id="XMLID_4_" class="st0" d="M5.8,24.2c0,0,6.1,3.9,17.4,5.4C33.6,31,41.9,29,41.9,29L21.7,14.9L5.8,24.2z"/>
	<linearGradient id="XMLID_7_" gradientUnits="userSpaceOnUse" x1="24.1979" y1="7.9372" x2="24.1979" y2="39.6782">
		<stop  offset="0" style="stop-color:#51ABDB"/>
		<stop  offset="1" style="stop-color:#4593BC"/>
	</linearGradient>
	<circle id="XMLID_3_" class="st1" cx="24.2" cy="23.8" r="15.9"/>
	<linearGradient id="SVGID_1_" gradientUnits="userSpaceOnUse" x1="24.1979" y1="6.8876" x2="24.1979" y2="42.2618">
		<stop  offset="0" style="stop-color:#D4EAF6"/>
		<stop  offset="1" style="stop-color:#7DC0E4"/>
	</linearGradient>
	<path class="st2" d="M39.8,13.9c1.8,2.9,2.9,6.3,2.9,9.9c0,1.8-0.3,3.5-0.7,5.2c-5.9-1.2-11.8-2.8-17.8-4.3
		c-5.8-1.4-12.6-2.4-18.4-0.5c0-0.1,0-0.3,0-0.4c0-7.6,4.6-14.1,11.1-16.9c3.1,1.8,6.7,3.7,9.8,4.7C30.3,12.8,35.1,13.4,39.8,13.9z
		 M30.1,29c-7-1.8-16.7-4.9-24.1-2.1c1.5,8.7,9.1,15.4,18.2,15.4c7.4,0,13.8-4.4,16.7-10.7C37.3,30.8,33.7,29.9,30.1,29z"/>
</g>
</svg>
